M48
INCH,LZ
T1C0.032
T2C0.035
T3C0.039
T4C0.079
T5C0.120
%
G90
G05
T1
X02328Y-031181
X02328Y-032181
X02328Y-033181
X02328Y-034181
X02328Y-035181
X02328Y-036181
X02328Y-037181
X02628Y-031181
X02628Y-032181
X02628Y-033181
X02628Y-034181
X02628Y-035181
X02628Y-036181
X02628Y-037181
X026874Y-025165
X026874Y-028165
X027874Y-025165
X027874Y-028165
X028874Y-025165
X028874Y-028165
X029874Y-025165
X029874Y-028165
T2
X019626Y-012717
X019626Y-013717
X019626Y-021417
X019626Y-022417
X019634Y-053614
X019634Y-054614
X019642Y-045669
X019642Y-046669
X01972Y-03015
X01972Y-03115
X01972Y-037909
X01972Y-038909
X033405Y-012764
X033405Y-013764
X033405Y-039366
X033405Y-040366
X033701Y-022138
X033701Y-023138
X033701Y-031378
X033701Y-032378
T3
X023976Y-046618
X023976Y-052618
X024976Y-046618
X024976Y-052618
X025976Y-046618
X025976Y-052618
X026976Y-046618
X026976Y-052618
X027976Y-046618
X027976Y-052618
X028976Y-046618
X028976Y-052618
X029976Y-046618
X029976Y-052618
X030976Y-046618
X030976Y-052618
X031976Y-046618
X031976Y-052618
X032976Y-046618
X032976Y-052618
X033976Y-046618
X033976Y-052618
X034976Y-046618
X034976Y-052618
X035976Y-046618
X035976Y-052618
X036976Y-046618
X036976Y-052618
X037976Y-046618
X037976Y-052618
T4
X017626Y-010717
X017626Y-014717
X017626Y-019417
X017626Y-023417
X017634Y-051614
X017634Y-055614
X017642Y-043669
X017642Y-047669
X01772Y-02815
X01772Y-03215
X01772Y-035909
X01772Y-039909
X035405Y-011764
X035405Y-015764
X035405Y-038366
X035405Y-042366
X035701Y-021138
X035701Y-025138
X035701Y-030378
X035701Y-034378
T5
X016508Y-008323
X016543Y-05865
X03635Y-055327
X036736Y-009197
T0
M30
