M48
; DRILL file {KiCad (5.1.4)-1} date 09/21/20 14:40:58
; FORMAT={-:-/ absolute / metric / decimal}
; #@! TF.CreationDate,2020-09-21T14:40:58+02:00
; #@! TF.GenerationSoftware,Kicad,Pcbnew,(5.1.4)-1
; #@! TF.FileFunction,Plated,1,2,PTH
FMAT,2
METRIC
T1C0.635
T2C0.800
T3C1.000
T4C1.520
T5C3.048
%
G90
G05
T1
X64.0Y-92.0
X68.0Y-91.5
X70.5Y-117.5
X70.5Y-123.5
X73.5Y-133.0
X77.6Y-114.8
T2
X54.82Y-129.1
X54.82Y-144.34
X57.36Y-129.1
X57.36Y-144.34
X59.9Y-129.1
X59.9Y-144.34
X62.44Y-129.1
X62.44Y-144.34
X64.98Y-129.1
X64.98Y-144.34
X67.52Y-129.1
X67.52Y-144.34
X70.06Y-129.1
X70.06Y-144.34
X72.6Y-129.1
X72.6Y-144.34
X75.14Y-129.1
X75.14Y-144.34
X77.68Y-129.1
X77.68Y-144.34
X80.22Y-129.1
X80.22Y-144.34
X82.76Y-129.1
X82.76Y-144.34
X85.3Y-129.1
X85.3Y-144.34
X87.84Y-129.1
X87.84Y-144.34
X90.38Y-129.1
X90.38Y-144.34
T4
X54.5Y-104.52
X54.5Y-109.6
X54.5Y-114.68
X54.5Y-119.76
X54.5Y-81.66
X54.5Y-86.74
X54.5Y-91.82
X54.5Y-96.9
X89.9Y-36.7
X89.9Y-41.78
X89.9Y-46.86
X89.9Y-51.94
X89.8Y-104.5
X89.8Y-109.58
X89.8Y-114.66
X89.8Y-119.74
X54.7Y-59.36
X54.7Y-64.44
X54.7Y-69.52
X54.7Y-74.6
X89.8Y-81.8
X89.8Y-86.88
X89.8Y-91.96
X89.8Y-97.04
X89.9Y-59.36
X89.9Y-64.44
X89.9Y-69.52
X89.9Y-74.6
X54.5Y-36.66
X54.5Y-41.74
X54.5Y-46.82
X54.5Y-51.9
T5
X92.0Y-29.4
X52.0Y-29.4
X52.0Y-164.0
X92.0Y-164.0
T3
G00X82.9Y-156.0
M15
G01X82.9Y-154.0
M16
G05
G00X86.9Y-150.3
M15
G01X84.9Y-150.3
M16
G05
G00X88.9Y-156.0
M15
G01X88.9Y-154.0
M16
G05
T0
M30
