G04 #@! TF.GenerationSoftware,KiCad,Pcbnew,(5.1.4)-1*
G04 #@! TF.CreationDate,2020-09-21T14:40:53+02:00*
G04 #@! TF.ProjectId,triggerbox,74726967-6765-4726-926f-782e6b696361,rev?*
G04 #@! TF.SameCoordinates,Original*
G04 #@! TF.FileFunction,Soldermask,Bot*
G04 #@! TF.FilePolarity,Negative*
%FSLAX46Y46*%
G04 Gerber Fmt 4.6, Leading zero omitted, Abs format (unit mm)*
G04 Created by KiCad (PCBNEW (5.1.4)-1) date 2020-09-21 14:40:53*
%MOMM*%
%LPD*%
G04 APERTURE LIST*
%ADD10C,0.150000*%
G04 APERTURE END LIST*
D10*
G36*
X92666801Y-161801849D02*
G01*
X93082825Y-161974172D01*
X93082827Y-161974173D01*
X93457240Y-162224348D01*
X93775652Y-162542760D01*
X94025827Y-162917173D01*
X94025828Y-162917175D01*
X94198151Y-163333199D01*
X94286000Y-163774847D01*
X94286000Y-164225153D01*
X94198151Y-164666801D01*
X94025828Y-165082825D01*
X94025827Y-165082827D01*
X93775652Y-165457240D01*
X93457240Y-165775652D01*
X93082827Y-166025827D01*
X93082826Y-166025828D01*
X93082825Y-166025828D01*
X92666801Y-166198151D01*
X92225153Y-166286000D01*
X91774847Y-166286000D01*
X91333199Y-166198151D01*
X90917175Y-166025828D01*
X90917174Y-166025828D01*
X90917173Y-166025827D01*
X90542760Y-165775652D01*
X90224348Y-165457240D01*
X89974173Y-165082827D01*
X89974172Y-165082825D01*
X89801849Y-164666801D01*
X89714000Y-164225153D01*
X89714000Y-163774847D01*
X89801849Y-163333199D01*
X89974172Y-162917175D01*
X89974173Y-162917173D01*
X90224348Y-162542760D01*
X90542760Y-162224348D01*
X90917173Y-161974173D01*
X90917175Y-161974172D01*
X91333199Y-161801849D01*
X91774847Y-161714000D01*
X92225153Y-161714000D01*
X92666801Y-161801849D01*
X92666801Y-161801849D01*
G37*
G36*
X52666801Y-161801849D02*
G01*
X53082825Y-161974172D01*
X53082827Y-161974173D01*
X53457240Y-162224348D01*
X53775652Y-162542760D01*
X54025827Y-162917173D01*
X54025828Y-162917175D01*
X54198151Y-163333199D01*
X54286000Y-163774847D01*
X54286000Y-164225153D01*
X54198151Y-164666801D01*
X54025828Y-165082825D01*
X54025827Y-165082827D01*
X53775652Y-165457240D01*
X53457240Y-165775652D01*
X53082827Y-166025827D01*
X53082826Y-166025828D01*
X53082825Y-166025828D01*
X52666801Y-166198151D01*
X52225153Y-166286000D01*
X51774847Y-166286000D01*
X51333199Y-166198151D01*
X50917175Y-166025828D01*
X50917174Y-166025828D01*
X50917173Y-166025827D01*
X50542760Y-165775652D01*
X50224348Y-165457240D01*
X49974173Y-165082827D01*
X49974172Y-165082825D01*
X49801849Y-164666801D01*
X49714000Y-164225153D01*
X49714000Y-163774847D01*
X49801849Y-163333199D01*
X49974172Y-162917175D01*
X49974173Y-162917173D01*
X50224348Y-162542760D01*
X50542760Y-162224348D01*
X50917173Y-161974173D01*
X50917175Y-161974172D01*
X51333199Y-161801849D01*
X51774847Y-161714000D01*
X52225153Y-161714000D01*
X52666801Y-161801849D01*
X52666801Y-161801849D01*
G37*
G36*
X89998281Y-153012243D02*
G01*
X90150967Y-153058560D01*
X90291675Y-153133770D01*
X90415011Y-153234989D01*
X90516230Y-153358325D01*
X90591440Y-153499033D01*
X90637757Y-153651719D01*
X90654000Y-153816640D01*
X90654000Y-156183360D01*
X90637757Y-156348281D01*
X90591440Y-156500967D01*
X90516230Y-156641675D01*
X90415011Y-156765011D01*
X90291675Y-156866230D01*
X90150967Y-156941440D01*
X89998281Y-156987757D01*
X89833360Y-157004000D01*
X87966640Y-157004000D01*
X87801719Y-156987757D01*
X87649033Y-156941440D01*
X87508325Y-156866230D01*
X87384989Y-156765011D01*
X87283770Y-156641675D01*
X87208560Y-156500967D01*
X87162243Y-156348281D01*
X87146000Y-156183360D01*
X87146000Y-153816640D01*
X87162243Y-153651719D01*
X87208560Y-153499033D01*
X87283770Y-153358325D01*
X87384989Y-153234989D01*
X87508325Y-153133770D01*
X87649033Y-153058560D01*
X87801719Y-153012243D01*
X87966640Y-152996000D01*
X89833360Y-152996000D01*
X89998281Y-153012243D01*
X89998281Y-153012243D01*
G37*
G36*
X84904000Y-157004000D02*
G01*
X80896000Y-157004000D01*
X80896000Y-152996000D01*
X84904000Y-152996000D01*
X84904000Y-157004000D01*
X84904000Y-157004000D01*
G37*
G36*
X87147667Y-148314645D02*
G01*
X87323803Y-148368075D01*
X87486121Y-148454836D01*
X87628399Y-148571601D01*
X87745164Y-148713879D01*
X87831925Y-148876197D01*
X87885355Y-149052333D01*
X87904000Y-149241640D01*
X87904000Y-151358360D01*
X87885355Y-151547667D01*
X87831925Y-151723803D01*
X87745164Y-151886121D01*
X87628399Y-152028399D01*
X87486121Y-152145164D01*
X87323803Y-152231925D01*
X87147667Y-152285355D01*
X86958360Y-152304000D01*
X84841640Y-152304000D01*
X84652333Y-152285355D01*
X84476197Y-152231925D01*
X84313879Y-152145164D01*
X84171601Y-152028399D01*
X84054836Y-151886121D01*
X83968075Y-151723803D01*
X83914645Y-151547667D01*
X83896000Y-151358360D01*
X83896000Y-149241640D01*
X83914645Y-149052333D01*
X83968075Y-148876197D01*
X84054836Y-148713879D01*
X84171601Y-148571601D01*
X84313879Y-148454836D01*
X84476197Y-148368075D01*
X84652333Y-148314645D01*
X84841640Y-148296000D01*
X86958360Y-148296000D01*
X87147667Y-148314645D01*
X87147667Y-148314645D01*
G37*
G36*
X72703388Y-143291084D02*
G01*
X72806620Y-143301251D01*
X73005300Y-143361520D01*
X73005303Y-143361521D01*
X73188403Y-143459390D01*
X73348897Y-143591103D01*
X73480610Y-143751597D01*
X73578479Y-143934697D01*
X73578480Y-143934700D01*
X73638749Y-144133380D01*
X73659099Y-144340000D01*
X73638749Y-144546620D01*
X73578480Y-144745300D01*
X73578479Y-144745303D01*
X73480610Y-144928403D01*
X73348897Y-145088897D01*
X73188403Y-145220610D01*
X73005303Y-145318479D01*
X73005300Y-145318480D01*
X72806620Y-145378749D01*
X72703388Y-145388916D01*
X72651773Y-145394000D01*
X72548227Y-145394000D01*
X72496612Y-145388916D01*
X72393380Y-145378749D01*
X72194700Y-145318480D01*
X72194697Y-145318479D01*
X72011597Y-145220610D01*
X71851103Y-145088897D01*
X71719390Y-144928403D01*
X71621521Y-144745303D01*
X71621520Y-144745300D01*
X71561251Y-144546620D01*
X71540901Y-144340000D01*
X71561251Y-144133380D01*
X71621520Y-143934700D01*
X71621521Y-143934697D01*
X71719390Y-143751597D01*
X71851103Y-143591103D01*
X72011597Y-143459390D01*
X72194697Y-143361521D01*
X72194700Y-143361520D01*
X72393380Y-143301251D01*
X72496612Y-143291084D01*
X72548227Y-143286000D01*
X72651773Y-143286000D01*
X72703388Y-143291084D01*
X72703388Y-143291084D01*
G37*
G36*
X90483388Y-143291084D02*
G01*
X90586620Y-143301251D01*
X90785300Y-143361520D01*
X90785303Y-143361521D01*
X90968403Y-143459390D01*
X91128897Y-143591103D01*
X91260610Y-143751597D01*
X91358479Y-143934697D01*
X91358480Y-143934700D01*
X91418749Y-144133380D01*
X91439099Y-144340000D01*
X91418749Y-144546620D01*
X91358480Y-144745300D01*
X91358479Y-144745303D01*
X91260610Y-144928403D01*
X91128897Y-145088897D01*
X90968403Y-145220610D01*
X90785303Y-145318479D01*
X90785300Y-145318480D01*
X90586620Y-145378749D01*
X90483388Y-145388916D01*
X90431773Y-145394000D01*
X90328227Y-145394000D01*
X90276612Y-145388916D01*
X90173380Y-145378749D01*
X89974700Y-145318480D01*
X89974697Y-145318479D01*
X89791597Y-145220610D01*
X89631103Y-145088897D01*
X89499390Y-144928403D01*
X89401521Y-144745303D01*
X89401520Y-144745300D01*
X89341251Y-144546620D01*
X89320901Y-144340000D01*
X89341251Y-144133380D01*
X89401520Y-143934700D01*
X89401521Y-143934697D01*
X89499390Y-143751597D01*
X89631103Y-143591103D01*
X89791597Y-143459390D01*
X89974697Y-143361521D01*
X89974700Y-143361520D01*
X90173380Y-143301251D01*
X90276612Y-143291084D01*
X90328227Y-143286000D01*
X90431773Y-143286000D01*
X90483388Y-143291084D01*
X90483388Y-143291084D01*
G37*
G36*
X87943388Y-143291084D02*
G01*
X88046620Y-143301251D01*
X88245300Y-143361520D01*
X88245303Y-143361521D01*
X88428403Y-143459390D01*
X88588897Y-143591103D01*
X88720610Y-143751597D01*
X88818479Y-143934697D01*
X88818480Y-143934700D01*
X88878749Y-144133380D01*
X88899099Y-144340000D01*
X88878749Y-144546620D01*
X88818480Y-144745300D01*
X88818479Y-144745303D01*
X88720610Y-144928403D01*
X88588897Y-145088897D01*
X88428403Y-145220610D01*
X88245303Y-145318479D01*
X88245300Y-145318480D01*
X88046620Y-145378749D01*
X87943388Y-145388916D01*
X87891773Y-145394000D01*
X87788227Y-145394000D01*
X87736612Y-145388916D01*
X87633380Y-145378749D01*
X87434700Y-145318480D01*
X87434697Y-145318479D01*
X87251597Y-145220610D01*
X87091103Y-145088897D01*
X86959390Y-144928403D01*
X86861521Y-144745303D01*
X86861520Y-144745300D01*
X86801251Y-144546620D01*
X86780901Y-144340000D01*
X86801251Y-144133380D01*
X86861520Y-143934700D01*
X86861521Y-143934697D01*
X86959390Y-143751597D01*
X87091103Y-143591103D01*
X87251597Y-143459390D01*
X87434697Y-143361521D01*
X87434700Y-143361520D01*
X87633380Y-143301251D01*
X87736612Y-143291084D01*
X87788227Y-143286000D01*
X87891773Y-143286000D01*
X87943388Y-143291084D01*
X87943388Y-143291084D01*
G37*
G36*
X85403388Y-143291084D02*
G01*
X85506620Y-143301251D01*
X85705300Y-143361520D01*
X85705303Y-143361521D01*
X85888403Y-143459390D01*
X86048897Y-143591103D01*
X86180610Y-143751597D01*
X86278479Y-143934697D01*
X86278480Y-143934700D01*
X86338749Y-144133380D01*
X86359099Y-144340000D01*
X86338749Y-144546620D01*
X86278480Y-144745300D01*
X86278479Y-144745303D01*
X86180610Y-144928403D01*
X86048897Y-145088897D01*
X85888403Y-145220610D01*
X85705303Y-145318479D01*
X85705300Y-145318480D01*
X85506620Y-145378749D01*
X85403388Y-145388916D01*
X85351773Y-145394000D01*
X85248227Y-145394000D01*
X85196612Y-145388916D01*
X85093380Y-145378749D01*
X84894700Y-145318480D01*
X84894697Y-145318479D01*
X84711597Y-145220610D01*
X84551103Y-145088897D01*
X84419390Y-144928403D01*
X84321521Y-144745303D01*
X84321520Y-144745300D01*
X84261251Y-144546620D01*
X84240901Y-144340000D01*
X84261251Y-144133380D01*
X84321520Y-143934700D01*
X84321521Y-143934697D01*
X84419390Y-143751597D01*
X84551103Y-143591103D01*
X84711597Y-143459390D01*
X84894697Y-143361521D01*
X84894700Y-143361520D01*
X85093380Y-143301251D01*
X85196612Y-143291084D01*
X85248227Y-143286000D01*
X85351773Y-143286000D01*
X85403388Y-143291084D01*
X85403388Y-143291084D01*
G37*
G36*
X82863388Y-143291084D02*
G01*
X82966620Y-143301251D01*
X83165300Y-143361520D01*
X83165303Y-143361521D01*
X83348403Y-143459390D01*
X83508897Y-143591103D01*
X83640610Y-143751597D01*
X83738479Y-143934697D01*
X83738480Y-143934700D01*
X83798749Y-144133380D01*
X83819099Y-144340000D01*
X83798749Y-144546620D01*
X83738480Y-144745300D01*
X83738479Y-144745303D01*
X83640610Y-144928403D01*
X83508897Y-145088897D01*
X83348403Y-145220610D01*
X83165303Y-145318479D01*
X83165300Y-145318480D01*
X82966620Y-145378749D01*
X82863388Y-145388916D01*
X82811773Y-145394000D01*
X82708227Y-145394000D01*
X82656612Y-145388916D01*
X82553380Y-145378749D01*
X82354700Y-145318480D01*
X82354697Y-145318479D01*
X82171597Y-145220610D01*
X82011103Y-145088897D01*
X81879390Y-144928403D01*
X81781521Y-144745303D01*
X81781520Y-144745300D01*
X81721251Y-144546620D01*
X81700901Y-144340000D01*
X81721251Y-144133380D01*
X81781520Y-143934700D01*
X81781521Y-143934697D01*
X81879390Y-143751597D01*
X82011103Y-143591103D01*
X82171597Y-143459390D01*
X82354697Y-143361521D01*
X82354700Y-143361520D01*
X82553380Y-143301251D01*
X82656612Y-143291084D01*
X82708227Y-143286000D01*
X82811773Y-143286000D01*
X82863388Y-143291084D01*
X82863388Y-143291084D01*
G37*
G36*
X77783388Y-143291084D02*
G01*
X77886620Y-143301251D01*
X78085300Y-143361520D01*
X78085303Y-143361521D01*
X78268403Y-143459390D01*
X78428897Y-143591103D01*
X78560610Y-143751597D01*
X78658479Y-143934697D01*
X78658480Y-143934700D01*
X78718749Y-144133380D01*
X78739099Y-144340000D01*
X78718749Y-144546620D01*
X78658480Y-144745300D01*
X78658479Y-144745303D01*
X78560610Y-144928403D01*
X78428897Y-145088897D01*
X78268403Y-145220610D01*
X78085303Y-145318479D01*
X78085300Y-145318480D01*
X77886620Y-145378749D01*
X77783388Y-145388916D01*
X77731773Y-145394000D01*
X77628227Y-145394000D01*
X77576612Y-145388916D01*
X77473380Y-145378749D01*
X77274700Y-145318480D01*
X77274697Y-145318479D01*
X77091597Y-145220610D01*
X76931103Y-145088897D01*
X76799390Y-144928403D01*
X76701521Y-144745303D01*
X76701520Y-144745300D01*
X76641251Y-144546620D01*
X76620901Y-144340000D01*
X76641251Y-144133380D01*
X76701520Y-143934700D01*
X76701521Y-143934697D01*
X76799390Y-143751597D01*
X76931103Y-143591103D01*
X77091597Y-143459390D01*
X77274697Y-143361521D01*
X77274700Y-143361520D01*
X77473380Y-143301251D01*
X77576612Y-143291084D01*
X77628227Y-143286000D01*
X77731773Y-143286000D01*
X77783388Y-143291084D01*
X77783388Y-143291084D01*
G37*
G36*
X75243388Y-143291084D02*
G01*
X75346620Y-143301251D01*
X75545300Y-143361520D01*
X75545303Y-143361521D01*
X75728403Y-143459390D01*
X75888897Y-143591103D01*
X76020610Y-143751597D01*
X76118479Y-143934697D01*
X76118480Y-143934700D01*
X76178749Y-144133380D01*
X76199099Y-144340000D01*
X76178749Y-144546620D01*
X76118480Y-144745300D01*
X76118479Y-144745303D01*
X76020610Y-144928403D01*
X75888897Y-145088897D01*
X75728403Y-145220610D01*
X75545303Y-145318479D01*
X75545300Y-145318480D01*
X75346620Y-145378749D01*
X75243388Y-145388916D01*
X75191773Y-145394000D01*
X75088227Y-145394000D01*
X75036612Y-145388916D01*
X74933380Y-145378749D01*
X74734700Y-145318480D01*
X74734697Y-145318479D01*
X74551597Y-145220610D01*
X74391103Y-145088897D01*
X74259390Y-144928403D01*
X74161521Y-144745303D01*
X74161520Y-144745300D01*
X74101251Y-144546620D01*
X74080901Y-144340000D01*
X74101251Y-144133380D01*
X74161520Y-143934700D01*
X74161521Y-143934697D01*
X74259390Y-143751597D01*
X74391103Y-143591103D01*
X74551597Y-143459390D01*
X74734697Y-143361521D01*
X74734700Y-143361520D01*
X74933380Y-143301251D01*
X75036612Y-143291084D01*
X75088227Y-143286000D01*
X75191773Y-143286000D01*
X75243388Y-143291084D01*
X75243388Y-143291084D01*
G37*
G36*
X70163388Y-143291084D02*
G01*
X70266620Y-143301251D01*
X70465300Y-143361520D01*
X70465303Y-143361521D01*
X70648403Y-143459390D01*
X70808897Y-143591103D01*
X70940610Y-143751597D01*
X71038479Y-143934697D01*
X71038480Y-143934700D01*
X71098749Y-144133380D01*
X71119099Y-144340000D01*
X71098749Y-144546620D01*
X71038480Y-144745300D01*
X71038479Y-144745303D01*
X70940610Y-144928403D01*
X70808897Y-145088897D01*
X70648403Y-145220610D01*
X70465303Y-145318479D01*
X70465300Y-145318480D01*
X70266620Y-145378749D01*
X70163388Y-145388916D01*
X70111773Y-145394000D01*
X70008227Y-145394000D01*
X69956612Y-145388916D01*
X69853380Y-145378749D01*
X69654700Y-145318480D01*
X69654697Y-145318479D01*
X69471597Y-145220610D01*
X69311103Y-145088897D01*
X69179390Y-144928403D01*
X69081521Y-144745303D01*
X69081520Y-144745300D01*
X69021251Y-144546620D01*
X69000901Y-144340000D01*
X69021251Y-144133380D01*
X69081520Y-143934700D01*
X69081521Y-143934697D01*
X69179390Y-143751597D01*
X69311103Y-143591103D01*
X69471597Y-143459390D01*
X69654697Y-143361521D01*
X69654700Y-143361520D01*
X69853380Y-143301251D01*
X69956612Y-143291084D01*
X70008227Y-143286000D01*
X70111773Y-143286000D01*
X70163388Y-143291084D01*
X70163388Y-143291084D01*
G37*
G36*
X67623388Y-143291084D02*
G01*
X67726620Y-143301251D01*
X67925300Y-143361520D01*
X67925303Y-143361521D01*
X68108403Y-143459390D01*
X68268897Y-143591103D01*
X68400610Y-143751597D01*
X68498479Y-143934697D01*
X68498480Y-143934700D01*
X68558749Y-144133380D01*
X68579099Y-144340000D01*
X68558749Y-144546620D01*
X68498480Y-144745300D01*
X68498479Y-144745303D01*
X68400610Y-144928403D01*
X68268897Y-145088897D01*
X68108403Y-145220610D01*
X67925303Y-145318479D01*
X67925300Y-145318480D01*
X67726620Y-145378749D01*
X67623388Y-145388916D01*
X67571773Y-145394000D01*
X67468227Y-145394000D01*
X67416612Y-145388916D01*
X67313380Y-145378749D01*
X67114700Y-145318480D01*
X67114697Y-145318479D01*
X66931597Y-145220610D01*
X66771103Y-145088897D01*
X66639390Y-144928403D01*
X66541521Y-144745303D01*
X66541520Y-144745300D01*
X66481251Y-144546620D01*
X66460901Y-144340000D01*
X66481251Y-144133380D01*
X66541520Y-143934700D01*
X66541521Y-143934697D01*
X66639390Y-143751597D01*
X66771103Y-143591103D01*
X66931597Y-143459390D01*
X67114697Y-143361521D01*
X67114700Y-143361520D01*
X67313380Y-143301251D01*
X67416612Y-143291084D01*
X67468227Y-143286000D01*
X67571773Y-143286000D01*
X67623388Y-143291084D01*
X67623388Y-143291084D01*
G37*
G36*
X65083388Y-143291084D02*
G01*
X65186620Y-143301251D01*
X65385300Y-143361520D01*
X65385303Y-143361521D01*
X65568403Y-143459390D01*
X65728897Y-143591103D01*
X65860610Y-143751597D01*
X65958479Y-143934697D01*
X65958480Y-143934700D01*
X66018749Y-144133380D01*
X66039099Y-144340000D01*
X66018749Y-144546620D01*
X65958480Y-144745300D01*
X65958479Y-144745303D01*
X65860610Y-144928403D01*
X65728897Y-145088897D01*
X65568403Y-145220610D01*
X65385303Y-145318479D01*
X65385300Y-145318480D01*
X65186620Y-145378749D01*
X65083388Y-145388916D01*
X65031773Y-145394000D01*
X64928227Y-145394000D01*
X64876612Y-145388916D01*
X64773380Y-145378749D01*
X64574700Y-145318480D01*
X64574697Y-145318479D01*
X64391597Y-145220610D01*
X64231103Y-145088897D01*
X64099390Y-144928403D01*
X64001521Y-144745303D01*
X64001520Y-144745300D01*
X63941251Y-144546620D01*
X63920901Y-144340000D01*
X63941251Y-144133380D01*
X64001520Y-143934700D01*
X64001521Y-143934697D01*
X64099390Y-143751597D01*
X64231103Y-143591103D01*
X64391597Y-143459390D01*
X64574697Y-143361521D01*
X64574700Y-143361520D01*
X64773380Y-143301251D01*
X64876612Y-143291084D01*
X64928227Y-143286000D01*
X65031773Y-143286000D01*
X65083388Y-143291084D01*
X65083388Y-143291084D01*
G37*
G36*
X62543388Y-143291084D02*
G01*
X62646620Y-143301251D01*
X62845300Y-143361520D01*
X62845303Y-143361521D01*
X63028403Y-143459390D01*
X63188897Y-143591103D01*
X63320610Y-143751597D01*
X63418479Y-143934697D01*
X63418480Y-143934700D01*
X63478749Y-144133380D01*
X63499099Y-144340000D01*
X63478749Y-144546620D01*
X63418480Y-144745300D01*
X63418479Y-144745303D01*
X63320610Y-144928403D01*
X63188897Y-145088897D01*
X63028403Y-145220610D01*
X62845303Y-145318479D01*
X62845300Y-145318480D01*
X62646620Y-145378749D01*
X62543388Y-145388916D01*
X62491773Y-145394000D01*
X62388227Y-145394000D01*
X62336612Y-145388916D01*
X62233380Y-145378749D01*
X62034700Y-145318480D01*
X62034697Y-145318479D01*
X61851597Y-145220610D01*
X61691103Y-145088897D01*
X61559390Y-144928403D01*
X61461521Y-144745303D01*
X61461520Y-144745300D01*
X61401251Y-144546620D01*
X61380901Y-144340000D01*
X61401251Y-144133380D01*
X61461520Y-143934700D01*
X61461521Y-143934697D01*
X61559390Y-143751597D01*
X61691103Y-143591103D01*
X61851597Y-143459390D01*
X62034697Y-143361521D01*
X62034700Y-143361520D01*
X62233380Y-143301251D01*
X62336612Y-143291084D01*
X62388227Y-143286000D01*
X62491773Y-143286000D01*
X62543388Y-143291084D01*
X62543388Y-143291084D01*
G37*
G36*
X80323388Y-143291084D02*
G01*
X80426620Y-143301251D01*
X80625300Y-143361520D01*
X80625303Y-143361521D01*
X80808403Y-143459390D01*
X80968897Y-143591103D01*
X81100610Y-143751597D01*
X81198479Y-143934697D01*
X81198480Y-143934700D01*
X81258749Y-144133380D01*
X81279099Y-144340000D01*
X81258749Y-144546620D01*
X81198480Y-144745300D01*
X81198479Y-144745303D01*
X81100610Y-144928403D01*
X80968897Y-145088897D01*
X80808403Y-145220610D01*
X80625303Y-145318479D01*
X80625300Y-145318480D01*
X80426620Y-145378749D01*
X80323388Y-145388916D01*
X80271773Y-145394000D01*
X80168227Y-145394000D01*
X80116612Y-145388916D01*
X80013380Y-145378749D01*
X79814700Y-145318480D01*
X79814697Y-145318479D01*
X79631597Y-145220610D01*
X79471103Y-145088897D01*
X79339390Y-144928403D01*
X79241521Y-144745303D01*
X79241520Y-144745300D01*
X79181251Y-144546620D01*
X79160901Y-144340000D01*
X79181251Y-144133380D01*
X79241520Y-143934700D01*
X79241521Y-143934697D01*
X79339390Y-143751597D01*
X79471103Y-143591103D01*
X79631597Y-143459390D01*
X79814697Y-143361521D01*
X79814700Y-143361520D01*
X80013380Y-143301251D01*
X80116612Y-143291084D01*
X80168227Y-143286000D01*
X80271773Y-143286000D01*
X80323388Y-143291084D01*
X80323388Y-143291084D01*
G37*
G36*
X57463388Y-143291084D02*
G01*
X57566620Y-143301251D01*
X57765300Y-143361520D01*
X57765303Y-143361521D01*
X57948403Y-143459390D01*
X58108897Y-143591103D01*
X58240610Y-143751597D01*
X58338479Y-143934697D01*
X58338480Y-143934700D01*
X58398749Y-144133380D01*
X58419099Y-144340000D01*
X58398749Y-144546620D01*
X58338480Y-144745300D01*
X58338479Y-144745303D01*
X58240610Y-144928403D01*
X58108897Y-145088897D01*
X57948403Y-145220610D01*
X57765303Y-145318479D01*
X57765300Y-145318480D01*
X57566620Y-145378749D01*
X57463388Y-145388916D01*
X57411773Y-145394000D01*
X57308227Y-145394000D01*
X57256612Y-145388916D01*
X57153380Y-145378749D01*
X56954700Y-145318480D01*
X56954697Y-145318479D01*
X56771597Y-145220610D01*
X56611103Y-145088897D01*
X56479390Y-144928403D01*
X56381521Y-144745303D01*
X56381520Y-144745300D01*
X56321251Y-144546620D01*
X56300901Y-144340000D01*
X56321251Y-144133380D01*
X56381520Y-143934700D01*
X56381521Y-143934697D01*
X56479390Y-143751597D01*
X56611103Y-143591103D01*
X56771597Y-143459390D01*
X56954697Y-143361521D01*
X56954700Y-143361520D01*
X57153380Y-143301251D01*
X57256612Y-143291084D01*
X57308227Y-143286000D01*
X57411773Y-143286000D01*
X57463388Y-143291084D01*
X57463388Y-143291084D01*
G37*
G36*
X60003388Y-143291084D02*
G01*
X60106620Y-143301251D01*
X60305300Y-143361520D01*
X60305303Y-143361521D01*
X60488403Y-143459390D01*
X60648897Y-143591103D01*
X60780610Y-143751597D01*
X60878479Y-143934697D01*
X60878480Y-143934700D01*
X60938749Y-144133380D01*
X60959099Y-144340000D01*
X60938749Y-144546620D01*
X60878480Y-144745300D01*
X60878479Y-144745303D01*
X60780610Y-144928403D01*
X60648897Y-145088897D01*
X60488403Y-145220610D01*
X60305303Y-145318479D01*
X60305300Y-145318480D01*
X60106620Y-145378749D01*
X60003388Y-145388916D01*
X59951773Y-145394000D01*
X59848227Y-145394000D01*
X59796612Y-145388916D01*
X59693380Y-145378749D01*
X59494700Y-145318480D01*
X59494697Y-145318479D01*
X59311597Y-145220610D01*
X59151103Y-145088897D01*
X59019390Y-144928403D01*
X58921521Y-144745303D01*
X58921520Y-144745300D01*
X58861251Y-144546620D01*
X58840901Y-144340000D01*
X58861251Y-144133380D01*
X58921520Y-143934700D01*
X58921521Y-143934697D01*
X59019390Y-143751597D01*
X59151103Y-143591103D01*
X59311597Y-143459390D01*
X59494697Y-143361521D01*
X59494700Y-143361520D01*
X59693380Y-143301251D01*
X59796612Y-143291084D01*
X59848227Y-143286000D01*
X59951773Y-143286000D01*
X60003388Y-143291084D01*
X60003388Y-143291084D01*
G37*
G36*
X55874000Y-145394000D02*
G01*
X53766000Y-145394000D01*
X53766000Y-143286000D01*
X55874000Y-143286000D01*
X55874000Y-145394000D01*
X55874000Y-145394000D01*
G37*
G36*
X54923388Y-128051084D02*
G01*
X55026620Y-128061251D01*
X55225300Y-128121520D01*
X55225303Y-128121521D01*
X55408403Y-128219390D01*
X55568897Y-128351103D01*
X55700610Y-128511597D01*
X55798479Y-128694697D01*
X55798480Y-128694700D01*
X55858749Y-128893380D01*
X55879099Y-129100000D01*
X55858749Y-129306620D01*
X55798480Y-129505300D01*
X55798479Y-129505303D01*
X55700610Y-129688403D01*
X55568897Y-129848897D01*
X55408403Y-129980610D01*
X55225303Y-130078479D01*
X55225300Y-130078480D01*
X55026620Y-130138749D01*
X54923388Y-130148916D01*
X54871773Y-130154000D01*
X54768227Y-130154000D01*
X54716612Y-130148916D01*
X54613380Y-130138749D01*
X54414700Y-130078480D01*
X54414697Y-130078479D01*
X54231597Y-129980610D01*
X54071103Y-129848897D01*
X53939390Y-129688403D01*
X53841521Y-129505303D01*
X53841520Y-129505300D01*
X53781251Y-129306620D01*
X53760901Y-129100000D01*
X53781251Y-128893380D01*
X53841520Y-128694700D01*
X53841521Y-128694697D01*
X53939390Y-128511597D01*
X54071103Y-128351103D01*
X54231597Y-128219390D01*
X54414697Y-128121521D01*
X54414700Y-128121520D01*
X54613380Y-128061251D01*
X54716612Y-128051084D01*
X54768227Y-128046000D01*
X54871773Y-128046000D01*
X54923388Y-128051084D01*
X54923388Y-128051084D01*
G37*
G36*
X57463388Y-128051084D02*
G01*
X57566620Y-128061251D01*
X57765300Y-128121520D01*
X57765303Y-128121521D01*
X57948403Y-128219390D01*
X58108897Y-128351103D01*
X58240610Y-128511597D01*
X58338479Y-128694697D01*
X58338480Y-128694700D01*
X58398749Y-128893380D01*
X58419099Y-129100000D01*
X58398749Y-129306620D01*
X58338480Y-129505300D01*
X58338479Y-129505303D01*
X58240610Y-129688403D01*
X58108897Y-129848897D01*
X57948403Y-129980610D01*
X57765303Y-130078479D01*
X57765300Y-130078480D01*
X57566620Y-130138749D01*
X57463388Y-130148916D01*
X57411773Y-130154000D01*
X57308227Y-130154000D01*
X57256612Y-130148916D01*
X57153380Y-130138749D01*
X56954700Y-130078480D01*
X56954697Y-130078479D01*
X56771597Y-129980610D01*
X56611103Y-129848897D01*
X56479390Y-129688403D01*
X56381521Y-129505303D01*
X56381520Y-129505300D01*
X56321251Y-129306620D01*
X56300901Y-129100000D01*
X56321251Y-128893380D01*
X56381520Y-128694700D01*
X56381521Y-128694697D01*
X56479390Y-128511597D01*
X56611103Y-128351103D01*
X56771597Y-128219390D01*
X56954697Y-128121521D01*
X56954700Y-128121520D01*
X57153380Y-128061251D01*
X57256612Y-128051084D01*
X57308227Y-128046000D01*
X57411773Y-128046000D01*
X57463388Y-128051084D01*
X57463388Y-128051084D01*
G37*
G36*
X60003388Y-128051084D02*
G01*
X60106620Y-128061251D01*
X60305300Y-128121520D01*
X60305303Y-128121521D01*
X60488403Y-128219390D01*
X60648897Y-128351103D01*
X60780610Y-128511597D01*
X60878479Y-128694697D01*
X60878480Y-128694700D01*
X60938749Y-128893380D01*
X60959099Y-129100000D01*
X60938749Y-129306620D01*
X60878480Y-129505300D01*
X60878479Y-129505303D01*
X60780610Y-129688403D01*
X60648897Y-129848897D01*
X60488403Y-129980610D01*
X60305303Y-130078479D01*
X60305300Y-130078480D01*
X60106620Y-130138749D01*
X60003388Y-130148916D01*
X59951773Y-130154000D01*
X59848227Y-130154000D01*
X59796612Y-130148916D01*
X59693380Y-130138749D01*
X59494700Y-130078480D01*
X59494697Y-130078479D01*
X59311597Y-129980610D01*
X59151103Y-129848897D01*
X59019390Y-129688403D01*
X58921521Y-129505303D01*
X58921520Y-129505300D01*
X58861251Y-129306620D01*
X58840901Y-129100000D01*
X58861251Y-128893380D01*
X58921520Y-128694700D01*
X58921521Y-128694697D01*
X59019390Y-128511597D01*
X59151103Y-128351103D01*
X59311597Y-128219390D01*
X59494697Y-128121521D01*
X59494700Y-128121520D01*
X59693380Y-128061251D01*
X59796612Y-128051084D01*
X59848227Y-128046000D01*
X59951773Y-128046000D01*
X60003388Y-128051084D01*
X60003388Y-128051084D01*
G37*
G36*
X62543388Y-128051084D02*
G01*
X62646620Y-128061251D01*
X62845300Y-128121520D01*
X62845303Y-128121521D01*
X63028403Y-128219390D01*
X63188897Y-128351103D01*
X63320610Y-128511597D01*
X63418479Y-128694697D01*
X63418480Y-128694700D01*
X63478749Y-128893380D01*
X63499099Y-129100000D01*
X63478749Y-129306620D01*
X63418480Y-129505300D01*
X63418479Y-129505303D01*
X63320610Y-129688403D01*
X63188897Y-129848897D01*
X63028403Y-129980610D01*
X62845303Y-130078479D01*
X62845300Y-130078480D01*
X62646620Y-130138749D01*
X62543388Y-130148916D01*
X62491773Y-130154000D01*
X62388227Y-130154000D01*
X62336612Y-130148916D01*
X62233380Y-130138749D01*
X62034700Y-130078480D01*
X62034697Y-130078479D01*
X61851597Y-129980610D01*
X61691103Y-129848897D01*
X61559390Y-129688403D01*
X61461521Y-129505303D01*
X61461520Y-129505300D01*
X61401251Y-129306620D01*
X61380901Y-129100000D01*
X61401251Y-128893380D01*
X61461520Y-128694700D01*
X61461521Y-128694697D01*
X61559390Y-128511597D01*
X61691103Y-128351103D01*
X61851597Y-128219390D01*
X62034697Y-128121521D01*
X62034700Y-128121520D01*
X62233380Y-128061251D01*
X62336612Y-128051084D01*
X62388227Y-128046000D01*
X62491773Y-128046000D01*
X62543388Y-128051084D01*
X62543388Y-128051084D01*
G37*
G36*
X90483388Y-128051084D02*
G01*
X90586620Y-128061251D01*
X90785300Y-128121520D01*
X90785303Y-128121521D01*
X90968403Y-128219390D01*
X91128897Y-128351103D01*
X91260610Y-128511597D01*
X91358479Y-128694697D01*
X91358480Y-128694700D01*
X91418749Y-128893380D01*
X91439099Y-129100000D01*
X91418749Y-129306620D01*
X91358480Y-129505300D01*
X91358479Y-129505303D01*
X91260610Y-129688403D01*
X91128897Y-129848897D01*
X90968403Y-129980610D01*
X90785303Y-130078479D01*
X90785300Y-130078480D01*
X90586620Y-130138749D01*
X90483388Y-130148916D01*
X90431773Y-130154000D01*
X90328227Y-130154000D01*
X90276612Y-130148916D01*
X90173380Y-130138749D01*
X89974700Y-130078480D01*
X89974697Y-130078479D01*
X89791597Y-129980610D01*
X89631103Y-129848897D01*
X89499390Y-129688403D01*
X89401521Y-129505303D01*
X89401520Y-129505300D01*
X89341251Y-129306620D01*
X89320901Y-129100000D01*
X89341251Y-128893380D01*
X89401520Y-128694700D01*
X89401521Y-128694697D01*
X89499390Y-128511597D01*
X89631103Y-128351103D01*
X89791597Y-128219390D01*
X89974697Y-128121521D01*
X89974700Y-128121520D01*
X90173380Y-128061251D01*
X90276612Y-128051084D01*
X90328227Y-128046000D01*
X90431773Y-128046000D01*
X90483388Y-128051084D01*
X90483388Y-128051084D01*
G37*
G36*
X65083388Y-128051084D02*
G01*
X65186620Y-128061251D01*
X65385300Y-128121520D01*
X65385303Y-128121521D01*
X65568403Y-128219390D01*
X65728897Y-128351103D01*
X65860610Y-128511597D01*
X65958479Y-128694697D01*
X65958480Y-128694700D01*
X66018749Y-128893380D01*
X66039099Y-129100000D01*
X66018749Y-129306620D01*
X65958480Y-129505300D01*
X65958479Y-129505303D01*
X65860610Y-129688403D01*
X65728897Y-129848897D01*
X65568403Y-129980610D01*
X65385303Y-130078479D01*
X65385300Y-130078480D01*
X65186620Y-130138749D01*
X65083388Y-130148916D01*
X65031773Y-130154000D01*
X64928227Y-130154000D01*
X64876612Y-130148916D01*
X64773380Y-130138749D01*
X64574700Y-130078480D01*
X64574697Y-130078479D01*
X64391597Y-129980610D01*
X64231103Y-129848897D01*
X64099390Y-129688403D01*
X64001521Y-129505303D01*
X64001520Y-129505300D01*
X63941251Y-129306620D01*
X63920901Y-129100000D01*
X63941251Y-128893380D01*
X64001520Y-128694700D01*
X64001521Y-128694697D01*
X64099390Y-128511597D01*
X64231103Y-128351103D01*
X64391597Y-128219390D01*
X64574697Y-128121521D01*
X64574700Y-128121520D01*
X64773380Y-128061251D01*
X64876612Y-128051084D01*
X64928227Y-128046000D01*
X65031773Y-128046000D01*
X65083388Y-128051084D01*
X65083388Y-128051084D01*
G37*
G36*
X87943388Y-128051084D02*
G01*
X88046620Y-128061251D01*
X88245300Y-128121520D01*
X88245303Y-128121521D01*
X88428403Y-128219390D01*
X88588897Y-128351103D01*
X88720610Y-128511597D01*
X88818479Y-128694697D01*
X88818480Y-128694700D01*
X88878749Y-128893380D01*
X88899099Y-129100000D01*
X88878749Y-129306620D01*
X88818480Y-129505300D01*
X88818479Y-129505303D01*
X88720610Y-129688403D01*
X88588897Y-129848897D01*
X88428403Y-129980610D01*
X88245303Y-130078479D01*
X88245300Y-130078480D01*
X88046620Y-130138749D01*
X87943388Y-130148916D01*
X87891773Y-130154000D01*
X87788227Y-130154000D01*
X87736612Y-130148916D01*
X87633380Y-130138749D01*
X87434700Y-130078480D01*
X87434697Y-130078479D01*
X87251597Y-129980610D01*
X87091103Y-129848897D01*
X86959390Y-129688403D01*
X86861521Y-129505303D01*
X86861520Y-129505300D01*
X86801251Y-129306620D01*
X86780901Y-129100000D01*
X86801251Y-128893380D01*
X86861520Y-128694700D01*
X86861521Y-128694697D01*
X86959390Y-128511597D01*
X87091103Y-128351103D01*
X87251597Y-128219390D01*
X87434697Y-128121521D01*
X87434700Y-128121520D01*
X87633380Y-128061251D01*
X87736612Y-128051084D01*
X87788227Y-128046000D01*
X87891773Y-128046000D01*
X87943388Y-128051084D01*
X87943388Y-128051084D01*
G37*
G36*
X72703388Y-128051084D02*
G01*
X72806620Y-128061251D01*
X73005300Y-128121520D01*
X73005303Y-128121521D01*
X73188403Y-128219390D01*
X73348897Y-128351103D01*
X73480610Y-128511597D01*
X73578479Y-128694697D01*
X73578480Y-128694700D01*
X73638749Y-128893380D01*
X73659099Y-129100000D01*
X73638749Y-129306620D01*
X73578480Y-129505300D01*
X73578479Y-129505303D01*
X73480610Y-129688403D01*
X73348897Y-129848897D01*
X73188403Y-129980610D01*
X73005303Y-130078479D01*
X73005300Y-130078480D01*
X72806620Y-130138749D01*
X72703388Y-130148916D01*
X72651773Y-130154000D01*
X72548227Y-130154000D01*
X72496612Y-130148916D01*
X72393380Y-130138749D01*
X72194700Y-130078480D01*
X72194697Y-130078479D01*
X72011597Y-129980610D01*
X71851103Y-129848897D01*
X71719390Y-129688403D01*
X71621521Y-129505303D01*
X71621520Y-129505300D01*
X71561251Y-129306620D01*
X71540901Y-129100000D01*
X71561251Y-128893380D01*
X71621520Y-128694700D01*
X71621521Y-128694697D01*
X71719390Y-128511597D01*
X71851103Y-128351103D01*
X72011597Y-128219390D01*
X72194697Y-128121521D01*
X72194700Y-128121520D01*
X72393380Y-128061251D01*
X72496612Y-128051084D01*
X72548227Y-128046000D01*
X72651773Y-128046000D01*
X72703388Y-128051084D01*
X72703388Y-128051084D01*
G37*
G36*
X85403388Y-128051084D02*
G01*
X85506620Y-128061251D01*
X85705300Y-128121520D01*
X85705303Y-128121521D01*
X85888403Y-128219390D01*
X86048897Y-128351103D01*
X86180610Y-128511597D01*
X86278479Y-128694697D01*
X86278480Y-128694700D01*
X86338749Y-128893380D01*
X86359099Y-129100000D01*
X86338749Y-129306620D01*
X86278480Y-129505300D01*
X86278479Y-129505303D01*
X86180610Y-129688403D01*
X86048897Y-129848897D01*
X85888403Y-129980610D01*
X85705303Y-130078479D01*
X85705300Y-130078480D01*
X85506620Y-130138749D01*
X85403388Y-130148916D01*
X85351773Y-130154000D01*
X85248227Y-130154000D01*
X85196612Y-130148916D01*
X85093380Y-130138749D01*
X84894700Y-130078480D01*
X84894697Y-130078479D01*
X84711597Y-129980610D01*
X84551103Y-129848897D01*
X84419390Y-129688403D01*
X84321521Y-129505303D01*
X84321520Y-129505300D01*
X84261251Y-129306620D01*
X84240901Y-129100000D01*
X84261251Y-128893380D01*
X84321520Y-128694700D01*
X84321521Y-128694697D01*
X84419390Y-128511597D01*
X84551103Y-128351103D01*
X84711597Y-128219390D01*
X84894697Y-128121521D01*
X84894700Y-128121520D01*
X85093380Y-128061251D01*
X85196612Y-128051084D01*
X85248227Y-128046000D01*
X85351773Y-128046000D01*
X85403388Y-128051084D01*
X85403388Y-128051084D01*
G37*
G36*
X75243388Y-128051084D02*
G01*
X75346620Y-128061251D01*
X75545300Y-128121520D01*
X75545303Y-128121521D01*
X75728403Y-128219390D01*
X75888897Y-128351103D01*
X76020610Y-128511597D01*
X76118479Y-128694697D01*
X76118480Y-128694700D01*
X76178749Y-128893380D01*
X76199099Y-129100000D01*
X76178749Y-129306620D01*
X76118480Y-129505300D01*
X76118479Y-129505303D01*
X76020610Y-129688403D01*
X75888897Y-129848897D01*
X75728403Y-129980610D01*
X75545303Y-130078479D01*
X75545300Y-130078480D01*
X75346620Y-130138749D01*
X75243388Y-130148916D01*
X75191773Y-130154000D01*
X75088227Y-130154000D01*
X75036612Y-130148916D01*
X74933380Y-130138749D01*
X74734700Y-130078480D01*
X74734697Y-130078479D01*
X74551597Y-129980610D01*
X74391103Y-129848897D01*
X74259390Y-129688403D01*
X74161521Y-129505303D01*
X74161520Y-129505300D01*
X74101251Y-129306620D01*
X74080901Y-129100000D01*
X74101251Y-128893380D01*
X74161520Y-128694700D01*
X74161521Y-128694697D01*
X74259390Y-128511597D01*
X74391103Y-128351103D01*
X74551597Y-128219390D01*
X74734697Y-128121521D01*
X74734700Y-128121520D01*
X74933380Y-128061251D01*
X75036612Y-128051084D01*
X75088227Y-128046000D01*
X75191773Y-128046000D01*
X75243388Y-128051084D01*
X75243388Y-128051084D01*
G37*
G36*
X70163388Y-128051084D02*
G01*
X70266620Y-128061251D01*
X70465300Y-128121520D01*
X70465303Y-128121521D01*
X70648403Y-128219390D01*
X70808897Y-128351103D01*
X70940610Y-128511597D01*
X71038479Y-128694697D01*
X71038480Y-128694700D01*
X71098749Y-128893380D01*
X71119099Y-129100000D01*
X71098749Y-129306620D01*
X71038480Y-129505300D01*
X71038479Y-129505303D01*
X70940610Y-129688403D01*
X70808897Y-129848897D01*
X70648403Y-129980610D01*
X70465303Y-130078479D01*
X70465300Y-130078480D01*
X70266620Y-130138749D01*
X70163388Y-130148916D01*
X70111773Y-130154000D01*
X70008227Y-130154000D01*
X69956612Y-130148916D01*
X69853380Y-130138749D01*
X69654700Y-130078480D01*
X69654697Y-130078479D01*
X69471597Y-129980610D01*
X69311103Y-129848897D01*
X69179390Y-129688403D01*
X69081521Y-129505303D01*
X69081520Y-129505300D01*
X69021251Y-129306620D01*
X69000901Y-129100000D01*
X69021251Y-128893380D01*
X69081520Y-128694700D01*
X69081521Y-128694697D01*
X69179390Y-128511597D01*
X69311103Y-128351103D01*
X69471597Y-128219390D01*
X69654697Y-128121521D01*
X69654700Y-128121520D01*
X69853380Y-128061251D01*
X69956612Y-128051084D01*
X70008227Y-128046000D01*
X70111773Y-128046000D01*
X70163388Y-128051084D01*
X70163388Y-128051084D01*
G37*
G36*
X80323388Y-128051084D02*
G01*
X80426620Y-128061251D01*
X80625300Y-128121520D01*
X80625303Y-128121521D01*
X80808403Y-128219390D01*
X80968897Y-128351103D01*
X81100610Y-128511597D01*
X81198479Y-128694697D01*
X81198480Y-128694700D01*
X81258749Y-128893380D01*
X81279099Y-129100000D01*
X81258749Y-129306620D01*
X81198480Y-129505300D01*
X81198479Y-129505303D01*
X81100610Y-129688403D01*
X80968897Y-129848897D01*
X80808403Y-129980610D01*
X80625303Y-130078479D01*
X80625300Y-130078480D01*
X80426620Y-130138749D01*
X80323388Y-130148916D01*
X80271773Y-130154000D01*
X80168227Y-130154000D01*
X80116612Y-130148916D01*
X80013380Y-130138749D01*
X79814700Y-130078480D01*
X79814697Y-130078479D01*
X79631597Y-129980610D01*
X79471103Y-129848897D01*
X79339390Y-129688403D01*
X79241521Y-129505303D01*
X79241520Y-129505300D01*
X79181251Y-129306620D01*
X79160901Y-129100000D01*
X79181251Y-128893380D01*
X79241520Y-128694700D01*
X79241521Y-128694697D01*
X79339390Y-128511597D01*
X79471103Y-128351103D01*
X79631597Y-128219390D01*
X79814697Y-128121521D01*
X79814700Y-128121520D01*
X80013380Y-128061251D01*
X80116612Y-128051084D01*
X80168227Y-128046000D01*
X80271773Y-128046000D01*
X80323388Y-128051084D01*
X80323388Y-128051084D01*
G37*
G36*
X82863388Y-128051084D02*
G01*
X82966620Y-128061251D01*
X83165300Y-128121520D01*
X83165303Y-128121521D01*
X83348403Y-128219390D01*
X83508897Y-128351103D01*
X83640610Y-128511597D01*
X83738479Y-128694697D01*
X83738480Y-128694700D01*
X83798749Y-128893380D01*
X83819099Y-129100000D01*
X83798749Y-129306620D01*
X83738480Y-129505300D01*
X83738479Y-129505303D01*
X83640610Y-129688403D01*
X83508897Y-129848897D01*
X83348403Y-129980610D01*
X83165303Y-130078479D01*
X83165300Y-130078480D01*
X82966620Y-130138749D01*
X82863388Y-130148916D01*
X82811773Y-130154000D01*
X82708227Y-130154000D01*
X82656612Y-130148916D01*
X82553380Y-130138749D01*
X82354700Y-130078480D01*
X82354697Y-130078479D01*
X82171597Y-129980610D01*
X82011103Y-129848897D01*
X81879390Y-129688403D01*
X81781521Y-129505303D01*
X81781520Y-129505300D01*
X81721251Y-129306620D01*
X81700901Y-129100000D01*
X81721251Y-128893380D01*
X81781520Y-128694700D01*
X81781521Y-128694697D01*
X81879390Y-128511597D01*
X82011103Y-128351103D01*
X82171597Y-128219390D01*
X82354697Y-128121521D01*
X82354700Y-128121520D01*
X82553380Y-128061251D01*
X82656612Y-128051084D01*
X82708227Y-128046000D01*
X82811773Y-128046000D01*
X82863388Y-128051084D01*
X82863388Y-128051084D01*
G37*
G36*
X67623388Y-128051084D02*
G01*
X67726620Y-128061251D01*
X67925300Y-128121520D01*
X67925303Y-128121521D01*
X68108403Y-128219390D01*
X68268897Y-128351103D01*
X68400610Y-128511597D01*
X68498479Y-128694697D01*
X68498480Y-128694700D01*
X68558749Y-128893380D01*
X68579099Y-129100000D01*
X68558749Y-129306620D01*
X68498480Y-129505300D01*
X68498479Y-129505303D01*
X68400610Y-129688403D01*
X68268897Y-129848897D01*
X68108403Y-129980610D01*
X67925303Y-130078479D01*
X67925300Y-130078480D01*
X67726620Y-130138749D01*
X67623388Y-130148916D01*
X67571773Y-130154000D01*
X67468227Y-130154000D01*
X67416612Y-130148916D01*
X67313380Y-130138749D01*
X67114700Y-130078480D01*
X67114697Y-130078479D01*
X66931597Y-129980610D01*
X66771103Y-129848897D01*
X66639390Y-129688403D01*
X66541521Y-129505303D01*
X66541520Y-129505300D01*
X66481251Y-129306620D01*
X66460901Y-129100000D01*
X66481251Y-128893380D01*
X66541520Y-128694700D01*
X66541521Y-128694697D01*
X66639390Y-128511597D01*
X66771103Y-128351103D01*
X66931597Y-128219390D01*
X67114697Y-128121521D01*
X67114700Y-128121520D01*
X67313380Y-128061251D01*
X67416612Y-128051084D01*
X67468227Y-128046000D01*
X67571773Y-128046000D01*
X67623388Y-128051084D01*
X67623388Y-128051084D01*
G37*
G36*
X77783388Y-128051084D02*
G01*
X77886620Y-128061251D01*
X78085300Y-128121520D01*
X78085303Y-128121521D01*
X78268403Y-128219390D01*
X78428897Y-128351103D01*
X78560610Y-128511597D01*
X78658479Y-128694697D01*
X78658480Y-128694700D01*
X78718749Y-128893380D01*
X78739099Y-129100000D01*
X78718749Y-129306620D01*
X78658480Y-129505300D01*
X78658479Y-129505303D01*
X78560610Y-129688403D01*
X78428897Y-129848897D01*
X78268403Y-129980610D01*
X78085303Y-130078479D01*
X78085300Y-130078480D01*
X77886620Y-130138749D01*
X77783388Y-130148916D01*
X77731773Y-130154000D01*
X77628227Y-130154000D01*
X77576612Y-130148916D01*
X77473380Y-130138749D01*
X77274700Y-130078480D01*
X77274697Y-130078479D01*
X77091597Y-129980610D01*
X76931103Y-129848897D01*
X76799390Y-129688403D01*
X76701521Y-129505303D01*
X76701520Y-129505300D01*
X76641251Y-129306620D01*
X76620901Y-129100000D01*
X76641251Y-128893380D01*
X76701520Y-128694700D01*
X76701521Y-128694697D01*
X76799390Y-128511597D01*
X76931103Y-128351103D01*
X77091597Y-128219390D01*
X77274697Y-128121521D01*
X77274700Y-128121520D01*
X77473380Y-128061251D01*
X77576612Y-128051084D01*
X77628227Y-128046000D01*
X77731773Y-128046000D01*
X77783388Y-128051084D01*
X77783388Y-128051084D01*
G37*
G36*
X56254000Y-121514000D02*
G01*
X52746000Y-121514000D01*
X52746000Y-118006000D01*
X56254000Y-118006000D01*
X56254000Y-121514000D01*
X56254000Y-121514000D01*
G37*
G36*
X90311623Y-118053405D02*
G01*
X90630831Y-118185625D01*
X90918110Y-118377579D01*
X91162421Y-118621890D01*
X91354375Y-118909169D01*
X91486595Y-119228377D01*
X91554000Y-119567246D01*
X91554000Y-119912754D01*
X91486595Y-120251623D01*
X91354375Y-120570831D01*
X91162421Y-120858110D01*
X90918110Y-121102421D01*
X90630831Y-121294375D01*
X90630830Y-121294376D01*
X90630829Y-121294376D01*
X90311623Y-121426595D01*
X89972755Y-121494000D01*
X89627245Y-121494000D01*
X89288377Y-121426595D01*
X88969171Y-121294376D01*
X88969170Y-121294376D01*
X88969169Y-121294375D01*
X88681890Y-121102421D01*
X88437579Y-120858110D01*
X88245625Y-120570831D01*
X88113405Y-120251623D01*
X88046000Y-119912754D01*
X88046000Y-119567246D01*
X88113405Y-119228377D01*
X88245625Y-118909169D01*
X88437579Y-118621890D01*
X88681890Y-118377579D01*
X88969169Y-118185625D01*
X89288377Y-118053405D01*
X89627245Y-117986000D01*
X89972755Y-117986000D01*
X90311623Y-118053405D01*
X90311623Y-118053405D01*
G37*
G36*
X55011623Y-112993405D02*
G01*
X55282545Y-113105624D01*
X55330831Y-113125625D01*
X55618110Y-113317579D01*
X55862421Y-113561890D01*
X56054375Y-113849169D01*
X56186595Y-114168377D01*
X56254000Y-114507246D01*
X56254000Y-114852754D01*
X56186595Y-115191623D01*
X56054375Y-115510831D01*
X55862421Y-115798110D01*
X55618110Y-116042421D01*
X55330831Y-116234375D01*
X55330830Y-116234376D01*
X55330829Y-116234376D01*
X55011623Y-116366595D01*
X54672755Y-116434000D01*
X54327245Y-116434000D01*
X53988377Y-116366595D01*
X53669171Y-116234376D01*
X53669170Y-116234376D01*
X53669169Y-116234375D01*
X53381890Y-116042421D01*
X53137579Y-115798110D01*
X52945625Y-115510831D01*
X52813405Y-115191623D01*
X52746000Y-114852754D01*
X52746000Y-114507246D01*
X52813405Y-114168377D01*
X52945625Y-113849169D01*
X53137579Y-113561890D01*
X53381890Y-113317579D01*
X53669169Y-113125625D01*
X53717456Y-113105624D01*
X53988377Y-112993405D01*
X54327245Y-112926000D01*
X54672755Y-112926000D01*
X55011623Y-112993405D01*
X55011623Y-112993405D01*
G37*
G36*
X90311623Y-112973405D02*
G01*
X90630831Y-113105625D01*
X90918110Y-113297579D01*
X91162421Y-113541890D01*
X91354375Y-113829169D01*
X91486595Y-114148377D01*
X91554000Y-114487246D01*
X91554000Y-114832754D01*
X91486595Y-115171623D01*
X91354375Y-115490831D01*
X91162421Y-115778110D01*
X90918110Y-116022421D01*
X90630831Y-116214375D01*
X90630830Y-116214376D01*
X90630829Y-116214376D01*
X90311623Y-116346595D01*
X89972755Y-116414000D01*
X89627245Y-116414000D01*
X89288377Y-116346595D01*
X88969171Y-116214376D01*
X88969170Y-116214376D01*
X88969169Y-116214375D01*
X88681890Y-116022421D01*
X88437579Y-115778110D01*
X88245625Y-115490831D01*
X88113405Y-115171623D01*
X88046000Y-114832754D01*
X88046000Y-114487246D01*
X88113405Y-114148377D01*
X88245625Y-113829169D01*
X88437579Y-113541890D01*
X88681890Y-113297579D01*
X88969169Y-113105625D01*
X89288377Y-112973405D01*
X89627245Y-112906000D01*
X89972755Y-112906000D01*
X90311623Y-112973405D01*
X90311623Y-112973405D01*
G37*
G36*
X55011623Y-107913405D02*
G01*
X55282545Y-108025624D01*
X55330831Y-108045625D01*
X55618110Y-108237579D01*
X55862421Y-108481890D01*
X56054375Y-108769169D01*
X56186595Y-109088377D01*
X56254000Y-109427246D01*
X56254000Y-109772754D01*
X56186595Y-110111623D01*
X56054375Y-110430831D01*
X55862421Y-110718110D01*
X55618110Y-110962421D01*
X55330831Y-111154375D01*
X55330830Y-111154376D01*
X55330829Y-111154376D01*
X55011623Y-111286595D01*
X54672755Y-111354000D01*
X54327245Y-111354000D01*
X53988377Y-111286595D01*
X53669171Y-111154376D01*
X53669170Y-111154376D01*
X53669169Y-111154375D01*
X53381890Y-110962421D01*
X53137579Y-110718110D01*
X52945625Y-110430831D01*
X52813405Y-110111623D01*
X52746000Y-109772754D01*
X52746000Y-109427246D01*
X52813405Y-109088377D01*
X52945625Y-108769169D01*
X53137579Y-108481890D01*
X53381890Y-108237579D01*
X53669169Y-108045625D01*
X53717456Y-108025624D01*
X53988377Y-107913405D01*
X54327245Y-107846000D01*
X54672755Y-107846000D01*
X55011623Y-107913405D01*
X55011623Y-107913405D01*
G37*
G36*
X90311623Y-107893405D02*
G01*
X90630831Y-108025625D01*
X90918110Y-108217579D01*
X91162421Y-108461890D01*
X91354375Y-108749169D01*
X91486595Y-109068377D01*
X91554000Y-109407246D01*
X91554000Y-109752754D01*
X91486595Y-110091623D01*
X91354375Y-110410831D01*
X91162421Y-110698110D01*
X90918110Y-110942421D01*
X90630831Y-111134375D01*
X90630830Y-111134376D01*
X90630829Y-111134376D01*
X90311623Y-111266595D01*
X89972755Y-111334000D01*
X89627245Y-111334000D01*
X89288377Y-111266595D01*
X88969171Y-111134376D01*
X88969170Y-111134376D01*
X88969169Y-111134375D01*
X88681890Y-110942421D01*
X88437579Y-110698110D01*
X88245625Y-110410831D01*
X88113405Y-110091623D01*
X88046000Y-109752754D01*
X88046000Y-109407246D01*
X88113405Y-109068377D01*
X88245625Y-108749169D01*
X88437579Y-108461890D01*
X88681890Y-108217579D01*
X88969169Y-108025625D01*
X89288377Y-107893405D01*
X89627245Y-107826000D01*
X89972755Y-107826000D01*
X90311623Y-107893405D01*
X90311623Y-107893405D01*
G37*
G36*
X55011623Y-102833405D02*
G01*
X55330831Y-102965625D01*
X55618110Y-103157579D01*
X55862421Y-103401890D01*
X56054375Y-103689169D01*
X56186595Y-104008377D01*
X56254000Y-104347246D01*
X56254000Y-104692754D01*
X56186595Y-105031623D01*
X56054375Y-105350831D01*
X55862421Y-105638110D01*
X55618110Y-105882421D01*
X55330831Y-106074375D01*
X55330830Y-106074376D01*
X55330829Y-106074376D01*
X55011623Y-106206595D01*
X54672755Y-106274000D01*
X54327245Y-106274000D01*
X53988377Y-106206595D01*
X53669171Y-106074376D01*
X53669170Y-106074376D01*
X53669169Y-106074375D01*
X53381890Y-105882421D01*
X53137579Y-105638110D01*
X52945625Y-105350831D01*
X52813405Y-105031623D01*
X52746000Y-104692754D01*
X52746000Y-104347246D01*
X52813405Y-104008377D01*
X52945625Y-103689169D01*
X53137579Y-103401890D01*
X53381890Y-103157579D01*
X53669169Y-102965625D01*
X53988377Y-102833405D01*
X54327245Y-102766000D01*
X54672755Y-102766000D01*
X55011623Y-102833405D01*
X55011623Y-102833405D01*
G37*
G36*
X91554000Y-106254000D02*
G01*
X88046000Y-106254000D01*
X88046000Y-102746000D01*
X91554000Y-102746000D01*
X91554000Y-106254000D01*
X91554000Y-106254000D01*
G37*
G36*
X90311623Y-95353405D02*
G01*
X90630831Y-95485625D01*
X90918110Y-95677579D01*
X91162421Y-95921890D01*
X91354375Y-96209169D01*
X91486595Y-96528377D01*
X91554000Y-96867246D01*
X91554000Y-97212754D01*
X91486595Y-97551623D01*
X91354375Y-97870831D01*
X91162421Y-98158110D01*
X90918110Y-98402421D01*
X90630831Y-98594375D01*
X90630830Y-98594376D01*
X90630829Y-98594376D01*
X90311623Y-98726595D01*
X89972755Y-98794000D01*
X89627245Y-98794000D01*
X89288377Y-98726595D01*
X88969171Y-98594376D01*
X88969170Y-98594376D01*
X88969169Y-98594375D01*
X88681890Y-98402421D01*
X88437579Y-98158110D01*
X88245625Y-97870831D01*
X88113405Y-97551623D01*
X88046000Y-97212754D01*
X88046000Y-96867246D01*
X88113405Y-96528377D01*
X88245625Y-96209169D01*
X88437579Y-95921890D01*
X88681890Y-95677579D01*
X88969169Y-95485625D01*
X89288377Y-95353405D01*
X89627245Y-95286000D01*
X89972755Y-95286000D01*
X90311623Y-95353405D01*
X90311623Y-95353405D01*
G37*
G36*
X56254000Y-98654000D02*
G01*
X52746000Y-98654000D01*
X52746000Y-95146000D01*
X56254000Y-95146000D01*
X56254000Y-98654000D01*
X56254000Y-98654000D01*
G37*
G36*
X90272505Y-90265624D02*
G01*
X90311623Y-90273405D01*
X90630831Y-90405625D01*
X90918110Y-90597579D01*
X91162421Y-90841890D01*
X91354375Y-91129169D01*
X91486595Y-91448377D01*
X91554000Y-91787246D01*
X91554000Y-92132754D01*
X91486595Y-92471623D01*
X91354375Y-92790831D01*
X91162421Y-93078110D01*
X90918110Y-93322421D01*
X90630831Y-93514375D01*
X90630830Y-93514376D01*
X90630829Y-93514376D01*
X90311623Y-93646595D01*
X89972755Y-93714000D01*
X89627245Y-93714000D01*
X89288377Y-93646595D01*
X88969171Y-93514376D01*
X88969170Y-93514376D01*
X88969169Y-93514375D01*
X88681890Y-93322421D01*
X88437579Y-93078110D01*
X88245625Y-92790831D01*
X88113405Y-92471623D01*
X88046000Y-92132754D01*
X88046000Y-91787246D01*
X88113405Y-91448377D01*
X88245625Y-91129169D01*
X88437579Y-90841890D01*
X88681890Y-90597579D01*
X88969169Y-90405625D01*
X89288377Y-90273405D01*
X89327495Y-90265624D01*
X89627245Y-90206000D01*
X89972755Y-90206000D01*
X90272505Y-90265624D01*
X90272505Y-90265624D01*
G37*
G36*
X55011623Y-90133405D02*
G01*
X55330831Y-90265625D01*
X55618110Y-90457579D01*
X55862421Y-90701890D01*
X56054375Y-90989169D01*
X56186595Y-91308377D01*
X56254000Y-91647246D01*
X56254000Y-91992754D01*
X56186595Y-92331623D01*
X56054375Y-92650831D01*
X55862421Y-92938110D01*
X55618110Y-93182421D01*
X55330831Y-93374375D01*
X55330830Y-93374376D01*
X55330829Y-93374376D01*
X55011623Y-93506595D01*
X54672755Y-93574000D01*
X54327245Y-93574000D01*
X53988377Y-93506595D01*
X53669171Y-93374376D01*
X53669170Y-93374376D01*
X53669169Y-93374375D01*
X53381890Y-93182421D01*
X53137579Y-92938110D01*
X52945625Y-92650831D01*
X52813405Y-92331623D01*
X52746000Y-91992754D01*
X52746000Y-91647246D01*
X52813405Y-91308377D01*
X52945625Y-90989169D01*
X53137579Y-90701890D01*
X53381890Y-90457579D01*
X53669169Y-90265625D01*
X53988377Y-90133405D01*
X54327245Y-90066000D01*
X54672755Y-90066000D01*
X55011623Y-90133405D01*
X55011623Y-90133405D01*
G37*
G36*
X90272505Y-85185624D02*
G01*
X90311623Y-85193405D01*
X90630831Y-85325625D01*
X90918110Y-85517579D01*
X91162421Y-85761890D01*
X91354375Y-86049169D01*
X91486595Y-86368377D01*
X91554000Y-86707246D01*
X91554000Y-87052754D01*
X91486595Y-87391623D01*
X91354375Y-87710831D01*
X91162421Y-87998110D01*
X90918110Y-88242421D01*
X90630831Y-88434375D01*
X90630830Y-88434376D01*
X90630829Y-88434376D01*
X90311623Y-88566595D01*
X89972755Y-88634000D01*
X89627245Y-88634000D01*
X89288377Y-88566595D01*
X88969171Y-88434376D01*
X88969170Y-88434376D01*
X88969169Y-88434375D01*
X88681890Y-88242421D01*
X88437579Y-87998110D01*
X88245625Y-87710831D01*
X88113405Y-87391623D01*
X88046000Y-87052754D01*
X88046000Y-86707246D01*
X88113405Y-86368377D01*
X88245625Y-86049169D01*
X88437579Y-85761890D01*
X88681890Y-85517579D01*
X88969169Y-85325625D01*
X89288377Y-85193405D01*
X89327495Y-85185624D01*
X89627245Y-85126000D01*
X89972755Y-85126000D01*
X90272505Y-85185624D01*
X90272505Y-85185624D01*
G37*
G36*
X55011623Y-85053405D02*
G01*
X55330831Y-85185625D01*
X55618110Y-85377579D01*
X55862421Y-85621890D01*
X56054375Y-85909169D01*
X56186595Y-86228377D01*
X56254000Y-86567246D01*
X56254000Y-86912754D01*
X56186595Y-87251623D01*
X56054375Y-87570831D01*
X55862421Y-87858110D01*
X55618110Y-88102421D01*
X55330831Y-88294375D01*
X55330830Y-88294376D01*
X55330829Y-88294376D01*
X55011623Y-88426595D01*
X54672755Y-88494000D01*
X54327245Y-88494000D01*
X53988377Y-88426595D01*
X53669171Y-88294376D01*
X53669170Y-88294376D01*
X53669169Y-88294375D01*
X53381890Y-88102421D01*
X53137579Y-87858110D01*
X52945625Y-87570831D01*
X52813405Y-87251623D01*
X52746000Y-86912754D01*
X52746000Y-86567246D01*
X52813405Y-86228377D01*
X52945625Y-85909169D01*
X53137579Y-85621890D01*
X53381890Y-85377579D01*
X53669169Y-85185625D01*
X53988377Y-85053405D01*
X54327245Y-84986000D01*
X54672755Y-84986000D01*
X55011623Y-85053405D01*
X55011623Y-85053405D01*
G37*
G36*
X91554000Y-83554000D02*
G01*
X88046000Y-83554000D01*
X88046000Y-80046000D01*
X91554000Y-80046000D01*
X91554000Y-83554000D01*
X91554000Y-83554000D01*
G37*
G36*
X55011623Y-79973405D02*
G01*
X55330831Y-80105625D01*
X55618110Y-80297579D01*
X55862421Y-80541890D01*
X56054375Y-80829169D01*
X56186595Y-81148377D01*
X56254000Y-81487246D01*
X56254000Y-81832754D01*
X56186595Y-82171623D01*
X56054375Y-82490831D01*
X55862421Y-82778110D01*
X55618110Y-83022421D01*
X55330831Y-83214375D01*
X55330830Y-83214376D01*
X55330829Y-83214376D01*
X55011623Y-83346595D01*
X54672755Y-83414000D01*
X54327245Y-83414000D01*
X53988377Y-83346595D01*
X53669171Y-83214376D01*
X53669170Y-83214376D01*
X53669169Y-83214375D01*
X53381890Y-83022421D01*
X53137579Y-82778110D01*
X52945625Y-82490831D01*
X52813405Y-82171623D01*
X52746000Y-81832754D01*
X52746000Y-81487246D01*
X52813405Y-81148377D01*
X52945625Y-80829169D01*
X53137579Y-80541890D01*
X53381890Y-80297579D01*
X53669169Y-80105625D01*
X53988377Y-79973405D01*
X54327245Y-79906000D01*
X54672755Y-79906000D01*
X55011623Y-79973405D01*
X55011623Y-79973405D01*
G37*
G36*
X90411623Y-72913405D02*
G01*
X90730831Y-73045625D01*
X91018110Y-73237579D01*
X91262421Y-73481890D01*
X91454375Y-73769169D01*
X91586595Y-74088377D01*
X91654000Y-74427246D01*
X91654000Y-74772754D01*
X91586595Y-75111623D01*
X91454375Y-75430831D01*
X91262421Y-75718110D01*
X91018110Y-75962421D01*
X90730831Y-76154375D01*
X90730830Y-76154376D01*
X90730829Y-76154376D01*
X90411623Y-76286595D01*
X90072755Y-76354000D01*
X89727245Y-76354000D01*
X89388377Y-76286595D01*
X89069171Y-76154376D01*
X89069170Y-76154376D01*
X89069169Y-76154375D01*
X88781890Y-75962421D01*
X88537579Y-75718110D01*
X88345625Y-75430831D01*
X88213405Y-75111623D01*
X88146000Y-74772754D01*
X88146000Y-74427246D01*
X88213405Y-74088377D01*
X88345625Y-73769169D01*
X88537579Y-73481890D01*
X88781890Y-73237579D01*
X89069169Y-73045625D01*
X89388377Y-72913405D01*
X89727245Y-72846000D01*
X90072755Y-72846000D01*
X90411623Y-72913405D01*
X90411623Y-72913405D01*
G37*
G36*
X56454000Y-76354000D02*
G01*
X52946000Y-76354000D01*
X52946000Y-72846000D01*
X56454000Y-72846000D01*
X56454000Y-76354000D01*
X56454000Y-76354000D01*
G37*
G36*
X55211623Y-67833405D02*
G01*
X55530831Y-67965625D01*
X55818110Y-68157579D01*
X56062421Y-68401890D01*
X56254375Y-68689169D01*
X56386595Y-69008377D01*
X56454000Y-69347246D01*
X56454000Y-69692754D01*
X56386595Y-70031623D01*
X56254375Y-70350831D01*
X56062421Y-70638110D01*
X55818110Y-70882421D01*
X55530831Y-71074375D01*
X55530830Y-71074376D01*
X55530829Y-71074376D01*
X55211623Y-71206595D01*
X54872755Y-71274000D01*
X54527245Y-71274000D01*
X54188377Y-71206595D01*
X53869171Y-71074376D01*
X53869170Y-71074376D01*
X53869169Y-71074375D01*
X53581890Y-70882421D01*
X53337579Y-70638110D01*
X53145625Y-70350831D01*
X53013405Y-70031623D01*
X52946000Y-69692754D01*
X52946000Y-69347246D01*
X53013405Y-69008377D01*
X53145625Y-68689169D01*
X53337579Y-68401890D01*
X53581890Y-68157579D01*
X53869169Y-67965625D01*
X54188377Y-67833405D01*
X54527245Y-67766000D01*
X54872755Y-67766000D01*
X55211623Y-67833405D01*
X55211623Y-67833405D01*
G37*
G36*
X90411623Y-67833405D02*
G01*
X90730831Y-67965625D01*
X91018110Y-68157579D01*
X91262421Y-68401890D01*
X91454375Y-68689169D01*
X91586595Y-69008377D01*
X91654000Y-69347246D01*
X91654000Y-69692754D01*
X91586595Y-70031623D01*
X91454375Y-70350831D01*
X91262421Y-70638110D01*
X91018110Y-70882421D01*
X90730831Y-71074375D01*
X90730830Y-71074376D01*
X90730829Y-71074376D01*
X90411623Y-71206595D01*
X90072755Y-71274000D01*
X89727245Y-71274000D01*
X89388377Y-71206595D01*
X89069171Y-71074376D01*
X89069170Y-71074376D01*
X89069169Y-71074375D01*
X88781890Y-70882421D01*
X88537579Y-70638110D01*
X88345625Y-70350831D01*
X88213405Y-70031623D01*
X88146000Y-69692754D01*
X88146000Y-69347246D01*
X88213405Y-69008377D01*
X88345625Y-68689169D01*
X88537579Y-68401890D01*
X88781890Y-68157579D01*
X89069169Y-67965625D01*
X89388377Y-67833405D01*
X89727245Y-67766000D01*
X90072755Y-67766000D01*
X90411623Y-67833405D01*
X90411623Y-67833405D01*
G37*
G36*
X55211623Y-62753405D02*
G01*
X55530831Y-62885625D01*
X55818110Y-63077579D01*
X56062421Y-63321890D01*
X56254375Y-63609169D01*
X56386595Y-63928377D01*
X56454000Y-64267246D01*
X56454000Y-64612754D01*
X56386595Y-64951623D01*
X56254375Y-65270831D01*
X56062421Y-65558110D01*
X55818110Y-65802421D01*
X55530831Y-65994375D01*
X55530830Y-65994376D01*
X55530829Y-65994376D01*
X55211623Y-66126595D01*
X54872755Y-66194000D01*
X54527245Y-66194000D01*
X54188377Y-66126595D01*
X53869171Y-65994376D01*
X53869170Y-65994376D01*
X53869169Y-65994375D01*
X53581890Y-65802421D01*
X53337579Y-65558110D01*
X53145625Y-65270831D01*
X53013405Y-64951623D01*
X52946000Y-64612754D01*
X52946000Y-64267246D01*
X53013405Y-63928377D01*
X53145625Y-63609169D01*
X53337579Y-63321890D01*
X53581890Y-63077579D01*
X53869169Y-62885625D01*
X54188377Y-62753405D01*
X54527245Y-62686000D01*
X54872755Y-62686000D01*
X55211623Y-62753405D01*
X55211623Y-62753405D01*
G37*
G36*
X90411623Y-62753405D02*
G01*
X90730831Y-62885625D01*
X91018110Y-63077579D01*
X91262421Y-63321890D01*
X91454375Y-63609169D01*
X91586595Y-63928377D01*
X91654000Y-64267246D01*
X91654000Y-64612754D01*
X91586595Y-64951623D01*
X91454375Y-65270831D01*
X91262421Y-65558110D01*
X91018110Y-65802421D01*
X90730831Y-65994375D01*
X90730830Y-65994376D01*
X90730829Y-65994376D01*
X90411623Y-66126595D01*
X90072755Y-66194000D01*
X89727245Y-66194000D01*
X89388377Y-66126595D01*
X89069171Y-65994376D01*
X89069170Y-65994376D01*
X89069169Y-65994375D01*
X88781890Y-65802421D01*
X88537579Y-65558110D01*
X88345625Y-65270831D01*
X88213405Y-64951623D01*
X88146000Y-64612754D01*
X88146000Y-64267246D01*
X88213405Y-63928377D01*
X88345625Y-63609169D01*
X88537579Y-63321890D01*
X88781890Y-63077579D01*
X89069169Y-62885625D01*
X89388377Y-62753405D01*
X89727245Y-62686000D01*
X90072755Y-62686000D01*
X90411623Y-62753405D01*
X90411623Y-62753405D01*
G37*
G36*
X91654000Y-61114000D02*
G01*
X88146000Y-61114000D01*
X88146000Y-57606000D01*
X91654000Y-57606000D01*
X91654000Y-61114000D01*
X91654000Y-61114000D01*
G37*
G36*
X55211623Y-57673405D02*
G01*
X55530831Y-57805625D01*
X55818110Y-57997579D01*
X56062421Y-58241890D01*
X56254375Y-58529169D01*
X56386595Y-58848377D01*
X56454000Y-59187246D01*
X56454000Y-59532754D01*
X56386595Y-59871623D01*
X56254375Y-60190831D01*
X56062421Y-60478110D01*
X55818110Y-60722421D01*
X55530831Y-60914375D01*
X55530830Y-60914376D01*
X55530829Y-60914376D01*
X55211623Y-61046595D01*
X54872755Y-61114000D01*
X54527245Y-61114000D01*
X54188377Y-61046595D01*
X53869171Y-60914376D01*
X53869170Y-60914376D01*
X53869169Y-60914375D01*
X53581890Y-60722421D01*
X53337579Y-60478110D01*
X53145625Y-60190831D01*
X53013405Y-59871623D01*
X52946000Y-59532754D01*
X52946000Y-59187246D01*
X53013405Y-58848377D01*
X53145625Y-58529169D01*
X53337579Y-58241890D01*
X53581890Y-57997579D01*
X53869169Y-57805625D01*
X54188377Y-57673405D01*
X54527245Y-57606000D01*
X54872755Y-57606000D01*
X55211623Y-57673405D01*
X55211623Y-57673405D01*
G37*
G36*
X90411623Y-50253405D02*
G01*
X90730831Y-50385625D01*
X91018110Y-50577579D01*
X91262421Y-50821890D01*
X91454375Y-51109169D01*
X91586595Y-51428377D01*
X91654000Y-51767246D01*
X91654000Y-52112754D01*
X91586595Y-52451623D01*
X91454375Y-52770831D01*
X91262421Y-53058110D01*
X91018110Y-53302421D01*
X90730831Y-53494375D01*
X90730830Y-53494376D01*
X90730829Y-53494376D01*
X90411623Y-53626595D01*
X90072755Y-53694000D01*
X89727245Y-53694000D01*
X89388377Y-53626595D01*
X89069171Y-53494376D01*
X89069170Y-53494376D01*
X89069169Y-53494375D01*
X88781890Y-53302421D01*
X88537579Y-53058110D01*
X88345625Y-52770831D01*
X88213405Y-52451623D01*
X88146000Y-52112754D01*
X88146000Y-51767246D01*
X88213405Y-51428377D01*
X88345625Y-51109169D01*
X88537579Y-50821890D01*
X88781890Y-50577579D01*
X89069169Y-50385625D01*
X89388377Y-50253405D01*
X89727245Y-50186000D01*
X90072755Y-50186000D01*
X90411623Y-50253405D01*
X90411623Y-50253405D01*
G37*
G36*
X56254000Y-53654000D02*
G01*
X52746000Y-53654000D01*
X52746000Y-50146000D01*
X56254000Y-50146000D01*
X56254000Y-53654000D01*
X56254000Y-53654000D01*
G37*
G36*
X90411623Y-45173405D02*
G01*
X90634263Y-45265625D01*
X90730831Y-45305625D01*
X91018110Y-45497579D01*
X91262421Y-45741890D01*
X91427649Y-45989171D01*
X91454376Y-46029171D01*
X91586595Y-46348377D01*
X91646044Y-46647245D01*
X91654000Y-46687246D01*
X91654000Y-47032754D01*
X91586595Y-47371623D01*
X91454375Y-47690831D01*
X91262421Y-47978110D01*
X91018110Y-48222421D01*
X90730831Y-48414375D01*
X90730830Y-48414376D01*
X90730829Y-48414376D01*
X90411623Y-48546595D01*
X90072755Y-48614000D01*
X89727245Y-48614000D01*
X89388377Y-48546595D01*
X89069171Y-48414376D01*
X89069170Y-48414376D01*
X89069169Y-48414375D01*
X88781890Y-48222421D01*
X88537579Y-47978110D01*
X88345625Y-47690831D01*
X88213405Y-47371623D01*
X88146000Y-47032754D01*
X88146000Y-46687246D01*
X88153957Y-46647245D01*
X88213405Y-46348377D01*
X88345624Y-46029171D01*
X88372351Y-45989171D01*
X88537579Y-45741890D01*
X88781890Y-45497579D01*
X89069169Y-45305625D01*
X89165738Y-45265625D01*
X89388377Y-45173405D01*
X89727245Y-45106000D01*
X90072755Y-45106000D01*
X90411623Y-45173405D01*
X90411623Y-45173405D01*
G37*
G36*
X55011623Y-45133405D02*
G01*
X55330831Y-45265625D01*
X55618110Y-45457579D01*
X55862421Y-45701890D01*
X56054375Y-45989169D01*
X56054376Y-45989171D01*
X56186595Y-46308377D01*
X56254000Y-46647245D01*
X56254000Y-46992755D01*
X56186595Y-47331623D01*
X56170027Y-47371623D01*
X56054375Y-47650831D01*
X55862421Y-47938110D01*
X55618110Y-48182421D01*
X55330831Y-48374375D01*
X55330830Y-48374376D01*
X55330829Y-48374376D01*
X55011623Y-48506595D01*
X54672755Y-48574000D01*
X54327245Y-48574000D01*
X53988377Y-48506595D01*
X53669171Y-48374376D01*
X53669170Y-48374376D01*
X53669169Y-48374375D01*
X53381890Y-48182421D01*
X53137579Y-47938110D01*
X52945625Y-47650831D01*
X52829974Y-47371623D01*
X52813405Y-47331623D01*
X52746000Y-46992755D01*
X52746000Y-46647245D01*
X52813405Y-46308377D01*
X52945624Y-45989171D01*
X52945625Y-45989169D01*
X53137579Y-45701890D01*
X53381890Y-45457579D01*
X53669169Y-45265625D01*
X53988377Y-45133405D01*
X54327245Y-45066000D01*
X54672755Y-45066000D01*
X55011623Y-45133405D01*
X55011623Y-45133405D01*
G37*
G36*
X90411623Y-40093405D02*
G01*
X90634263Y-40185625D01*
X90730831Y-40225625D01*
X91018110Y-40417579D01*
X91262421Y-40661890D01*
X91427649Y-40909171D01*
X91454376Y-40949171D01*
X91586595Y-41268377D01*
X91646044Y-41567245D01*
X91654000Y-41607246D01*
X91654000Y-41952754D01*
X91586595Y-42291623D01*
X91454375Y-42610831D01*
X91262421Y-42898110D01*
X91018110Y-43142421D01*
X90730831Y-43334375D01*
X90730830Y-43334376D01*
X90730829Y-43334376D01*
X90411623Y-43466595D01*
X90072755Y-43534000D01*
X89727245Y-43534000D01*
X89388377Y-43466595D01*
X89069171Y-43334376D01*
X89069170Y-43334376D01*
X89069169Y-43334375D01*
X88781890Y-43142421D01*
X88537579Y-42898110D01*
X88345625Y-42610831D01*
X88213405Y-42291623D01*
X88146000Y-41952754D01*
X88146000Y-41607246D01*
X88153957Y-41567245D01*
X88213405Y-41268377D01*
X88345624Y-40949171D01*
X88372351Y-40909171D01*
X88537579Y-40661890D01*
X88781890Y-40417579D01*
X89069169Y-40225625D01*
X89165738Y-40185625D01*
X89388377Y-40093405D01*
X89727245Y-40026000D01*
X90072755Y-40026000D01*
X90411623Y-40093405D01*
X90411623Y-40093405D01*
G37*
G36*
X55011623Y-40053405D02*
G01*
X55330831Y-40185625D01*
X55618110Y-40377579D01*
X55862421Y-40621890D01*
X56054375Y-40909169D01*
X56054376Y-40909171D01*
X56186595Y-41228377D01*
X56254000Y-41567245D01*
X56254000Y-41912755D01*
X56186595Y-42251623D01*
X56170027Y-42291623D01*
X56054375Y-42570831D01*
X55862421Y-42858110D01*
X55618110Y-43102421D01*
X55330831Y-43294375D01*
X55330830Y-43294376D01*
X55330829Y-43294376D01*
X55011623Y-43426595D01*
X54672755Y-43494000D01*
X54327245Y-43494000D01*
X53988377Y-43426595D01*
X53669171Y-43294376D01*
X53669170Y-43294376D01*
X53669169Y-43294375D01*
X53381890Y-43102421D01*
X53137579Y-42858110D01*
X52945625Y-42570831D01*
X52829974Y-42291623D01*
X52813405Y-42251623D01*
X52746000Y-41912755D01*
X52746000Y-41567245D01*
X52813405Y-41228377D01*
X52945624Y-40909171D01*
X52945625Y-40909169D01*
X53137579Y-40621890D01*
X53381890Y-40377579D01*
X53669169Y-40185625D01*
X53988377Y-40053405D01*
X54327245Y-39986000D01*
X54672755Y-39986000D01*
X55011623Y-40053405D01*
X55011623Y-40053405D01*
G37*
G36*
X91654000Y-38454000D02*
G01*
X88146000Y-38454000D01*
X88146000Y-34946000D01*
X91654000Y-34946000D01*
X91654000Y-38454000D01*
X91654000Y-38454000D01*
G37*
G36*
X55011623Y-34973405D02*
G01*
X55330831Y-35105625D01*
X55618110Y-35297579D01*
X55862421Y-35541890D01*
X56054375Y-35829169D01*
X56186595Y-36148377D01*
X56254000Y-36487246D01*
X56254000Y-36832754D01*
X56186595Y-37171623D01*
X56054375Y-37490831D01*
X55862421Y-37778110D01*
X55618110Y-38022421D01*
X55330831Y-38214375D01*
X55330830Y-38214376D01*
X55330829Y-38214376D01*
X55011623Y-38346595D01*
X54672755Y-38414000D01*
X54327245Y-38414000D01*
X53988377Y-38346595D01*
X53669171Y-38214376D01*
X53669170Y-38214376D01*
X53669169Y-38214375D01*
X53381890Y-38022421D01*
X53137579Y-37778110D01*
X52945625Y-37490831D01*
X52813405Y-37171623D01*
X52746000Y-36832754D01*
X52746000Y-36487246D01*
X52813405Y-36148377D01*
X52945625Y-35829169D01*
X53137579Y-35541890D01*
X53381890Y-35297579D01*
X53669169Y-35105625D01*
X53988377Y-34973405D01*
X54327245Y-34906000D01*
X54672755Y-34906000D01*
X55011623Y-34973405D01*
X55011623Y-34973405D01*
G37*
G36*
X92666801Y-27201849D02*
G01*
X93082825Y-27374172D01*
X93082827Y-27374173D01*
X93457240Y-27624348D01*
X93775652Y-27942760D01*
X94025827Y-28317173D01*
X94025828Y-28317175D01*
X94198151Y-28733199D01*
X94286000Y-29174847D01*
X94286000Y-29625153D01*
X94198151Y-30066801D01*
X94025828Y-30482825D01*
X94025827Y-30482827D01*
X93775652Y-30857240D01*
X93457240Y-31175652D01*
X93082827Y-31425827D01*
X93082826Y-31425828D01*
X93082825Y-31425828D01*
X92666801Y-31598151D01*
X92225153Y-31686000D01*
X91774847Y-31686000D01*
X91333199Y-31598151D01*
X90917175Y-31425828D01*
X90917174Y-31425828D01*
X90917173Y-31425827D01*
X90542760Y-31175652D01*
X90224348Y-30857240D01*
X89974173Y-30482827D01*
X89974172Y-30482825D01*
X89801849Y-30066801D01*
X89714000Y-29625153D01*
X89714000Y-29174847D01*
X89801849Y-28733199D01*
X89974172Y-28317175D01*
X89974173Y-28317173D01*
X90224348Y-27942760D01*
X90542760Y-27624348D01*
X90917173Y-27374173D01*
X90917175Y-27374172D01*
X91333199Y-27201849D01*
X91774847Y-27114000D01*
X92225153Y-27114000D01*
X92666801Y-27201849D01*
X92666801Y-27201849D01*
G37*
G36*
X52666801Y-27201849D02*
G01*
X53082825Y-27374172D01*
X53082827Y-27374173D01*
X53457240Y-27624348D01*
X53775652Y-27942760D01*
X54025827Y-28317173D01*
X54025828Y-28317175D01*
X54198151Y-28733199D01*
X54286000Y-29174847D01*
X54286000Y-29625153D01*
X54198151Y-30066801D01*
X54025828Y-30482825D01*
X54025827Y-30482827D01*
X53775652Y-30857240D01*
X53457240Y-31175652D01*
X53082827Y-31425827D01*
X53082826Y-31425828D01*
X53082825Y-31425828D01*
X52666801Y-31598151D01*
X52225153Y-31686000D01*
X51774847Y-31686000D01*
X51333199Y-31598151D01*
X50917175Y-31425828D01*
X50917174Y-31425828D01*
X50917173Y-31425827D01*
X50542760Y-31175652D01*
X50224348Y-30857240D01*
X49974173Y-30482827D01*
X49974172Y-30482825D01*
X49801849Y-30066801D01*
X49714000Y-29625153D01*
X49714000Y-29174847D01*
X49801849Y-28733199D01*
X49974172Y-28317175D01*
X49974173Y-28317173D01*
X50224348Y-27942760D01*
X50542760Y-27624348D01*
X50917173Y-27374173D01*
X50917175Y-27374172D01*
X51333199Y-27201849D01*
X51774847Y-27114000D01*
X52225153Y-27114000D01*
X52666801Y-27201849D01*
X52666801Y-27201849D01*
G37*
M02*
