G04 #@! TF.GenerationSoftware,KiCad,Pcbnew,(5.1.4)-1*
G04 #@! TF.CreationDate,2020-09-21T14:40:53+02:00*
G04 #@! TF.ProjectId,triggerbox,74726967-6765-4726-926f-782e6b696361,rev?*
G04 #@! TF.SameCoordinates,Original*
G04 #@! TF.FileFunction,Paste,Top*
G04 #@! TF.FilePolarity,Positive*
%FSLAX46Y46*%
G04 Gerber Fmt 4.6, Leading zero omitted, Abs format (unit mm)*
G04 Created by KiCad (PCBNEW (5.1.4)-1) date 2020-09-21 14:40:53*
%MOMM*%
%LPD*%
G04 APERTURE LIST*
%ADD10C,0.150000*%
%ADD11C,0.600000*%
%ADD12C,0.875000*%
%ADD13C,0.950000*%
G04 APERTURE END LIST*
D10*
G36*
X75814703Y-109195722D02*
G01*
X75829264Y-109197882D01*
X75843543Y-109201459D01*
X75857403Y-109206418D01*
X75870710Y-109212712D01*
X75883336Y-109220280D01*
X75895159Y-109229048D01*
X75906066Y-109238934D01*
X75915952Y-109249841D01*
X75924720Y-109261664D01*
X75932288Y-109274290D01*
X75938582Y-109287597D01*
X75943541Y-109301457D01*
X75947118Y-109315736D01*
X75949278Y-109330297D01*
X75950000Y-109345000D01*
X75950000Y-109645000D01*
X75949278Y-109659703D01*
X75947118Y-109674264D01*
X75943541Y-109688543D01*
X75938582Y-109702403D01*
X75932288Y-109715710D01*
X75924720Y-109728336D01*
X75915952Y-109740159D01*
X75906066Y-109751066D01*
X75895159Y-109760952D01*
X75883336Y-109769720D01*
X75870710Y-109777288D01*
X75857403Y-109783582D01*
X75843543Y-109788541D01*
X75829264Y-109792118D01*
X75814703Y-109794278D01*
X75800000Y-109795000D01*
X74150000Y-109795000D01*
X74135297Y-109794278D01*
X74120736Y-109792118D01*
X74106457Y-109788541D01*
X74092597Y-109783582D01*
X74079290Y-109777288D01*
X74066664Y-109769720D01*
X74054841Y-109760952D01*
X74043934Y-109751066D01*
X74034048Y-109740159D01*
X74025280Y-109728336D01*
X74017712Y-109715710D01*
X74011418Y-109702403D01*
X74006459Y-109688543D01*
X74002882Y-109674264D01*
X74000722Y-109659703D01*
X74000000Y-109645000D01*
X74000000Y-109345000D01*
X74000722Y-109330297D01*
X74002882Y-109315736D01*
X74006459Y-109301457D01*
X74011418Y-109287597D01*
X74017712Y-109274290D01*
X74025280Y-109261664D01*
X74034048Y-109249841D01*
X74043934Y-109238934D01*
X74054841Y-109229048D01*
X74066664Y-109220280D01*
X74079290Y-109212712D01*
X74092597Y-109206418D01*
X74106457Y-109201459D01*
X74120736Y-109197882D01*
X74135297Y-109195722D01*
X74150000Y-109195000D01*
X75800000Y-109195000D01*
X75814703Y-109195722D01*
X75814703Y-109195722D01*
G37*
D11*
X74975000Y-109495000D03*
D10*
G36*
X75814703Y-110465722D02*
G01*
X75829264Y-110467882D01*
X75843543Y-110471459D01*
X75857403Y-110476418D01*
X75870710Y-110482712D01*
X75883336Y-110490280D01*
X75895159Y-110499048D01*
X75906066Y-110508934D01*
X75915952Y-110519841D01*
X75924720Y-110531664D01*
X75932288Y-110544290D01*
X75938582Y-110557597D01*
X75943541Y-110571457D01*
X75947118Y-110585736D01*
X75949278Y-110600297D01*
X75950000Y-110615000D01*
X75950000Y-110915000D01*
X75949278Y-110929703D01*
X75947118Y-110944264D01*
X75943541Y-110958543D01*
X75938582Y-110972403D01*
X75932288Y-110985710D01*
X75924720Y-110998336D01*
X75915952Y-111010159D01*
X75906066Y-111021066D01*
X75895159Y-111030952D01*
X75883336Y-111039720D01*
X75870710Y-111047288D01*
X75857403Y-111053582D01*
X75843543Y-111058541D01*
X75829264Y-111062118D01*
X75814703Y-111064278D01*
X75800000Y-111065000D01*
X74150000Y-111065000D01*
X74135297Y-111064278D01*
X74120736Y-111062118D01*
X74106457Y-111058541D01*
X74092597Y-111053582D01*
X74079290Y-111047288D01*
X74066664Y-111039720D01*
X74054841Y-111030952D01*
X74043934Y-111021066D01*
X74034048Y-111010159D01*
X74025280Y-110998336D01*
X74017712Y-110985710D01*
X74011418Y-110972403D01*
X74006459Y-110958543D01*
X74002882Y-110944264D01*
X74000722Y-110929703D01*
X74000000Y-110915000D01*
X74000000Y-110615000D01*
X74000722Y-110600297D01*
X74002882Y-110585736D01*
X74006459Y-110571457D01*
X74011418Y-110557597D01*
X74017712Y-110544290D01*
X74025280Y-110531664D01*
X74034048Y-110519841D01*
X74043934Y-110508934D01*
X74054841Y-110499048D01*
X74066664Y-110490280D01*
X74079290Y-110482712D01*
X74092597Y-110476418D01*
X74106457Y-110471459D01*
X74120736Y-110467882D01*
X74135297Y-110465722D01*
X74150000Y-110465000D01*
X75800000Y-110465000D01*
X75814703Y-110465722D01*
X75814703Y-110465722D01*
G37*
D11*
X74975000Y-110765000D03*
D10*
G36*
X75814703Y-111735722D02*
G01*
X75829264Y-111737882D01*
X75843543Y-111741459D01*
X75857403Y-111746418D01*
X75870710Y-111752712D01*
X75883336Y-111760280D01*
X75895159Y-111769048D01*
X75906066Y-111778934D01*
X75915952Y-111789841D01*
X75924720Y-111801664D01*
X75932288Y-111814290D01*
X75938582Y-111827597D01*
X75943541Y-111841457D01*
X75947118Y-111855736D01*
X75949278Y-111870297D01*
X75950000Y-111885000D01*
X75950000Y-112185000D01*
X75949278Y-112199703D01*
X75947118Y-112214264D01*
X75943541Y-112228543D01*
X75938582Y-112242403D01*
X75932288Y-112255710D01*
X75924720Y-112268336D01*
X75915952Y-112280159D01*
X75906066Y-112291066D01*
X75895159Y-112300952D01*
X75883336Y-112309720D01*
X75870710Y-112317288D01*
X75857403Y-112323582D01*
X75843543Y-112328541D01*
X75829264Y-112332118D01*
X75814703Y-112334278D01*
X75800000Y-112335000D01*
X74150000Y-112335000D01*
X74135297Y-112334278D01*
X74120736Y-112332118D01*
X74106457Y-112328541D01*
X74092597Y-112323582D01*
X74079290Y-112317288D01*
X74066664Y-112309720D01*
X74054841Y-112300952D01*
X74043934Y-112291066D01*
X74034048Y-112280159D01*
X74025280Y-112268336D01*
X74017712Y-112255710D01*
X74011418Y-112242403D01*
X74006459Y-112228543D01*
X74002882Y-112214264D01*
X74000722Y-112199703D01*
X74000000Y-112185000D01*
X74000000Y-111885000D01*
X74000722Y-111870297D01*
X74002882Y-111855736D01*
X74006459Y-111841457D01*
X74011418Y-111827597D01*
X74017712Y-111814290D01*
X74025280Y-111801664D01*
X74034048Y-111789841D01*
X74043934Y-111778934D01*
X74054841Y-111769048D01*
X74066664Y-111760280D01*
X74079290Y-111752712D01*
X74092597Y-111746418D01*
X74106457Y-111741459D01*
X74120736Y-111737882D01*
X74135297Y-111735722D01*
X74150000Y-111735000D01*
X75800000Y-111735000D01*
X75814703Y-111735722D01*
X75814703Y-111735722D01*
G37*
D11*
X74975000Y-112035000D03*
D10*
G36*
X75814703Y-113005722D02*
G01*
X75829264Y-113007882D01*
X75843543Y-113011459D01*
X75857403Y-113016418D01*
X75870710Y-113022712D01*
X75883336Y-113030280D01*
X75895159Y-113039048D01*
X75906066Y-113048934D01*
X75915952Y-113059841D01*
X75924720Y-113071664D01*
X75932288Y-113084290D01*
X75938582Y-113097597D01*
X75943541Y-113111457D01*
X75947118Y-113125736D01*
X75949278Y-113140297D01*
X75950000Y-113155000D01*
X75950000Y-113455000D01*
X75949278Y-113469703D01*
X75947118Y-113484264D01*
X75943541Y-113498543D01*
X75938582Y-113512403D01*
X75932288Y-113525710D01*
X75924720Y-113538336D01*
X75915952Y-113550159D01*
X75906066Y-113561066D01*
X75895159Y-113570952D01*
X75883336Y-113579720D01*
X75870710Y-113587288D01*
X75857403Y-113593582D01*
X75843543Y-113598541D01*
X75829264Y-113602118D01*
X75814703Y-113604278D01*
X75800000Y-113605000D01*
X74150000Y-113605000D01*
X74135297Y-113604278D01*
X74120736Y-113602118D01*
X74106457Y-113598541D01*
X74092597Y-113593582D01*
X74079290Y-113587288D01*
X74066664Y-113579720D01*
X74054841Y-113570952D01*
X74043934Y-113561066D01*
X74034048Y-113550159D01*
X74025280Y-113538336D01*
X74017712Y-113525710D01*
X74011418Y-113512403D01*
X74006459Y-113498543D01*
X74002882Y-113484264D01*
X74000722Y-113469703D01*
X74000000Y-113455000D01*
X74000000Y-113155000D01*
X74000722Y-113140297D01*
X74002882Y-113125736D01*
X74006459Y-113111457D01*
X74011418Y-113097597D01*
X74017712Y-113084290D01*
X74025280Y-113071664D01*
X74034048Y-113059841D01*
X74043934Y-113048934D01*
X74054841Y-113039048D01*
X74066664Y-113030280D01*
X74079290Y-113022712D01*
X74092597Y-113016418D01*
X74106457Y-113011459D01*
X74120736Y-113007882D01*
X74135297Y-113005722D01*
X74150000Y-113005000D01*
X75800000Y-113005000D01*
X75814703Y-113005722D01*
X75814703Y-113005722D01*
G37*
D11*
X74975000Y-113305000D03*
D10*
G36*
X70864703Y-113005722D02*
G01*
X70879264Y-113007882D01*
X70893543Y-113011459D01*
X70907403Y-113016418D01*
X70920710Y-113022712D01*
X70933336Y-113030280D01*
X70945159Y-113039048D01*
X70956066Y-113048934D01*
X70965952Y-113059841D01*
X70974720Y-113071664D01*
X70982288Y-113084290D01*
X70988582Y-113097597D01*
X70993541Y-113111457D01*
X70997118Y-113125736D01*
X70999278Y-113140297D01*
X71000000Y-113155000D01*
X71000000Y-113455000D01*
X70999278Y-113469703D01*
X70997118Y-113484264D01*
X70993541Y-113498543D01*
X70988582Y-113512403D01*
X70982288Y-113525710D01*
X70974720Y-113538336D01*
X70965952Y-113550159D01*
X70956066Y-113561066D01*
X70945159Y-113570952D01*
X70933336Y-113579720D01*
X70920710Y-113587288D01*
X70907403Y-113593582D01*
X70893543Y-113598541D01*
X70879264Y-113602118D01*
X70864703Y-113604278D01*
X70850000Y-113605000D01*
X69200000Y-113605000D01*
X69185297Y-113604278D01*
X69170736Y-113602118D01*
X69156457Y-113598541D01*
X69142597Y-113593582D01*
X69129290Y-113587288D01*
X69116664Y-113579720D01*
X69104841Y-113570952D01*
X69093934Y-113561066D01*
X69084048Y-113550159D01*
X69075280Y-113538336D01*
X69067712Y-113525710D01*
X69061418Y-113512403D01*
X69056459Y-113498543D01*
X69052882Y-113484264D01*
X69050722Y-113469703D01*
X69050000Y-113455000D01*
X69050000Y-113155000D01*
X69050722Y-113140297D01*
X69052882Y-113125736D01*
X69056459Y-113111457D01*
X69061418Y-113097597D01*
X69067712Y-113084290D01*
X69075280Y-113071664D01*
X69084048Y-113059841D01*
X69093934Y-113048934D01*
X69104841Y-113039048D01*
X69116664Y-113030280D01*
X69129290Y-113022712D01*
X69142597Y-113016418D01*
X69156457Y-113011459D01*
X69170736Y-113007882D01*
X69185297Y-113005722D01*
X69200000Y-113005000D01*
X70850000Y-113005000D01*
X70864703Y-113005722D01*
X70864703Y-113005722D01*
G37*
D11*
X70025000Y-113305000D03*
D10*
G36*
X70864703Y-111735722D02*
G01*
X70879264Y-111737882D01*
X70893543Y-111741459D01*
X70907403Y-111746418D01*
X70920710Y-111752712D01*
X70933336Y-111760280D01*
X70945159Y-111769048D01*
X70956066Y-111778934D01*
X70965952Y-111789841D01*
X70974720Y-111801664D01*
X70982288Y-111814290D01*
X70988582Y-111827597D01*
X70993541Y-111841457D01*
X70997118Y-111855736D01*
X70999278Y-111870297D01*
X71000000Y-111885000D01*
X71000000Y-112185000D01*
X70999278Y-112199703D01*
X70997118Y-112214264D01*
X70993541Y-112228543D01*
X70988582Y-112242403D01*
X70982288Y-112255710D01*
X70974720Y-112268336D01*
X70965952Y-112280159D01*
X70956066Y-112291066D01*
X70945159Y-112300952D01*
X70933336Y-112309720D01*
X70920710Y-112317288D01*
X70907403Y-112323582D01*
X70893543Y-112328541D01*
X70879264Y-112332118D01*
X70864703Y-112334278D01*
X70850000Y-112335000D01*
X69200000Y-112335000D01*
X69185297Y-112334278D01*
X69170736Y-112332118D01*
X69156457Y-112328541D01*
X69142597Y-112323582D01*
X69129290Y-112317288D01*
X69116664Y-112309720D01*
X69104841Y-112300952D01*
X69093934Y-112291066D01*
X69084048Y-112280159D01*
X69075280Y-112268336D01*
X69067712Y-112255710D01*
X69061418Y-112242403D01*
X69056459Y-112228543D01*
X69052882Y-112214264D01*
X69050722Y-112199703D01*
X69050000Y-112185000D01*
X69050000Y-111885000D01*
X69050722Y-111870297D01*
X69052882Y-111855736D01*
X69056459Y-111841457D01*
X69061418Y-111827597D01*
X69067712Y-111814290D01*
X69075280Y-111801664D01*
X69084048Y-111789841D01*
X69093934Y-111778934D01*
X69104841Y-111769048D01*
X69116664Y-111760280D01*
X69129290Y-111752712D01*
X69142597Y-111746418D01*
X69156457Y-111741459D01*
X69170736Y-111737882D01*
X69185297Y-111735722D01*
X69200000Y-111735000D01*
X70850000Y-111735000D01*
X70864703Y-111735722D01*
X70864703Y-111735722D01*
G37*
D11*
X70025000Y-112035000D03*
D10*
G36*
X70864703Y-110465722D02*
G01*
X70879264Y-110467882D01*
X70893543Y-110471459D01*
X70907403Y-110476418D01*
X70920710Y-110482712D01*
X70933336Y-110490280D01*
X70945159Y-110499048D01*
X70956066Y-110508934D01*
X70965952Y-110519841D01*
X70974720Y-110531664D01*
X70982288Y-110544290D01*
X70988582Y-110557597D01*
X70993541Y-110571457D01*
X70997118Y-110585736D01*
X70999278Y-110600297D01*
X71000000Y-110615000D01*
X71000000Y-110915000D01*
X70999278Y-110929703D01*
X70997118Y-110944264D01*
X70993541Y-110958543D01*
X70988582Y-110972403D01*
X70982288Y-110985710D01*
X70974720Y-110998336D01*
X70965952Y-111010159D01*
X70956066Y-111021066D01*
X70945159Y-111030952D01*
X70933336Y-111039720D01*
X70920710Y-111047288D01*
X70907403Y-111053582D01*
X70893543Y-111058541D01*
X70879264Y-111062118D01*
X70864703Y-111064278D01*
X70850000Y-111065000D01*
X69200000Y-111065000D01*
X69185297Y-111064278D01*
X69170736Y-111062118D01*
X69156457Y-111058541D01*
X69142597Y-111053582D01*
X69129290Y-111047288D01*
X69116664Y-111039720D01*
X69104841Y-111030952D01*
X69093934Y-111021066D01*
X69084048Y-111010159D01*
X69075280Y-110998336D01*
X69067712Y-110985710D01*
X69061418Y-110972403D01*
X69056459Y-110958543D01*
X69052882Y-110944264D01*
X69050722Y-110929703D01*
X69050000Y-110915000D01*
X69050000Y-110615000D01*
X69050722Y-110600297D01*
X69052882Y-110585736D01*
X69056459Y-110571457D01*
X69061418Y-110557597D01*
X69067712Y-110544290D01*
X69075280Y-110531664D01*
X69084048Y-110519841D01*
X69093934Y-110508934D01*
X69104841Y-110499048D01*
X69116664Y-110490280D01*
X69129290Y-110482712D01*
X69142597Y-110476418D01*
X69156457Y-110471459D01*
X69170736Y-110467882D01*
X69185297Y-110465722D01*
X69200000Y-110465000D01*
X70850000Y-110465000D01*
X70864703Y-110465722D01*
X70864703Y-110465722D01*
G37*
D11*
X70025000Y-110765000D03*
D10*
G36*
X70864703Y-109195722D02*
G01*
X70879264Y-109197882D01*
X70893543Y-109201459D01*
X70907403Y-109206418D01*
X70920710Y-109212712D01*
X70933336Y-109220280D01*
X70945159Y-109229048D01*
X70956066Y-109238934D01*
X70965952Y-109249841D01*
X70974720Y-109261664D01*
X70982288Y-109274290D01*
X70988582Y-109287597D01*
X70993541Y-109301457D01*
X70997118Y-109315736D01*
X70999278Y-109330297D01*
X71000000Y-109345000D01*
X71000000Y-109645000D01*
X70999278Y-109659703D01*
X70997118Y-109674264D01*
X70993541Y-109688543D01*
X70988582Y-109702403D01*
X70982288Y-109715710D01*
X70974720Y-109728336D01*
X70965952Y-109740159D01*
X70956066Y-109751066D01*
X70945159Y-109760952D01*
X70933336Y-109769720D01*
X70920710Y-109777288D01*
X70907403Y-109783582D01*
X70893543Y-109788541D01*
X70879264Y-109792118D01*
X70864703Y-109794278D01*
X70850000Y-109795000D01*
X69200000Y-109795000D01*
X69185297Y-109794278D01*
X69170736Y-109792118D01*
X69156457Y-109788541D01*
X69142597Y-109783582D01*
X69129290Y-109777288D01*
X69116664Y-109769720D01*
X69104841Y-109760952D01*
X69093934Y-109751066D01*
X69084048Y-109740159D01*
X69075280Y-109728336D01*
X69067712Y-109715710D01*
X69061418Y-109702403D01*
X69056459Y-109688543D01*
X69052882Y-109674264D01*
X69050722Y-109659703D01*
X69050000Y-109645000D01*
X69050000Y-109345000D01*
X69050722Y-109330297D01*
X69052882Y-109315736D01*
X69056459Y-109301457D01*
X69061418Y-109287597D01*
X69067712Y-109274290D01*
X69075280Y-109261664D01*
X69084048Y-109249841D01*
X69093934Y-109238934D01*
X69104841Y-109229048D01*
X69116664Y-109220280D01*
X69129290Y-109212712D01*
X69142597Y-109206418D01*
X69156457Y-109201459D01*
X69170736Y-109197882D01*
X69185297Y-109195722D01*
X69200000Y-109195000D01*
X70850000Y-109195000D01*
X70864703Y-109195722D01*
X70864703Y-109195722D01*
G37*
D11*
X70025000Y-109495000D03*
D10*
G36*
X75814703Y-75810722D02*
G01*
X75829264Y-75812882D01*
X75843543Y-75816459D01*
X75857403Y-75821418D01*
X75870710Y-75827712D01*
X75883336Y-75835280D01*
X75895159Y-75844048D01*
X75906066Y-75853934D01*
X75915952Y-75864841D01*
X75924720Y-75876664D01*
X75932288Y-75889290D01*
X75938582Y-75902597D01*
X75943541Y-75916457D01*
X75947118Y-75930736D01*
X75949278Y-75945297D01*
X75950000Y-75960000D01*
X75950000Y-76260000D01*
X75949278Y-76274703D01*
X75947118Y-76289264D01*
X75943541Y-76303543D01*
X75938582Y-76317403D01*
X75932288Y-76330710D01*
X75924720Y-76343336D01*
X75915952Y-76355159D01*
X75906066Y-76366066D01*
X75895159Y-76375952D01*
X75883336Y-76384720D01*
X75870710Y-76392288D01*
X75857403Y-76398582D01*
X75843543Y-76403541D01*
X75829264Y-76407118D01*
X75814703Y-76409278D01*
X75800000Y-76410000D01*
X74150000Y-76410000D01*
X74135297Y-76409278D01*
X74120736Y-76407118D01*
X74106457Y-76403541D01*
X74092597Y-76398582D01*
X74079290Y-76392288D01*
X74066664Y-76384720D01*
X74054841Y-76375952D01*
X74043934Y-76366066D01*
X74034048Y-76355159D01*
X74025280Y-76343336D01*
X74017712Y-76330710D01*
X74011418Y-76317403D01*
X74006459Y-76303543D01*
X74002882Y-76289264D01*
X74000722Y-76274703D01*
X74000000Y-76260000D01*
X74000000Y-75960000D01*
X74000722Y-75945297D01*
X74002882Y-75930736D01*
X74006459Y-75916457D01*
X74011418Y-75902597D01*
X74017712Y-75889290D01*
X74025280Y-75876664D01*
X74034048Y-75864841D01*
X74043934Y-75853934D01*
X74054841Y-75844048D01*
X74066664Y-75835280D01*
X74079290Y-75827712D01*
X74092597Y-75821418D01*
X74106457Y-75816459D01*
X74120736Y-75812882D01*
X74135297Y-75810722D01*
X74150000Y-75810000D01*
X75800000Y-75810000D01*
X75814703Y-75810722D01*
X75814703Y-75810722D01*
G37*
D11*
X74975000Y-76110000D03*
D10*
G36*
X75814703Y-74540722D02*
G01*
X75829264Y-74542882D01*
X75843543Y-74546459D01*
X75857403Y-74551418D01*
X75870710Y-74557712D01*
X75883336Y-74565280D01*
X75895159Y-74574048D01*
X75906066Y-74583934D01*
X75915952Y-74594841D01*
X75924720Y-74606664D01*
X75932288Y-74619290D01*
X75938582Y-74632597D01*
X75943541Y-74646457D01*
X75947118Y-74660736D01*
X75949278Y-74675297D01*
X75950000Y-74690000D01*
X75950000Y-74990000D01*
X75949278Y-75004703D01*
X75947118Y-75019264D01*
X75943541Y-75033543D01*
X75938582Y-75047403D01*
X75932288Y-75060710D01*
X75924720Y-75073336D01*
X75915952Y-75085159D01*
X75906066Y-75096066D01*
X75895159Y-75105952D01*
X75883336Y-75114720D01*
X75870710Y-75122288D01*
X75857403Y-75128582D01*
X75843543Y-75133541D01*
X75829264Y-75137118D01*
X75814703Y-75139278D01*
X75800000Y-75140000D01*
X74150000Y-75140000D01*
X74135297Y-75139278D01*
X74120736Y-75137118D01*
X74106457Y-75133541D01*
X74092597Y-75128582D01*
X74079290Y-75122288D01*
X74066664Y-75114720D01*
X74054841Y-75105952D01*
X74043934Y-75096066D01*
X74034048Y-75085159D01*
X74025280Y-75073336D01*
X74017712Y-75060710D01*
X74011418Y-75047403D01*
X74006459Y-75033543D01*
X74002882Y-75019264D01*
X74000722Y-75004703D01*
X74000000Y-74990000D01*
X74000000Y-74690000D01*
X74000722Y-74675297D01*
X74002882Y-74660736D01*
X74006459Y-74646457D01*
X74011418Y-74632597D01*
X74017712Y-74619290D01*
X74025280Y-74606664D01*
X74034048Y-74594841D01*
X74043934Y-74583934D01*
X74054841Y-74574048D01*
X74066664Y-74565280D01*
X74079290Y-74557712D01*
X74092597Y-74551418D01*
X74106457Y-74546459D01*
X74120736Y-74542882D01*
X74135297Y-74540722D01*
X74150000Y-74540000D01*
X75800000Y-74540000D01*
X75814703Y-74540722D01*
X75814703Y-74540722D01*
G37*
D11*
X74975000Y-74840000D03*
D10*
G36*
X75814703Y-73270722D02*
G01*
X75829264Y-73272882D01*
X75843543Y-73276459D01*
X75857403Y-73281418D01*
X75870710Y-73287712D01*
X75883336Y-73295280D01*
X75895159Y-73304048D01*
X75906066Y-73313934D01*
X75915952Y-73324841D01*
X75924720Y-73336664D01*
X75932288Y-73349290D01*
X75938582Y-73362597D01*
X75943541Y-73376457D01*
X75947118Y-73390736D01*
X75949278Y-73405297D01*
X75950000Y-73420000D01*
X75950000Y-73720000D01*
X75949278Y-73734703D01*
X75947118Y-73749264D01*
X75943541Y-73763543D01*
X75938582Y-73777403D01*
X75932288Y-73790710D01*
X75924720Y-73803336D01*
X75915952Y-73815159D01*
X75906066Y-73826066D01*
X75895159Y-73835952D01*
X75883336Y-73844720D01*
X75870710Y-73852288D01*
X75857403Y-73858582D01*
X75843543Y-73863541D01*
X75829264Y-73867118D01*
X75814703Y-73869278D01*
X75800000Y-73870000D01*
X74150000Y-73870000D01*
X74135297Y-73869278D01*
X74120736Y-73867118D01*
X74106457Y-73863541D01*
X74092597Y-73858582D01*
X74079290Y-73852288D01*
X74066664Y-73844720D01*
X74054841Y-73835952D01*
X74043934Y-73826066D01*
X74034048Y-73815159D01*
X74025280Y-73803336D01*
X74017712Y-73790710D01*
X74011418Y-73777403D01*
X74006459Y-73763543D01*
X74002882Y-73749264D01*
X74000722Y-73734703D01*
X74000000Y-73720000D01*
X74000000Y-73420000D01*
X74000722Y-73405297D01*
X74002882Y-73390736D01*
X74006459Y-73376457D01*
X74011418Y-73362597D01*
X74017712Y-73349290D01*
X74025280Y-73336664D01*
X74034048Y-73324841D01*
X74043934Y-73313934D01*
X74054841Y-73304048D01*
X74066664Y-73295280D01*
X74079290Y-73287712D01*
X74092597Y-73281418D01*
X74106457Y-73276459D01*
X74120736Y-73272882D01*
X74135297Y-73270722D01*
X74150000Y-73270000D01*
X75800000Y-73270000D01*
X75814703Y-73270722D01*
X75814703Y-73270722D01*
G37*
D11*
X74975000Y-73570000D03*
D10*
G36*
X75814703Y-72000722D02*
G01*
X75829264Y-72002882D01*
X75843543Y-72006459D01*
X75857403Y-72011418D01*
X75870710Y-72017712D01*
X75883336Y-72025280D01*
X75895159Y-72034048D01*
X75906066Y-72043934D01*
X75915952Y-72054841D01*
X75924720Y-72066664D01*
X75932288Y-72079290D01*
X75938582Y-72092597D01*
X75943541Y-72106457D01*
X75947118Y-72120736D01*
X75949278Y-72135297D01*
X75950000Y-72150000D01*
X75950000Y-72450000D01*
X75949278Y-72464703D01*
X75947118Y-72479264D01*
X75943541Y-72493543D01*
X75938582Y-72507403D01*
X75932288Y-72520710D01*
X75924720Y-72533336D01*
X75915952Y-72545159D01*
X75906066Y-72556066D01*
X75895159Y-72565952D01*
X75883336Y-72574720D01*
X75870710Y-72582288D01*
X75857403Y-72588582D01*
X75843543Y-72593541D01*
X75829264Y-72597118D01*
X75814703Y-72599278D01*
X75800000Y-72600000D01*
X74150000Y-72600000D01*
X74135297Y-72599278D01*
X74120736Y-72597118D01*
X74106457Y-72593541D01*
X74092597Y-72588582D01*
X74079290Y-72582288D01*
X74066664Y-72574720D01*
X74054841Y-72565952D01*
X74043934Y-72556066D01*
X74034048Y-72545159D01*
X74025280Y-72533336D01*
X74017712Y-72520710D01*
X74011418Y-72507403D01*
X74006459Y-72493543D01*
X74002882Y-72479264D01*
X74000722Y-72464703D01*
X74000000Y-72450000D01*
X74000000Y-72150000D01*
X74000722Y-72135297D01*
X74002882Y-72120736D01*
X74006459Y-72106457D01*
X74011418Y-72092597D01*
X74017712Y-72079290D01*
X74025280Y-72066664D01*
X74034048Y-72054841D01*
X74043934Y-72043934D01*
X74054841Y-72034048D01*
X74066664Y-72025280D01*
X74079290Y-72017712D01*
X74092597Y-72011418D01*
X74106457Y-72006459D01*
X74120736Y-72002882D01*
X74135297Y-72000722D01*
X74150000Y-72000000D01*
X75800000Y-72000000D01*
X75814703Y-72000722D01*
X75814703Y-72000722D01*
G37*
D11*
X74975000Y-72300000D03*
D10*
G36*
X75814703Y-70730722D02*
G01*
X75829264Y-70732882D01*
X75843543Y-70736459D01*
X75857403Y-70741418D01*
X75870710Y-70747712D01*
X75883336Y-70755280D01*
X75895159Y-70764048D01*
X75906066Y-70773934D01*
X75915952Y-70784841D01*
X75924720Y-70796664D01*
X75932288Y-70809290D01*
X75938582Y-70822597D01*
X75943541Y-70836457D01*
X75947118Y-70850736D01*
X75949278Y-70865297D01*
X75950000Y-70880000D01*
X75950000Y-71180000D01*
X75949278Y-71194703D01*
X75947118Y-71209264D01*
X75943541Y-71223543D01*
X75938582Y-71237403D01*
X75932288Y-71250710D01*
X75924720Y-71263336D01*
X75915952Y-71275159D01*
X75906066Y-71286066D01*
X75895159Y-71295952D01*
X75883336Y-71304720D01*
X75870710Y-71312288D01*
X75857403Y-71318582D01*
X75843543Y-71323541D01*
X75829264Y-71327118D01*
X75814703Y-71329278D01*
X75800000Y-71330000D01*
X74150000Y-71330000D01*
X74135297Y-71329278D01*
X74120736Y-71327118D01*
X74106457Y-71323541D01*
X74092597Y-71318582D01*
X74079290Y-71312288D01*
X74066664Y-71304720D01*
X74054841Y-71295952D01*
X74043934Y-71286066D01*
X74034048Y-71275159D01*
X74025280Y-71263336D01*
X74017712Y-71250710D01*
X74011418Y-71237403D01*
X74006459Y-71223543D01*
X74002882Y-71209264D01*
X74000722Y-71194703D01*
X74000000Y-71180000D01*
X74000000Y-70880000D01*
X74000722Y-70865297D01*
X74002882Y-70850736D01*
X74006459Y-70836457D01*
X74011418Y-70822597D01*
X74017712Y-70809290D01*
X74025280Y-70796664D01*
X74034048Y-70784841D01*
X74043934Y-70773934D01*
X74054841Y-70764048D01*
X74066664Y-70755280D01*
X74079290Y-70747712D01*
X74092597Y-70741418D01*
X74106457Y-70736459D01*
X74120736Y-70732882D01*
X74135297Y-70730722D01*
X74150000Y-70730000D01*
X75800000Y-70730000D01*
X75814703Y-70730722D01*
X75814703Y-70730722D01*
G37*
D11*
X74975000Y-71030000D03*
D10*
G36*
X75814703Y-69460722D02*
G01*
X75829264Y-69462882D01*
X75843543Y-69466459D01*
X75857403Y-69471418D01*
X75870710Y-69477712D01*
X75883336Y-69485280D01*
X75895159Y-69494048D01*
X75906066Y-69503934D01*
X75915952Y-69514841D01*
X75924720Y-69526664D01*
X75932288Y-69539290D01*
X75938582Y-69552597D01*
X75943541Y-69566457D01*
X75947118Y-69580736D01*
X75949278Y-69595297D01*
X75950000Y-69610000D01*
X75950000Y-69910000D01*
X75949278Y-69924703D01*
X75947118Y-69939264D01*
X75943541Y-69953543D01*
X75938582Y-69967403D01*
X75932288Y-69980710D01*
X75924720Y-69993336D01*
X75915952Y-70005159D01*
X75906066Y-70016066D01*
X75895159Y-70025952D01*
X75883336Y-70034720D01*
X75870710Y-70042288D01*
X75857403Y-70048582D01*
X75843543Y-70053541D01*
X75829264Y-70057118D01*
X75814703Y-70059278D01*
X75800000Y-70060000D01*
X74150000Y-70060000D01*
X74135297Y-70059278D01*
X74120736Y-70057118D01*
X74106457Y-70053541D01*
X74092597Y-70048582D01*
X74079290Y-70042288D01*
X74066664Y-70034720D01*
X74054841Y-70025952D01*
X74043934Y-70016066D01*
X74034048Y-70005159D01*
X74025280Y-69993336D01*
X74017712Y-69980710D01*
X74011418Y-69967403D01*
X74006459Y-69953543D01*
X74002882Y-69939264D01*
X74000722Y-69924703D01*
X74000000Y-69910000D01*
X74000000Y-69610000D01*
X74000722Y-69595297D01*
X74002882Y-69580736D01*
X74006459Y-69566457D01*
X74011418Y-69552597D01*
X74017712Y-69539290D01*
X74025280Y-69526664D01*
X74034048Y-69514841D01*
X74043934Y-69503934D01*
X74054841Y-69494048D01*
X74066664Y-69485280D01*
X74079290Y-69477712D01*
X74092597Y-69471418D01*
X74106457Y-69466459D01*
X74120736Y-69462882D01*
X74135297Y-69460722D01*
X74150000Y-69460000D01*
X75800000Y-69460000D01*
X75814703Y-69460722D01*
X75814703Y-69460722D01*
G37*
D11*
X74975000Y-69760000D03*
D10*
G36*
X75814703Y-68190722D02*
G01*
X75829264Y-68192882D01*
X75843543Y-68196459D01*
X75857403Y-68201418D01*
X75870710Y-68207712D01*
X75883336Y-68215280D01*
X75895159Y-68224048D01*
X75906066Y-68233934D01*
X75915952Y-68244841D01*
X75924720Y-68256664D01*
X75932288Y-68269290D01*
X75938582Y-68282597D01*
X75943541Y-68296457D01*
X75947118Y-68310736D01*
X75949278Y-68325297D01*
X75950000Y-68340000D01*
X75950000Y-68640000D01*
X75949278Y-68654703D01*
X75947118Y-68669264D01*
X75943541Y-68683543D01*
X75938582Y-68697403D01*
X75932288Y-68710710D01*
X75924720Y-68723336D01*
X75915952Y-68735159D01*
X75906066Y-68746066D01*
X75895159Y-68755952D01*
X75883336Y-68764720D01*
X75870710Y-68772288D01*
X75857403Y-68778582D01*
X75843543Y-68783541D01*
X75829264Y-68787118D01*
X75814703Y-68789278D01*
X75800000Y-68790000D01*
X74150000Y-68790000D01*
X74135297Y-68789278D01*
X74120736Y-68787118D01*
X74106457Y-68783541D01*
X74092597Y-68778582D01*
X74079290Y-68772288D01*
X74066664Y-68764720D01*
X74054841Y-68755952D01*
X74043934Y-68746066D01*
X74034048Y-68735159D01*
X74025280Y-68723336D01*
X74017712Y-68710710D01*
X74011418Y-68697403D01*
X74006459Y-68683543D01*
X74002882Y-68669264D01*
X74000722Y-68654703D01*
X74000000Y-68640000D01*
X74000000Y-68340000D01*
X74000722Y-68325297D01*
X74002882Y-68310736D01*
X74006459Y-68296457D01*
X74011418Y-68282597D01*
X74017712Y-68269290D01*
X74025280Y-68256664D01*
X74034048Y-68244841D01*
X74043934Y-68233934D01*
X74054841Y-68224048D01*
X74066664Y-68215280D01*
X74079290Y-68207712D01*
X74092597Y-68201418D01*
X74106457Y-68196459D01*
X74120736Y-68192882D01*
X74135297Y-68190722D01*
X74150000Y-68190000D01*
X75800000Y-68190000D01*
X75814703Y-68190722D01*
X75814703Y-68190722D01*
G37*
D11*
X74975000Y-68490000D03*
D10*
G36*
X70864703Y-68190722D02*
G01*
X70879264Y-68192882D01*
X70893543Y-68196459D01*
X70907403Y-68201418D01*
X70920710Y-68207712D01*
X70933336Y-68215280D01*
X70945159Y-68224048D01*
X70956066Y-68233934D01*
X70965952Y-68244841D01*
X70974720Y-68256664D01*
X70982288Y-68269290D01*
X70988582Y-68282597D01*
X70993541Y-68296457D01*
X70997118Y-68310736D01*
X70999278Y-68325297D01*
X71000000Y-68340000D01*
X71000000Y-68640000D01*
X70999278Y-68654703D01*
X70997118Y-68669264D01*
X70993541Y-68683543D01*
X70988582Y-68697403D01*
X70982288Y-68710710D01*
X70974720Y-68723336D01*
X70965952Y-68735159D01*
X70956066Y-68746066D01*
X70945159Y-68755952D01*
X70933336Y-68764720D01*
X70920710Y-68772288D01*
X70907403Y-68778582D01*
X70893543Y-68783541D01*
X70879264Y-68787118D01*
X70864703Y-68789278D01*
X70850000Y-68790000D01*
X69200000Y-68790000D01*
X69185297Y-68789278D01*
X69170736Y-68787118D01*
X69156457Y-68783541D01*
X69142597Y-68778582D01*
X69129290Y-68772288D01*
X69116664Y-68764720D01*
X69104841Y-68755952D01*
X69093934Y-68746066D01*
X69084048Y-68735159D01*
X69075280Y-68723336D01*
X69067712Y-68710710D01*
X69061418Y-68697403D01*
X69056459Y-68683543D01*
X69052882Y-68669264D01*
X69050722Y-68654703D01*
X69050000Y-68640000D01*
X69050000Y-68340000D01*
X69050722Y-68325297D01*
X69052882Y-68310736D01*
X69056459Y-68296457D01*
X69061418Y-68282597D01*
X69067712Y-68269290D01*
X69075280Y-68256664D01*
X69084048Y-68244841D01*
X69093934Y-68233934D01*
X69104841Y-68224048D01*
X69116664Y-68215280D01*
X69129290Y-68207712D01*
X69142597Y-68201418D01*
X69156457Y-68196459D01*
X69170736Y-68192882D01*
X69185297Y-68190722D01*
X69200000Y-68190000D01*
X70850000Y-68190000D01*
X70864703Y-68190722D01*
X70864703Y-68190722D01*
G37*
D11*
X70025000Y-68490000D03*
D10*
G36*
X70864703Y-69460722D02*
G01*
X70879264Y-69462882D01*
X70893543Y-69466459D01*
X70907403Y-69471418D01*
X70920710Y-69477712D01*
X70933336Y-69485280D01*
X70945159Y-69494048D01*
X70956066Y-69503934D01*
X70965952Y-69514841D01*
X70974720Y-69526664D01*
X70982288Y-69539290D01*
X70988582Y-69552597D01*
X70993541Y-69566457D01*
X70997118Y-69580736D01*
X70999278Y-69595297D01*
X71000000Y-69610000D01*
X71000000Y-69910000D01*
X70999278Y-69924703D01*
X70997118Y-69939264D01*
X70993541Y-69953543D01*
X70988582Y-69967403D01*
X70982288Y-69980710D01*
X70974720Y-69993336D01*
X70965952Y-70005159D01*
X70956066Y-70016066D01*
X70945159Y-70025952D01*
X70933336Y-70034720D01*
X70920710Y-70042288D01*
X70907403Y-70048582D01*
X70893543Y-70053541D01*
X70879264Y-70057118D01*
X70864703Y-70059278D01*
X70850000Y-70060000D01*
X69200000Y-70060000D01*
X69185297Y-70059278D01*
X69170736Y-70057118D01*
X69156457Y-70053541D01*
X69142597Y-70048582D01*
X69129290Y-70042288D01*
X69116664Y-70034720D01*
X69104841Y-70025952D01*
X69093934Y-70016066D01*
X69084048Y-70005159D01*
X69075280Y-69993336D01*
X69067712Y-69980710D01*
X69061418Y-69967403D01*
X69056459Y-69953543D01*
X69052882Y-69939264D01*
X69050722Y-69924703D01*
X69050000Y-69910000D01*
X69050000Y-69610000D01*
X69050722Y-69595297D01*
X69052882Y-69580736D01*
X69056459Y-69566457D01*
X69061418Y-69552597D01*
X69067712Y-69539290D01*
X69075280Y-69526664D01*
X69084048Y-69514841D01*
X69093934Y-69503934D01*
X69104841Y-69494048D01*
X69116664Y-69485280D01*
X69129290Y-69477712D01*
X69142597Y-69471418D01*
X69156457Y-69466459D01*
X69170736Y-69462882D01*
X69185297Y-69460722D01*
X69200000Y-69460000D01*
X70850000Y-69460000D01*
X70864703Y-69460722D01*
X70864703Y-69460722D01*
G37*
D11*
X70025000Y-69760000D03*
D10*
G36*
X70864703Y-70730722D02*
G01*
X70879264Y-70732882D01*
X70893543Y-70736459D01*
X70907403Y-70741418D01*
X70920710Y-70747712D01*
X70933336Y-70755280D01*
X70945159Y-70764048D01*
X70956066Y-70773934D01*
X70965952Y-70784841D01*
X70974720Y-70796664D01*
X70982288Y-70809290D01*
X70988582Y-70822597D01*
X70993541Y-70836457D01*
X70997118Y-70850736D01*
X70999278Y-70865297D01*
X71000000Y-70880000D01*
X71000000Y-71180000D01*
X70999278Y-71194703D01*
X70997118Y-71209264D01*
X70993541Y-71223543D01*
X70988582Y-71237403D01*
X70982288Y-71250710D01*
X70974720Y-71263336D01*
X70965952Y-71275159D01*
X70956066Y-71286066D01*
X70945159Y-71295952D01*
X70933336Y-71304720D01*
X70920710Y-71312288D01*
X70907403Y-71318582D01*
X70893543Y-71323541D01*
X70879264Y-71327118D01*
X70864703Y-71329278D01*
X70850000Y-71330000D01*
X69200000Y-71330000D01*
X69185297Y-71329278D01*
X69170736Y-71327118D01*
X69156457Y-71323541D01*
X69142597Y-71318582D01*
X69129290Y-71312288D01*
X69116664Y-71304720D01*
X69104841Y-71295952D01*
X69093934Y-71286066D01*
X69084048Y-71275159D01*
X69075280Y-71263336D01*
X69067712Y-71250710D01*
X69061418Y-71237403D01*
X69056459Y-71223543D01*
X69052882Y-71209264D01*
X69050722Y-71194703D01*
X69050000Y-71180000D01*
X69050000Y-70880000D01*
X69050722Y-70865297D01*
X69052882Y-70850736D01*
X69056459Y-70836457D01*
X69061418Y-70822597D01*
X69067712Y-70809290D01*
X69075280Y-70796664D01*
X69084048Y-70784841D01*
X69093934Y-70773934D01*
X69104841Y-70764048D01*
X69116664Y-70755280D01*
X69129290Y-70747712D01*
X69142597Y-70741418D01*
X69156457Y-70736459D01*
X69170736Y-70732882D01*
X69185297Y-70730722D01*
X69200000Y-70730000D01*
X70850000Y-70730000D01*
X70864703Y-70730722D01*
X70864703Y-70730722D01*
G37*
D11*
X70025000Y-71030000D03*
D10*
G36*
X70864703Y-72000722D02*
G01*
X70879264Y-72002882D01*
X70893543Y-72006459D01*
X70907403Y-72011418D01*
X70920710Y-72017712D01*
X70933336Y-72025280D01*
X70945159Y-72034048D01*
X70956066Y-72043934D01*
X70965952Y-72054841D01*
X70974720Y-72066664D01*
X70982288Y-72079290D01*
X70988582Y-72092597D01*
X70993541Y-72106457D01*
X70997118Y-72120736D01*
X70999278Y-72135297D01*
X71000000Y-72150000D01*
X71000000Y-72450000D01*
X70999278Y-72464703D01*
X70997118Y-72479264D01*
X70993541Y-72493543D01*
X70988582Y-72507403D01*
X70982288Y-72520710D01*
X70974720Y-72533336D01*
X70965952Y-72545159D01*
X70956066Y-72556066D01*
X70945159Y-72565952D01*
X70933336Y-72574720D01*
X70920710Y-72582288D01*
X70907403Y-72588582D01*
X70893543Y-72593541D01*
X70879264Y-72597118D01*
X70864703Y-72599278D01*
X70850000Y-72600000D01*
X69200000Y-72600000D01*
X69185297Y-72599278D01*
X69170736Y-72597118D01*
X69156457Y-72593541D01*
X69142597Y-72588582D01*
X69129290Y-72582288D01*
X69116664Y-72574720D01*
X69104841Y-72565952D01*
X69093934Y-72556066D01*
X69084048Y-72545159D01*
X69075280Y-72533336D01*
X69067712Y-72520710D01*
X69061418Y-72507403D01*
X69056459Y-72493543D01*
X69052882Y-72479264D01*
X69050722Y-72464703D01*
X69050000Y-72450000D01*
X69050000Y-72150000D01*
X69050722Y-72135297D01*
X69052882Y-72120736D01*
X69056459Y-72106457D01*
X69061418Y-72092597D01*
X69067712Y-72079290D01*
X69075280Y-72066664D01*
X69084048Y-72054841D01*
X69093934Y-72043934D01*
X69104841Y-72034048D01*
X69116664Y-72025280D01*
X69129290Y-72017712D01*
X69142597Y-72011418D01*
X69156457Y-72006459D01*
X69170736Y-72002882D01*
X69185297Y-72000722D01*
X69200000Y-72000000D01*
X70850000Y-72000000D01*
X70864703Y-72000722D01*
X70864703Y-72000722D01*
G37*
D11*
X70025000Y-72300000D03*
D10*
G36*
X70864703Y-73270722D02*
G01*
X70879264Y-73272882D01*
X70893543Y-73276459D01*
X70907403Y-73281418D01*
X70920710Y-73287712D01*
X70933336Y-73295280D01*
X70945159Y-73304048D01*
X70956066Y-73313934D01*
X70965952Y-73324841D01*
X70974720Y-73336664D01*
X70982288Y-73349290D01*
X70988582Y-73362597D01*
X70993541Y-73376457D01*
X70997118Y-73390736D01*
X70999278Y-73405297D01*
X71000000Y-73420000D01*
X71000000Y-73720000D01*
X70999278Y-73734703D01*
X70997118Y-73749264D01*
X70993541Y-73763543D01*
X70988582Y-73777403D01*
X70982288Y-73790710D01*
X70974720Y-73803336D01*
X70965952Y-73815159D01*
X70956066Y-73826066D01*
X70945159Y-73835952D01*
X70933336Y-73844720D01*
X70920710Y-73852288D01*
X70907403Y-73858582D01*
X70893543Y-73863541D01*
X70879264Y-73867118D01*
X70864703Y-73869278D01*
X70850000Y-73870000D01*
X69200000Y-73870000D01*
X69185297Y-73869278D01*
X69170736Y-73867118D01*
X69156457Y-73863541D01*
X69142597Y-73858582D01*
X69129290Y-73852288D01*
X69116664Y-73844720D01*
X69104841Y-73835952D01*
X69093934Y-73826066D01*
X69084048Y-73815159D01*
X69075280Y-73803336D01*
X69067712Y-73790710D01*
X69061418Y-73777403D01*
X69056459Y-73763543D01*
X69052882Y-73749264D01*
X69050722Y-73734703D01*
X69050000Y-73720000D01*
X69050000Y-73420000D01*
X69050722Y-73405297D01*
X69052882Y-73390736D01*
X69056459Y-73376457D01*
X69061418Y-73362597D01*
X69067712Y-73349290D01*
X69075280Y-73336664D01*
X69084048Y-73324841D01*
X69093934Y-73313934D01*
X69104841Y-73304048D01*
X69116664Y-73295280D01*
X69129290Y-73287712D01*
X69142597Y-73281418D01*
X69156457Y-73276459D01*
X69170736Y-73272882D01*
X69185297Y-73270722D01*
X69200000Y-73270000D01*
X70850000Y-73270000D01*
X70864703Y-73270722D01*
X70864703Y-73270722D01*
G37*
D11*
X70025000Y-73570000D03*
D10*
G36*
X70864703Y-74540722D02*
G01*
X70879264Y-74542882D01*
X70893543Y-74546459D01*
X70907403Y-74551418D01*
X70920710Y-74557712D01*
X70933336Y-74565280D01*
X70945159Y-74574048D01*
X70956066Y-74583934D01*
X70965952Y-74594841D01*
X70974720Y-74606664D01*
X70982288Y-74619290D01*
X70988582Y-74632597D01*
X70993541Y-74646457D01*
X70997118Y-74660736D01*
X70999278Y-74675297D01*
X71000000Y-74690000D01*
X71000000Y-74990000D01*
X70999278Y-75004703D01*
X70997118Y-75019264D01*
X70993541Y-75033543D01*
X70988582Y-75047403D01*
X70982288Y-75060710D01*
X70974720Y-75073336D01*
X70965952Y-75085159D01*
X70956066Y-75096066D01*
X70945159Y-75105952D01*
X70933336Y-75114720D01*
X70920710Y-75122288D01*
X70907403Y-75128582D01*
X70893543Y-75133541D01*
X70879264Y-75137118D01*
X70864703Y-75139278D01*
X70850000Y-75140000D01*
X69200000Y-75140000D01*
X69185297Y-75139278D01*
X69170736Y-75137118D01*
X69156457Y-75133541D01*
X69142597Y-75128582D01*
X69129290Y-75122288D01*
X69116664Y-75114720D01*
X69104841Y-75105952D01*
X69093934Y-75096066D01*
X69084048Y-75085159D01*
X69075280Y-75073336D01*
X69067712Y-75060710D01*
X69061418Y-75047403D01*
X69056459Y-75033543D01*
X69052882Y-75019264D01*
X69050722Y-75004703D01*
X69050000Y-74990000D01*
X69050000Y-74690000D01*
X69050722Y-74675297D01*
X69052882Y-74660736D01*
X69056459Y-74646457D01*
X69061418Y-74632597D01*
X69067712Y-74619290D01*
X69075280Y-74606664D01*
X69084048Y-74594841D01*
X69093934Y-74583934D01*
X69104841Y-74574048D01*
X69116664Y-74565280D01*
X69129290Y-74557712D01*
X69142597Y-74551418D01*
X69156457Y-74546459D01*
X69170736Y-74542882D01*
X69185297Y-74540722D01*
X69200000Y-74540000D01*
X70850000Y-74540000D01*
X70864703Y-74540722D01*
X70864703Y-74540722D01*
G37*
D11*
X70025000Y-74840000D03*
D10*
G36*
X70864703Y-75810722D02*
G01*
X70879264Y-75812882D01*
X70893543Y-75816459D01*
X70907403Y-75821418D01*
X70920710Y-75827712D01*
X70933336Y-75835280D01*
X70945159Y-75844048D01*
X70956066Y-75853934D01*
X70965952Y-75864841D01*
X70974720Y-75876664D01*
X70982288Y-75889290D01*
X70988582Y-75902597D01*
X70993541Y-75916457D01*
X70997118Y-75930736D01*
X70999278Y-75945297D01*
X71000000Y-75960000D01*
X71000000Y-76260000D01*
X70999278Y-76274703D01*
X70997118Y-76289264D01*
X70993541Y-76303543D01*
X70988582Y-76317403D01*
X70982288Y-76330710D01*
X70974720Y-76343336D01*
X70965952Y-76355159D01*
X70956066Y-76366066D01*
X70945159Y-76375952D01*
X70933336Y-76384720D01*
X70920710Y-76392288D01*
X70907403Y-76398582D01*
X70893543Y-76403541D01*
X70879264Y-76407118D01*
X70864703Y-76409278D01*
X70850000Y-76410000D01*
X69200000Y-76410000D01*
X69185297Y-76409278D01*
X69170736Y-76407118D01*
X69156457Y-76403541D01*
X69142597Y-76398582D01*
X69129290Y-76392288D01*
X69116664Y-76384720D01*
X69104841Y-76375952D01*
X69093934Y-76366066D01*
X69084048Y-76355159D01*
X69075280Y-76343336D01*
X69067712Y-76330710D01*
X69061418Y-76317403D01*
X69056459Y-76303543D01*
X69052882Y-76289264D01*
X69050722Y-76274703D01*
X69050000Y-76260000D01*
X69050000Y-75960000D01*
X69050722Y-75945297D01*
X69052882Y-75930736D01*
X69056459Y-75916457D01*
X69061418Y-75902597D01*
X69067712Y-75889290D01*
X69075280Y-75876664D01*
X69084048Y-75864841D01*
X69093934Y-75853934D01*
X69104841Y-75844048D01*
X69116664Y-75835280D01*
X69129290Y-75827712D01*
X69142597Y-75821418D01*
X69156457Y-75816459D01*
X69170736Y-75812882D01*
X69185297Y-75810722D01*
X69200000Y-75810000D01*
X70850000Y-75810000D01*
X70864703Y-75810722D01*
X70864703Y-75810722D01*
G37*
D11*
X70025000Y-76110000D03*
D10*
G36*
X65925191Y-151426053D02*
G01*
X65946426Y-151429203D01*
X65967250Y-151434419D01*
X65987462Y-151441651D01*
X66006868Y-151450830D01*
X66025281Y-151461866D01*
X66042524Y-151474654D01*
X66058430Y-151489070D01*
X66072846Y-151504976D01*
X66085634Y-151522219D01*
X66096670Y-151540632D01*
X66105849Y-151560038D01*
X66113081Y-151580250D01*
X66118297Y-151601074D01*
X66121447Y-151622309D01*
X66122500Y-151643750D01*
X66122500Y-152156250D01*
X66121447Y-152177691D01*
X66118297Y-152198926D01*
X66113081Y-152219750D01*
X66105849Y-152239962D01*
X66096670Y-152259368D01*
X66085634Y-152277781D01*
X66072846Y-152295024D01*
X66058430Y-152310930D01*
X66042524Y-152325346D01*
X66025281Y-152338134D01*
X66006868Y-152349170D01*
X65987462Y-152358349D01*
X65967250Y-152365581D01*
X65946426Y-152370797D01*
X65925191Y-152373947D01*
X65903750Y-152375000D01*
X65466250Y-152375000D01*
X65444809Y-152373947D01*
X65423574Y-152370797D01*
X65402750Y-152365581D01*
X65382538Y-152358349D01*
X65363132Y-152349170D01*
X65344719Y-152338134D01*
X65327476Y-152325346D01*
X65311570Y-152310930D01*
X65297154Y-152295024D01*
X65284366Y-152277781D01*
X65273330Y-152259368D01*
X65264151Y-152239962D01*
X65256919Y-152219750D01*
X65251703Y-152198926D01*
X65248553Y-152177691D01*
X65247500Y-152156250D01*
X65247500Y-151643750D01*
X65248553Y-151622309D01*
X65251703Y-151601074D01*
X65256919Y-151580250D01*
X65264151Y-151560038D01*
X65273330Y-151540632D01*
X65284366Y-151522219D01*
X65297154Y-151504976D01*
X65311570Y-151489070D01*
X65327476Y-151474654D01*
X65344719Y-151461866D01*
X65363132Y-151450830D01*
X65382538Y-151441651D01*
X65402750Y-151434419D01*
X65423574Y-151429203D01*
X65444809Y-151426053D01*
X65466250Y-151425000D01*
X65903750Y-151425000D01*
X65925191Y-151426053D01*
X65925191Y-151426053D01*
G37*
D12*
X65685000Y-151900000D03*
D10*
G36*
X64350191Y-151426053D02*
G01*
X64371426Y-151429203D01*
X64392250Y-151434419D01*
X64412462Y-151441651D01*
X64431868Y-151450830D01*
X64450281Y-151461866D01*
X64467524Y-151474654D01*
X64483430Y-151489070D01*
X64497846Y-151504976D01*
X64510634Y-151522219D01*
X64521670Y-151540632D01*
X64530849Y-151560038D01*
X64538081Y-151580250D01*
X64543297Y-151601074D01*
X64546447Y-151622309D01*
X64547500Y-151643750D01*
X64547500Y-152156250D01*
X64546447Y-152177691D01*
X64543297Y-152198926D01*
X64538081Y-152219750D01*
X64530849Y-152239962D01*
X64521670Y-152259368D01*
X64510634Y-152277781D01*
X64497846Y-152295024D01*
X64483430Y-152310930D01*
X64467524Y-152325346D01*
X64450281Y-152338134D01*
X64431868Y-152349170D01*
X64412462Y-152358349D01*
X64392250Y-152365581D01*
X64371426Y-152370797D01*
X64350191Y-152373947D01*
X64328750Y-152375000D01*
X63891250Y-152375000D01*
X63869809Y-152373947D01*
X63848574Y-152370797D01*
X63827750Y-152365581D01*
X63807538Y-152358349D01*
X63788132Y-152349170D01*
X63769719Y-152338134D01*
X63752476Y-152325346D01*
X63736570Y-152310930D01*
X63722154Y-152295024D01*
X63709366Y-152277781D01*
X63698330Y-152259368D01*
X63689151Y-152239962D01*
X63681919Y-152219750D01*
X63676703Y-152198926D01*
X63673553Y-152177691D01*
X63672500Y-152156250D01*
X63672500Y-151643750D01*
X63673553Y-151622309D01*
X63676703Y-151601074D01*
X63681919Y-151580250D01*
X63689151Y-151560038D01*
X63698330Y-151540632D01*
X63709366Y-151522219D01*
X63722154Y-151504976D01*
X63736570Y-151489070D01*
X63752476Y-151474654D01*
X63769719Y-151461866D01*
X63788132Y-151450830D01*
X63807538Y-151441651D01*
X63827750Y-151434419D01*
X63848574Y-151429203D01*
X63869809Y-151426053D01*
X63891250Y-151425000D01*
X64328750Y-151425000D01*
X64350191Y-151426053D01*
X64350191Y-151426053D01*
G37*
D12*
X64110000Y-151900000D03*
D10*
G36*
X60130779Y-151426144D02*
G01*
X60153834Y-151429563D01*
X60176443Y-151435227D01*
X60198387Y-151443079D01*
X60219457Y-151453044D01*
X60239448Y-151465026D01*
X60258168Y-151478910D01*
X60275438Y-151494562D01*
X60291090Y-151511832D01*
X60304974Y-151530552D01*
X60316956Y-151550543D01*
X60326921Y-151571613D01*
X60334773Y-151593557D01*
X60340437Y-151616166D01*
X60343856Y-151639221D01*
X60345000Y-151662500D01*
X60345000Y-152137500D01*
X60343856Y-152160779D01*
X60340437Y-152183834D01*
X60334773Y-152206443D01*
X60326921Y-152228387D01*
X60316956Y-152249457D01*
X60304974Y-152269448D01*
X60291090Y-152288168D01*
X60275438Y-152305438D01*
X60258168Y-152321090D01*
X60239448Y-152334974D01*
X60219457Y-152346956D01*
X60198387Y-152356921D01*
X60176443Y-152364773D01*
X60153834Y-152370437D01*
X60130779Y-152373856D01*
X60107500Y-152375000D01*
X59532500Y-152375000D01*
X59509221Y-152373856D01*
X59486166Y-152370437D01*
X59463557Y-152364773D01*
X59441613Y-152356921D01*
X59420543Y-152346956D01*
X59400552Y-152334974D01*
X59381832Y-152321090D01*
X59364562Y-152305438D01*
X59348910Y-152288168D01*
X59335026Y-152269448D01*
X59323044Y-152249457D01*
X59313079Y-152228387D01*
X59305227Y-152206443D01*
X59299563Y-152183834D01*
X59296144Y-152160779D01*
X59295000Y-152137500D01*
X59295000Y-151662500D01*
X59296144Y-151639221D01*
X59299563Y-151616166D01*
X59305227Y-151593557D01*
X59313079Y-151571613D01*
X59323044Y-151550543D01*
X59335026Y-151530552D01*
X59348910Y-151511832D01*
X59364562Y-151494562D01*
X59381832Y-151478910D01*
X59400552Y-151465026D01*
X59420543Y-151453044D01*
X59441613Y-151443079D01*
X59463557Y-151435227D01*
X59486166Y-151429563D01*
X59509221Y-151426144D01*
X59532500Y-151425000D01*
X60107500Y-151425000D01*
X60130779Y-151426144D01*
X60130779Y-151426144D01*
G37*
D13*
X59820000Y-151900000D03*
D10*
G36*
X61880779Y-151426144D02*
G01*
X61903834Y-151429563D01*
X61926443Y-151435227D01*
X61948387Y-151443079D01*
X61969457Y-151453044D01*
X61989448Y-151465026D01*
X62008168Y-151478910D01*
X62025438Y-151494562D01*
X62041090Y-151511832D01*
X62054974Y-151530552D01*
X62066956Y-151550543D01*
X62076921Y-151571613D01*
X62084773Y-151593557D01*
X62090437Y-151616166D01*
X62093856Y-151639221D01*
X62095000Y-151662500D01*
X62095000Y-152137500D01*
X62093856Y-152160779D01*
X62090437Y-152183834D01*
X62084773Y-152206443D01*
X62076921Y-152228387D01*
X62066956Y-152249457D01*
X62054974Y-152269448D01*
X62041090Y-152288168D01*
X62025438Y-152305438D01*
X62008168Y-152321090D01*
X61989448Y-152334974D01*
X61969457Y-152346956D01*
X61948387Y-152356921D01*
X61926443Y-152364773D01*
X61903834Y-152370437D01*
X61880779Y-152373856D01*
X61857500Y-152375000D01*
X61282500Y-152375000D01*
X61259221Y-152373856D01*
X61236166Y-152370437D01*
X61213557Y-152364773D01*
X61191613Y-152356921D01*
X61170543Y-152346956D01*
X61150552Y-152334974D01*
X61131832Y-152321090D01*
X61114562Y-152305438D01*
X61098910Y-152288168D01*
X61085026Y-152269448D01*
X61073044Y-152249457D01*
X61063079Y-152228387D01*
X61055227Y-152206443D01*
X61049563Y-152183834D01*
X61046144Y-152160779D01*
X61045000Y-152137500D01*
X61045000Y-151662500D01*
X61046144Y-151639221D01*
X61049563Y-151616166D01*
X61055227Y-151593557D01*
X61063079Y-151571613D01*
X61073044Y-151550543D01*
X61085026Y-151530552D01*
X61098910Y-151511832D01*
X61114562Y-151494562D01*
X61131832Y-151478910D01*
X61150552Y-151465026D01*
X61170543Y-151453044D01*
X61191613Y-151443079D01*
X61213557Y-151435227D01*
X61236166Y-151429563D01*
X61259221Y-151426144D01*
X61282500Y-151425000D01*
X61857500Y-151425000D01*
X61880779Y-151426144D01*
X61880779Y-151426144D01*
G37*
D13*
X61570000Y-151900000D03*
M02*
