G04 #@! TF.GenerationSoftware,KiCad,Pcbnew,(5.1.4)-1*
G04 #@! TF.CreationDate,2020-09-21T14:40:53+02:00*
G04 #@! TF.ProjectId,triggerbox,74726967-6765-4726-926f-782e6b696361,rev?*
G04 #@! TF.SameCoordinates,Original*
G04 #@! TF.FileFunction,Copper,L2,Bot*
G04 #@! TF.FilePolarity,Positive*
%FSLAX46Y46*%
G04 Gerber Fmt 4.6, Leading zero omitted, Abs format (unit mm)*
G04 Created by KiCad (PCBNEW (5.1.4)-1) date 2020-09-21 14:40:53*
%MOMM*%
%LPD*%
G04 APERTURE LIST*
%ADD10R,1.600000X1.600000*%
%ADD11O,1.600000X1.600000*%
%ADD12C,3.000000*%
%ADD13R,3.000000X3.000000*%
%ADD14C,4.064000*%
%ADD15R,3.500000X3.500000*%
%ADD16C,0.150000*%
%ADD17C,3.500000*%
%ADD18C,0.889000*%
%ADD19C,0.635000*%
%ADD20C,0.250000*%
%ADD21C,0.254000*%
G04 APERTURE END LIST*
D10*
X54820000Y-144340000D03*
D11*
X87840000Y-129100000D03*
X57360000Y-144340000D03*
X85300000Y-129100000D03*
X59900000Y-144340000D03*
X82760000Y-129100000D03*
X62440000Y-144340000D03*
X80220000Y-129100000D03*
X64980000Y-144340000D03*
X77680000Y-129100000D03*
X67520000Y-144340000D03*
X75140000Y-129100000D03*
X70060000Y-144340000D03*
X72600000Y-129100000D03*
X72600000Y-144340000D03*
X70060000Y-129100000D03*
X75140000Y-144340000D03*
X67520000Y-129100000D03*
X77680000Y-144340000D03*
X64980000Y-129100000D03*
X80220000Y-144340000D03*
X62440000Y-129100000D03*
X82760000Y-144340000D03*
X59900000Y-129100000D03*
X85300000Y-144340000D03*
X57360000Y-129100000D03*
X87840000Y-144340000D03*
X54820000Y-129100000D03*
X90380000Y-144340000D03*
X90380000Y-129100000D03*
D12*
X89800000Y-119740000D03*
D13*
X89800000Y-104500000D03*
D12*
X89800000Y-114660000D03*
X89800000Y-109580000D03*
X89800000Y-97040000D03*
D13*
X89800000Y-81800000D03*
D12*
X89800000Y-91960000D03*
X89800000Y-86880000D03*
X89900000Y-74600000D03*
D13*
X89900000Y-59360000D03*
D12*
X89900000Y-69520000D03*
X89900000Y-64440000D03*
X89900000Y-51940000D03*
D13*
X89900000Y-36700000D03*
D12*
X89900000Y-46860000D03*
X89900000Y-41780000D03*
X54500000Y-36660000D03*
D13*
X54500000Y-51900000D03*
D12*
X54500000Y-41740000D03*
X54500000Y-46820000D03*
X54700000Y-59360000D03*
D13*
X54700000Y-74600000D03*
D12*
X54700000Y-64440000D03*
X54700000Y-69520000D03*
X54500000Y-81660000D03*
D13*
X54500000Y-96900000D03*
D12*
X54500000Y-86740000D03*
X54500000Y-91820000D03*
X54500000Y-104520000D03*
D13*
X54500000Y-119760000D03*
D12*
X54500000Y-109600000D03*
X54500000Y-114680000D03*
D14*
X92000000Y-164000000D03*
X92000000Y-29400000D03*
X52000000Y-29400000D03*
X52000000Y-164000000D03*
D15*
X82900000Y-155000000D03*
D16*
G36*
X89723513Y-153253611D02*
G01*
X89796318Y-153264411D01*
X89867714Y-153282295D01*
X89937013Y-153307090D01*
X90003548Y-153338559D01*
X90066678Y-153376398D01*
X90125795Y-153420242D01*
X90180330Y-153469670D01*
X90229758Y-153524205D01*
X90273602Y-153583322D01*
X90311441Y-153646452D01*
X90342910Y-153712987D01*
X90367705Y-153782286D01*
X90385589Y-153853682D01*
X90396389Y-153926487D01*
X90400000Y-154000000D01*
X90400000Y-156000000D01*
X90396389Y-156073513D01*
X90385589Y-156146318D01*
X90367705Y-156217714D01*
X90342910Y-156287013D01*
X90311441Y-156353548D01*
X90273602Y-156416678D01*
X90229758Y-156475795D01*
X90180330Y-156530330D01*
X90125795Y-156579758D01*
X90066678Y-156623602D01*
X90003548Y-156661441D01*
X89937013Y-156692910D01*
X89867714Y-156717705D01*
X89796318Y-156735589D01*
X89723513Y-156746389D01*
X89650000Y-156750000D01*
X88150000Y-156750000D01*
X88076487Y-156746389D01*
X88003682Y-156735589D01*
X87932286Y-156717705D01*
X87862987Y-156692910D01*
X87796452Y-156661441D01*
X87733322Y-156623602D01*
X87674205Y-156579758D01*
X87619670Y-156530330D01*
X87570242Y-156475795D01*
X87526398Y-156416678D01*
X87488559Y-156353548D01*
X87457090Y-156287013D01*
X87432295Y-156217714D01*
X87414411Y-156146318D01*
X87403611Y-156073513D01*
X87400000Y-156000000D01*
X87400000Y-154000000D01*
X87403611Y-153926487D01*
X87414411Y-153853682D01*
X87432295Y-153782286D01*
X87457090Y-153712987D01*
X87488559Y-153646452D01*
X87526398Y-153583322D01*
X87570242Y-153524205D01*
X87619670Y-153469670D01*
X87674205Y-153420242D01*
X87733322Y-153376398D01*
X87796452Y-153338559D01*
X87862987Y-153307090D01*
X87932286Y-153282295D01*
X88003682Y-153264411D01*
X88076487Y-153253611D01*
X88150000Y-153250000D01*
X89650000Y-153250000D01*
X89723513Y-153253611D01*
X89723513Y-153253611D01*
G37*
D12*
X88900000Y-155000000D03*
D16*
G36*
X86860765Y-148554213D02*
G01*
X86945704Y-148566813D01*
X87028999Y-148587677D01*
X87109848Y-148616605D01*
X87187472Y-148653319D01*
X87261124Y-148697464D01*
X87330094Y-148748616D01*
X87393718Y-148806282D01*
X87451384Y-148869906D01*
X87502536Y-148938876D01*
X87546681Y-149012528D01*
X87583395Y-149090152D01*
X87612323Y-149171001D01*
X87633187Y-149254296D01*
X87645787Y-149339235D01*
X87650000Y-149425000D01*
X87650000Y-151175000D01*
X87645787Y-151260765D01*
X87633187Y-151345704D01*
X87612323Y-151428999D01*
X87583395Y-151509848D01*
X87546681Y-151587472D01*
X87502536Y-151661124D01*
X87451384Y-151730094D01*
X87393718Y-151793718D01*
X87330094Y-151851384D01*
X87261124Y-151902536D01*
X87187472Y-151946681D01*
X87109848Y-151983395D01*
X87028999Y-152012323D01*
X86945704Y-152033187D01*
X86860765Y-152045787D01*
X86775000Y-152050000D01*
X85025000Y-152050000D01*
X84939235Y-152045787D01*
X84854296Y-152033187D01*
X84771001Y-152012323D01*
X84690152Y-151983395D01*
X84612528Y-151946681D01*
X84538876Y-151902536D01*
X84469906Y-151851384D01*
X84406282Y-151793718D01*
X84348616Y-151730094D01*
X84297464Y-151661124D01*
X84253319Y-151587472D01*
X84216605Y-151509848D01*
X84187677Y-151428999D01*
X84166813Y-151345704D01*
X84154213Y-151260765D01*
X84150000Y-151175000D01*
X84150000Y-149425000D01*
X84154213Y-149339235D01*
X84166813Y-149254296D01*
X84187677Y-149171001D01*
X84216605Y-149090152D01*
X84253319Y-149012528D01*
X84297464Y-148938876D01*
X84348616Y-148869906D01*
X84406282Y-148806282D01*
X84469906Y-148748616D01*
X84538876Y-148697464D01*
X84612528Y-148653319D01*
X84690152Y-148616605D01*
X84771001Y-148587677D01*
X84854296Y-148566813D01*
X84939235Y-148554213D01*
X85025000Y-148550000D01*
X86775000Y-148550000D01*
X86860765Y-148554213D01*
X86860765Y-148554213D01*
G37*
D17*
X85900000Y-150300000D03*
D18*
X70500000Y-123500000D03*
X73500000Y-133000000D03*
X68000000Y-91500000D03*
X64000000Y-92000000D03*
X77600000Y-114800000D03*
X70500000Y-117500000D03*
D19*
X52365000Y-119760000D02*
X54500000Y-119760000D01*
X51000000Y-121125000D02*
X52365000Y-119760000D01*
X51000000Y-153000000D02*
X51000000Y-121125000D01*
X53000000Y-155000000D02*
X51000000Y-153000000D01*
X82900000Y-155000000D02*
X53000000Y-155000000D01*
X56635000Y-119760000D02*
X56695000Y-119700000D01*
X54500000Y-119760000D02*
X56635000Y-119760000D01*
X56695000Y-119700000D02*
X58400000Y-119700000D01*
X58400000Y-119700000D02*
X61000000Y-117100000D01*
X61000000Y-117100000D02*
X61000000Y-99200000D01*
X58700000Y-96900000D02*
X54500000Y-96900000D01*
X61000000Y-99200000D02*
X58700000Y-96900000D01*
X59900000Y-74600000D02*
X54700000Y-74600000D01*
X62100000Y-76800000D02*
X59900000Y-74600000D01*
X58700000Y-96900000D02*
X62100000Y-93500000D01*
X62100000Y-93500000D02*
X62100000Y-76800000D01*
X60300000Y-51900000D02*
X54500000Y-51900000D01*
X62300000Y-53900000D02*
X60300000Y-51900000D01*
X59900000Y-74600000D02*
X62300000Y-72200000D01*
X62300000Y-72200000D02*
X62300000Y-53900000D01*
X89900000Y-59360000D02*
X85060000Y-59360000D01*
X85060000Y-59360000D02*
X80700000Y-55000000D01*
X80900000Y-40100000D02*
X84300000Y-36700000D01*
X80700000Y-40100000D02*
X80900000Y-40100000D01*
X84300000Y-36700000D02*
X89900000Y-36700000D01*
X80700000Y-55000000D02*
X80700000Y-40100000D01*
X60300000Y-51900000D02*
X60300000Y-51800000D01*
X60300000Y-51800000D02*
X63700000Y-48400000D01*
X67000000Y-40100000D02*
X63700000Y-43400000D01*
X80700000Y-40100000D02*
X67000000Y-40100000D01*
X63700000Y-48400000D02*
X63700000Y-43400000D01*
X88900000Y-156850000D02*
X88900000Y-155000000D01*
X54500000Y-114680000D02*
X51120000Y-114680000D01*
X48400000Y-117400000D02*
X48400000Y-157300000D01*
X48400000Y-157300000D02*
X51000000Y-159900000D01*
X51120000Y-114680000D02*
X48400000Y-117400000D01*
X51000000Y-159900000D02*
X85850000Y-159900000D01*
X85850000Y-159900000D02*
X88900000Y-156850000D01*
X51120000Y-114680000D02*
X50780000Y-114680000D01*
X50780000Y-114680000D02*
X48800000Y-112700000D01*
X48800000Y-112700000D02*
X48800000Y-93700000D01*
X48800000Y-93700000D02*
X50700000Y-91800000D01*
X50720000Y-91820000D02*
X54500000Y-91820000D01*
X50700000Y-91800000D02*
X50720000Y-91820000D01*
X50700000Y-91200000D02*
X50700000Y-91800000D01*
X49200000Y-89700000D02*
X50700000Y-91200000D01*
X49200000Y-71700000D02*
X49200000Y-89700000D01*
X51380000Y-69520000D02*
X49200000Y-71700000D01*
X54700000Y-69520000D02*
X51380000Y-69520000D01*
X51020000Y-69520000D02*
X51380000Y-69520000D01*
X49500000Y-68000000D02*
X51020000Y-69520000D01*
X49500000Y-49200000D02*
X49500000Y-68000000D01*
X54500000Y-46820000D02*
X51880000Y-46820000D01*
X51880000Y-46820000D02*
X49500000Y-49200000D01*
X51880000Y-46820000D02*
X51880000Y-46680000D01*
X51880000Y-46680000D02*
X50000000Y-44800000D01*
X50000000Y-44800000D02*
X50000000Y-35600000D01*
X50000000Y-35600000D02*
X52000000Y-33600000D01*
X52000000Y-33600000D02*
X93400000Y-33600000D01*
X93400000Y-33600000D02*
X95200000Y-35400000D01*
X95200000Y-35400000D02*
X95200000Y-39600000D01*
X95200000Y-39600000D02*
X93000000Y-41800000D01*
X92980000Y-41780000D02*
X89900000Y-41780000D01*
X93000000Y-41800000D02*
X92980000Y-41780000D01*
X93200000Y-41800000D02*
X93000000Y-41800000D01*
X95200000Y-43800000D02*
X93200000Y-41800000D01*
X95200000Y-62400000D02*
X95200000Y-43800000D01*
X93160000Y-64440000D02*
X95200000Y-62400000D01*
X89900000Y-64440000D02*
X93160000Y-64440000D01*
D20*
X77600000Y-114800000D02*
X79200000Y-116400000D01*
X79200000Y-116400000D02*
X79200000Y-122500000D01*
X79200000Y-122500000D02*
X80700000Y-124000000D01*
X80700000Y-124000000D02*
X92300000Y-124000000D01*
X92300000Y-124000000D02*
X94500000Y-126200000D01*
X94500000Y-126200000D02*
X94500000Y-137200000D01*
X94500000Y-137200000D02*
X92300000Y-139400000D01*
X92300000Y-139400000D02*
X79000000Y-139400000D01*
X77680000Y-140720000D02*
X77680000Y-144340000D01*
X79000000Y-139400000D02*
X77680000Y-140720000D01*
X70500000Y-117500000D02*
X74200000Y-121200000D01*
X74200000Y-121200000D02*
X74200000Y-124700000D01*
X74200000Y-124700000D02*
X75800000Y-126300000D01*
X75800000Y-126300000D02*
X89300000Y-126300000D01*
X90380000Y-127380000D02*
X90380000Y-129100000D01*
X89300000Y-126300000D02*
X90380000Y-127380000D01*
D21*
G36*
X96315000Y-166215000D02*
G01*
X93485490Y-166215000D01*
X93700113Y-166071594D01*
X94071594Y-165700113D01*
X94363464Y-165263298D01*
X94564508Y-164777935D01*
X94667000Y-164262677D01*
X94667000Y-163737323D01*
X94564508Y-163222065D01*
X94363464Y-162736702D01*
X94071594Y-162299887D01*
X93700113Y-161928406D01*
X93263298Y-161636536D01*
X92777935Y-161435492D01*
X92262677Y-161333000D01*
X91737323Y-161333000D01*
X91222065Y-161435492D01*
X90736702Y-161636536D01*
X90299887Y-161928406D01*
X89928406Y-162299887D01*
X89636536Y-162736702D01*
X89435492Y-163222065D01*
X89333000Y-163737323D01*
X89333000Y-164262677D01*
X89435492Y-164777935D01*
X89636536Y-165263298D01*
X89928406Y-165700113D01*
X90299887Y-166071594D01*
X90514510Y-166215000D01*
X53485490Y-166215000D01*
X53700113Y-166071594D01*
X54071594Y-165700113D01*
X54363464Y-165263298D01*
X54564508Y-164777935D01*
X54667000Y-164262677D01*
X54667000Y-163737323D01*
X54564508Y-163222065D01*
X54363464Y-162736702D01*
X54071594Y-162299887D01*
X53700113Y-161928406D01*
X53263298Y-161636536D01*
X52777935Y-161435492D01*
X52262677Y-161333000D01*
X51737323Y-161333000D01*
X51222065Y-161435492D01*
X50736702Y-161636536D01*
X50299887Y-161928406D01*
X49928406Y-162299887D01*
X49636536Y-162736702D01*
X49435492Y-163222065D01*
X49333000Y-163737323D01*
X49333000Y-164262677D01*
X49435492Y-164777935D01*
X49636536Y-165263298D01*
X49928406Y-165700113D01*
X50299887Y-166071594D01*
X50514510Y-166215000D01*
X47685000Y-166215000D01*
X47685000Y-157930203D01*
X47723223Y-157976778D01*
X47759564Y-158006602D01*
X50293397Y-160540436D01*
X50323222Y-160576778D01*
X50468259Y-160695806D01*
X50633731Y-160784252D01*
X50813277Y-160838717D01*
X50999999Y-160857108D01*
X51046784Y-160852500D01*
X85803215Y-160852500D01*
X85850000Y-160857108D01*
X85896785Y-160852500D01*
X86036723Y-160838717D01*
X86216269Y-160784252D01*
X86381741Y-160695806D01*
X86526778Y-160576778D01*
X86556607Y-160540431D01*
X89540431Y-157556607D01*
X89576778Y-157526778D01*
X89694181Y-157383721D01*
X89920799Y-157361401D01*
X90181192Y-157282411D01*
X90421171Y-157154140D01*
X90631515Y-156981515D01*
X90804140Y-156771171D01*
X90932411Y-156531192D01*
X91011401Y-156270799D01*
X91038072Y-156000000D01*
X91038072Y-154000000D01*
X91011401Y-153729201D01*
X90932411Y-153468808D01*
X90804140Y-153228829D01*
X90631515Y-153018485D01*
X90421171Y-152845860D01*
X90181192Y-152717589D01*
X89920799Y-152638599D01*
X89650000Y-152611928D01*
X88150000Y-152611928D01*
X87879201Y-152638599D01*
X87618808Y-152717589D01*
X87378829Y-152845860D01*
X87168485Y-153018485D01*
X86995860Y-153228829D01*
X86867589Y-153468808D01*
X86788599Y-153729201D01*
X86761928Y-154000000D01*
X86761928Y-156000000D01*
X86788599Y-156270799D01*
X86867589Y-156531192D01*
X86995860Y-156771171D01*
X87168485Y-156981515D01*
X87307423Y-157095539D01*
X85455462Y-158947500D01*
X51394539Y-158947500D01*
X49352500Y-156905462D01*
X49352500Y-121125000D01*
X50042892Y-121125000D01*
X50047501Y-121171795D01*
X50047500Y-152953215D01*
X50042892Y-153000000D01*
X50047500Y-153046784D01*
X50061283Y-153186722D01*
X50115748Y-153366268D01*
X50204194Y-153531741D01*
X50323222Y-153676778D01*
X50359569Y-153706607D01*
X52293397Y-155640436D01*
X52323222Y-155676778D01*
X52468259Y-155795806D01*
X52633731Y-155884252D01*
X52813277Y-155938717D01*
X52999999Y-155957108D01*
X53046784Y-155952500D01*
X80511928Y-155952500D01*
X80511928Y-156750000D01*
X80524188Y-156874482D01*
X80560498Y-156994180D01*
X80619463Y-157104494D01*
X80698815Y-157201185D01*
X80795506Y-157280537D01*
X80905820Y-157339502D01*
X81025518Y-157375812D01*
X81150000Y-157388072D01*
X84650000Y-157388072D01*
X84774482Y-157375812D01*
X84894180Y-157339502D01*
X85004494Y-157280537D01*
X85101185Y-157201185D01*
X85180537Y-157104494D01*
X85239502Y-156994180D01*
X85275812Y-156874482D01*
X85288072Y-156750000D01*
X85288072Y-153250000D01*
X85275812Y-153125518D01*
X85239502Y-153005820D01*
X85180537Y-152895506D01*
X85101185Y-152798815D01*
X85004494Y-152719463D01*
X84927869Y-152678506D01*
X85025000Y-152688072D01*
X86775000Y-152688072D01*
X87070186Y-152658999D01*
X87354028Y-152572896D01*
X87615618Y-152433073D01*
X87844903Y-152244903D01*
X88033073Y-152015618D01*
X88172896Y-151754028D01*
X88258999Y-151470186D01*
X88288072Y-151175000D01*
X88288072Y-149425000D01*
X88258999Y-149129814D01*
X88172896Y-148845972D01*
X88033073Y-148584382D01*
X87844903Y-148355097D01*
X87615618Y-148166927D01*
X87354028Y-148027104D01*
X87070186Y-147941001D01*
X86775000Y-147911928D01*
X85025000Y-147911928D01*
X84729814Y-147941001D01*
X84445972Y-148027104D01*
X84184382Y-148166927D01*
X83955097Y-148355097D01*
X83766927Y-148584382D01*
X83627104Y-148845972D01*
X83541001Y-149129814D01*
X83511928Y-149425000D01*
X83511928Y-151175000D01*
X83541001Y-151470186D01*
X83627104Y-151754028D01*
X83766927Y-152015618D01*
X83955097Y-152244903D01*
X84184382Y-152433073D01*
X84445972Y-152572896D01*
X84574643Y-152611928D01*
X81150000Y-152611928D01*
X81025518Y-152624188D01*
X80905820Y-152660498D01*
X80795506Y-152719463D01*
X80698815Y-152798815D01*
X80619463Y-152895506D01*
X80560498Y-153005820D01*
X80524188Y-153125518D01*
X80511928Y-153250000D01*
X80511928Y-154047500D01*
X53394539Y-154047500D01*
X51952500Y-152605462D01*
X51952500Y-143540000D01*
X53381928Y-143540000D01*
X53381928Y-145140000D01*
X53394188Y-145264482D01*
X53430498Y-145384180D01*
X53489463Y-145494494D01*
X53568815Y-145591185D01*
X53665506Y-145670537D01*
X53775820Y-145729502D01*
X53895518Y-145765812D01*
X54020000Y-145778072D01*
X55620000Y-145778072D01*
X55744482Y-145765812D01*
X55864180Y-145729502D01*
X55974494Y-145670537D01*
X56071185Y-145591185D01*
X56150537Y-145494494D01*
X56209502Y-145384180D01*
X56245812Y-145264482D01*
X56247581Y-145246518D01*
X56340392Y-145359608D01*
X56558899Y-145538932D01*
X56808192Y-145672182D01*
X57078691Y-145754236D01*
X57289508Y-145775000D01*
X57430492Y-145775000D01*
X57641309Y-145754236D01*
X57911808Y-145672182D01*
X58161101Y-145538932D01*
X58379608Y-145359608D01*
X58558932Y-145141101D01*
X58630000Y-145008142D01*
X58701068Y-145141101D01*
X58880392Y-145359608D01*
X59098899Y-145538932D01*
X59348192Y-145672182D01*
X59618691Y-145754236D01*
X59829508Y-145775000D01*
X59970492Y-145775000D01*
X60181309Y-145754236D01*
X60451808Y-145672182D01*
X60701101Y-145538932D01*
X60919608Y-145359608D01*
X61098932Y-145141101D01*
X61172579Y-145003318D01*
X61287615Y-145195131D01*
X61476586Y-145403519D01*
X61702580Y-145571037D01*
X61956913Y-145691246D01*
X62090961Y-145731904D01*
X62313000Y-145609915D01*
X62313000Y-144467000D01*
X62293000Y-144467000D01*
X62293000Y-144213000D01*
X62313000Y-144213000D01*
X62313000Y-143070085D01*
X62567000Y-143070085D01*
X62567000Y-144213000D01*
X62587000Y-144213000D01*
X62587000Y-144467000D01*
X62567000Y-144467000D01*
X62567000Y-145609915D01*
X62789039Y-145731904D01*
X62923087Y-145691246D01*
X63177420Y-145571037D01*
X63403414Y-145403519D01*
X63592385Y-145195131D01*
X63707421Y-145003318D01*
X63781068Y-145141101D01*
X63960392Y-145359608D01*
X64178899Y-145538932D01*
X64428192Y-145672182D01*
X64698691Y-145754236D01*
X64909508Y-145775000D01*
X65050492Y-145775000D01*
X65261309Y-145754236D01*
X65531808Y-145672182D01*
X65781101Y-145538932D01*
X65999608Y-145359608D01*
X66178932Y-145141101D01*
X66250000Y-145008142D01*
X66321068Y-145141101D01*
X66500392Y-145359608D01*
X66718899Y-145538932D01*
X66968192Y-145672182D01*
X67238691Y-145754236D01*
X67449508Y-145775000D01*
X67590492Y-145775000D01*
X67801309Y-145754236D01*
X68071808Y-145672182D01*
X68321101Y-145538932D01*
X68539608Y-145359608D01*
X68718932Y-145141101D01*
X68790000Y-145008142D01*
X68861068Y-145141101D01*
X69040392Y-145359608D01*
X69258899Y-145538932D01*
X69508192Y-145672182D01*
X69778691Y-145754236D01*
X69989508Y-145775000D01*
X70130492Y-145775000D01*
X70341309Y-145754236D01*
X70611808Y-145672182D01*
X70861101Y-145538932D01*
X71079608Y-145359608D01*
X71258932Y-145141101D01*
X71330000Y-145008142D01*
X71401068Y-145141101D01*
X71580392Y-145359608D01*
X71798899Y-145538932D01*
X72048192Y-145672182D01*
X72318691Y-145754236D01*
X72529508Y-145775000D01*
X72670492Y-145775000D01*
X72881309Y-145754236D01*
X73151808Y-145672182D01*
X73401101Y-145538932D01*
X73619608Y-145359608D01*
X73798932Y-145141101D01*
X73870000Y-145008142D01*
X73941068Y-145141101D01*
X74120392Y-145359608D01*
X74338899Y-145538932D01*
X74588192Y-145672182D01*
X74858691Y-145754236D01*
X75069508Y-145775000D01*
X75210492Y-145775000D01*
X75421309Y-145754236D01*
X75691808Y-145672182D01*
X75941101Y-145538932D01*
X76159608Y-145359608D01*
X76338932Y-145141101D01*
X76410000Y-145008142D01*
X76481068Y-145141101D01*
X76660392Y-145359608D01*
X76878899Y-145538932D01*
X77128192Y-145672182D01*
X77398691Y-145754236D01*
X77609508Y-145775000D01*
X77750492Y-145775000D01*
X77961309Y-145754236D01*
X78231808Y-145672182D01*
X78481101Y-145538932D01*
X78699608Y-145359608D01*
X78878932Y-145141101D01*
X78950000Y-145008142D01*
X79021068Y-145141101D01*
X79200392Y-145359608D01*
X79418899Y-145538932D01*
X79668192Y-145672182D01*
X79938691Y-145754236D01*
X80149508Y-145775000D01*
X80290492Y-145775000D01*
X80501309Y-145754236D01*
X80771808Y-145672182D01*
X81021101Y-145538932D01*
X81239608Y-145359608D01*
X81418932Y-145141101D01*
X81490000Y-145008142D01*
X81561068Y-145141101D01*
X81740392Y-145359608D01*
X81958899Y-145538932D01*
X82208192Y-145672182D01*
X82478691Y-145754236D01*
X82689508Y-145775000D01*
X82830492Y-145775000D01*
X83041309Y-145754236D01*
X83311808Y-145672182D01*
X83561101Y-145538932D01*
X83779608Y-145359608D01*
X83958932Y-145141101D01*
X84030000Y-145008142D01*
X84101068Y-145141101D01*
X84280392Y-145359608D01*
X84498899Y-145538932D01*
X84748192Y-145672182D01*
X85018691Y-145754236D01*
X85229508Y-145775000D01*
X85370492Y-145775000D01*
X85581309Y-145754236D01*
X85851808Y-145672182D01*
X86101101Y-145538932D01*
X86319608Y-145359608D01*
X86498932Y-145141101D01*
X86570000Y-145008142D01*
X86641068Y-145141101D01*
X86820392Y-145359608D01*
X87038899Y-145538932D01*
X87288192Y-145672182D01*
X87558691Y-145754236D01*
X87769508Y-145775000D01*
X87910492Y-145775000D01*
X88121309Y-145754236D01*
X88391808Y-145672182D01*
X88641101Y-145538932D01*
X88859608Y-145359608D01*
X89038932Y-145141101D01*
X89110000Y-145008142D01*
X89181068Y-145141101D01*
X89360392Y-145359608D01*
X89578899Y-145538932D01*
X89828192Y-145672182D01*
X90098691Y-145754236D01*
X90309508Y-145775000D01*
X90450492Y-145775000D01*
X90661309Y-145754236D01*
X90931808Y-145672182D01*
X91181101Y-145538932D01*
X91399608Y-145359608D01*
X91578932Y-145141101D01*
X91712182Y-144891808D01*
X91794236Y-144621309D01*
X91821943Y-144340000D01*
X91794236Y-144058691D01*
X91712182Y-143788192D01*
X91578932Y-143538899D01*
X91399608Y-143320392D01*
X91181101Y-143141068D01*
X90931808Y-143007818D01*
X90661309Y-142925764D01*
X90450492Y-142905000D01*
X90309508Y-142905000D01*
X90098691Y-142925764D01*
X89828192Y-143007818D01*
X89578899Y-143141068D01*
X89360392Y-143320392D01*
X89181068Y-143538899D01*
X89110000Y-143671858D01*
X89038932Y-143538899D01*
X88859608Y-143320392D01*
X88641101Y-143141068D01*
X88391808Y-143007818D01*
X88121309Y-142925764D01*
X87910492Y-142905000D01*
X87769508Y-142905000D01*
X87558691Y-142925764D01*
X87288192Y-143007818D01*
X87038899Y-143141068D01*
X86820392Y-143320392D01*
X86641068Y-143538899D01*
X86570000Y-143671858D01*
X86498932Y-143538899D01*
X86319608Y-143320392D01*
X86101101Y-143141068D01*
X85851808Y-143007818D01*
X85581309Y-142925764D01*
X85370492Y-142905000D01*
X85229508Y-142905000D01*
X85018691Y-142925764D01*
X84748192Y-143007818D01*
X84498899Y-143141068D01*
X84280392Y-143320392D01*
X84101068Y-143538899D01*
X84030000Y-143671858D01*
X83958932Y-143538899D01*
X83779608Y-143320392D01*
X83561101Y-143141068D01*
X83311808Y-143007818D01*
X83041309Y-142925764D01*
X82830492Y-142905000D01*
X82689508Y-142905000D01*
X82478691Y-142925764D01*
X82208192Y-143007818D01*
X81958899Y-143141068D01*
X81740392Y-143320392D01*
X81561068Y-143538899D01*
X81490000Y-143671858D01*
X81418932Y-143538899D01*
X81239608Y-143320392D01*
X81021101Y-143141068D01*
X80771808Y-143007818D01*
X80501309Y-142925764D01*
X80290492Y-142905000D01*
X80149508Y-142905000D01*
X79938691Y-142925764D01*
X79668192Y-143007818D01*
X79418899Y-143141068D01*
X79200392Y-143320392D01*
X79021068Y-143538899D01*
X78950000Y-143671858D01*
X78878932Y-143538899D01*
X78699608Y-143320392D01*
X78481101Y-143141068D01*
X78440000Y-143119099D01*
X78440000Y-141034801D01*
X79314802Y-140160000D01*
X92262678Y-140160000D01*
X92300000Y-140163676D01*
X92337322Y-140160000D01*
X92337333Y-140160000D01*
X92448986Y-140149003D01*
X92592247Y-140105546D01*
X92724276Y-140034974D01*
X92840001Y-139940001D01*
X92863804Y-139910997D01*
X95011003Y-137763799D01*
X95040001Y-137740001D01*
X95134974Y-137624276D01*
X95205546Y-137492247D01*
X95249003Y-137348986D01*
X95260000Y-137237333D01*
X95260000Y-137237323D01*
X95263676Y-137200000D01*
X95260000Y-137162677D01*
X95260000Y-126237323D01*
X95263676Y-126200000D01*
X95260000Y-126162677D01*
X95260000Y-126162667D01*
X95249003Y-126051014D01*
X95205546Y-125907753D01*
X95134974Y-125775724D01*
X95040001Y-125659999D01*
X95011004Y-125636202D01*
X92863804Y-123489003D01*
X92840001Y-123459999D01*
X92724276Y-123365026D01*
X92592247Y-123294454D01*
X92448986Y-123250997D01*
X92337333Y-123240000D01*
X92337322Y-123240000D01*
X92300000Y-123236324D01*
X92262678Y-123240000D01*
X81014802Y-123240000D01*
X79960000Y-122185199D01*
X79960000Y-121231653D01*
X88487952Y-121231653D01*
X88643962Y-121547214D01*
X89018745Y-121738020D01*
X89423551Y-121852044D01*
X89842824Y-121884902D01*
X90260451Y-121835334D01*
X90660383Y-121705243D01*
X90956038Y-121547214D01*
X91112048Y-121231653D01*
X89800000Y-119919605D01*
X88487952Y-121231653D01*
X79960000Y-121231653D01*
X79960000Y-119782824D01*
X87655098Y-119782824D01*
X87704666Y-120200451D01*
X87834757Y-120600383D01*
X87992786Y-120896038D01*
X88308347Y-121052048D01*
X89620395Y-119740000D01*
X89979605Y-119740000D01*
X91291653Y-121052048D01*
X91607214Y-120896038D01*
X91798020Y-120521255D01*
X91912044Y-120116449D01*
X91944902Y-119697176D01*
X91895334Y-119279549D01*
X91765243Y-118879617D01*
X91607214Y-118583962D01*
X91291653Y-118427952D01*
X89979605Y-119740000D01*
X89620395Y-119740000D01*
X88308347Y-118427952D01*
X87992786Y-118583962D01*
X87801980Y-118958745D01*
X87687956Y-119363551D01*
X87655098Y-119782824D01*
X79960000Y-119782824D01*
X79960000Y-118248347D01*
X88487952Y-118248347D01*
X89800000Y-119560395D01*
X91112048Y-118248347D01*
X90956038Y-117932786D01*
X90581255Y-117741980D01*
X90176449Y-117627956D01*
X89757176Y-117595098D01*
X89339549Y-117644666D01*
X88939617Y-117774757D01*
X88643962Y-117932786D01*
X88487952Y-118248347D01*
X79960000Y-118248347D01*
X79960000Y-116437325D01*
X79963676Y-116400000D01*
X79960000Y-116362675D01*
X79960000Y-116362667D01*
X79949003Y-116251014D01*
X79905546Y-116107753D01*
X79834974Y-115975724D01*
X79740001Y-115859999D01*
X79711004Y-115836202D01*
X78679500Y-114804699D01*
X78679500Y-114693679D01*
X78638015Y-114485122D01*
X78623352Y-114449721D01*
X87665000Y-114449721D01*
X87665000Y-114870279D01*
X87747047Y-115282756D01*
X87907988Y-115671302D01*
X88141637Y-116020983D01*
X88439017Y-116318363D01*
X88788698Y-116552012D01*
X89177244Y-116712953D01*
X89589721Y-116795000D01*
X90010279Y-116795000D01*
X90422756Y-116712953D01*
X90811302Y-116552012D01*
X91160983Y-116318363D01*
X91458363Y-116020983D01*
X91692012Y-115671302D01*
X91852953Y-115282756D01*
X91935000Y-114870279D01*
X91935000Y-114449721D01*
X91852953Y-114037244D01*
X91692012Y-113648698D01*
X91458363Y-113299017D01*
X91160983Y-113001637D01*
X90811302Y-112767988D01*
X90422756Y-112607047D01*
X90010279Y-112525000D01*
X89589721Y-112525000D01*
X89177244Y-112607047D01*
X88788698Y-112767988D01*
X88439017Y-113001637D01*
X88141637Y-113299017D01*
X87907988Y-113648698D01*
X87747047Y-114037244D01*
X87665000Y-114449721D01*
X78623352Y-114449721D01*
X78556640Y-114288665D01*
X78438502Y-114111859D01*
X78288141Y-113961498D01*
X78111335Y-113843360D01*
X77914878Y-113761985D01*
X77706321Y-113720500D01*
X77493679Y-113720500D01*
X77285122Y-113761985D01*
X77088665Y-113843360D01*
X76911859Y-113961498D01*
X76761498Y-114111859D01*
X76643360Y-114288665D01*
X76561985Y-114485122D01*
X76520500Y-114693679D01*
X76520500Y-114906321D01*
X76561985Y-115114878D01*
X76643360Y-115311335D01*
X76761498Y-115488141D01*
X76911859Y-115638502D01*
X77088665Y-115756640D01*
X77285122Y-115838015D01*
X77493679Y-115879500D01*
X77604699Y-115879500D01*
X78440000Y-116714802D01*
X78440001Y-122462668D01*
X78436324Y-122500000D01*
X78450998Y-122648985D01*
X78494454Y-122792246D01*
X78565026Y-122924276D01*
X78636201Y-123011002D01*
X78660000Y-123040001D01*
X78688998Y-123063799D01*
X80136200Y-124511002D01*
X80159999Y-124540001D01*
X80275724Y-124634974D01*
X80407753Y-124705546D01*
X80551014Y-124749003D01*
X80662667Y-124760000D01*
X80662676Y-124760000D01*
X80699999Y-124763676D01*
X80737322Y-124760000D01*
X91985199Y-124760000D01*
X93740000Y-126514802D01*
X93740001Y-136885197D01*
X91985199Y-138640000D01*
X79037323Y-138640000D01*
X79000000Y-138636324D01*
X78962677Y-138640000D01*
X78962667Y-138640000D01*
X78851014Y-138650997D01*
X78707753Y-138694454D01*
X78575723Y-138765026D01*
X78492083Y-138833668D01*
X78459999Y-138859999D01*
X78436201Y-138888997D01*
X77169003Y-140156196D01*
X77139999Y-140179999D01*
X77084871Y-140247174D01*
X77045026Y-140295724D01*
X76974455Y-140427753D01*
X76974454Y-140427754D01*
X76930997Y-140571015D01*
X76920000Y-140682668D01*
X76920000Y-140682678D01*
X76916324Y-140720000D01*
X76920000Y-140757323D01*
X76920001Y-143119099D01*
X76878899Y-143141068D01*
X76660392Y-143320392D01*
X76481068Y-143538899D01*
X76410000Y-143671858D01*
X76338932Y-143538899D01*
X76159608Y-143320392D01*
X75941101Y-143141068D01*
X75691808Y-143007818D01*
X75421309Y-142925764D01*
X75210492Y-142905000D01*
X75069508Y-142905000D01*
X74858691Y-142925764D01*
X74588192Y-143007818D01*
X74338899Y-143141068D01*
X74120392Y-143320392D01*
X73941068Y-143538899D01*
X73870000Y-143671858D01*
X73798932Y-143538899D01*
X73619608Y-143320392D01*
X73401101Y-143141068D01*
X73151808Y-143007818D01*
X72881309Y-142925764D01*
X72670492Y-142905000D01*
X72529508Y-142905000D01*
X72318691Y-142925764D01*
X72048192Y-143007818D01*
X71798899Y-143141068D01*
X71580392Y-143320392D01*
X71401068Y-143538899D01*
X71330000Y-143671858D01*
X71258932Y-143538899D01*
X71079608Y-143320392D01*
X70861101Y-143141068D01*
X70611808Y-143007818D01*
X70341309Y-142925764D01*
X70130492Y-142905000D01*
X69989508Y-142905000D01*
X69778691Y-142925764D01*
X69508192Y-143007818D01*
X69258899Y-143141068D01*
X69040392Y-143320392D01*
X68861068Y-143538899D01*
X68790000Y-143671858D01*
X68718932Y-143538899D01*
X68539608Y-143320392D01*
X68321101Y-143141068D01*
X68071808Y-143007818D01*
X67801309Y-142925764D01*
X67590492Y-142905000D01*
X67449508Y-142905000D01*
X67238691Y-142925764D01*
X66968192Y-143007818D01*
X66718899Y-143141068D01*
X66500392Y-143320392D01*
X66321068Y-143538899D01*
X66250000Y-143671858D01*
X66178932Y-143538899D01*
X65999608Y-143320392D01*
X65781101Y-143141068D01*
X65531808Y-143007818D01*
X65261309Y-142925764D01*
X65050492Y-142905000D01*
X64909508Y-142905000D01*
X64698691Y-142925764D01*
X64428192Y-143007818D01*
X64178899Y-143141068D01*
X63960392Y-143320392D01*
X63781068Y-143538899D01*
X63707421Y-143676682D01*
X63592385Y-143484869D01*
X63403414Y-143276481D01*
X63177420Y-143108963D01*
X62923087Y-142988754D01*
X62789039Y-142948096D01*
X62567000Y-143070085D01*
X62313000Y-143070085D01*
X62090961Y-142948096D01*
X61956913Y-142988754D01*
X61702580Y-143108963D01*
X61476586Y-143276481D01*
X61287615Y-143484869D01*
X61172579Y-143676682D01*
X61098932Y-143538899D01*
X60919608Y-143320392D01*
X60701101Y-143141068D01*
X60451808Y-143007818D01*
X60181309Y-142925764D01*
X59970492Y-142905000D01*
X59829508Y-142905000D01*
X59618691Y-142925764D01*
X59348192Y-143007818D01*
X59098899Y-143141068D01*
X58880392Y-143320392D01*
X58701068Y-143538899D01*
X58630000Y-143671858D01*
X58558932Y-143538899D01*
X58379608Y-143320392D01*
X58161101Y-143141068D01*
X57911808Y-143007818D01*
X57641309Y-142925764D01*
X57430492Y-142905000D01*
X57289508Y-142905000D01*
X57078691Y-142925764D01*
X56808192Y-143007818D01*
X56558899Y-143141068D01*
X56340392Y-143320392D01*
X56247581Y-143433482D01*
X56245812Y-143415518D01*
X56209502Y-143295820D01*
X56150537Y-143185506D01*
X56071185Y-143088815D01*
X55974494Y-143009463D01*
X55864180Y-142950498D01*
X55744482Y-142914188D01*
X55620000Y-142901928D01*
X54020000Y-142901928D01*
X53895518Y-142914188D01*
X53775820Y-142950498D01*
X53665506Y-143009463D01*
X53568815Y-143088815D01*
X53489463Y-143185506D01*
X53430498Y-143295820D01*
X53394188Y-143415518D01*
X53381928Y-143540000D01*
X51952500Y-143540000D01*
X51952500Y-129100000D01*
X53378057Y-129100000D01*
X53405764Y-129381309D01*
X53487818Y-129651808D01*
X53621068Y-129901101D01*
X53800392Y-130119608D01*
X54018899Y-130298932D01*
X54268192Y-130432182D01*
X54538691Y-130514236D01*
X54749508Y-130535000D01*
X54890492Y-130535000D01*
X55101309Y-130514236D01*
X55371808Y-130432182D01*
X55621101Y-130298932D01*
X55839608Y-130119608D01*
X56018932Y-129901101D01*
X56092579Y-129763318D01*
X56207615Y-129955131D01*
X56396586Y-130163519D01*
X56622580Y-130331037D01*
X56876913Y-130451246D01*
X57010961Y-130491904D01*
X57233000Y-130369915D01*
X57233000Y-129227000D01*
X57213000Y-129227000D01*
X57213000Y-128973000D01*
X57233000Y-128973000D01*
X57233000Y-127830085D01*
X57487000Y-127830085D01*
X57487000Y-128973000D01*
X57507000Y-128973000D01*
X57507000Y-129227000D01*
X57487000Y-129227000D01*
X57487000Y-130369915D01*
X57709039Y-130491904D01*
X57843087Y-130451246D01*
X58097420Y-130331037D01*
X58323414Y-130163519D01*
X58512385Y-129955131D01*
X58627421Y-129763318D01*
X58701068Y-129901101D01*
X58880392Y-130119608D01*
X59098899Y-130298932D01*
X59348192Y-130432182D01*
X59618691Y-130514236D01*
X59829508Y-130535000D01*
X59970492Y-130535000D01*
X60181309Y-130514236D01*
X60451808Y-130432182D01*
X60701101Y-130298932D01*
X60919608Y-130119608D01*
X61098932Y-129901101D01*
X61170000Y-129768142D01*
X61241068Y-129901101D01*
X61420392Y-130119608D01*
X61638899Y-130298932D01*
X61888192Y-130432182D01*
X62158691Y-130514236D01*
X62369508Y-130535000D01*
X62510492Y-130535000D01*
X62721309Y-130514236D01*
X62991808Y-130432182D01*
X63241101Y-130298932D01*
X63459608Y-130119608D01*
X63638932Y-129901101D01*
X63710000Y-129768142D01*
X63781068Y-129901101D01*
X63960392Y-130119608D01*
X64178899Y-130298932D01*
X64428192Y-130432182D01*
X64698691Y-130514236D01*
X64909508Y-130535000D01*
X65050492Y-130535000D01*
X65261309Y-130514236D01*
X65531808Y-130432182D01*
X65781101Y-130298932D01*
X65999608Y-130119608D01*
X66178932Y-129901101D01*
X66250000Y-129768142D01*
X66321068Y-129901101D01*
X66500392Y-130119608D01*
X66718899Y-130298932D01*
X66968192Y-130432182D01*
X67238691Y-130514236D01*
X67449508Y-130535000D01*
X67590492Y-130535000D01*
X67801309Y-130514236D01*
X68071808Y-130432182D01*
X68321101Y-130298932D01*
X68539608Y-130119608D01*
X68718932Y-129901101D01*
X68790000Y-129768142D01*
X68861068Y-129901101D01*
X69040392Y-130119608D01*
X69258899Y-130298932D01*
X69508192Y-130432182D01*
X69778691Y-130514236D01*
X69989508Y-130535000D01*
X70130492Y-130535000D01*
X70341309Y-130514236D01*
X70611808Y-130432182D01*
X70861101Y-130298932D01*
X71079608Y-130119608D01*
X71258932Y-129901101D01*
X71330000Y-129768142D01*
X71401068Y-129901101D01*
X71580392Y-130119608D01*
X71798899Y-130298932D01*
X72048192Y-130432182D01*
X72318691Y-130514236D01*
X72529508Y-130535000D01*
X72670492Y-130535000D01*
X72881309Y-130514236D01*
X73151808Y-130432182D01*
X73401101Y-130298932D01*
X73619608Y-130119608D01*
X73798932Y-129901101D01*
X73870000Y-129768142D01*
X73941068Y-129901101D01*
X74120392Y-130119608D01*
X74338899Y-130298932D01*
X74588192Y-130432182D01*
X74858691Y-130514236D01*
X75069508Y-130535000D01*
X75210492Y-130535000D01*
X75421309Y-130514236D01*
X75691808Y-130432182D01*
X75941101Y-130298932D01*
X76159608Y-130119608D01*
X76338932Y-129901101D01*
X76410000Y-129768142D01*
X76481068Y-129901101D01*
X76660392Y-130119608D01*
X76878899Y-130298932D01*
X77128192Y-130432182D01*
X77398691Y-130514236D01*
X77609508Y-130535000D01*
X77750492Y-130535000D01*
X77961309Y-130514236D01*
X78231808Y-130432182D01*
X78481101Y-130298932D01*
X78699608Y-130119608D01*
X78878932Y-129901101D01*
X78950000Y-129768142D01*
X79021068Y-129901101D01*
X79200392Y-130119608D01*
X79418899Y-130298932D01*
X79668192Y-130432182D01*
X79938691Y-130514236D01*
X80149508Y-130535000D01*
X80290492Y-130535000D01*
X80501309Y-130514236D01*
X80771808Y-130432182D01*
X81021101Y-130298932D01*
X81239608Y-130119608D01*
X81418932Y-129901101D01*
X81490000Y-129768142D01*
X81561068Y-129901101D01*
X81740392Y-130119608D01*
X81958899Y-130298932D01*
X82208192Y-130432182D01*
X82478691Y-130514236D01*
X82689508Y-130535000D01*
X82830492Y-130535000D01*
X83041309Y-130514236D01*
X83311808Y-130432182D01*
X83561101Y-130298932D01*
X83779608Y-130119608D01*
X83958932Y-129901101D01*
X84030000Y-129768142D01*
X84101068Y-129901101D01*
X84280392Y-130119608D01*
X84498899Y-130298932D01*
X84748192Y-130432182D01*
X85018691Y-130514236D01*
X85229508Y-130535000D01*
X85370492Y-130535000D01*
X85581309Y-130514236D01*
X85851808Y-130432182D01*
X86101101Y-130298932D01*
X86319608Y-130119608D01*
X86498932Y-129901101D01*
X86570000Y-129768142D01*
X86641068Y-129901101D01*
X86820392Y-130119608D01*
X87038899Y-130298932D01*
X87288192Y-130432182D01*
X87558691Y-130514236D01*
X87769508Y-130535000D01*
X87910492Y-130535000D01*
X88121309Y-130514236D01*
X88391808Y-130432182D01*
X88641101Y-130298932D01*
X88859608Y-130119608D01*
X89038932Y-129901101D01*
X89110000Y-129768142D01*
X89181068Y-129901101D01*
X89360392Y-130119608D01*
X89578899Y-130298932D01*
X89828192Y-130432182D01*
X90098691Y-130514236D01*
X90309508Y-130535000D01*
X90450492Y-130535000D01*
X90661309Y-130514236D01*
X90931808Y-130432182D01*
X91181101Y-130298932D01*
X91399608Y-130119608D01*
X91578932Y-129901101D01*
X91712182Y-129651808D01*
X91794236Y-129381309D01*
X91821943Y-129100000D01*
X91794236Y-128818691D01*
X91712182Y-128548192D01*
X91578932Y-128298899D01*
X91399608Y-128080392D01*
X91181101Y-127901068D01*
X91140000Y-127879099D01*
X91140000Y-127417325D01*
X91143676Y-127380000D01*
X91140000Y-127342675D01*
X91140000Y-127342667D01*
X91129003Y-127231014D01*
X91085546Y-127087753D01*
X91014974Y-126955724D01*
X90920001Y-126839999D01*
X90891004Y-126816202D01*
X89863804Y-125789002D01*
X89840001Y-125759999D01*
X89724276Y-125665026D01*
X89592247Y-125594454D01*
X89448986Y-125550997D01*
X89337333Y-125540000D01*
X89337322Y-125540000D01*
X89300000Y-125536324D01*
X89262678Y-125540000D01*
X76114802Y-125540000D01*
X74960000Y-124385199D01*
X74960000Y-121237322D01*
X74963676Y-121199999D01*
X74960000Y-121162676D01*
X74960000Y-121162667D01*
X74949003Y-121051014D01*
X74905546Y-120907753D01*
X74834974Y-120775724D01*
X74740001Y-120659999D01*
X74711004Y-120636202D01*
X71579500Y-117504699D01*
X71579500Y-117393679D01*
X71538015Y-117185122D01*
X71456640Y-116988665D01*
X71338502Y-116811859D01*
X71188141Y-116661498D01*
X71011335Y-116543360D01*
X70814878Y-116461985D01*
X70606321Y-116420500D01*
X70393679Y-116420500D01*
X70185122Y-116461985D01*
X69988665Y-116543360D01*
X69811859Y-116661498D01*
X69661498Y-116811859D01*
X69543360Y-116988665D01*
X69461985Y-117185122D01*
X69420500Y-117393679D01*
X69420500Y-117606321D01*
X69461985Y-117814878D01*
X69543360Y-118011335D01*
X69661498Y-118188141D01*
X69811859Y-118338502D01*
X69988665Y-118456640D01*
X70185122Y-118538015D01*
X70393679Y-118579500D01*
X70504699Y-118579500D01*
X73440000Y-121514802D01*
X73440001Y-124662668D01*
X73436324Y-124700000D01*
X73450998Y-124848985D01*
X73494454Y-124992246D01*
X73565026Y-125124276D01*
X73636201Y-125211002D01*
X73660000Y-125240001D01*
X73688998Y-125263799D01*
X75236200Y-126811002D01*
X75259999Y-126840001D01*
X75375724Y-126934974D01*
X75507753Y-127005546D01*
X75651014Y-127049003D01*
X75762667Y-127060000D01*
X75762675Y-127060000D01*
X75800000Y-127063676D01*
X75837325Y-127060000D01*
X88985199Y-127060000D01*
X89620000Y-127694802D01*
X89620000Y-127879099D01*
X89578899Y-127901068D01*
X89360392Y-128080392D01*
X89181068Y-128298899D01*
X89110000Y-128431858D01*
X89038932Y-128298899D01*
X88859608Y-128080392D01*
X88641101Y-127901068D01*
X88391808Y-127767818D01*
X88121309Y-127685764D01*
X87910492Y-127665000D01*
X87769508Y-127665000D01*
X87558691Y-127685764D01*
X87288192Y-127767818D01*
X87038899Y-127901068D01*
X86820392Y-128080392D01*
X86641068Y-128298899D01*
X86570000Y-128431858D01*
X86498932Y-128298899D01*
X86319608Y-128080392D01*
X86101101Y-127901068D01*
X85851808Y-127767818D01*
X85581309Y-127685764D01*
X85370492Y-127665000D01*
X85229508Y-127665000D01*
X85018691Y-127685764D01*
X84748192Y-127767818D01*
X84498899Y-127901068D01*
X84280392Y-128080392D01*
X84101068Y-128298899D01*
X84030000Y-128431858D01*
X83958932Y-128298899D01*
X83779608Y-128080392D01*
X83561101Y-127901068D01*
X83311808Y-127767818D01*
X83041309Y-127685764D01*
X82830492Y-127665000D01*
X82689508Y-127665000D01*
X82478691Y-127685764D01*
X82208192Y-127767818D01*
X81958899Y-127901068D01*
X81740392Y-128080392D01*
X81561068Y-128298899D01*
X81490000Y-128431858D01*
X81418932Y-128298899D01*
X81239608Y-128080392D01*
X81021101Y-127901068D01*
X80771808Y-127767818D01*
X80501309Y-127685764D01*
X80290492Y-127665000D01*
X80149508Y-127665000D01*
X79938691Y-127685764D01*
X79668192Y-127767818D01*
X79418899Y-127901068D01*
X79200392Y-128080392D01*
X79021068Y-128298899D01*
X78950000Y-128431858D01*
X78878932Y-128298899D01*
X78699608Y-128080392D01*
X78481101Y-127901068D01*
X78231808Y-127767818D01*
X77961309Y-127685764D01*
X77750492Y-127665000D01*
X77609508Y-127665000D01*
X77398691Y-127685764D01*
X77128192Y-127767818D01*
X76878899Y-127901068D01*
X76660392Y-128080392D01*
X76481068Y-128298899D01*
X76410000Y-128431858D01*
X76338932Y-128298899D01*
X76159608Y-128080392D01*
X75941101Y-127901068D01*
X75691808Y-127767818D01*
X75421309Y-127685764D01*
X75210492Y-127665000D01*
X75069508Y-127665000D01*
X74858691Y-127685764D01*
X74588192Y-127767818D01*
X74338899Y-127901068D01*
X74120392Y-128080392D01*
X73941068Y-128298899D01*
X73870000Y-128431858D01*
X73798932Y-128298899D01*
X73619608Y-128080392D01*
X73401101Y-127901068D01*
X73151808Y-127767818D01*
X72881309Y-127685764D01*
X72670492Y-127665000D01*
X72529508Y-127665000D01*
X72318691Y-127685764D01*
X72048192Y-127767818D01*
X71798899Y-127901068D01*
X71580392Y-128080392D01*
X71401068Y-128298899D01*
X71330000Y-128431858D01*
X71258932Y-128298899D01*
X71079608Y-128080392D01*
X70861101Y-127901068D01*
X70611808Y-127767818D01*
X70341309Y-127685764D01*
X70130492Y-127665000D01*
X69989508Y-127665000D01*
X69778691Y-127685764D01*
X69508192Y-127767818D01*
X69258899Y-127901068D01*
X69040392Y-128080392D01*
X68861068Y-128298899D01*
X68790000Y-128431858D01*
X68718932Y-128298899D01*
X68539608Y-128080392D01*
X68321101Y-127901068D01*
X68071808Y-127767818D01*
X67801309Y-127685764D01*
X67590492Y-127665000D01*
X67449508Y-127665000D01*
X67238691Y-127685764D01*
X66968192Y-127767818D01*
X66718899Y-127901068D01*
X66500392Y-128080392D01*
X66321068Y-128298899D01*
X66250000Y-128431858D01*
X66178932Y-128298899D01*
X65999608Y-128080392D01*
X65781101Y-127901068D01*
X65531808Y-127767818D01*
X65261309Y-127685764D01*
X65050492Y-127665000D01*
X64909508Y-127665000D01*
X64698691Y-127685764D01*
X64428192Y-127767818D01*
X64178899Y-127901068D01*
X63960392Y-128080392D01*
X63781068Y-128298899D01*
X63710000Y-128431858D01*
X63638932Y-128298899D01*
X63459608Y-128080392D01*
X63241101Y-127901068D01*
X62991808Y-127767818D01*
X62721309Y-127685764D01*
X62510492Y-127665000D01*
X62369508Y-127665000D01*
X62158691Y-127685764D01*
X61888192Y-127767818D01*
X61638899Y-127901068D01*
X61420392Y-128080392D01*
X61241068Y-128298899D01*
X61170000Y-128431858D01*
X61098932Y-128298899D01*
X60919608Y-128080392D01*
X60701101Y-127901068D01*
X60451808Y-127767818D01*
X60181309Y-127685764D01*
X59970492Y-127665000D01*
X59829508Y-127665000D01*
X59618691Y-127685764D01*
X59348192Y-127767818D01*
X59098899Y-127901068D01*
X58880392Y-128080392D01*
X58701068Y-128298899D01*
X58627421Y-128436682D01*
X58512385Y-128244869D01*
X58323414Y-128036481D01*
X58097420Y-127868963D01*
X57843087Y-127748754D01*
X57709039Y-127708096D01*
X57487000Y-127830085D01*
X57233000Y-127830085D01*
X57010961Y-127708096D01*
X56876913Y-127748754D01*
X56622580Y-127868963D01*
X56396586Y-128036481D01*
X56207615Y-128244869D01*
X56092579Y-128436682D01*
X56018932Y-128298899D01*
X55839608Y-128080392D01*
X55621101Y-127901068D01*
X55371808Y-127767818D01*
X55101309Y-127685764D01*
X54890492Y-127665000D01*
X54749508Y-127665000D01*
X54538691Y-127685764D01*
X54268192Y-127767818D01*
X54018899Y-127901068D01*
X53800392Y-128080392D01*
X53621068Y-128298899D01*
X53487818Y-128548192D01*
X53405764Y-128818691D01*
X53378057Y-129100000D01*
X51952500Y-129100000D01*
X51952500Y-121519538D01*
X52361928Y-121110110D01*
X52361928Y-121260000D01*
X52374188Y-121384482D01*
X52410498Y-121504180D01*
X52469463Y-121614494D01*
X52548815Y-121711185D01*
X52645506Y-121790537D01*
X52755820Y-121849502D01*
X52875518Y-121885812D01*
X53000000Y-121898072D01*
X56000000Y-121898072D01*
X56124482Y-121885812D01*
X56244180Y-121849502D01*
X56354494Y-121790537D01*
X56451185Y-121711185D01*
X56530537Y-121614494D01*
X56589502Y-121504180D01*
X56625812Y-121384482D01*
X56638072Y-121260000D01*
X56638072Y-120716805D01*
X56681785Y-120712500D01*
X56821723Y-120698717D01*
X56974079Y-120652500D01*
X58353215Y-120652500D01*
X58400000Y-120657108D01*
X58446785Y-120652500D01*
X58586723Y-120638717D01*
X58766269Y-120584252D01*
X58931741Y-120495806D01*
X59076778Y-120376778D01*
X59106607Y-120340431D01*
X61640436Y-117806603D01*
X61676778Y-117776778D01*
X61795806Y-117631741D01*
X61884252Y-117466269D01*
X61938717Y-117286723D01*
X61952500Y-117146785D01*
X61952500Y-117146784D01*
X61957108Y-117100001D01*
X61952500Y-117053216D01*
X61952500Y-111071653D01*
X88487952Y-111071653D01*
X88643962Y-111387214D01*
X89018745Y-111578020D01*
X89423551Y-111692044D01*
X89842824Y-111724902D01*
X90260451Y-111675334D01*
X90660383Y-111545243D01*
X90956038Y-111387214D01*
X91112048Y-111071653D01*
X89800000Y-109759605D01*
X88487952Y-111071653D01*
X61952500Y-111071653D01*
X61952500Y-109622824D01*
X87655098Y-109622824D01*
X87704666Y-110040451D01*
X87834757Y-110440383D01*
X87992786Y-110736038D01*
X88308347Y-110892048D01*
X89620395Y-109580000D01*
X89979605Y-109580000D01*
X91291653Y-110892048D01*
X91607214Y-110736038D01*
X91798020Y-110361255D01*
X91912044Y-109956449D01*
X91944902Y-109537176D01*
X91895334Y-109119549D01*
X91765243Y-108719617D01*
X91607214Y-108423962D01*
X91291653Y-108267952D01*
X89979605Y-109580000D01*
X89620395Y-109580000D01*
X88308347Y-108267952D01*
X87992786Y-108423962D01*
X87801980Y-108798745D01*
X87687956Y-109203551D01*
X87655098Y-109622824D01*
X61952500Y-109622824D01*
X61952500Y-108088347D01*
X88487952Y-108088347D01*
X89800000Y-109400395D01*
X91112048Y-108088347D01*
X90956038Y-107772786D01*
X90581255Y-107581980D01*
X90176449Y-107467956D01*
X89757176Y-107435098D01*
X89339549Y-107484666D01*
X88939617Y-107614757D01*
X88643962Y-107772786D01*
X88487952Y-108088347D01*
X61952500Y-108088347D01*
X61952500Y-103000000D01*
X87661928Y-103000000D01*
X87661928Y-106000000D01*
X87674188Y-106124482D01*
X87710498Y-106244180D01*
X87769463Y-106354494D01*
X87848815Y-106451185D01*
X87945506Y-106530537D01*
X88055820Y-106589502D01*
X88175518Y-106625812D01*
X88300000Y-106638072D01*
X91300000Y-106638072D01*
X91424482Y-106625812D01*
X91544180Y-106589502D01*
X91654494Y-106530537D01*
X91751185Y-106451185D01*
X91830537Y-106354494D01*
X91889502Y-106244180D01*
X91925812Y-106124482D01*
X91938072Y-106000000D01*
X91938072Y-103000000D01*
X91925812Y-102875518D01*
X91889502Y-102755820D01*
X91830537Y-102645506D01*
X91751185Y-102548815D01*
X91654494Y-102469463D01*
X91544180Y-102410498D01*
X91424482Y-102374188D01*
X91300000Y-102361928D01*
X88300000Y-102361928D01*
X88175518Y-102374188D01*
X88055820Y-102410498D01*
X87945506Y-102469463D01*
X87848815Y-102548815D01*
X87769463Y-102645506D01*
X87710498Y-102755820D01*
X87674188Y-102875518D01*
X87661928Y-103000000D01*
X61952500Y-103000000D01*
X61952500Y-99246784D01*
X61957108Y-99199999D01*
X61938717Y-99013277D01*
X61913618Y-98930537D01*
X61884252Y-98833731D01*
X61795806Y-98668259D01*
X61683698Y-98531653D01*
X88487952Y-98531653D01*
X88643962Y-98847214D01*
X89018745Y-99038020D01*
X89423551Y-99152044D01*
X89842824Y-99184902D01*
X90260451Y-99135334D01*
X90660383Y-99005243D01*
X90956038Y-98847214D01*
X91112048Y-98531653D01*
X89800000Y-97219605D01*
X88487952Y-98531653D01*
X61683698Y-98531653D01*
X61676778Y-98523222D01*
X61640436Y-98493397D01*
X60229863Y-97082824D01*
X87655098Y-97082824D01*
X87704666Y-97500451D01*
X87834757Y-97900383D01*
X87992786Y-98196038D01*
X88308347Y-98352048D01*
X89620395Y-97040000D01*
X89979605Y-97040000D01*
X91291653Y-98352048D01*
X91607214Y-98196038D01*
X91798020Y-97821255D01*
X91912044Y-97416449D01*
X91944902Y-96997176D01*
X91895334Y-96579549D01*
X91765243Y-96179617D01*
X91607214Y-95883962D01*
X91291653Y-95727952D01*
X89979605Y-97040000D01*
X89620395Y-97040000D01*
X88308347Y-95727952D01*
X87992786Y-95883962D01*
X87801980Y-96258745D01*
X87687956Y-96663551D01*
X87655098Y-97082824D01*
X60229863Y-97082824D01*
X60047038Y-96900000D01*
X61398691Y-95548347D01*
X88487952Y-95548347D01*
X89800000Y-96860395D01*
X91112048Y-95548347D01*
X90956038Y-95232786D01*
X90581255Y-95041980D01*
X90176449Y-94927956D01*
X89757176Y-94895098D01*
X89339549Y-94944666D01*
X88939617Y-95074757D01*
X88643962Y-95232786D01*
X88487952Y-95548347D01*
X61398691Y-95548347D01*
X62740436Y-94206603D01*
X62776778Y-94176778D01*
X62895806Y-94031741D01*
X62984252Y-93866269D01*
X63038717Y-93686723D01*
X63052500Y-93546785D01*
X63052500Y-93546784D01*
X63057108Y-93500001D01*
X63052500Y-93453216D01*
X63052500Y-91749721D01*
X87665000Y-91749721D01*
X87665000Y-92170279D01*
X87747047Y-92582756D01*
X87907988Y-92971302D01*
X88141637Y-93320983D01*
X88439017Y-93618363D01*
X88788698Y-93852012D01*
X89177244Y-94012953D01*
X89589721Y-94095000D01*
X90010279Y-94095000D01*
X90422756Y-94012953D01*
X90811302Y-93852012D01*
X91160983Y-93618363D01*
X91458363Y-93320983D01*
X91692012Y-92971302D01*
X91852953Y-92582756D01*
X91935000Y-92170279D01*
X91935000Y-91749721D01*
X91852953Y-91337244D01*
X91692012Y-90948698D01*
X91458363Y-90599017D01*
X91160983Y-90301637D01*
X90811302Y-90067988D01*
X90422756Y-89907047D01*
X90010279Y-89825000D01*
X89589721Y-89825000D01*
X89177244Y-89907047D01*
X88788698Y-90067988D01*
X88439017Y-90301637D01*
X88141637Y-90599017D01*
X87907988Y-90948698D01*
X87747047Y-91337244D01*
X87665000Y-91749721D01*
X63052500Y-91749721D01*
X63052500Y-88371653D01*
X88487952Y-88371653D01*
X88643962Y-88687214D01*
X89018745Y-88878020D01*
X89423551Y-88992044D01*
X89842824Y-89024902D01*
X90260451Y-88975334D01*
X90660383Y-88845243D01*
X90956038Y-88687214D01*
X91112048Y-88371653D01*
X89800000Y-87059605D01*
X88487952Y-88371653D01*
X63052500Y-88371653D01*
X63052500Y-86922824D01*
X87655098Y-86922824D01*
X87704666Y-87340451D01*
X87834757Y-87740383D01*
X87992786Y-88036038D01*
X88308347Y-88192048D01*
X89620395Y-86880000D01*
X89979605Y-86880000D01*
X91291653Y-88192048D01*
X91607214Y-88036038D01*
X91798020Y-87661255D01*
X91912044Y-87256449D01*
X91944902Y-86837176D01*
X91895334Y-86419549D01*
X91765243Y-86019617D01*
X91607214Y-85723962D01*
X91291653Y-85567952D01*
X89979605Y-86880000D01*
X89620395Y-86880000D01*
X88308347Y-85567952D01*
X87992786Y-85723962D01*
X87801980Y-86098745D01*
X87687956Y-86503551D01*
X87655098Y-86922824D01*
X63052500Y-86922824D01*
X63052500Y-85388347D01*
X88487952Y-85388347D01*
X89800000Y-86700395D01*
X91112048Y-85388347D01*
X90956038Y-85072786D01*
X90581255Y-84881980D01*
X90176449Y-84767956D01*
X89757176Y-84735098D01*
X89339549Y-84784666D01*
X88939617Y-84914757D01*
X88643962Y-85072786D01*
X88487952Y-85388347D01*
X63052500Y-85388347D01*
X63052500Y-80300000D01*
X87661928Y-80300000D01*
X87661928Y-83300000D01*
X87674188Y-83424482D01*
X87710498Y-83544180D01*
X87769463Y-83654494D01*
X87848815Y-83751185D01*
X87945506Y-83830537D01*
X88055820Y-83889502D01*
X88175518Y-83925812D01*
X88300000Y-83938072D01*
X91300000Y-83938072D01*
X91424482Y-83925812D01*
X91544180Y-83889502D01*
X91654494Y-83830537D01*
X91751185Y-83751185D01*
X91830537Y-83654494D01*
X91889502Y-83544180D01*
X91925812Y-83424482D01*
X91938072Y-83300000D01*
X91938072Y-80300000D01*
X91925812Y-80175518D01*
X91889502Y-80055820D01*
X91830537Y-79945506D01*
X91751185Y-79848815D01*
X91654494Y-79769463D01*
X91544180Y-79710498D01*
X91424482Y-79674188D01*
X91300000Y-79661928D01*
X88300000Y-79661928D01*
X88175518Y-79674188D01*
X88055820Y-79710498D01*
X87945506Y-79769463D01*
X87848815Y-79848815D01*
X87769463Y-79945506D01*
X87710498Y-80055820D01*
X87674188Y-80175518D01*
X87661928Y-80300000D01*
X63052500Y-80300000D01*
X63052500Y-76846785D01*
X63057108Y-76800000D01*
X63051009Y-76738072D01*
X63038717Y-76613277D01*
X62984252Y-76433731D01*
X62895806Y-76268259D01*
X62776778Y-76123222D01*
X62740436Y-76093397D01*
X62738692Y-76091653D01*
X88587952Y-76091653D01*
X88743962Y-76407214D01*
X89118745Y-76598020D01*
X89523551Y-76712044D01*
X89942824Y-76744902D01*
X90360451Y-76695334D01*
X90760383Y-76565243D01*
X91056038Y-76407214D01*
X91212048Y-76091653D01*
X89900000Y-74779605D01*
X88587952Y-76091653D01*
X62738692Y-76091653D01*
X61289863Y-74642824D01*
X87755098Y-74642824D01*
X87804666Y-75060451D01*
X87934757Y-75460383D01*
X88092786Y-75756038D01*
X88408347Y-75912048D01*
X89720395Y-74600000D01*
X90079605Y-74600000D01*
X91391653Y-75912048D01*
X91707214Y-75756038D01*
X91898020Y-75381255D01*
X92012044Y-74976449D01*
X92044902Y-74557176D01*
X91995334Y-74139549D01*
X91865243Y-73739617D01*
X91707214Y-73443962D01*
X91391653Y-73287952D01*
X90079605Y-74600000D01*
X89720395Y-74600000D01*
X88408347Y-73287952D01*
X88092786Y-73443962D01*
X87901980Y-73818745D01*
X87787956Y-74223551D01*
X87755098Y-74642824D01*
X61289863Y-74642824D01*
X61247038Y-74600000D01*
X62738691Y-73108347D01*
X88587952Y-73108347D01*
X89900000Y-74420395D01*
X91212048Y-73108347D01*
X91056038Y-72792786D01*
X90681255Y-72601980D01*
X90276449Y-72487956D01*
X89857176Y-72455098D01*
X89439549Y-72504666D01*
X89039617Y-72634757D01*
X88743962Y-72792786D01*
X88587952Y-73108347D01*
X62738691Y-73108347D01*
X62940431Y-72906607D01*
X62976778Y-72876778D01*
X63095806Y-72731741D01*
X63184252Y-72566269D01*
X63238717Y-72386723D01*
X63252500Y-72246785D01*
X63252500Y-72246784D01*
X63257108Y-72200000D01*
X63252500Y-72153215D01*
X63252500Y-69309721D01*
X87765000Y-69309721D01*
X87765000Y-69730279D01*
X87847047Y-70142756D01*
X88007988Y-70531302D01*
X88241637Y-70880983D01*
X88539017Y-71178363D01*
X88888698Y-71412012D01*
X89277244Y-71572953D01*
X89689721Y-71655000D01*
X90110279Y-71655000D01*
X90522756Y-71572953D01*
X90911302Y-71412012D01*
X91260983Y-71178363D01*
X91558363Y-70880983D01*
X91792012Y-70531302D01*
X91952953Y-70142756D01*
X92035000Y-69730279D01*
X92035000Y-69309721D01*
X91952953Y-68897244D01*
X91792012Y-68508698D01*
X91558363Y-68159017D01*
X91260983Y-67861637D01*
X90911302Y-67627988D01*
X90522756Y-67467047D01*
X90110279Y-67385000D01*
X89689721Y-67385000D01*
X89277244Y-67467047D01*
X88888698Y-67627988D01*
X88539017Y-67861637D01*
X88241637Y-68159017D01*
X88007988Y-68508698D01*
X87847047Y-68897244D01*
X87765000Y-69309721D01*
X63252500Y-69309721D01*
X63252500Y-53946784D01*
X63257108Y-53899999D01*
X63238717Y-53713277D01*
X63184252Y-53533731D01*
X63095806Y-53368259D01*
X62976778Y-53223222D01*
X62940436Y-53193397D01*
X61597038Y-51850000D01*
X64340436Y-49106603D01*
X64376778Y-49076778D01*
X64495806Y-48931741D01*
X64584252Y-48766269D01*
X64638717Y-48586723D01*
X64652500Y-48446785D01*
X64652500Y-48446784D01*
X64657108Y-48400001D01*
X64652500Y-48353216D01*
X64652500Y-43794538D01*
X67394539Y-41052500D01*
X79747501Y-41052500D01*
X79747500Y-54953215D01*
X79742892Y-55000000D01*
X79747500Y-55046784D01*
X79761283Y-55186722D01*
X79815748Y-55366268D01*
X79904194Y-55531741D01*
X80023222Y-55676778D01*
X80059569Y-55706607D01*
X84353397Y-60000436D01*
X84383222Y-60036778D01*
X84528259Y-60155806D01*
X84693731Y-60244252D01*
X84873277Y-60298717D01*
X85059999Y-60317108D01*
X85106784Y-60312500D01*
X87761928Y-60312500D01*
X87761928Y-60860000D01*
X87774188Y-60984482D01*
X87810498Y-61104180D01*
X87869463Y-61214494D01*
X87948815Y-61311185D01*
X88045506Y-61390537D01*
X88155820Y-61449502D01*
X88275518Y-61485812D01*
X88400000Y-61498072D01*
X91400000Y-61498072D01*
X91524482Y-61485812D01*
X91644180Y-61449502D01*
X91754494Y-61390537D01*
X91851185Y-61311185D01*
X91930537Y-61214494D01*
X91989502Y-61104180D01*
X92025812Y-60984482D01*
X92038072Y-60860000D01*
X92038072Y-57860000D01*
X92025812Y-57735518D01*
X91989502Y-57615820D01*
X91930537Y-57505506D01*
X91851185Y-57408815D01*
X91754494Y-57329463D01*
X91644180Y-57270498D01*
X91524482Y-57234188D01*
X91400000Y-57221928D01*
X88400000Y-57221928D01*
X88275518Y-57234188D01*
X88155820Y-57270498D01*
X88045506Y-57329463D01*
X87948815Y-57408815D01*
X87869463Y-57505506D01*
X87810498Y-57615820D01*
X87774188Y-57735518D01*
X87761928Y-57860000D01*
X87761928Y-58407500D01*
X85454539Y-58407500D01*
X81652500Y-54605462D01*
X81652500Y-53431653D01*
X88587952Y-53431653D01*
X88743962Y-53747214D01*
X89118745Y-53938020D01*
X89523551Y-54052044D01*
X89942824Y-54084902D01*
X90360451Y-54035334D01*
X90760383Y-53905243D01*
X91056038Y-53747214D01*
X91212048Y-53431653D01*
X89900000Y-52119605D01*
X88587952Y-53431653D01*
X81652500Y-53431653D01*
X81652500Y-51982824D01*
X87755098Y-51982824D01*
X87804666Y-52400451D01*
X87934757Y-52800383D01*
X88092786Y-53096038D01*
X88408347Y-53252048D01*
X89720395Y-51940000D01*
X90079605Y-51940000D01*
X91391653Y-53252048D01*
X91707214Y-53096038D01*
X91898020Y-52721255D01*
X92012044Y-52316449D01*
X92044902Y-51897176D01*
X91995334Y-51479549D01*
X91865243Y-51079617D01*
X91707214Y-50783962D01*
X91391653Y-50627952D01*
X90079605Y-51940000D01*
X89720395Y-51940000D01*
X88408347Y-50627952D01*
X88092786Y-50783962D01*
X87901980Y-51158745D01*
X87787956Y-51563551D01*
X87755098Y-51982824D01*
X81652500Y-51982824D01*
X81652500Y-50448347D01*
X88587952Y-50448347D01*
X89900000Y-51760395D01*
X91212048Y-50448347D01*
X91056038Y-50132786D01*
X90681255Y-49941980D01*
X90276449Y-49827956D01*
X89857176Y-49795098D01*
X89439549Y-49844666D01*
X89039617Y-49974757D01*
X88743962Y-50132786D01*
X88587952Y-50448347D01*
X81652500Y-50448347D01*
X81652500Y-46649721D01*
X87765000Y-46649721D01*
X87765000Y-47070279D01*
X87847047Y-47482756D01*
X88007988Y-47871302D01*
X88241637Y-48220983D01*
X88539017Y-48518363D01*
X88888698Y-48752012D01*
X89277244Y-48912953D01*
X89689721Y-48995000D01*
X90110279Y-48995000D01*
X90522756Y-48912953D01*
X90911302Y-48752012D01*
X91260983Y-48518363D01*
X91558363Y-48220983D01*
X91792012Y-47871302D01*
X91952953Y-47482756D01*
X92035000Y-47070279D01*
X92035000Y-46649721D01*
X91952953Y-46237244D01*
X91792012Y-45848698D01*
X91558363Y-45499017D01*
X91260983Y-45201637D01*
X90911302Y-44967988D01*
X90522756Y-44807047D01*
X90110279Y-44725000D01*
X89689721Y-44725000D01*
X89277244Y-44807047D01*
X88888698Y-44967988D01*
X88539017Y-45201637D01*
X88241637Y-45499017D01*
X88007988Y-45848698D01*
X87847047Y-46237244D01*
X87765000Y-46649721D01*
X81652500Y-46649721D01*
X81652500Y-40694538D01*
X84694539Y-37652500D01*
X87761928Y-37652500D01*
X87761928Y-38200000D01*
X87774188Y-38324482D01*
X87810498Y-38444180D01*
X87869463Y-38554494D01*
X87948815Y-38651185D01*
X88045506Y-38730537D01*
X88155820Y-38789502D01*
X88275518Y-38825812D01*
X88400000Y-38838072D01*
X91400000Y-38838072D01*
X91524482Y-38825812D01*
X91644180Y-38789502D01*
X91754494Y-38730537D01*
X91851185Y-38651185D01*
X91930537Y-38554494D01*
X91989502Y-38444180D01*
X92025812Y-38324482D01*
X92038072Y-38200000D01*
X92038072Y-35200000D01*
X92025812Y-35075518D01*
X91989502Y-34955820D01*
X91930537Y-34845506D01*
X91851185Y-34748815D01*
X91754494Y-34669463D01*
X91644180Y-34610498D01*
X91524482Y-34574188D01*
X91400000Y-34561928D01*
X88400000Y-34561928D01*
X88275518Y-34574188D01*
X88155820Y-34610498D01*
X88045506Y-34669463D01*
X87948815Y-34748815D01*
X87869463Y-34845506D01*
X87810498Y-34955820D01*
X87774188Y-35075518D01*
X87761928Y-35200000D01*
X87761928Y-35747500D01*
X84346784Y-35747500D01*
X84299999Y-35742892D01*
X84113277Y-35761283D01*
X83933731Y-35815748D01*
X83768259Y-35904194D01*
X83623222Y-36023222D01*
X83593397Y-36059564D01*
X80505462Y-39147500D01*
X67046785Y-39147500D01*
X67000000Y-39142892D01*
X66953215Y-39147500D01*
X66813277Y-39161283D01*
X66723504Y-39188516D01*
X66633730Y-39215748D01*
X66550995Y-39259971D01*
X66468259Y-39304194D01*
X66323222Y-39423222D01*
X66293398Y-39459563D01*
X63059564Y-42693398D01*
X63023223Y-42723222D01*
X62993399Y-42759563D01*
X62904194Y-42868260D01*
X62815749Y-43033731D01*
X62761283Y-43213278D01*
X62742892Y-43400000D01*
X62747501Y-43446795D01*
X62747500Y-48005461D01*
X59805462Y-50947500D01*
X56638072Y-50947500D01*
X56638072Y-50400000D01*
X56625812Y-50275518D01*
X56589502Y-50155820D01*
X56530537Y-50045506D01*
X56451185Y-49948815D01*
X56354494Y-49869463D01*
X56244180Y-49810498D01*
X56124482Y-49774188D01*
X56000000Y-49761928D01*
X53000000Y-49761928D01*
X52875518Y-49774188D01*
X52755820Y-49810498D01*
X52645506Y-49869463D01*
X52548815Y-49948815D01*
X52469463Y-50045506D01*
X52410498Y-50155820D01*
X52374188Y-50275518D01*
X52361928Y-50400000D01*
X52361928Y-53400000D01*
X52374188Y-53524482D01*
X52410498Y-53644180D01*
X52469463Y-53754494D01*
X52548815Y-53851185D01*
X52645506Y-53930537D01*
X52755820Y-53989502D01*
X52875518Y-54025812D01*
X53000000Y-54038072D01*
X56000000Y-54038072D01*
X56124482Y-54025812D01*
X56244180Y-53989502D01*
X56354494Y-53930537D01*
X56451185Y-53851185D01*
X56530537Y-53754494D01*
X56589502Y-53644180D01*
X56625812Y-53524482D01*
X56638072Y-53400000D01*
X56638072Y-52852500D01*
X59905462Y-52852500D01*
X61347501Y-54294540D01*
X61347500Y-71805462D01*
X59505462Y-73647500D01*
X56838072Y-73647500D01*
X56838072Y-73100000D01*
X56825812Y-72975518D01*
X56789502Y-72855820D01*
X56730537Y-72745506D01*
X56651185Y-72648815D01*
X56554494Y-72569463D01*
X56444180Y-72510498D01*
X56324482Y-72474188D01*
X56200000Y-72461928D01*
X53200000Y-72461928D01*
X53075518Y-72474188D01*
X52955820Y-72510498D01*
X52845506Y-72569463D01*
X52748815Y-72648815D01*
X52669463Y-72745506D01*
X52610498Y-72855820D01*
X52574188Y-72975518D01*
X52561928Y-73100000D01*
X52561928Y-76100000D01*
X52574188Y-76224482D01*
X52610498Y-76344180D01*
X52669463Y-76454494D01*
X52748815Y-76551185D01*
X52845506Y-76630537D01*
X52955820Y-76689502D01*
X53075518Y-76725812D01*
X53200000Y-76738072D01*
X56200000Y-76738072D01*
X56324482Y-76725812D01*
X56444180Y-76689502D01*
X56554494Y-76630537D01*
X56651185Y-76551185D01*
X56730537Y-76454494D01*
X56789502Y-76344180D01*
X56825812Y-76224482D01*
X56838072Y-76100000D01*
X56838072Y-75552500D01*
X59505462Y-75552500D01*
X61147501Y-77194540D01*
X61147500Y-93105461D01*
X58305462Y-95947500D01*
X56638072Y-95947500D01*
X56638072Y-95400000D01*
X56625812Y-95275518D01*
X56589502Y-95155820D01*
X56530537Y-95045506D01*
X56451185Y-94948815D01*
X56354494Y-94869463D01*
X56244180Y-94810498D01*
X56124482Y-94774188D01*
X56000000Y-94761928D01*
X53000000Y-94761928D01*
X52875518Y-94774188D01*
X52755820Y-94810498D01*
X52645506Y-94869463D01*
X52548815Y-94948815D01*
X52469463Y-95045506D01*
X52410498Y-95155820D01*
X52374188Y-95275518D01*
X52361928Y-95400000D01*
X52361928Y-98400000D01*
X52374188Y-98524482D01*
X52410498Y-98644180D01*
X52469463Y-98754494D01*
X52548815Y-98851185D01*
X52645506Y-98930537D01*
X52755820Y-98989502D01*
X52875518Y-99025812D01*
X53000000Y-99038072D01*
X56000000Y-99038072D01*
X56124482Y-99025812D01*
X56244180Y-98989502D01*
X56354494Y-98930537D01*
X56451185Y-98851185D01*
X56530537Y-98754494D01*
X56589502Y-98644180D01*
X56625812Y-98524482D01*
X56638072Y-98400000D01*
X56638072Y-97852500D01*
X58305462Y-97852500D01*
X60047501Y-99594540D01*
X60047500Y-116705461D01*
X58005462Y-118747500D01*
X56741785Y-118747500D01*
X56695000Y-118742892D01*
X56648215Y-118747500D01*
X56638072Y-118748499D01*
X56638072Y-118260000D01*
X56625812Y-118135518D01*
X56589502Y-118015820D01*
X56530537Y-117905506D01*
X56451185Y-117808815D01*
X56354494Y-117729463D01*
X56244180Y-117670498D01*
X56124482Y-117634188D01*
X56000000Y-117621928D01*
X53000000Y-117621928D01*
X52875518Y-117634188D01*
X52755820Y-117670498D01*
X52645506Y-117729463D01*
X52548815Y-117808815D01*
X52469463Y-117905506D01*
X52410498Y-118015820D01*
X52374188Y-118135518D01*
X52361928Y-118260000D01*
X52361928Y-118803195D01*
X52318215Y-118807500D01*
X52178277Y-118821283D01*
X51998731Y-118875748D01*
X51833259Y-118964194D01*
X51688222Y-119083222D01*
X51658393Y-119119569D01*
X50359565Y-120418397D01*
X50323223Y-120448222D01*
X50293399Y-120484563D01*
X50204194Y-120593260D01*
X50115749Y-120758731D01*
X50061283Y-120938278D01*
X50042892Y-121125000D01*
X49352500Y-121125000D01*
X49352500Y-117794538D01*
X51514539Y-115632500D01*
X52583631Y-115632500D01*
X52607988Y-115691302D01*
X52841637Y-116040983D01*
X53139017Y-116338363D01*
X53488698Y-116572012D01*
X53877244Y-116732953D01*
X54289721Y-116815000D01*
X54710279Y-116815000D01*
X55122756Y-116732953D01*
X55511302Y-116572012D01*
X55860983Y-116338363D01*
X56158363Y-116040983D01*
X56392012Y-115691302D01*
X56552953Y-115302756D01*
X56635000Y-114890279D01*
X56635000Y-114469721D01*
X56552953Y-114057244D01*
X56392012Y-113668698D01*
X56158363Y-113319017D01*
X55860983Y-113021637D01*
X55511302Y-112787988D01*
X55122756Y-112627047D01*
X54710279Y-112545000D01*
X54289721Y-112545000D01*
X53877244Y-112627047D01*
X53488698Y-112787988D01*
X53139017Y-113021637D01*
X52841637Y-113319017D01*
X52607988Y-113668698D01*
X52583631Y-113727500D01*
X51174539Y-113727500D01*
X49752500Y-112305462D01*
X49752500Y-109389721D01*
X52365000Y-109389721D01*
X52365000Y-109810279D01*
X52447047Y-110222756D01*
X52607988Y-110611302D01*
X52841637Y-110960983D01*
X53139017Y-111258363D01*
X53488698Y-111492012D01*
X53877244Y-111652953D01*
X54289721Y-111735000D01*
X54710279Y-111735000D01*
X55122756Y-111652953D01*
X55511302Y-111492012D01*
X55860983Y-111258363D01*
X56158363Y-110960983D01*
X56392012Y-110611302D01*
X56552953Y-110222756D01*
X56635000Y-109810279D01*
X56635000Y-109389721D01*
X56552953Y-108977244D01*
X56392012Y-108588698D01*
X56158363Y-108239017D01*
X55860983Y-107941637D01*
X55511302Y-107707988D01*
X55122756Y-107547047D01*
X54710279Y-107465000D01*
X54289721Y-107465000D01*
X53877244Y-107547047D01*
X53488698Y-107707988D01*
X53139017Y-107941637D01*
X52841637Y-108239017D01*
X52607988Y-108588698D01*
X52447047Y-108977244D01*
X52365000Y-109389721D01*
X49752500Y-109389721D01*
X49752500Y-106011653D01*
X53187952Y-106011653D01*
X53343962Y-106327214D01*
X53718745Y-106518020D01*
X54123551Y-106632044D01*
X54542824Y-106664902D01*
X54960451Y-106615334D01*
X55360383Y-106485243D01*
X55656038Y-106327214D01*
X55812048Y-106011653D01*
X54500000Y-104699605D01*
X53187952Y-106011653D01*
X49752500Y-106011653D01*
X49752500Y-104562824D01*
X52355098Y-104562824D01*
X52404666Y-104980451D01*
X52534757Y-105380383D01*
X52692786Y-105676038D01*
X53008347Y-105832048D01*
X54320395Y-104520000D01*
X54679605Y-104520000D01*
X55991653Y-105832048D01*
X56307214Y-105676038D01*
X56498020Y-105301255D01*
X56612044Y-104896449D01*
X56644902Y-104477176D01*
X56595334Y-104059549D01*
X56465243Y-103659617D01*
X56307214Y-103363962D01*
X55991653Y-103207952D01*
X54679605Y-104520000D01*
X54320395Y-104520000D01*
X53008347Y-103207952D01*
X52692786Y-103363962D01*
X52501980Y-103738745D01*
X52387956Y-104143551D01*
X52355098Y-104562824D01*
X49752500Y-104562824D01*
X49752500Y-103028347D01*
X53187952Y-103028347D01*
X54500000Y-104340395D01*
X55812048Y-103028347D01*
X55656038Y-102712786D01*
X55281255Y-102521980D01*
X54876449Y-102407956D01*
X54457176Y-102375098D01*
X54039549Y-102424666D01*
X53639617Y-102554757D01*
X53343962Y-102712786D01*
X53187952Y-103028347D01*
X49752500Y-103028347D01*
X49752500Y-94094538D01*
X51074539Y-92772500D01*
X52583631Y-92772500D01*
X52607988Y-92831302D01*
X52841637Y-93180983D01*
X53139017Y-93478363D01*
X53488698Y-93712012D01*
X53877244Y-93872953D01*
X54289721Y-93955000D01*
X54710279Y-93955000D01*
X55122756Y-93872953D01*
X55511302Y-93712012D01*
X55860983Y-93478363D01*
X56158363Y-93180983D01*
X56392012Y-92831302D01*
X56552953Y-92442756D01*
X56635000Y-92030279D01*
X56635000Y-91609721D01*
X56552953Y-91197244D01*
X56392012Y-90808698D01*
X56158363Y-90459017D01*
X55860983Y-90161637D01*
X55511302Y-89927988D01*
X55122756Y-89767047D01*
X54710279Y-89685000D01*
X54289721Y-89685000D01*
X53877244Y-89767047D01*
X53488698Y-89927988D01*
X53139017Y-90161637D01*
X52841637Y-90459017D01*
X52607988Y-90808698D01*
X52583631Y-90867500D01*
X51594496Y-90867500D01*
X51584252Y-90833731D01*
X51495806Y-90668259D01*
X51376778Y-90523222D01*
X51340431Y-90493393D01*
X50152500Y-89305462D01*
X50152500Y-86529721D01*
X52365000Y-86529721D01*
X52365000Y-86950279D01*
X52447047Y-87362756D01*
X52607988Y-87751302D01*
X52841637Y-88100983D01*
X53139017Y-88398363D01*
X53488698Y-88632012D01*
X53877244Y-88792953D01*
X54289721Y-88875000D01*
X54710279Y-88875000D01*
X55122756Y-88792953D01*
X55511302Y-88632012D01*
X55860983Y-88398363D01*
X56158363Y-88100983D01*
X56392012Y-87751302D01*
X56552953Y-87362756D01*
X56635000Y-86950279D01*
X56635000Y-86529721D01*
X56552953Y-86117244D01*
X56392012Y-85728698D01*
X56158363Y-85379017D01*
X55860983Y-85081637D01*
X55511302Y-84847988D01*
X55122756Y-84687047D01*
X54710279Y-84605000D01*
X54289721Y-84605000D01*
X53877244Y-84687047D01*
X53488698Y-84847988D01*
X53139017Y-85081637D01*
X52841637Y-85379017D01*
X52607988Y-85728698D01*
X52447047Y-86117244D01*
X52365000Y-86529721D01*
X50152500Y-86529721D01*
X50152500Y-83151653D01*
X53187952Y-83151653D01*
X53343962Y-83467214D01*
X53718745Y-83658020D01*
X54123551Y-83772044D01*
X54542824Y-83804902D01*
X54960451Y-83755334D01*
X55360383Y-83625243D01*
X55656038Y-83467214D01*
X55812048Y-83151653D01*
X54500000Y-81839605D01*
X53187952Y-83151653D01*
X50152500Y-83151653D01*
X50152500Y-81702824D01*
X52355098Y-81702824D01*
X52404666Y-82120451D01*
X52534757Y-82520383D01*
X52692786Y-82816038D01*
X53008347Y-82972048D01*
X54320395Y-81660000D01*
X54679605Y-81660000D01*
X55991653Y-82972048D01*
X56307214Y-82816038D01*
X56498020Y-82441255D01*
X56612044Y-82036449D01*
X56644902Y-81617176D01*
X56595334Y-81199549D01*
X56465243Y-80799617D01*
X56307214Y-80503962D01*
X55991653Y-80347952D01*
X54679605Y-81660000D01*
X54320395Y-81660000D01*
X53008347Y-80347952D01*
X52692786Y-80503962D01*
X52501980Y-80878745D01*
X52387956Y-81283551D01*
X52355098Y-81702824D01*
X50152500Y-81702824D01*
X50152500Y-80168347D01*
X53187952Y-80168347D01*
X54500000Y-81480395D01*
X55812048Y-80168347D01*
X55656038Y-79852786D01*
X55281255Y-79661980D01*
X54876449Y-79547956D01*
X54457176Y-79515098D01*
X54039549Y-79564666D01*
X53639617Y-79694757D01*
X53343962Y-79852786D01*
X53187952Y-80168347D01*
X50152500Y-80168347D01*
X50152500Y-72094538D01*
X51774538Y-70472500D01*
X52783631Y-70472500D01*
X52807988Y-70531302D01*
X53041637Y-70880983D01*
X53339017Y-71178363D01*
X53688698Y-71412012D01*
X54077244Y-71572953D01*
X54489721Y-71655000D01*
X54910279Y-71655000D01*
X55322756Y-71572953D01*
X55711302Y-71412012D01*
X56060983Y-71178363D01*
X56358363Y-70880983D01*
X56592012Y-70531302D01*
X56752953Y-70142756D01*
X56835000Y-69730279D01*
X56835000Y-69309721D01*
X56752953Y-68897244D01*
X56592012Y-68508698D01*
X56358363Y-68159017D01*
X56060983Y-67861637D01*
X55711302Y-67627988D01*
X55322756Y-67467047D01*
X54910279Y-67385000D01*
X54489721Y-67385000D01*
X54077244Y-67467047D01*
X53688698Y-67627988D01*
X53339017Y-67861637D01*
X53041637Y-68159017D01*
X52807988Y-68508698D01*
X52783631Y-68567500D01*
X51426785Y-68567500D01*
X51413200Y-68566162D01*
X50452500Y-67605462D01*
X50452500Y-64229721D01*
X52565000Y-64229721D01*
X52565000Y-64650279D01*
X52647047Y-65062756D01*
X52807988Y-65451302D01*
X53041637Y-65800983D01*
X53339017Y-66098363D01*
X53688698Y-66332012D01*
X54077244Y-66492953D01*
X54489721Y-66575000D01*
X54910279Y-66575000D01*
X55322756Y-66492953D01*
X55711302Y-66332012D01*
X56060983Y-66098363D01*
X56358363Y-65800983D01*
X56592012Y-65451302D01*
X56752953Y-65062756D01*
X56835000Y-64650279D01*
X56835000Y-64229721D01*
X56752953Y-63817244D01*
X56592012Y-63428698D01*
X56358363Y-63079017D01*
X56060983Y-62781637D01*
X55711302Y-62547988D01*
X55322756Y-62387047D01*
X54910279Y-62305000D01*
X54489721Y-62305000D01*
X54077244Y-62387047D01*
X53688698Y-62547988D01*
X53339017Y-62781637D01*
X53041637Y-63079017D01*
X52807988Y-63428698D01*
X52647047Y-63817244D01*
X52565000Y-64229721D01*
X50452500Y-64229721D01*
X50452500Y-60851653D01*
X53387952Y-60851653D01*
X53543962Y-61167214D01*
X53918745Y-61358020D01*
X54323551Y-61472044D01*
X54742824Y-61504902D01*
X55160451Y-61455334D01*
X55560383Y-61325243D01*
X55856038Y-61167214D01*
X56012048Y-60851653D01*
X54700000Y-59539605D01*
X53387952Y-60851653D01*
X50452500Y-60851653D01*
X50452500Y-59402824D01*
X52555098Y-59402824D01*
X52604666Y-59820451D01*
X52734757Y-60220383D01*
X52892786Y-60516038D01*
X53208347Y-60672048D01*
X54520395Y-59360000D01*
X54879605Y-59360000D01*
X56191653Y-60672048D01*
X56507214Y-60516038D01*
X56698020Y-60141255D01*
X56812044Y-59736449D01*
X56844902Y-59317176D01*
X56795334Y-58899549D01*
X56665243Y-58499617D01*
X56507214Y-58203962D01*
X56191653Y-58047952D01*
X54879605Y-59360000D01*
X54520395Y-59360000D01*
X53208347Y-58047952D01*
X52892786Y-58203962D01*
X52701980Y-58578745D01*
X52587956Y-58983551D01*
X52555098Y-59402824D01*
X50452500Y-59402824D01*
X50452500Y-57868347D01*
X53387952Y-57868347D01*
X54700000Y-59180395D01*
X56012048Y-57868347D01*
X55856038Y-57552786D01*
X55481255Y-57361980D01*
X55076449Y-57247956D01*
X54657176Y-57215098D01*
X54239549Y-57264666D01*
X53839617Y-57394757D01*
X53543962Y-57552786D01*
X53387952Y-57868347D01*
X50452500Y-57868347D01*
X50452500Y-49594538D01*
X52274539Y-47772500D01*
X52583631Y-47772500D01*
X52607988Y-47831302D01*
X52841637Y-48180983D01*
X53139017Y-48478363D01*
X53488698Y-48712012D01*
X53877244Y-48872953D01*
X54289721Y-48955000D01*
X54710279Y-48955000D01*
X55122756Y-48872953D01*
X55511302Y-48712012D01*
X55860983Y-48478363D01*
X56158363Y-48180983D01*
X56392012Y-47831302D01*
X56552953Y-47442756D01*
X56635000Y-47030279D01*
X56635000Y-46609721D01*
X56552953Y-46197244D01*
X56392012Y-45808698D01*
X56158363Y-45459017D01*
X55860983Y-45161637D01*
X55511302Y-44927988D01*
X55122756Y-44767047D01*
X54710279Y-44685000D01*
X54289721Y-44685000D01*
X53877244Y-44767047D01*
X53488698Y-44927988D01*
X53139017Y-45161637D01*
X52841637Y-45459017D01*
X52607988Y-45808698D01*
X52583631Y-45867500D01*
X52414538Y-45867500D01*
X50952500Y-44405462D01*
X50952500Y-41529721D01*
X52365000Y-41529721D01*
X52365000Y-41950279D01*
X52447047Y-42362756D01*
X52607988Y-42751302D01*
X52841637Y-43100983D01*
X53139017Y-43398363D01*
X53488698Y-43632012D01*
X53877244Y-43792953D01*
X54289721Y-43875000D01*
X54710279Y-43875000D01*
X55122756Y-43792953D01*
X55511302Y-43632012D01*
X55860983Y-43398363D01*
X56158363Y-43100983D01*
X56392012Y-42751302D01*
X56552953Y-42362756D01*
X56635000Y-41950279D01*
X56635000Y-41529721D01*
X56552953Y-41117244D01*
X56392012Y-40728698D01*
X56158363Y-40379017D01*
X55860983Y-40081637D01*
X55511302Y-39847988D01*
X55122756Y-39687047D01*
X54710279Y-39605000D01*
X54289721Y-39605000D01*
X53877244Y-39687047D01*
X53488698Y-39847988D01*
X53139017Y-40081637D01*
X52841637Y-40379017D01*
X52607988Y-40728698D01*
X52447047Y-41117244D01*
X52365000Y-41529721D01*
X50952500Y-41529721D01*
X50952500Y-38151653D01*
X53187952Y-38151653D01*
X53343962Y-38467214D01*
X53718745Y-38658020D01*
X54123551Y-38772044D01*
X54542824Y-38804902D01*
X54960451Y-38755334D01*
X55360383Y-38625243D01*
X55656038Y-38467214D01*
X55812048Y-38151653D01*
X54500000Y-36839605D01*
X53187952Y-38151653D01*
X50952500Y-38151653D01*
X50952500Y-36702824D01*
X52355098Y-36702824D01*
X52404666Y-37120451D01*
X52534757Y-37520383D01*
X52692786Y-37816038D01*
X53008347Y-37972048D01*
X54320395Y-36660000D01*
X54679605Y-36660000D01*
X55991653Y-37972048D01*
X56307214Y-37816038D01*
X56498020Y-37441255D01*
X56612044Y-37036449D01*
X56644902Y-36617176D01*
X56595334Y-36199549D01*
X56465243Y-35799617D01*
X56307214Y-35503962D01*
X55991653Y-35347952D01*
X54679605Y-36660000D01*
X54320395Y-36660000D01*
X53008347Y-35347952D01*
X52692786Y-35503962D01*
X52501980Y-35878745D01*
X52387956Y-36283551D01*
X52355098Y-36702824D01*
X50952500Y-36702824D01*
X50952500Y-35994538D01*
X52394539Y-34552500D01*
X54142052Y-34552500D01*
X54039549Y-34564666D01*
X53639617Y-34694757D01*
X53343962Y-34852786D01*
X53187952Y-35168347D01*
X54500000Y-36480395D01*
X55812048Y-35168347D01*
X55656038Y-34852786D01*
X55281255Y-34661980D01*
X54892581Y-34552500D01*
X93005462Y-34552500D01*
X94247500Y-35794538D01*
X94247501Y-39205460D01*
X92625462Y-40827500D01*
X91816369Y-40827500D01*
X91792012Y-40768698D01*
X91558363Y-40419017D01*
X91260983Y-40121637D01*
X90911302Y-39887988D01*
X90522756Y-39727047D01*
X90110279Y-39645000D01*
X89689721Y-39645000D01*
X89277244Y-39727047D01*
X88888698Y-39887988D01*
X88539017Y-40121637D01*
X88241637Y-40419017D01*
X88007988Y-40768698D01*
X87847047Y-41157244D01*
X87765000Y-41569721D01*
X87765000Y-41990279D01*
X87847047Y-42402756D01*
X88007988Y-42791302D01*
X88241637Y-43140983D01*
X88539017Y-43438363D01*
X88888698Y-43672012D01*
X89277244Y-43832953D01*
X89689721Y-43915000D01*
X90110279Y-43915000D01*
X90522756Y-43832953D01*
X90911302Y-43672012D01*
X91260983Y-43438363D01*
X91558363Y-43140983D01*
X91792012Y-42791302D01*
X91816369Y-42732500D01*
X92785462Y-42732500D01*
X94247501Y-44194540D01*
X94247500Y-62005462D01*
X92765462Y-63487500D01*
X91816369Y-63487500D01*
X91792012Y-63428698D01*
X91558363Y-63079017D01*
X91260983Y-62781637D01*
X90911302Y-62547988D01*
X90522756Y-62387047D01*
X90110279Y-62305000D01*
X89689721Y-62305000D01*
X89277244Y-62387047D01*
X88888698Y-62547988D01*
X88539017Y-62781637D01*
X88241637Y-63079017D01*
X88007988Y-63428698D01*
X87847047Y-63817244D01*
X87765000Y-64229721D01*
X87765000Y-64650279D01*
X87847047Y-65062756D01*
X88007988Y-65451302D01*
X88241637Y-65800983D01*
X88539017Y-66098363D01*
X88888698Y-66332012D01*
X89277244Y-66492953D01*
X89689721Y-66575000D01*
X90110279Y-66575000D01*
X90522756Y-66492953D01*
X90911302Y-66332012D01*
X91260983Y-66098363D01*
X91558363Y-65800983D01*
X91792012Y-65451302D01*
X91816369Y-65392500D01*
X93113215Y-65392500D01*
X93160000Y-65397108D01*
X93206785Y-65392500D01*
X93346723Y-65378717D01*
X93526269Y-65324252D01*
X93691741Y-65235806D01*
X93836778Y-65116778D01*
X93866607Y-65080431D01*
X95840431Y-63106607D01*
X95876778Y-63076778D01*
X95995806Y-62931741D01*
X96076038Y-62781637D01*
X96084252Y-62766270D01*
X96138717Y-62586722D01*
X96157108Y-62400000D01*
X96152500Y-62353215D01*
X96152500Y-43846784D01*
X96157108Y-43799999D01*
X96138717Y-43613277D01*
X96084252Y-43433731D01*
X95995806Y-43268259D01*
X95876778Y-43123222D01*
X95840436Y-43093397D01*
X94447038Y-41700000D01*
X95840436Y-40306603D01*
X95876778Y-40276778D01*
X95995806Y-40131741D01*
X96084252Y-39966269D01*
X96138717Y-39786723D01*
X96152500Y-39646785D01*
X96157108Y-39600000D01*
X96152500Y-39553215D01*
X96152500Y-35446784D01*
X96157108Y-35399999D01*
X96138717Y-35213277D01*
X96134689Y-35200000D01*
X96084252Y-35033731D01*
X95995806Y-34868259D01*
X95876778Y-34723222D01*
X95840431Y-34693393D01*
X94106607Y-32959569D01*
X94076778Y-32923222D01*
X93931741Y-32804194D01*
X93766269Y-32715748D01*
X93586723Y-32661283D01*
X93446785Y-32647500D01*
X93400000Y-32642892D01*
X93353215Y-32647500D01*
X52046784Y-32647500D01*
X51999999Y-32642892D01*
X51813277Y-32661283D01*
X51633731Y-32715748D01*
X51468259Y-32804194D01*
X51323222Y-32923222D01*
X51293397Y-32959564D01*
X49359564Y-34893398D01*
X49323223Y-34923222D01*
X49293399Y-34959563D01*
X49204194Y-35068260D01*
X49115749Y-35233731D01*
X49061283Y-35413278D01*
X49042892Y-35600000D01*
X49047501Y-35646795D01*
X49047500Y-44753215D01*
X49042892Y-44800000D01*
X49047500Y-44846784D01*
X49061283Y-44986722D01*
X49115748Y-45166268D01*
X49204194Y-45331741D01*
X49323222Y-45476778D01*
X49359569Y-45506607D01*
X50602962Y-46750000D01*
X48859569Y-48493393D01*
X48823222Y-48523222D01*
X48704194Y-48668259D01*
X48615748Y-48833732D01*
X48586017Y-48931741D01*
X48561283Y-49013278D01*
X48542892Y-49200000D01*
X48547500Y-49246785D01*
X48547501Y-67953205D01*
X48542892Y-68000000D01*
X48561283Y-68186722D01*
X48615749Y-68366269D01*
X48704195Y-68531741D01*
X48823223Y-68676778D01*
X48859565Y-68706603D01*
X49852962Y-69700000D01*
X48559569Y-70993393D01*
X48523222Y-71023222D01*
X48404194Y-71168259D01*
X48315748Y-71333732D01*
X48292002Y-71412012D01*
X48261283Y-71513278D01*
X48242892Y-71700000D01*
X48247500Y-71746785D01*
X48247501Y-89653205D01*
X48242892Y-89700000D01*
X48261283Y-89886722D01*
X48315749Y-90066269D01*
X48404195Y-90231741D01*
X48523223Y-90376778D01*
X48559565Y-90406603D01*
X49652962Y-91500000D01*
X48159564Y-92993398D01*
X48123223Y-93023222D01*
X48093399Y-93059563D01*
X48004194Y-93168260D01*
X47915749Y-93333731D01*
X47861283Y-93513278D01*
X47842892Y-93700000D01*
X47847501Y-93746795D01*
X47847500Y-112653215D01*
X47842892Y-112700000D01*
X47847500Y-112746784D01*
X47861283Y-112886722D01*
X47915748Y-113066268D01*
X48004194Y-113231741D01*
X48123222Y-113376778D01*
X48159569Y-113406607D01*
X49602961Y-114850000D01*
X47759569Y-116693393D01*
X47723222Y-116723222D01*
X47685000Y-116769796D01*
X47685000Y-29137323D01*
X49333000Y-29137323D01*
X49333000Y-29662677D01*
X49435492Y-30177935D01*
X49636536Y-30663298D01*
X49928406Y-31100113D01*
X50299887Y-31471594D01*
X50736702Y-31763464D01*
X51222065Y-31964508D01*
X51737323Y-32067000D01*
X52262677Y-32067000D01*
X52777935Y-31964508D01*
X53263298Y-31763464D01*
X53700113Y-31471594D01*
X54071594Y-31100113D01*
X54363464Y-30663298D01*
X54564508Y-30177935D01*
X54667000Y-29662677D01*
X54667000Y-29137323D01*
X89333000Y-29137323D01*
X89333000Y-29662677D01*
X89435492Y-30177935D01*
X89636536Y-30663298D01*
X89928406Y-31100113D01*
X90299887Y-31471594D01*
X90736702Y-31763464D01*
X91222065Y-31964508D01*
X91737323Y-32067000D01*
X92262677Y-32067000D01*
X92777935Y-31964508D01*
X93263298Y-31763464D01*
X93700113Y-31471594D01*
X94071594Y-31100113D01*
X94363464Y-30663298D01*
X94564508Y-30177935D01*
X94667000Y-29662677D01*
X94667000Y-29137323D01*
X94564508Y-28622065D01*
X94363464Y-28136702D01*
X94071594Y-27699887D01*
X93700113Y-27328406D01*
X93263298Y-27036536D01*
X92777935Y-26835492D01*
X92262677Y-26733000D01*
X91737323Y-26733000D01*
X91222065Y-26835492D01*
X90736702Y-27036536D01*
X90299887Y-27328406D01*
X89928406Y-27699887D01*
X89636536Y-28136702D01*
X89435492Y-28622065D01*
X89333000Y-29137323D01*
X54667000Y-29137323D01*
X54564508Y-28622065D01*
X54363464Y-28136702D01*
X54071594Y-27699887D01*
X53700113Y-27328406D01*
X53263298Y-27036536D01*
X52777935Y-26835492D01*
X52262677Y-26733000D01*
X51737323Y-26733000D01*
X51222065Y-26835492D01*
X50736702Y-27036536D01*
X50299887Y-27328406D01*
X49928406Y-27699887D01*
X49636536Y-28136702D01*
X49435492Y-28622065D01*
X49333000Y-29137323D01*
X47685000Y-29137323D01*
X47685000Y-25085000D01*
X96315001Y-25085000D01*
X96315000Y-166215000D01*
X96315000Y-166215000D01*
G37*
X96315000Y-166215000D02*
X93485490Y-166215000D01*
X93700113Y-166071594D01*
X94071594Y-165700113D01*
X94363464Y-165263298D01*
X94564508Y-164777935D01*
X94667000Y-164262677D01*
X94667000Y-163737323D01*
X94564508Y-163222065D01*
X94363464Y-162736702D01*
X94071594Y-162299887D01*
X93700113Y-161928406D01*
X93263298Y-161636536D01*
X92777935Y-161435492D01*
X92262677Y-161333000D01*
X91737323Y-161333000D01*
X91222065Y-161435492D01*
X90736702Y-161636536D01*
X90299887Y-161928406D01*
X89928406Y-162299887D01*
X89636536Y-162736702D01*
X89435492Y-163222065D01*
X89333000Y-163737323D01*
X89333000Y-164262677D01*
X89435492Y-164777935D01*
X89636536Y-165263298D01*
X89928406Y-165700113D01*
X90299887Y-166071594D01*
X90514510Y-166215000D01*
X53485490Y-166215000D01*
X53700113Y-166071594D01*
X54071594Y-165700113D01*
X54363464Y-165263298D01*
X54564508Y-164777935D01*
X54667000Y-164262677D01*
X54667000Y-163737323D01*
X54564508Y-163222065D01*
X54363464Y-162736702D01*
X54071594Y-162299887D01*
X53700113Y-161928406D01*
X53263298Y-161636536D01*
X52777935Y-161435492D01*
X52262677Y-161333000D01*
X51737323Y-161333000D01*
X51222065Y-161435492D01*
X50736702Y-161636536D01*
X50299887Y-161928406D01*
X49928406Y-162299887D01*
X49636536Y-162736702D01*
X49435492Y-163222065D01*
X49333000Y-163737323D01*
X49333000Y-164262677D01*
X49435492Y-164777935D01*
X49636536Y-165263298D01*
X49928406Y-165700113D01*
X50299887Y-166071594D01*
X50514510Y-166215000D01*
X47685000Y-166215000D01*
X47685000Y-157930203D01*
X47723223Y-157976778D01*
X47759564Y-158006602D01*
X50293397Y-160540436D01*
X50323222Y-160576778D01*
X50468259Y-160695806D01*
X50633731Y-160784252D01*
X50813277Y-160838717D01*
X50999999Y-160857108D01*
X51046784Y-160852500D01*
X85803215Y-160852500D01*
X85850000Y-160857108D01*
X85896785Y-160852500D01*
X86036723Y-160838717D01*
X86216269Y-160784252D01*
X86381741Y-160695806D01*
X86526778Y-160576778D01*
X86556607Y-160540431D01*
X89540431Y-157556607D01*
X89576778Y-157526778D01*
X89694181Y-157383721D01*
X89920799Y-157361401D01*
X90181192Y-157282411D01*
X90421171Y-157154140D01*
X90631515Y-156981515D01*
X90804140Y-156771171D01*
X90932411Y-156531192D01*
X91011401Y-156270799D01*
X91038072Y-156000000D01*
X91038072Y-154000000D01*
X91011401Y-153729201D01*
X90932411Y-153468808D01*
X90804140Y-153228829D01*
X90631515Y-153018485D01*
X90421171Y-152845860D01*
X90181192Y-152717589D01*
X89920799Y-152638599D01*
X89650000Y-152611928D01*
X88150000Y-152611928D01*
X87879201Y-152638599D01*
X87618808Y-152717589D01*
X87378829Y-152845860D01*
X87168485Y-153018485D01*
X86995860Y-153228829D01*
X86867589Y-153468808D01*
X86788599Y-153729201D01*
X86761928Y-154000000D01*
X86761928Y-156000000D01*
X86788599Y-156270799D01*
X86867589Y-156531192D01*
X86995860Y-156771171D01*
X87168485Y-156981515D01*
X87307423Y-157095539D01*
X85455462Y-158947500D01*
X51394539Y-158947500D01*
X49352500Y-156905462D01*
X49352500Y-121125000D01*
X50042892Y-121125000D01*
X50047501Y-121171795D01*
X50047500Y-152953215D01*
X50042892Y-153000000D01*
X50047500Y-153046784D01*
X50061283Y-153186722D01*
X50115748Y-153366268D01*
X50204194Y-153531741D01*
X50323222Y-153676778D01*
X50359569Y-153706607D01*
X52293397Y-155640436D01*
X52323222Y-155676778D01*
X52468259Y-155795806D01*
X52633731Y-155884252D01*
X52813277Y-155938717D01*
X52999999Y-155957108D01*
X53046784Y-155952500D01*
X80511928Y-155952500D01*
X80511928Y-156750000D01*
X80524188Y-156874482D01*
X80560498Y-156994180D01*
X80619463Y-157104494D01*
X80698815Y-157201185D01*
X80795506Y-157280537D01*
X80905820Y-157339502D01*
X81025518Y-157375812D01*
X81150000Y-157388072D01*
X84650000Y-157388072D01*
X84774482Y-157375812D01*
X84894180Y-157339502D01*
X85004494Y-157280537D01*
X85101185Y-157201185D01*
X85180537Y-157104494D01*
X85239502Y-156994180D01*
X85275812Y-156874482D01*
X85288072Y-156750000D01*
X85288072Y-153250000D01*
X85275812Y-153125518D01*
X85239502Y-153005820D01*
X85180537Y-152895506D01*
X85101185Y-152798815D01*
X85004494Y-152719463D01*
X84927869Y-152678506D01*
X85025000Y-152688072D01*
X86775000Y-152688072D01*
X87070186Y-152658999D01*
X87354028Y-152572896D01*
X87615618Y-152433073D01*
X87844903Y-152244903D01*
X88033073Y-152015618D01*
X88172896Y-151754028D01*
X88258999Y-151470186D01*
X88288072Y-151175000D01*
X88288072Y-149425000D01*
X88258999Y-149129814D01*
X88172896Y-148845972D01*
X88033073Y-148584382D01*
X87844903Y-148355097D01*
X87615618Y-148166927D01*
X87354028Y-148027104D01*
X87070186Y-147941001D01*
X86775000Y-147911928D01*
X85025000Y-147911928D01*
X84729814Y-147941001D01*
X84445972Y-148027104D01*
X84184382Y-148166927D01*
X83955097Y-148355097D01*
X83766927Y-148584382D01*
X83627104Y-148845972D01*
X83541001Y-149129814D01*
X83511928Y-149425000D01*
X83511928Y-151175000D01*
X83541001Y-151470186D01*
X83627104Y-151754028D01*
X83766927Y-152015618D01*
X83955097Y-152244903D01*
X84184382Y-152433073D01*
X84445972Y-152572896D01*
X84574643Y-152611928D01*
X81150000Y-152611928D01*
X81025518Y-152624188D01*
X80905820Y-152660498D01*
X80795506Y-152719463D01*
X80698815Y-152798815D01*
X80619463Y-152895506D01*
X80560498Y-153005820D01*
X80524188Y-153125518D01*
X80511928Y-153250000D01*
X80511928Y-154047500D01*
X53394539Y-154047500D01*
X51952500Y-152605462D01*
X51952500Y-143540000D01*
X53381928Y-143540000D01*
X53381928Y-145140000D01*
X53394188Y-145264482D01*
X53430498Y-145384180D01*
X53489463Y-145494494D01*
X53568815Y-145591185D01*
X53665506Y-145670537D01*
X53775820Y-145729502D01*
X53895518Y-145765812D01*
X54020000Y-145778072D01*
X55620000Y-145778072D01*
X55744482Y-145765812D01*
X55864180Y-145729502D01*
X55974494Y-145670537D01*
X56071185Y-145591185D01*
X56150537Y-145494494D01*
X56209502Y-145384180D01*
X56245812Y-145264482D01*
X56247581Y-145246518D01*
X56340392Y-145359608D01*
X56558899Y-145538932D01*
X56808192Y-145672182D01*
X57078691Y-145754236D01*
X57289508Y-145775000D01*
X57430492Y-145775000D01*
X57641309Y-145754236D01*
X57911808Y-145672182D01*
X58161101Y-145538932D01*
X58379608Y-145359608D01*
X58558932Y-145141101D01*
X58630000Y-145008142D01*
X58701068Y-145141101D01*
X58880392Y-145359608D01*
X59098899Y-145538932D01*
X59348192Y-145672182D01*
X59618691Y-145754236D01*
X59829508Y-145775000D01*
X59970492Y-145775000D01*
X60181309Y-145754236D01*
X60451808Y-145672182D01*
X60701101Y-145538932D01*
X60919608Y-145359608D01*
X61098932Y-145141101D01*
X61172579Y-145003318D01*
X61287615Y-145195131D01*
X61476586Y-145403519D01*
X61702580Y-145571037D01*
X61956913Y-145691246D01*
X62090961Y-145731904D01*
X62313000Y-145609915D01*
X62313000Y-144467000D01*
X62293000Y-144467000D01*
X62293000Y-144213000D01*
X62313000Y-144213000D01*
X62313000Y-143070085D01*
X62567000Y-143070085D01*
X62567000Y-144213000D01*
X62587000Y-144213000D01*
X62587000Y-144467000D01*
X62567000Y-144467000D01*
X62567000Y-145609915D01*
X62789039Y-145731904D01*
X62923087Y-145691246D01*
X63177420Y-145571037D01*
X63403414Y-145403519D01*
X63592385Y-145195131D01*
X63707421Y-145003318D01*
X63781068Y-145141101D01*
X63960392Y-145359608D01*
X64178899Y-145538932D01*
X64428192Y-145672182D01*
X64698691Y-145754236D01*
X64909508Y-145775000D01*
X65050492Y-145775000D01*
X65261309Y-145754236D01*
X65531808Y-145672182D01*
X65781101Y-145538932D01*
X65999608Y-145359608D01*
X66178932Y-145141101D01*
X66250000Y-145008142D01*
X66321068Y-145141101D01*
X66500392Y-145359608D01*
X66718899Y-145538932D01*
X66968192Y-145672182D01*
X67238691Y-145754236D01*
X67449508Y-145775000D01*
X67590492Y-145775000D01*
X67801309Y-145754236D01*
X68071808Y-145672182D01*
X68321101Y-145538932D01*
X68539608Y-145359608D01*
X68718932Y-145141101D01*
X68790000Y-145008142D01*
X68861068Y-145141101D01*
X69040392Y-145359608D01*
X69258899Y-145538932D01*
X69508192Y-145672182D01*
X69778691Y-145754236D01*
X69989508Y-145775000D01*
X70130492Y-145775000D01*
X70341309Y-145754236D01*
X70611808Y-145672182D01*
X70861101Y-145538932D01*
X71079608Y-145359608D01*
X71258932Y-145141101D01*
X71330000Y-145008142D01*
X71401068Y-145141101D01*
X71580392Y-145359608D01*
X71798899Y-145538932D01*
X72048192Y-145672182D01*
X72318691Y-145754236D01*
X72529508Y-145775000D01*
X72670492Y-145775000D01*
X72881309Y-145754236D01*
X73151808Y-145672182D01*
X73401101Y-145538932D01*
X73619608Y-145359608D01*
X73798932Y-145141101D01*
X73870000Y-145008142D01*
X73941068Y-145141101D01*
X74120392Y-145359608D01*
X74338899Y-145538932D01*
X74588192Y-145672182D01*
X74858691Y-145754236D01*
X75069508Y-145775000D01*
X75210492Y-145775000D01*
X75421309Y-145754236D01*
X75691808Y-145672182D01*
X75941101Y-145538932D01*
X76159608Y-145359608D01*
X76338932Y-145141101D01*
X76410000Y-145008142D01*
X76481068Y-145141101D01*
X76660392Y-145359608D01*
X76878899Y-145538932D01*
X77128192Y-145672182D01*
X77398691Y-145754236D01*
X77609508Y-145775000D01*
X77750492Y-145775000D01*
X77961309Y-145754236D01*
X78231808Y-145672182D01*
X78481101Y-145538932D01*
X78699608Y-145359608D01*
X78878932Y-145141101D01*
X78950000Y-145008142D01*
X79021068Y-145141101D01*
X79200392Y-145359608D01*
X79418899Y-145538932D01*
X79668192Y-145672182D01*
X79938691Y-145754236D01*
X80149508Y-145775000D01*
X80290492Y-145775000D01*
X80501309Y-145754236D01*
X80771808Y-145672182D01*
X81021101Y-145538932D01*
X81239608Y-145359608D01*
X81418932Y-145141101D01*
X81490000Y-145008142D01*
X81561068Y-145141101D01*
X81740392Y-145359608D01*
X81958899Y-145538932D01*
X82208192Y-145672182D01*
X82478691Y-145754236D01*
X82689508Y-145775000D01*
X82830492Y-145775000D01*
X83041309Y-145754236D01*
X83311808Y-145672182D01*
X83561101Y-145538932D01*
X83779608Y-145359608D01*
X83958932Y-145141101D01*
X84030000Y-145008142D01*
X84101068Y-145141101D01*
X84280392Y-145359608D01*
X84498899Y-145538932D01*
X84748192Y-145672182D01*
X85018691Y-145754236D01*
X85229508Y-145775000D01*
X85370492Y-145775000D01*
X85581309Y-145754236D01*
X85851808Y-145672182D01*
X86101101Y-145538932D01*
X86319608Y-145359608D01*
X86498932Y-145141101D01*
X86570000Y-145008142D01*
X86641068Y-145141101D01*
X86820392Y-145359608D01*
X87038899Y-145538932D01*
X87288192Y-145672182D01*
X87558691Y-145754236D01*
X87769508Y-145775000D01*
X87910492Y-145775000D01*
X88121309Y-145754236D01*
X88391808Y-145672182D01*
X88641101Y-145538932D01*
X88859608Y-145359608D01*
X89038932Y-145141101D01*
X89110000Y-145008142D01*
X89181068Y-145141101D01*
X89360392Y-145359608D01*
X89578899Y-145538932D01*
X89828192Y-145672182D01*
X90098691Y-145754236D01*
X90309508Y-145775000D01*
X90450492Y-145775000D01*
X90661309Y-145754236D01*
X90931808Y-145672182D01*
X91181101Y-145538932D01*
X91399608Y-145359608D01*
X91578932Y-145141101D01*
X91712182Y-144891808D01*
X91794236Y-144621309D01*
X91821943Y-144340000D01*
X91794236Y-144058691D01*
X91712182Y-143788192D01*
X91578932Y-143538899D01*
X91399608Y-143320392D01*
X91181101Y-143141068D01*
X90931808Y-143007818D01*
X90661309Y-142925764D01*
X90450492Y-142905000D01*
X90309508Y-142905000D01*
X90098691Y-142925764D01*
X89828192Y-143007818D01*
X89578899Y-143141068D01*
X89360392Y-143320392D01*
X89181068Y-143538899D01*
X89110000Y-143671858D01*
X89038932Y-143538899D01*
X88859608Y-143320392D01*
X88641101Y-143141068D01*
X88391808Y-143007818D01*
X88121309Y-142925764D01*
X87910492Y-142905000D01*
X87769508Y-142905000D01*
X87558691Y-142925764D01*
X87288192Y-143007818D01*
X87038899Y-143141068D01*
X86820392Y-143320392D01*
X86641068Y-143538899D01*
X86570000Y-143671858D01*
X86498932Y-143538899D01*
X86319608Y-143320392D01*
X86101101Y-143141068D01*
X85851808Y-143007818D01*
X85581309Y-142925764D01*
X85370492Y-142905000D01*
X85229508Y-142905000D01*
X85018691Y-142925764D01*
X84748192Y-143007818D01*
X84498899Y-143141068D01*
X84280392Y-143320392D01*
X84101068Y-143538899D01*
X84030000Y-143671858D01*
X83958932Y-143538899D01*
X83779608Y-143320392D01*
X83561101Y-143141068D01*
X83311808Y-143007818D01*
X83041309Y-142925764D01*
X82830492Y-142905000D01*
X82689508Y-142905000D01*
X82478691Y-142925764D01*
X82208192Y-143007818D01*
X81958899Y-143141068D01*
X81740392Y-143320392D01*
X81561068Y-143538899D01*
X81490000Y-143671858D01*
X81418932Y-143538899D01*
X81239608Y-143320392D01*
X81021101Y-143141068D01*
X80771808Y-143007818D01*
X80501309Y-142925764D01*
X80290492Y-142905000D01*
X80149508Y-142905000D01*
X79938691Y-142925764D01*
X79668192Y-143007818D01*
X79418899Y-143141068D01*
X79200392Y-143320392D01*
X79021068Y-143538899D01*
X78950000Y-143671858D01*
X78878932Y-143538899D01*
X78699608Y-143320392D01*
X78481101Y-143141068D01*
X78440000Y-143119099D01*
X78440000Y-141034801D01*
X79314802Y-140160000D01*
X92262678Y-140160000D01*
X92300000Y-140163676D01*
X92337322Y-140160000D01*
X92337333Y-140160000D01*
X92448986Y-140149003D01*
X92592247Y-140105546D01*
X92724276Y-140034974D01*
X92840001Y-139940001D01*
X92863804Y-139910997D01*
X95011003Y-137763799D01*
X95040001Y-137740001D01*
X95134974Y-137624276D01*
X95205546Y-137492247D01*
X95249003Y-137348986D01*
X95260000Y-137237333D01*
X95260000Y-137237323D01*
X95263676Y-137200000D01*
X95260000Y-137162677D01*
X95260000Y-126237323D01*
X95263676Y-126200000D01*
X95260000Y-126162677D01*
X95260000Y-126162667D01*
X95249003Y-126051014D01*
X95205546Y-125907753D01*
X95134974Y-125775724D01*
X95040001Y-125659999D01*
X95011004Y-125636202D01*
X92863804Y-123489003D01*
X92840001Y-123459999D01*
X92724276Y-123365026D01*
X92592247Y-123294454D01*
X92448986Y-123250997D01*
X92337333Y-123240000D01*
X92337322Y-123240000D01*
X92300000Y-123236324D01*
X92262678Y-123240000D01*
X81014802Y-123240000D01*
X79960000Y-122185199D01*
X79960000Y-121231653D01*
X88487952Y-121231653D01*
X88643962Y-121547214D01*
X89018745Y-121738020D01*
X89423551Y-121852044D01*
X89842824Y-121884902D01*
X90260451Y-121835334D01*
X90660383Y-121705243D01*
X90956038Y-121547214D01*
X91112048Y-121231653D01*
X89800000Y-119919605D01*
X88487952Y-121231653D01*
X79960000Y-121231653D01*
X79960000Y-119782824D01*
X87655098Y-119782824D01*
X87704666Y-120200451D01*
X87834757Y-120600383D01*
X87992786Y-120896038D01*
X88308347Y-121052048D01*
X89620395Y-119740000D01*
X89979605Y-119740000D01*
X91291653Y-121052048D01*
X91607214Y-120896038D01*
X91798020Y-120521255D01*
X91912044Y-120116449D01*
X91944902Y-119697176D01*
X91895334Y-119279549D01*
X91765243Y-118879617D01*
X91607214Y-118583962D01*
X91291653Y-118427952D01*
X89979605Y-119740000D01*
X89620395Y-119740000D01*
X88308347Y-118427952D01*
X87992786Y-118583962D01*
X87801980Y-118958745D01*
X87687956Y-119363551D01*
X87655098Y-119782824D01*
X79960000Y-119782824D01*
X79960000Y-118248347D01*
X88487952Y-118248347D01*
X89800000Y-119560395D01*
X91112048Y-118248347D01*
X90956038Y-117932786D01*
X90581255Y-117741980D01*
X90176449Y-117627956D01*
X89757176Y-117595098D01*
X89339549Y-117644666D01*
X88939617Y-117774757D01*
X88643962Y-117932786D01*
X88487952Y-118248347D01*
X79960000Y-118248347D01*
X79960000Y-116437325D01*
X79963676Y-116400000D01*
X79960000Y-116362675D01*
X79960000Y-116362667D01*
X79949003Y-116251014D01*
X79905546Y-116107753D01*
X79834974Y-115975724D01*
X79740001Y-115859999D01*
X79711004Y-115836202D01*
X78679500Y-114804699D01*
X78679500Y-114693679D01*
X78638015Y-114485122D01*
X78623352Y-114449721D01*
X87665000Y-114449721D01*
X87665000Y-114870279D01*
X87747047Y-115282756D01*
X87907988Y-115671302D01*
X88141637Y-116020983D01*
X88439017Y-116318363D01*
X88788698Y-116552012D01*
X89177244Y-116712953D01*
X89589721Y-116795000D01*
X90010279Y-116795000D01*
X90422756Y-116712953D01*
X90811302Y-116552012D01*
X91160983Y-116318363D01*
X91458363Y-116020983D01*
X91692012Y-115671302D01*
X91852953Y-115282756D01*
X91935000Y-114870279D01*
X91935000Y-114449721D01*
X91852953Y-114037244D01*
X91692012Y-113648698D01*
X91458363Y-113299017D01*
X91160983Y-113001637D01*
X90811302Y-112767988D01*
X90422756Y-112607047D01*
X90010279Y-112525000D01*
X89589721Y-112525000D01*
X89177244Y-112607047D01*
X88788698Y-112767988D01*
X88439017Y-113001637D01*
X88141637Y-113299017D01*
X87907988Y-113648698D01*
X87747047Y-114037244D01*
X87665000Y-114449721D01*
X78623352Y-114449721D01*
X78556640Y-114288665D01*
X78438502Y-114111859D01*
X78288141Y-113961498D01*
X78111335Y-113843360D01*
X77914878Y-113761985D01*
X77706321Y-113720500D01*
X77493679Y-113720500D01*
X77285122Y-113761985D01*
X77088665Y-113843360D01*
X76911859Y-113961498D01*
X76761498Y-114111859D01*
X76643360Y-114288665D01*
X76561985Y-114485122D01*
X76520500Y-114693679D01*
X76520500Y-114906321D01*
X76561985Y-115114878D01*
X76643360Y-115311335D01*
X76761498Y-115488141D01*
X76911859Y-115638502D01*
X77088665Y-115756640D01*
X77285122Y-115838015D01*
X77493679Y-115879500D01*
X77604699Y-115879500D01*
X78440000Y-116714802D01*
X78440001Y-122462668D01*
X78436324Y-122500000D01*
X78450998Y-122648985D01*
X78494454Y-122792246D01*
X78565026Y-122924276D01*
X78636201Y-123011002D01*
X78660000Y-123040001D01*
X78688998Y-123063799D01*
X80136200Y-124511002D01*
X80159999Y-124540001D01*
X80275724Y-124634974D01*
X80407753Y-124705546D01*
X80551014Y-124749003D01*
X80662667Y-124760000D01*
X80662676Y-124760000D01*
X80699999Y-124763676D01*
X80737322Y-124760000D01*
X91985199Y-124760000D01*
X93740000Y-126514802D01*
X93740001Y-136885197D01*
X91985199Y-138640000D01*
X79037323Y-138640000D01*
X79000000Y-138636324D01*
X78962677Y-138640000D01*
X78962667Y-138640000D01*
X78851014Y-138650997D01*
X78707753Y-138694454D01*
X78575723Y-138765026D01*
X78492083Y-138833668D01*
X78459999Y-138859999D01*
X78436201Y-138888997D01*
X77169003Y-140156196D01*
X77139999Y-140179999D01*
X77084871Y-140247174D01*
X77045026Y-140295724D01*
X76974455Y-140427753D01*
X76974454Y-140427754D01*
X76930997Y-140571015D01*
X76920000Y-140682668D01*
X76920000Y-140682678D01*
X76916324Y-140720000D01*
X76920000Y-140757323D01*
X76920001Y-143119099D01*
X76878899Y-143141068D01*
X76660392Y-143320392D01*
X76481068Y-143538899D01*
X76410000Y-143671858D01*
X76338932Y-143538899D01*
X76159608Y-143320392D01*
X75941101Y-143141068D01*
X75691808Y-143007818D01*
X75421309Y-142925764D01*
X75210492Y-142905000D01*
X75069508Y-142905000D01*
X74858691Y-142925764D01*
X74588192Y-143007818D01*
X74338899Y-143141068D01*
X74120392Y-143320392D01*
X73941068Y-143538899D01*
X73870000Y-143671858D01*
X73798932Y-143538899D01*
X73619608Y-143320392D01*
X73401101Y-143141068D01*
X73151808Y-143007818D01*
X72881309Y-142925764D01*
X72670492Y-142905000D01*
X72529508Y-142905000D01*
X72318691Y-142925764D01*
X72048192Y-143007818D01*
X71798899Y-143141068D01*
X71580392Y-143320392D01*
X71401068Y-143538899D01*
X71330000Y-143671858D01*
X71258932Y-143538899D01*
X71079608Y-143320392D01*
X70861101Y-143141068D01*
X70611808Y-143007818D01*
X70341309Y-142925764D01*
X70130492Y-142905000D01*
X69989508Y-142905000D01*
X69778691Y-142925764D01*
X69508192Y-143007818D01*
X69258899Y-143141068D01*
X69040392Y-143320392D01*
X68861068Y-143538899D01*
X68790000Y-143671858D01*
X68718932Y-143538899D01*
X68539608Y-143320392D01*
X68321101Y-143141068D01*
X68071808Y-143007818D01*
X67801309Y-142925764D01*
X67590492Y-142905000D01*
X67449508Y-142905000D01*
X67238691Y-142925764D01*
X66968192Y-143007818D01*
X66718899Y-143141068D01*
X66500392Y-143320392D01*
X66321068Y-143538899D01*
X66250000Y-143671858D01*
X66178932Y-143538899D01*
X65999608Y-143320392D01*
X65781101Y-143141068D01*
X65531808Y-143007818D01*
X65261309Y-142925764D01*
X65050492Y-142905000D01*
X64909508Y-142905000D01*
X64698691Y-142925764D01*
X64428192Y-143007818D01*
X64178899Y-143141068D01*
X63960392Y-143320392D01*
X63781068Y-143538899D01*
X63707421Y-143676682D01*
X63592385Y-143484869D01*
X63403414Y-143276481D01*
X63177420Y-143108963D01*
X62923087Y-142988754D01*
X62789039Y-142948096D01*
X62567000Y-143070085D01*
X62313000Y-143070085D01*
X62090961Y-142948096D01*
X61956913Y-142988754D01*
X61702580Y-143108963D01*
X61476586Y-143276481D01*
X61287615Y-143484869D01*
X61172579Y-143676682D01*
X61098932Y-143538899D01*
X60919608Y-143320392D01*
X60701101Y-143141068D01*
X60451808Y-143007818D01*
X60181309Y-142925764D01*
X59970492Y-142905000D01*
X59829508Y-142905000D01*
X59618691Y-142925764D01*
X59348192Y-143007818D01*
X59098899Y-143141068D01*
X58880392Y-143320392D01*
X58701068Y-143538899D01*
X58630000Y-143671858D01*
X58558932Y-143538899D01*
X58379608Y-143320392D01*
X58161101Y-143141068D01*
X57911808Y-143007818D01*
X57641309Y-142925764D01*
X57430492Y-142905000D01*
X57289508Y-142905000D01*
X57078691Y-142925764D01*
X56808192Y-143007818D01*
X56558899Y-143141068D01*
X56340392Y-143320392D01*
X56247581Y-143433482D01*
X56245812Y-143415518D01*
X56209502Y-143295820D01*
X56150537Y-143185506D01*
X56071185Y-143088815D01*
X55974494Y-143009463D01*
X55864180Y-142950498D01*
X55744482Y-142914188D01*
X55620000Y-142901928D01*
X54020000Y-142901928D01*
X53895518Y-142914188D01*
X53775820Y-142950498D01*
X53665506Y-143009463D01*
X53568815Y-143088815D01*
X53489463Y-143185506D01*
X53430498Y-143295820D01*
X53394188Y-143415518D01*
X53381928Y-143540000D01*
X51952500Y-143540000D01*
X51952500Y-129100000D01*
X53378057Y-129100000D01*
X53405764Y-129381309D01*
X53487818Y-129651808D01*
X53621068Y-129901101D01*
X53800392Y-130119608D01*
X54018899Y-130298932D01*
X54268192Y-130432182D01*
X54538691Y-130514236D01*
X54749508Y-130535000D01*
X54890492Y-130535000D01*
X55101309Y-130514236D01*
X55371808Y-130432182D01*
X55621101Y-130298932D01*
X55839608Y-130119608D01*
X56018932Y-129901101D01*
X56092579Y-129763318D01*
X56207615Y-129955131D01*
X56396586Y-130163519D01*
X56622580Y-130331037D01*
X56876913Y-130451246D01*
X57010961Y-130491904D01*
X57233000Y-130369915D01*
X57233000Y-129227000D01*
X57213000Y-129227000D01*
X57213000Y-128973000D01*
X57233000Y-128973000D01*
X57233000Y-127830085D01*
X57487000Y-127830085D01*
X57487000Y-128973000D01*
X57507000Y-128973000D01*
X57507000Y-129227000D01*
X57487000Y-129227000D01*
X57487000Y-130369915D01*
X57709039Y-130491904D01*
X57843087Y-130451246D01*
X58097420Y-130331037D01*
X58323414Y-130163519D01*
X58512385Y-129955131D01*
X58627421Y-129763318D01*
X58701068Y-129901101D01*
X58880392Y-130119608D01*
X59098899Y-130298932D01*
X59348192Y-130432182D01*
X59618691Y-130514236D01*
X59829508Y-130535000D01*
X59970492Y-130535000D01*
X60181309Y-130514236D01*
X60451808Y-130432182D01*
X60701101Y-130298932D01*
X60919608Y-130119608D01*
X61098932Y-129901101D01*
X61170000Y-129768142D01*
X61241068Y-129901101D01*
X61420392Y-130119608D01*
X61638899Y-130298932D01*
X61888192Y-130432182D01*
X62158691Y-130514236D01*
X62369508Y-130535000D01*
X62510492Y-130535000D01*
X62721309Y-130514236D01*
X62991808Y-130432182D01*
X63241101Y-130298932D01*
X63459608Y-130119608D01*
X63638932Y-129901101D01*
X63710000Y-129768142D01*
X63781068Y-129901101D01*
X63960392Y-130119608D01*
X64178899Y-130298932D01*
X64428192Y-130432182D01*
X64698691Y-130514236D01*
X64909508Y-130535000D01*
X65050492Y-130535000D01*
X65261309Y-130514236D01*
X65531808Y-130432182D01*
X65781101Y-130298932D01*
X65999608Y-130119608D01*
X66178932Y-129901101D01*
X66250000Y-129768142D01*
X66321068Y-129901101D01*
X66500392Y-130119608D01*
X66718899Y-130298932D01*
X66968192Y-130432182D01*
X67238691Y-130514236D01*
X67449508Y-130535000D01*
X67590492Y-130535000D01*
X67801309Y-130514236D01*
X68071808Y-130432182D01*
X68321101Y-130298932D01*
X68539608Y-130119608D01*
X68718932Y-129901101D01*
X68790000Y-129768142D01*
X68861068Y-129901101D01*
X69040392Y-130119608D01*
X69258899Y-130298932D01*
X69508192Y-130432182D01*
X69778691Y-130514236D01*
X69989508Y-130535000D01*
X70130492Y-130535000D01*
X70341309Y-130514236D01*
X70611808Y-130432182D01*
X70861101Y-130298932D01*
X71079608Y-130119608D01*
X71258932Y-129901101D01*
X71330000Y-129768142D01*
X71401068Y-129901101D01*
X71580392Y-130119608D01*
X71798899Y-130298932D01*
X72048192Y-130432182D01*
X72318691Y-130514236D01*
X72529508Y-130535000D01*
X72670492Y-130535000D01*
X72881309Y-130514236D01*
X73151808Y-130432182D01*
X73401101Y-130298932D01*
X73619608Y-130119608D01*
X73798932Y-129901101D01*
X73870000Y-129768142D01*
X73941068Y-129901101D01*
X74120392Y-130119608D01*
X74338899Y-130298932D01*
X74588192Y-130432182D01*
X74858691Y-130514236D01*
X75069508Y-130535000D01*
X75210492Y-130535000D01*
X75421309Y-130514236D01*
X75691808Y-130432182D01*
X75941101Y-130298932D01*
X76159608Y-130119608D01*
X76338932Y-129901101D01*
X76410000Y-129768142D01*
X76481068Y-129901101D01*
X76660392Y-130119608D01*
X76878899Y-130298932D01*
X77128192Y-130432182D01*
X77398691Y-130514236D01*
X77609508Y-130535000D01*
X77750492Y-130535000D01*
X77961309Y-130514236D01*
X78231808Y-130432182D01*
X78481101Y-130298932D01*
X78699608Y-130119608D01*
X78878932Y-129901101D01*
X78950000Y-129768142D01*
X79021068Y-129901101D01*
X79200392Y-130119608D01*
X79418899Y-130298932D01*
X79668192Y-130432182D01*
X79938691Y-130514236D01*
X80149508Y-130535000D01*
X80290492Y-130535000D01*
X80501309Y-130514236D01*
X80771808Y-130432182D01*
X81021101Y-130298932D01*
X81239608Y-130119608D01*
X81418932Y-129901101D01*
X81490000Y-129768142D01*
X81561068Y-129901101D01*
X81740392Y-130119608D01*
X81958899Y-130298932D01*
X82208192Y-130432182D01*
X82478691Y-130514236D01*
X82689508Y-130535000D01*
X82830492Y-130535000D01*
X83041309Y-130514236D01*
X83311808Y-130432182D01*
X83561101Y-130298932D01*
X83779608Y-130119608D01*
X83958932Y-129901101D01*
X84030000Y-129768142D01*
X84101068Y-129901101D01*
X84280392Y-130119608D01*
X84498899Y-130298932D01*
X84748192Y-130432182D01*
X85018691Y-130514236D01*
X85229508Y-130535000D01*
X85370492Y-130535000D01*
X85581309Y-130514236D01*
X85851808Y-130432182D01*
X86101101Y-130298932D01*
X86319608Y-130119608D01*
X86498932Y-129901101D01*
X86570000Y-129768142D01*
X86641068Y-129901101D01*
X86820392Y-130119608D01*
X87038899Y-130298932D01*
X87288192Y-130432182D01*
X87558691Y-130514236D01*
X87769508Y-130535000D01*
X87910492Y-130535000D01*
X88121309Y-130514236D01*
X88391808Y-130432182D01*
X88641101Y-130298932D01*
X88859608Y-130119608D01*
X89038932Y-129901101D01*
X89110000Y-129768142D01*
X89181068Y-129901101D01*
X89360392Y-130119608D01*
X89578899Y-130298932D01*
X89828192Y-130432182D01*
X90098691Y-130514236D01*
X90309508Y-130535000D01*
X90450492Y-130535000D01*
X90661309Y-130514236D01*
X90931808Y-130432182D01*
X91181101Y-130298932D01*
X91399608Y-130119608D01*
X91578932Y-129901101D01*
X91712182Y-129651808D01*
X91794236Y-129381309D01*
X91821943Y-129100000D01*
X91794236Y-128818691D01*
X91712182Y-128548192D01*
X91578932Y-128298899D01*
X91399608Y-128080392D01*
X91181101Y-127901068D01*
X91140000Y-127879099D01*
X91140000Y-127417325D01*
X91143676Y-127380000D01*
X91140000Y-127342675D01*
X91140000Y-127342667D01*
X91129003Y-127231014D01*
X91085546Y-127087753D01*
X91014974Y-126955724D01*
X90920001Y-126839999D01*
X90891004Y-126816202D01*
X89863804Y-125789002D01*
X89840001Y-125759999D01*
X89724276Y-125665026D01*
X89592247Y-125594454D01*
X89448986Y-125550997D01*
X89337333Y-125540000D01*
X89337322Y-125540000D01*
X89300000Y-125536324D01*
X89262678Y-125540000D01*
X76114802Y-125540000D01*
X74960000Y-124385199D01*
X74960000Y-121237322D01*
X74963676Y-121199999D01*
X74960000Y-121162676D01*
X74960000Y-121162667D01*
X74949003Y-121051014D01*
X74905546Y-120907753D01*
X74834974Y-120775724D01*
X74740001Y-120659999D01*
X74711004Y-120636202D01*
X71579500Y-117504699D01*
X71579500Y-117393679D01*
X71538015Y-117185122D01*
X71456640Y-116988665D01*
X71338502Y-116811859D01*
X71188141Y-116661498D01*
X71011335Y-116543360D01*
X70814878Y-116461985D01*
X70606321Y-116420500D01*
X70393679Y-116420500D01*
X70185122Y-116461985D01*
X69988665Y-116543360D01*
X69811859Y-116661498D01*
X69661498Y-116811859D01*
X69543360Y-116988665D01*
X69461985Y-117185122D01*
X69420500Y-117393679D01*
X69420500Y-117606321D01*
X69461985Y-117814878D01*
X69543360Y-118011335D01*
X69661498Y-118188141D01*
X69811859Y-118338502D01*
X69988665Y-118456640D01*
X70185122Y-118538015D01*
X70393679Y-118579500D01*
X70504699Y-118579500D01*
X73440000Y-121514802D01*
X73440001Y-124662668D01*
X73436324Y-124700000D01*
X73450998Y-124848985D01*
X73494454Y-124992246D01*
X73565026Y-125124276D01*
X73636201Y-125211002D01*
X73660000Y-125240001D01*
X73688998Y-125263799D01*
X75236200Y-126811002D01*
X75259999Y-126840001D01*
X75375724Y-126934974D01*
X75507753Y-127005546D01*
X75651014Y-127049003D01*
X75762667Y-127060000D01*
X75762675Y-127060000D01*
X75800000Y-127063676D01*
X75837325Y-127060000D01*
X88985199Y-127060000D01*
X89620000Y-127694802D01*
X89620000Y-127879099D01*
X89578899Y-127901068D01*
X89360392Y-128080392D01*
X89181068Y-128298899D01*
X89110000Y-128431858D01*
X89038932Y-128298899D01*
X88859608Y-128080392D01*
X88641101Y-127901068D01*
X88391808Y-127767818D01*
X88121309Y-127685764D01*
X87910492Y-127665000D01*
X87769508Y-127665000D01*
X87558691Y-127685764D01*
X87288192Y-127767818D01*
X87038899Y-127901068D01*
X86820392Y-128080392D01*
X86641068Y-128298899D01*
X86570000Y-128431858D01*
X86498932Y-128298899D01*
X86319608Y-128080392D01*
X86101101Y-127901068D01*
X85851808Y-127767818D01*
X85581309Y-127685764D01*
X85370492Y-127665000D01*
X85229508Y-127665000D01*
X85018691Y-127685764D01*
X84748192Y-127767818D01*
X84498899Y-127901068D01*
X84280392Y-128080392D01*
X84101068Y-128298899D01*
X84030000Y-128431858D01*
X83958932Y-128298899D01*
X83779608Y-128080392D01*
X83561101Y-127901068D01*
X83311808Y-127767818D01*
X83041309Y-127685764D01*
X82830492Y-127665000D01*
X82689508Y-127665000D01*
X82478691Y-127685764D01*
X82208192Y-127767818D01*
X81958899Y-127901068D01*
X81740392Y-128080392D01*
X81561068Y-128298899D01*
X81490000Y-128431858D01*
X81418932Y-128298899D01*
X81239608Y-128080392D01*
X81021101Y-127901068D01*
X80771808Y-127767818D01*
X80501309Y-127685764D01*
X80290492Y-127665000D01*
X80149508Y-127665000D01*
X79938691Y-127685764D01*
X79668192Y-127767818D01*
X79418899Y-127901068D01*
X79200392Y-128080392D01*
X79021068Y-128298899D01*
X78950000Y-128431858D01*
X78878932Y-128298899D01*
X78699608Y-128080392D01*
X78481101Y-127901068D01*
X78231808Y-127767818D01*
X77961309Y-127685764D01*
X77750492Y-127665000D01*
X77609508Y-127665000D01*
X77398691Y-127685764D01*
X77128192Y-127767818D01*
X76878899Y-127901068D01*
X76660392Y-128080392D01*
X76481068Y-128298899D01*
X76410000Y-128431858D01*
X76338932Y-128298899D01*
X76159608Y-128080392D01*
X75941101Y-127901068D01*
X75691808Y-127767818D01*
X75421309Y-127685764D01*
X75210492Y-127665000D01*
X75069508Y-127665000D01*
X74858691Y-127685764D01*
X74588192Y-127767818D01*
X74338899Y-127901068D01*
X74120392Y-128080392D01*
X73941068Y-128298899D01*
X73870000Y-128431858D01*
X73798932Y-128298899D01*
X73619608Y-128080392D01*
X73401101Y-127901068D01*
X73151808Y-127767818D01*
X72881309Y-127685764D01*
X72670492Y-127665000D01*
X72529508Y-127665000D01*
X72318691Y-127685764D01*
X72048192Y-127767818D01*
X71798899Y-127901068D01*
X71580392Y-128080392D01*
X71401068Y-128298899D01*
X71330000Y-128431858D01*
X71258932Y-128298899D01*
X71079608Y-128080392D01*
X70861101Y-127901068D01*
X70611808Y-127767818D01*
X70341309Y-127685764D01*
X70130492Y-127665000D01*
X69989508Y-127665000D01*
X69778691Y-127685764D01*
X69508192Y-127767818D01*
X69258899Y-127901068D01*
X69040392Y-128080392D01*
X68861068Y-128298899D01*
X68790000Y-128431858D01*
X68718932Y-128298899D01*
X68539608Y-128080392D01*
X68321101Y-127901068D01*
X68071808Y-127767818D01*
X67801309Y-127685764D01*
X67590492Y-127665000D01*
X67449508Y-127665000D01*
X67238691Y-127685764D01*
X66968192Y-127767818D01*
X66718899Y-127901068D01*
X66500392Y-128080392D01*
X66321068Y-128298899D01*
X66250000Y-128431858D01*
X66178932Y-128298899D01*
X65999608Y-128080392D01*
X65781101Y-127901068D01*
X65531808Y-127767818D01*
X65261309Y-127685764D01*
X65050492Y-127665000D01*
X64909508Y-127665000D01*
X64698691Y-127685764D01*
X64428192Y-127767818D01*
X64178899Y-127901068D01*
X63960392Y-128080392D01*
X63781068Y-128298899D01*
X63710000Y-128431858D01*
X63638932Y-128298899D01*
X63459608Y-128080392D01*
X63241101Y-127901068D01*
X62991808Y-127767818D01*
X62721309Y-127685764D01*
X62510492Y-127665000D01*
X62369508Y-127665000D01*
X62158691Y-127685764D01*
X61888192Y-127767818D01*
X61638899Y-127901068D01*
X61420392Y-128080392D01*
X61241068Y-128298899D01*
X61170000Y-128431858D01*
X61098932Y-128298899D01*
X60919608Y-128080392D01*
X60701101Y-127901068D01*
X60451808Y-127767818D01*
X60181309Y-127685764D01*
X59970492Y-127665000D01*
X59829508Y-127665000D01*
X59618691Y-127685764D01*
X59348192Y-127767818D01*
X59098899Y-127901068D01*
X58880392Y-128080392D01*
X58701068Y-128298899D01*
X58627421Y-128436682D01*
X58512385Y-128244869D01*
X58323414Y-128036481D01*
X58097420Y-127868963D01*
X57843087Y-127748754D01*
X57709039Y-127708096D01*
X57487000Y-127830085D01*
X57233000Y-127830085D01*
X57010961Y-127708096D01*
X56876913Y-127748754D01*
X56622580Y-127868963D01*
X56396586Y-128036481D01*
X56207615Y-128244869D01*
X56092579Y-128436682D01*
X56018932Y-128298899D01*
X55839608Y-128080392D01*
X55621101Y-127901068D01*
X55371808Y-127767818D01*
X55101309Y-127685764D01*
X54890492Y-127665000D01*
X54749508Y-127665000D01*
X54538691Y-127685764D01*
X54268192Y-127767818D01*
X54018899Y-127901068D01*
X53800392Y-128080392D01*
X53621068Y-128298899D01*
X53487818Y-128548192D01*
X53405764Y-128818691D01*
X53378057Y-129100000D01*
X51952500Y-129100000D01*
X51952500Y-121519538D01*
X52361928Y-121110110D01*
X52361928Y-121260000D01*
X52374188Y-121384482D01*
X52410498Y-121504180D01*
X52469463Y-121614494D01*
X52548815Y-121711185D01*
X52645506Y-121790537D01*
X52755820Y-121849502D01*
X52875518Y-121885812D01*
X53000000Y-121898072D01*
X56000000Y-121898072D01*
X56124482Y-121885812D01*
X56244180Y-121849502D01*
X56354494Y-121790537D01*
X56451185Y-121711185D01*
X56530537Y-121614494D01*
X56589502Y-121504180D01*
X56625812Y-121384482D01*
X56638072Y-121260000D01*
X56638072Y-120716805D01*
X56681785Y-120712500D01*
X56821723Y-120698717D01*
X56974079Y-120652500D01*
X58353215Y-120652500D01*
X58400000Y-120657108D01*
X58446785Y-120652500D01*
X58586723Y-120638717D01*
X58766269Y-120584252D01*
X58931741Y-120495806D01*
X59076778Y-120376778D01*
X59106607Y-120340431D01*
X61640436Y-117806603D01*
X61676778Y-117776778D01*
X61795806Y-117631741D01*
X61884252Y-117466269D01*
X61938717Y-117286723D01*
X61952500Y-117146785D01*
X61952500Y-117146784D01*
X61957108Y-117100001D01*
X61952500Y-117053216D01*
X61952500Y-111071653D01*
X88487952Y-111071653D01*
X88643962Y-111387214D01*
X89018745Y-111578020D01*
X89423551Y-111692044D01*
X89842824Y-111724902D01*
X90260451Y-111675334D01*
X90660383Y-111545243D01*
X90956038Y-111387214D01*
X91112048Y-111071653D01*
X89800000Y-109759605D01*
X88487952Y-111071653D01*
X61952500Y-111071653D01*
X61952500Y-109622824D01*
X87655098Y-109622824D01*
X87704666Y-110040451D01*
X87834757Y-110440383D01*
X87992786Y-110736038D01*
X88308347Y-110892048D01*
X89620395Y-109580000D01*
X89979605Y-109580000D01*
X91291653Y-110892048D01*
X91607214Y-110736038D01*
X91798020Y-110361255D01*
X91912044Y-109956449D01*
X91944902Y-109537176D01*
X91895334Y-109119549D01*
X91765243Y-108719617D01*
X91607214Y-108423962D01*
X91291653Y-108267952D01*
X89979605Y-109580000D01*
X89620395Y-109580000D01*
X88308347Y-108267952D01*
X87992786Y-108423962D01*
X87801980Y-108798745D01*
X87687956Y-109203551D01*
X87655098Y-109622824D01*
X61952500Y-109622824D01*
X61952500Y-108088347D01*
X88487952Y-108088347D01*
X89800000Y-109400395D01*
X91112048Y-108088347D01*
X90956038Y-107772786D01*
X90581255Y-107581980D01*
X90176449Y-107467956D01*
X89757176Y-107435098D01*
X89339549Y-107484666D01*
X88939617Y-107614757D01*
X88643962Y-107772786D01*
X88487952Y-108088347D01*
X61952500Y-108088347D01*
X61952500Y-103000000D01*
X87661928Y-103000000D01*
X87661928Y-106000000D01*
X87674188Y-106124482D01*
X87710498Y-106244180D01*
X87769463Y-106354494D01*
X87848815Y-106451185D01*
X87945506Y-106530537D01*
X88055820Y-106589502D01*
X88175518Y-106625812D01*
X88300000Y-106638072D01*
X91300000Y-106638072D01*
X91424482Y-106625812D01*
X91544180Y-106589502D01*
X91654494Y-106530537D01*
X91751185Y-106451185D01*
X91830537Y-106354494D01*
X91889502Y-106244180D01*
X91925812Y-106124482D01*
X91938072Y-106000000D01*
X91938072Y-103000000D01*
X91925812Y-102875518D01*
X91889502Y-102755820D01*
X91830537Y-102645506D01*
X91751185Y-102548815D01*
X91654494Y-102469463D01*
X91544180Y-102410498D01*
X91424482Y-102374188D01*
X91300000Y-102361928D01*
X88300000Y-102361928D01*
X88175518Y-102374188D01*
X88055820Y-102410498D01*
X87945506Y-102469463D01*
X87848815Y-102548815D01*
X87769463Y-102645506D01*
X87710498Y-102755820D01*
X87674188Y-102875518D01*
X87661928Y-103000000D01*
X61952500Y-103000000D01*
X61952500Y-99246784D01*
X61957108Y-99199999D01*
X61938717Y-99013277D01*
X61913618Y-98930537D01*
X61884252Y-98833731D01*
X61795806Y-98668259D01*
X61683698Y-98531653D01*
X88487952Y-98531653D01*
X88643962Y-98847214D01*
X89018745Y-99038020D01*
X89423551Y-99152044D01*
X89842824Y-99184902D01*
X90260451Y-99135334D01*
X90660383Y-99005243D01*
X90956038Y-98847214D01*
X91112048Y-98531653D01*
X89800000Y-97219605D01*
X88487952Y-98531653D01*
X61683698Y-98531653D01*
X61676778Y-98523222D01*
X61640436Y-98493397D01*
X60229863Y-97082824D01*
X87655098Y-97082824D01*
X87704666Y-97500451D01*
X87834757Y-97900383D01*
X87992786Y-98196038D01*
X88308347Y-98352048D01*
X89620395Y-97040000D01*
X89979605Y-97040000D01*
X91291653Y-98352048D01*
X91607214Y-98196038D01*
X91798020Y-97821255D01*
X91912044Y-97416449D01*
X91944902Y-96997176D01*
X91895334Y-96579549D01*
X91765243Y-96179617D01*
X91607214Y-95883962D01*
X91291653Y-95727952D01*
X89979605Y-97040000D01*
X89620395Y-97040000D01*
X88308347Y-95727952D01*
X87992786Y-95883962D01*
X87801980Y-96258745D01*
X87687956Y-96663551D01*
X87655098Y-97082824D01*
X60229863Y-97082824D01*
X60047038Y-96900000D01*
X61398691Y-95548347D01*
X88487952Y-95548347D01*
X89800000Y-96860395D01*
X91112048Y-95548347D01*
X90956038Y-95232786D01*
X90581255Y-95041980D01*
X90176449Y-94927956D01*
X89757176Y-94895098D01*
X89339549Y-94944666D01*
X88939617Y-95074757D01*
X88643962Y-95232786D01*
X88487952Y-95548347D01*
X61398691Y-95548347D01*
X62740436Y-94206603D01*
X62776778Y-94176778D01*
X62895806Y-94031741D01*
X62984252Y-93866269D01*
X63038717Y-93686723D01*
X63052500Y-93546785D01*
X63052500Y-93546784D01*
X63057108Y-93500001D01*
X63052500Y-93453216D01*
X63052500Y-91749721D01*
X87665000Y-91749721D01*
X87665000Y-92170279D01*
X87747047Y-92582756D01*
X87907988Y-92971302D01*
X88141637Y-93320983D01*
X88439017Y-93618363D01*
X88788698Y-93852012D01*
X89177244Y-94012953D01*
X89589721Y-94095000D01*
X90010279Y-94095000D01*
X90422756Y-94012953D01*
X90811302Y-93852012D01*
X91160983Y-93618363D01*
X91458363Y-93320983D01*
X91692012Y-92971302D01*
X91852953Y-92582756D01*
X91935000Y-92170279D01*
X91935000Y-91749721D01*
X91852953Y-91337244D01*
X91692012Y-90948698D01*
X91458363Y-90599017D01*
X91160983Y-90301637D01*
X90811302Y-90067988D01*
X90422756Y-89907047D01*
X90010279Y-89825000D01*
X89589721Y-89825000D01*
X89177244Y-89907047D01*
X88788698Y-90067988D01*
X88439017Y-90301637D01*
X88141637Y-90599017D01*
X87907988Y-90948698D01*
X87747047Y-91337244D01*
X87665000Y-91749721D01*
X63052500Y-91749721D01*
X63052500Y-88371653D01*
X88487952Y-88371653D01*
X88643962Y-88687214D01*
X89018745Y-88878020D01*
X89423551Y-88992044D01*
X89842824Y-89024902D01*
X90260451Y-88975334D01*
X90660383Y-88845243D01*
X90956038Y-88687214D01*
X91112048Y-88371653D01*
X89800000Y-87059605D01*
X88487952Y-88371653D01*
X63052500Y-88371653D01*
X63052500Y-86922824D01*
X87655098Y-86922824D01*
X87704666Y-87340451D01*
X87834757Y-87740383D01*
X87992786Y-88036038D01*
X88308347Y-88192048D01*
X89620395Y-86880000D01*
X89979605Y-86880000D01*
X91291653Y-88192048D01*
X91607214Y-88036038D01*
X91798020Y-87661255D01*
X91912044Y-87256449D01*
X91944902Y-86837176D01*
X91895334Y-86419549D01*
X91765243Y-86019617D01*
X91607214Y-85723962D01*
X91291653Y-85567952D01*
X89979605Y-86880000D01*
X89620395Y-86880000D01*
X88308347Y-85567952D01*
X87992786Y-85723962D01*
X87801980Y-86098745D01*
X87687956Y-86503551D01*
X87655098Y-86922824D01*
X63052500Y-86922824D01*
X63052500Y-85388347D01*
X88487952Y-85388347D01*
X89800000Y-86700395D01*
X91112048Y-85388347D01*
X90956038Y-85072786D01*
X90581255Y-84881980D01*
X90176449Y-84767956D01*
X89757176Y-84735098D01*
X89339549Y-84784666D01*
X88939617Y-84914757D01*
X88643962Y-85072786D01*
X88487952Y-85388347D01*
X63052500Y-85388347D01*
X63052500Y-80300000D01*
X87661928Y-80300000D01*
X87661928Y-83300000D01*
X87674188Y-83424482D01*
X87710498Y-83544180D01*
X87769463Y-83654494D01*
X87848815Y-83751185D01*
X87945506Y-83830537D01*
X88055820Y-83889502D01*
X88175518Y-83925812D01*
X88300000Y-83938072D01*
X91300000Y-83938072D01*
X91424482Y-83925812D01*
X91544180Y-83889502D01*
X91654494Y-83830537D01*
X91751185Y-83751185D01*
X91830537Y-83654494D01*
X91889502Y-83544180D01*
X91925812Y-83424482D01*
X91938072Y-83300000D01*
X91938072Y-80300000D01*
X91925812Y-80175518D01*
X91889502Y-80055820D01*
X91830537Y-79945506D01*
X91751185Y-79848815D01*
X91654494Y-79769463D01*
X91544180Y-79710498D01*
X91424482Y-79674188D01*
X91300000Y-79661928D01*
X88300000Y-79661928D01*
X88175518Y-79674188D01*
X88055820Y-79710498D01*
X87945506Y-79769463D01*
X87848815Y-79848815D01*
X87769463Y-79945506D01*
X87710498Y-80055820D01*
X87674188Y-80175518D01*
X87661928Y-80300000D01*
X63052500Y-80300000D01*
X63052500Y-76846785D01*
X63057108Y-76800000D01*
X63051009Y-76738072D01*
X63038717Y-76613277D01*
X62984252Y-76433731D01*
X62895806Y-76268259D01*
X62776778Y-76123222D01*
X62740436Y-76093397D01*
X62738692Y-76091653D01*
X88587952Y-76091653D01*
X88743962Y-76407214D01*
X89118745Y-76598020D01*
X89523551Y-76712044D01*
X89942824Y-76744902D01*
X90360451Y-76695334D01*
X90760383Y-76565243D01*
X91056038Y-76407214D01*
X91212048Y-76091653D01*
X89900000Y-74779605D01*
X88587952Y-76091653D01*
X62738692Y-76091653D01*
X61289863Y-74642824D01*
X87755098Y-74642824D01*
X87804666Y-75060451D01*
X87934757Y-75460383D01*
X88092786Y-75756038D01*
X88408347Y-75912048D01*
X89720395Y-74600000D01*
X90079605Y-74600000D01*
X91391653Y-75912048D01*
X91707214Y-75756038D01*
X91898020Y-75381255D01*
X92012044Y-74976449D01*
X92044902Y-74557176D01*
X91995334Y-74139549D01*
X91865243Y-73739617D01*
X91707214Y-73443962D01*
X91391653Y-73287952D01*
X90079605Y-74600000D01*
X89720395Y-74600000D01*
X88408347Y-73287952D01*
X88092786Y-73443962D01*
X87901980Y-73818745D01*
X87787956Y-74223551D01*
X87755098Y-74642824D01*
X61289863Y-74642824D01*
X61247038Y-74600000D01*
X62738691Y-73108347D01*
X88587952Y-73108347D01*
X89900000Y-74420395D01*
X91212048Y-73108347D01*
X91056038Y-72792786D01*
X90681255Y-72601980D01*
X90276449Y-72487956D01*
X89857176Y-72455098D01*
X89439549Y-72504666D01*
X89039617Y-72634757D01*
X88743962Y-72792786D01*
X88587952Y-73108347D01*
X62738691Y-73108347D01*
X62940431Y-72906607D01*
X62976778Y-72876778D01*
X63095806Y-72731741D01*
X63184252Y-72566269D01*
X63238717Y-72386723D01*
X63252500Y-72246785D01*
X63252500Y-72246784D01*
X63257108Y-72200000D01*
X63252500Y-72153215D01*
X63252500Y-69309721D01*
X87765000Y-69309721D01*
X87765000Y-69730279D01*
X87847047Y-70142756D01*
X88007988Y-70531302D01*
X88241637Y-70880983D01*
X88539017Y-71178363D01*
X88888698Y-71412012D01*
X89277244Y-71572953D01*
X89689721Y-71655000D01*
X90110279Y-71655000D01*
X90522756Y-71572953D01*
X90911302Y-71412012D01*
X91260983Y-71178363D01*
X91558363Y-70880983D01*
X91792012Y-70531302D01*
X91952953Y-70142756D01*
X92035000Y-69730279D01*
X92035000Y-69309721D01*
X91952953Y-68897244D01*
X91792012Y-68508698D01*
X91558363Y-68159017D01*
X91260983Y-67861637D01*
X90911302Y-67627988D01*
X90522756Y-67467047D01*
X90110279Y-67385000D01*
X89689721Y-67385000D01*
X89277244Y-67467047D01*
X88888698Y-67627988D01*
X88539017Y-67861637D01*
X88241637Y-68159017D01*
X88007988Y-68508698D01*
X87847047Y-68897244D01*
X87765000Y-69309721D01*
X63252500Y-69309721D01*
X63252500Y-53946784D01*
X63257108Y-53899999D01*
X63238717Y-53713277D01*
X63184252Y-53533731D01*
X63095806Y-53368259D01*
X62976778Y-53223222D01*
X62940436Y-53193397D01*
X61597038Y-51850000D01*
X64340436Y-49106603D01*
X64376778Y-49076778D01*
X64495806Y-48931741D01*
X64584252Y-48766269D01*
X64638717Y-48586723D01*
X64652500Y-48446785D01*
X64652500Y-48446784D01*
X64657108Y-48400001D01*
X64652500Y-48353216D01*
X64652500Y-43794538D01*
X67394539Y-41052500D01*
X79747501Y-41052500D01*
X79747500Y-54953215D01*
X79742892Y-55000000D01*
X79747500Y-55046784D01*
X79761283Y-55186722D01*
X79815748Y-55366268D01*
X79904194Y-55531741D01*
X80023222Y-55676778D01*
X80059569Y-55706607D01*
X84353397Y-60000436D01*
X84383222Y-60036778D01*
X84528259Y-60155806D01*
X84693731Y-60244252D01*
X84873277Y-60298717D01*
X85059999Y-60317108D01*
X85106784Y-60312500D01*
X87761928Y-60312500D01*
X87761928Y-60860000D01*
X87774188Y-60984482D01*
X87810498Y-61104180D01*
X87869463Y-61214494D01*
X87948815Y-61311185D01*
X88045506Y-61390537D01*
X88155820Y-61449502D01*
X88275518Y-61485812D01*
X88400000Y-61498072D01*
X91400000Y-61498072D01*
X91524482Y-61485812D01*
X91644180Y-61449502D01*
X91754494Y-61390537D01*
X91851185Y-61311185D01*
X91930537Y-61214494D01*
X91989502Y-61104180D01*
X92025812Y-60984482D01*
X92038072Y-60860000D01*
X92038072Y-57860000D01*
X92025812Y-57735518D01*
X91989502Y-57615820D01*
X91930537Y-57505506D01*
X91851185Y-57408815D01*
X91754494Y-57329463D01*
X91644180Y-57270498D01*
X91524482Y-57234188D01*
X91400000Y-57221928D01*
X88400000Y-57221928D01*
X88275518Y-57234188D01*
X88155820Y-57270498D01*
X88045506Y-57329463D01*
X87948815Y-57408815D01*
X87869463Y-57505506D01*
X87810498Y-57615820D01*
X87774188Y-57735518D01*
X87761928Y-57860000D01*
X87761928Y-58407500D01*
X85454539Y-58407500D01*
X81652500Y-54605462D01*
X81652500Y-53431653D01*
X88587952Y-53431653D01*
X88743962Y-53747214D01*
X89118745Y-53938020D01*
X89523551Y-54052044D01*
X89942824Y-54084902D01*
X90360451Y-54035334D01*
X90760383Y-53905243D01*
X91056038Y-53747214D01*
X91212048Y-53431653D01*
X89900000Y-52119605D01*
X88587952Y-53431653D01*
X81652500Y-53431653D01*
X81652500Y-51982824D01*
X87755098Y-51982824D01*
X87804666Y-52400451D01*
X87934757Y-52800383D01*
X88092786Y-53096038D01*
X88408347Y-53252048D01*
X89720395Y-51940000D01*
X90079605Y-51940000D01*
X91391653Y-53252048D01*
X91707214Y-53096038D01*
X91898020Y-52721255D01*
X92012044Y-52316449D01*
X92044902Y-51897176D01*
X91995334Y-51479549D01*
X91865243Y-51079617D01*
X91707214Y-50783962D01*
X91391653Y-50627952D01*
X90079605Y-51940000D01*
X89720395Y-51940000D01*
X88408347Y-50627952D01*
X88092786Y-50783962D01*
X87901980Y-51158745D01*
X87787956Y-51563551D01*
X87755098Y-51982824D01*
X81652500Y-51982824D01*
X81652500Y-50448347D01*
X88587952Y-50448347D01*
X89900000Y-51760395D01*
X91212048Y-50448347D01*
X91056038Y-50132786D01*
X90681255Y-49941980D01*
X90276449Y-49827956D01*
X89857176Y-49795098D01*
X89439549Y-49844666D01*
X89039617Y-49974757D01*
X88743962Y-50132786D01*
X88587952Y-50448347D01*
X81652500Y-50448347D01*
X81652500Y-46649721D01*
X87765000Y-46649721D01*
X87765000Y-47070279D01*
X87847047Y-47482756D01*
X88007988Y-47871302D01*
X88241637Y-48220983D01*
X88539017Y-48518363D01*
X88888698Y-48752012D01*
X89277244Y-48912953D01*
X89689721Y-48995000D01*
X90110279Y-48995000D01*
X90522756Y-48912953D01*
X90911302Y-48752012D01*
X91260983Y-48518363D01*
X91558363Y-48220983D01*
X91792012Y-47871302D01*
X91952953Y-47482756D01*
X92035000Y-47070279D01*
X92035000Y-46649721D01*
X91952953Y-46237244D01*
X91792012Y-45848698D01*
X91558363Y-45499017D01*
X91260983Y-45201637D01*
X90911302Y-44967988D01*
X90522756Y-44807047D01*
X90110279Y-44725000D01*
X89689721Y-44725000D01*
X89277244Y-44807047D01*
X88888698Y-44967988D01*
X88539017Y-45201637D01*
X88241637Y-45499017D01*
X88007988Y-45848698D01*
X87847047Y-46237244D01*
X87765000Y-46649721D01*
X81652500Y-46649721D01*
X81652500Y-40694538D01*
X84694539Y-37652500D01*
X87761928Y-37652500D01*
X87761928Y-38200000D01*
X87774188Y-38324482D01*
X87810498Y-38444180D01*
X87869463Y-38554494D01*
X87948815Y-38651185D01*
X88045506Y-38730537D01*
X88155820Y-38789502D01*
X88275518Y-38825812D01*
X88400000Y-38838072D01*
X91400000Y-38838072D01*
X91524482Y-38825812D01*
X91644180Y-38789502D01*
X91754494Y-38730537D01*
X91851185Y-38651185D01*
X91930537Y-38554494D01*
X91989502Y-38444180D01*
X92025812Y-38324482D01*
X92038072Y-38200000D01*
X92038072Y-35200000D01*
X92025812Y-35075518D01*
X91989502Y-34955820D01*
X91930537Y-34845506D01*
X91851185Y-34748815D01*
X91754494Y-34669463D01*
X91644180Y-34610498D01*
X91524482Y-34574188D01*
X91400000Y-34561928D01*
X88400000Y-34561928D01*
X88275518Y-34574188D01*
X88155820Y-34610498D01*
X88045506Y-34669463D01*
X87948815Y-34748815D01*
X87869463Y-34845506D01*
X87810498Y-34955820D01*
X87774188Y-35075518D01*
X87761928Y-35200000D01*
X87761928Y-35747500D01*
X84346784Y-35747500D01*
X84299999Y-35742892D01*
X84113277Y-35761283D01*
X83933731Y-35815748D01*
X83768259Y-35904194D01*
X83623222Y-36023222D01*
X83593397Y-36059564D01*
X80505462Y-39147500D01*
X67046785Y-39147500D01*
X67000000Y-39142892D01*
X66953215Y-39147500D01*
X66813277Y-39161283D01*
X66723504Y-39188516D01*
X66633730Y-39215748D01*
X66550995Y-39259971D01*
X66468259Y-39304194D01*
X66323222Y-39423222D01*
X66293398Y-39459563D01*
X63059564Y-42693398D01*
X63023223Y-42723222D01*
X62993399Y-42759563D01*
X62904194Y-42868260D01*
X62815749Y-43033731D01*
X62761283Y-43213278D01*
X62742892Y-43400000D01*
X62747501Y-43446795D01*
X62747500Y-48005461D01*
X59805462Y-50947500D01*
X56638072Y-50947500D01*
X56638072Y-50400000D01*
X56625812Y-50275518D01*
X56589502Y-50155820D01*
X56530537Y-50045506D01*
X56451185Y-49948815D01*
X56354494Y-49869463D01*
X56244180Y-49810498D01*
X56124482Y-49774188D01*
X56000000Y-49761928D01*
X53000000Y-49761928D01*
X52875518Y-49774188D01*
X52755820Y-49810498D01*
X52645506Y-49869463D01*
X52548815Y-49948815D01*
X52469463Y-50045506D01*
X52410498Y-50155820D01*
X52374188Y-50275518D01*
X52361928Y-50400000D01*
X52361928Y-53400000D01*
X52374188Y-53524482D01*
X52410498Y-53644180D01*
X52469463Y-53754494D01*
X52548815Y-53851185D01*
X52645506Y-53930537D01*
X52755820Y-53989502D01*
X52875518Y-54025812D01*
X53000000Y-54038072D01*
X56000000Y-54038072D01*
X56124482Y-54025812D01*
X56244180Y-53989502D01*
X56354494Y-53930537D01*
X56451185Y-53851185D01*
X56530537Y-53754494D01*
X56589502Y-53644180D01*
X56625812Y-53524482D01*
X56638072Y-53400000D01*
X56638072Y-52852500D01*
X59905462Y-52852500D01*
X61347501Y-54294540D01*
X61347500Y-71805462D01*
X59505462Y-73647500D01*
X56838072Y-73647500D01*
X56838072Y-73100000D01*
X56825812Y-72975518D01*
X56789502Y-72855820D01*
X56730537Y-72745506D01*
X56651185Y-72648815D01*
X56554494Y-72569463D01*
X56444180Y-72510498D01*
X56324482Y-72474188D01*
X56200000Y-72461928D01*
X53200000Y-72461928D01*
X53075518Y-72474188D01*
X52955820Y-72510498D01*
X52845506Y-72569463D01*
X52748815Y-72648815D01*
X52669463Y-72745506D01*
X52610498Y-72855820D01*
X52574188Y-72975518D01*
X52561928Y-73100000D01*
X52561928Y-76100000D01*
X52574188Y-76224482D01*
X52610498Y-76344180D01*
X52669463Y-76454494D01*
X52748815Y-76551185D01*
X52845506Y-76630537D01*
X52955820Y-76689502D01*
X53075518Y-76725812D01*
X53200000Y-76738072D01*
X56200000Y-76738072D01*
X56324482Y-76725812D01*
X56444180Y-76689502D01*
X56554494Y-76630537D01*
X56651185Y-76551185D01*
X56730537Y-76454494D01*
X56789502Y-76344180D01*
X56825812Y-76224482D01*
X56838072Y-76100000D01*
X56838072Y-75552500D01*
X59505462Y-75552500D01*
X61147501Y-77194540D01*
X61147500Y-93105461D01*
X58305462Y-95947500D01*
X56638072Y-95947500D01*
X56638072Y-95400000D01*
X56625812Y-95275518D01*
X56589502Y-95155820D01*
X56530537Y-95045506D01*
X56451185Y-94948815D01*
X56354494Y-94869463D01*
X56244180Y-94810498D01*
X56124482Y-94774188D01*
X56000000Y-94761928D01*
X53000000Y-94761928D01*
X52875518Y-94774188D01*
X52755820Y-94810498D01*
X52645506Y-94869463D01*
X52548815Y-94948815D01*
X52469463Y-95045506D01*
X52410498Y-95155820D01*
X52374188Y-95275518D01*
X52361928Y-95400000D01*
X52361928Y-98400000D01*
X52374188Y-98524482D01*
X52410498Y-98644180D01*
X52469463Y-98754494D01*
X52548815Y-98851185D01*
X52645506Y-98930537D01*
X52755820Y-98989502D01*
X52875518Y-99025812D01*
X53000000Y-99038072D01*
X56000000Y-99038072D01*
X56124482Y-99025812D01*
X56244180Y-98989502D01*
X56354494Y-98930537D01*
X56451185Y-98851185D01*
X56530537Y-98754494D01*
X56589502Y-98644180D01*
X56625812Y-98524482D01*
X56638072Y-98400000D01*
X56638072Y-97852500D01*
X58305462Y-97852500D01*
X60047501Y-99594540D01*
X60047500Y-116705461D01*
X58005462Y-118747500D01*
X56741785Y-118747500D01*
X56695000Y-118742892D01*
X56648215Y-118747500D01*
X56638072Y-118748499D01*
X56638072Y-118260000D01*
X56625812Y-118135518D01*
X56589502Y-118015820D01*
X56530537Y-117905506D01*
X56451185Y-117808815D01*
X56354494Y-117729463D01*
X56244180Y-117670498D01*
X56124482Y-117634188D01*
X56000000Y-117621928D01*
X53000000Y-117621928D01*
X52875518Y-117634188D01*
X52755820Y-117670498D01*
X52645506Y-117729463D01*
X52548815Y-117808815D01*
X52469463Y-117905506D01*
X52410498Y-118015820D01*
X52374188Y-118135518D01*
X52361928Y-118260000D01*
X52361928Y-118803195D01*
X52318215Y-118807500D01*
X52178277Y-118821283D01*
X51998731Y-118875748D01*
X51833259Y-118964194D01*
X51688222Y-119083222D01*
X51658393Y-119119569D01*
X50359565Y-120418397D01*
X50323223Y-120448222D01*
X50293399Y-120484563D01*
X50204194Y-120593260D01*
X50115749Y-120758731D01*
X50061283Y-120938278D01*
X50042892Y-121125000D01*
X49352500Y-121125000D01*
X49352500Y-117794538D01*
X51514539Y-115632500D01*
X52583631Y-115632500D01*
X52607988Y-115691302D01*
X52841637Y-116040983D01*
X53139017Y-116338363D01*
X53488698Y-116572012D01*
X53877244Y-116732953D01*
X54289721Y-116815000D01*
X54710279Y-116815000D01*
X55122756Y-116732953D01*
X55511302Y-116572012D01*
X55860983Y-116338363D01*
X56158363Y-116040983D01*
X56392012Y-115691302D01*
X56552953Y-115302756D01*
X56635000Y-114890279D01*
X56635000Y-114469721D01*
X56552953Y-114057244D01*
X56392012Y-113668698D01*
X56158363Y-113319017D01*
X55860983Y-113021637D01*
X55511302Y-112787988D01*
X55122756Y-112627047D01*
X54710279Y-112545000D01*
X54289721Y-112545000D01*
X53877244Y-112627047D01*
X53488698Y-112787988D01*
X53139017Y-113021637D01*
X52841637Y-113319017D01*
X52607988Y-113668698D01*
X52583631Y-113727500D01*
X51174539Y-113727500D01*
X49752500Y-112305462D01*
X49752500Y-109389721D01*
X52365000Y-109389721D01*
X52365000Y-109810279D01*
X52447047Y-110222756D01*
X52607988Y-110611302D01*
X52841637Y-110960983D01*
X53139017Y-111258363D01*
X53488698Y-111492012D01*
X53877244Y-111652953D01*
X54289721Y-111735000D01*
X54710279Y-111735000D01*
X55122756Y-111652953D01*
X55511302Y-111492012D01*
X55860983Y-111258363D01*
X56158363Y-110960983D01*
X56392012Y-110611302D01*
X56552953Y-110222756D01*
X56635000Y-109810279D01*
X56635000Y-109389721D01*
X56552953Y-108977244D01*
X56392012Y-108588698D01*
X56158363Y-108239017D01*
X55860983Y-107941637D01*
X55511302Y-107707988D01*
X55122756Y-107547047D01*
X54710279Y-107465000D01*
X54289721Y-107465000D01*
X53877244Y-107547047D01*
X53488698Y-107707988D01*
X53139017Y-107941637D01*
X52841637Y-108239017D01*
X52607988Y-108588698D01*
X52447047Y-108977244D01*
X52365000Y-109389721D01*
X49752500Y-109389721D01*
X49752500Y-106011653D01*
X53187952Y-106011653D01*
X53343962Y-106327214D01*
X53718745Y-106518020D01*
X54123551Y-106632044D01*
X54542824Y-106664902D01*
X54960451Y-106615334D01*
X55360383Y-106485243D01*
X55656038Y-106327214D01*
X55812048Y-106011653D01*
X54500000Y-104699605D01*
X53187952Y-106011653D01*
X49752500Y-106011653D01*
X49752500Y-104562824D01*
X52355098Y-104562824D01*
X52404666Y-104980451D01*
X52534757Y-105380383D01*
X52692786Y-105676038D01*
X53008347Y-105832048D01*
X54320395Y-104520000D01*
X54679605Y-104520000D01*
X55991653Y-105832048D01*
X56307214Y-105676038D01*
X56498020Y-105301255D01*
X56612044Y-104896449D01*
X56644902Y-104477176D01*
X56595334Y-104059549D01*
X56465243Y-103659617D01*
X56307214Y-103363962D01*
X55991653Y-103207952D01*
X54679605Y-104520000D01*
X54320395Y-104520000D01*
X53008347Y-103207952D01*
X52692786Y-103363962D01*
X52501980Y-103738745D01*
X52387956Y-104143551D01*
X52355098Y-104562824D01*
X49752500Y-104562824D01*
X49752500Y-103028347D01*
X53187952Y-103028347D01*
X54500000Y-104340395D01*
X55812048Y-103028347D01*
X55656038Y-102712786D01*
X55281255Y-102521980D01*
X54876449Y-102407956D01*
X54457176Y-102375098D01*
X54039549Y-102424666D01*
X53639617Y-102554757D01*
X53343962Y-102712786D01*
X53187952Y-103028347D01*
X49752500Y-103028347D01*
X49752500Y-94094538D01*
X51074539Y-92772500D01*
X52583631Y-92772500D01*
X52607988Y-92831302D01*
X52841637Y-93180983D01*
X53139017Y-93478363D01*
X53488698Y-93712012D01*
X53877244Y-93872953D01*
X54289721Y-93955000D01*
X54710279Y-93955000D01*
X55122756Y-93872953D01*
X55511302Y-93712012D01*
X55860983Y-93478363D01*
X56158363Y-93180983D01*
X56392012Y-92831302D01*
X56552953Y-92442756D01*
X56635000Y-92030279D01*
X56635000Y-91609721D01*
X56552953Y-91197244D01*
X56392012Y-90808698D01*
X56158363Y-90459017D01*
X55860983Y-90161637D01*
X55511302Y-89927988D01*
X55122756Y-89767047D01*
X54710279Y-89685000D01*
X54289721Y-89685000D01*
X53877244Y-89767047D01*
X53488698Y-89927988D01*
X53139017Y-90161637D01*
X52841637Y-90459017D01*
X52607988Y-90808698D01*
X52583631Y-90867500D01*
X51594496Y-90867500D01*
X51584252Y-90833731D01*
X51495806Y-90668259D01*
X51376778Y-90523222D01*
X51340431Y-90493393D01*
X50152500Y-89305462D01*
X50152500Y-86529721D01*
X52365000Y-86529721D01*
X52365000Y-86950279D01*
X52447047Y-87362756D01*
X52607988Y-87751302D01*
X52841637Y-88100983D01*
X53139017Y-88398363D01*
X53488698Y-88632012D01*
X53877244Y-88792953D01*
X54289721Y-88875000D01*
X54710279Y-88875000D01*
X55122756Y-88792953D01*
X55511302Y-88632012D01*
X55860983Y-88398363D01*
X56158363Y-88100983D01*
X56392012Y-87751302D01*
X56552953Y-87362756D01*
X56635000Y-86950279D01*
X56635000Y-86529721D01*
X56552953Y-86117244D01*
X56392012Y-85728698D01*
X56158363Y-85379017D01*
X55860983Y-85081637D01*
X55511302Y-84847988D01*
X55122756Y-84687047D01*
X54710279Y-84605000D01*
X54289721Y-84605000D01*
X53877244Y-84687047D01*
X53488698Y-84847988D01*
X53139017Y-85081637D01*
X52841637Y-85379017D01*
X52607988Y-85728698D01*
X52447047Y-86117244D01*
X52365000Y-86529721D01*
X50152500Y-86529721D01*
X50152500Y-83151653D01*
X53187952Y-83151653D01*
X53343962Y-83467214D01*
X53718745Y-83658020D01*
X54123551Y-83772044D01*
X54542824Y-83804902D01*
X54960451Y-83755334D01*
X55360383Y-83625243D01*
X55656038Y-83467214D01*
X55812048Y-83151653D01*
X54500000Y-81839605D01*
X53187952Y-83151653D01*
X50152500Y-83151653D01*
X50152500Y-81702824D01*
X52355098Y-81702824D01*
X52404666Y-82120451D01*
X52534757Y-82520383D01*
X52692786Y-82816038D01*
X53008347Y-82972048D01*
X54320395Y-81660000D01*
X54679605Y-81660000D01*
X55991653Y-82972048D01*
X56307214Y-82816038D01*
X56498020Y-82441255D01*
X56612044Y-82036449D01*
X56644902Y-81617176D01*
X56595334Y-81199549D01*
X56465243Y-80799617D01*
X56307214Y-80503962D01*
X55991653Y-80347952D01*
X54679605Y-81660000D01*
X54320395Y-81660000D01*
X53008347Y-80347952D01*
X52692786Y-80503962D01*
X52501980Y-80878745D01*
X52387956Y-81283551D01*
X52355098Y-81702824D01*
X50152500Y-81702824D01*
X50152500Y-80168347D01*
X53187952Y-80168347D01*
X54500000Y-81480395D01*
X55812048Y-80168347D01*
X55656038Y-79852786D01*
X55281255Y-79661980D01*
X54876449Y-79547956D01*
X54457176Y-79515098D01*
X54039549Y-79564666D01*
X53639617Y-79694757D01*
X53343962Y-79852786D01*
X53187952Y-80168347D01*
X50152500Y-80168347D01*
X50152500Y-72094538D01*
X51774538Y-70472500D01*
X52783631Y-70472500D01*
X52807988Y-70531302D01*
X53041637Y-70880983D01*
X53339017Y-71178363D01*
X53688698Y-71412012D01*
X54077244Y-71572953D01*
X54489721Y-71655000D01*
X54910279Y-71655000D01*
X55322756Y-71572953D01*
X55711302Y-71412012D01*
X56060983Y-71178363D01*
X56358363Y-70880983D01*
X56592012Y-70531302D01*
X56752953Y-70142756D01*
X56835000Y-69730279D01*
X56835000Y-69309721D01*
X56752953Y-68897244D01*
X56592012Y-68508698D01*
X56358363Y-68159017D01*
X56060983Y-67861637D01*
X55711302Y-67627988D01*
X55322756Y-67467047D01*
X54910279Y-67385000D01*
X54489721Y-67385000D01*
X54077244Y-67467047D01*
X53688698Y-67627988D01*
X53339017Y-67861637D01*
X53041637Y-68159017D01*
X52807988Y-68508698D01*
X52783631Y-68567500D01*
X51426785Y-68567500D01*
X51413200Y-68566162D01*
X50452500Y-67605462D01*
X50452500Y-64229721D01*
X52565000Y-64229721D01*
X52565000Y-64650279D01*
X52647047Y-65062756D01*
X52807988Y-65451302D01*
X53041637Y-65800983D01*
X53339017Y-66098363D01*
X53688698Y-66332012D01*
X54077244Y-66492953D01*
X54489721Y-66575000D01*
X54910279Y-66575000D01*
X55322756Y-66492953D01*
X55711302Y-66332012D01*
X56060983Y-66098363D01*
X56358363Y-65800983D01*
X56592012Y-65451302D01*
X56752953Y-65062756D01*
X56835000Y-64650279D01*
X56835000Y-64229721D01*
X56752953Y-63817244D01*
X56592012Y-63428698D01*
X56358363Y-63079017D01*
X56060983Y-62781637D01*
X55711302Y-62547988D01*
X55322756Y-62387047D01*
X54910279Y-62305000D01*
X54489721Y-62305000D01*
X54077244Y-62387047D01*
X53688698Y-62547988D01*
X53339017Y-62781637D01*
X53041637Y-63079017D01*
X52807988Y-63428698D01*
X52647047Y-63817244D01*
X52565000Y-64229721D01*
X50452500Y-64229721D01*
X50452500Y-60851653D01*
X53387952Y-60851653D01*
X53543962Y-61167214D01*
X53918745Y-61358020D01*
X54323551Y-61472044D01*
X54742824Y-61504902D01*
X55160451Y-61455334D01*
X55560383Y-61325243D01*
X55856038Y-61167214D01*
X56012048Y-60851653D01*
X54700000Y-59539605D01*
X53387952Y-60851653D01*
X50452500Y-60851653D01*
X50452500Y-59402824D01*
X52555098Y-59402824D01*
X52604666Y-59820451D01*
X52734757Y-60220383D01*
X52892786Y-60516038D01*
X53208347Y-60672048D01*
X54520395Y-59360000D01*
X54879605Y-59360000D01*
X56191653Y-60672048D01*
X56507214Y-60516038D01*
X56698020Y-60141255D01*
X56812044Y-59736449D01*
X56844902Y-59317176D01*
X56795334Y-58899549D01*
X56665243Y-58499617D01*
X56507214Y-58203962D01*
X56191653Y-58047952D01*
X54879605Y-59360000D01*
X54520395Y-59360000D01*
X53208347Y-58047952D01*
X52892786Y-58203962D01*
X52701980Y-58578745D01*
X52587956Y-58983551D01*
X52555098Y-59402824D01*
X50452500Y-59402824D01*
X50452500Y-57868347D01*
X53387952Y-57868347D01*
X54700000Y-59180395D01*
X56012048Y-57868347D01*
X55856038Y-57552786D01*
X55481255Y-57361980D01*
X55076449Y-57247956D01*
X54657176Y-57215098D01*
X54239549Y-57264666D01*
X53839617Y-57394757D01*
X53543962Y-57552786D01*
X53387952Y-57868347D01*
X50452500Y-57868347D01*
X50452500Y-49594538D01*
X52274539Y-47772500D01*
X52583631Y-47772500D01*
X52607988Y-47831302D01*
X52841637Y-48180983D01*
X53139017Y-48478363D01*
X53488698Y-48712012D01*
X53877244Y-48872953D01*
X54289721Y-48955000D01*
X54710279Y-48955000D01*
X55122756Y-48872953D01*
X55511302Y-48712012D01*
X55860983Y-48478363D01*
X56158363Y-48180983D01*
X56392012Y-47831302D01*
X56552953Y-47442756D01*
X56635000Y-47030279D01*
X56635000Y-46609721D01*
X56552953Y-46197244D01*
X56392012Y-45808698D01*
X56158363Y-45459017D01*
X55860983Y-45161637D01*
X55511302Y-44927988D01*
X55122756Y-44767047D01*
X54710279Y-44685000D01*
X54289721Y-44685000D01*
X53877244Y-44767047D01*
X53488698Y-44927988D01*
X53139017Y-45161637D01*
X52841637Y-45459017D01*
X52607988Y-45808698D01*
X52583631Y-45867500D01*
X52414538Y-45867500D01*
X50952500Y-44405462D01*
X50952500Y-41529721D01*
X52365000Y-41529721D01*
X52365000Y-41950279D01*
X52447047Y-42362756D01*
X52607988Y-42751302D01*
X52841637Y-43100983D01*
X53139017Y-43398363D01*
X53488698Y-43632012D01*
X53877244Y-43792953D01*
X54289721Y-43875000D01*
X54710279Y-43875000D01*
X55122756Y-43792953D01*
X55511302Y-43632012D01*
X55860983Y-43398363D01*
X56158363Y-43100983D01*
X56392012Y-42751302D01*
X56552953Y-42362756D01*
X56635000Y-41950279D01*
X56635000Y-41529721D01*
X56552953Y-41117244D01*
X56392012Y-40728698D01*
X56158363Y-40379017D01*
X55860983Y-40081637D01*
X55511302Y-39847988D01*
X55122756Y-39687047D01*
X54710279Y-39605000D01*
X54289721Y-39605000D01*
X53877244Y-39687047D01*
X53488698Y-39847988D01*
X53139017Y-40081637D01*
X52841637Y-40379017D01*
X52607988Y-40728698D01*
X52447047Y-41117244D01*
X52365000Y-41529721D01*
X50952500Y-41529721D01*
X50952500Y-38151653D01*
X53187952Y-38151653D01*
X53343962Y-38467214D01*
X53718745Y-38658020D01*
X54123551Y-38772044D01*
X54542824Y-38804902D01*
X54960451Y-38755334D01*
X55360383Y-38625243D01*
X55656038Y-38467214D01*
X55812048Y-38151653D01*
X54500000Y-36839605D01*
X53187952Y-38151653D01*
X50952500Y-38151653D01*
X50952500Y-36702824D01*
X52355098Y-36702824D01*
X52404666Y-37120451D01*
X52534757Y-37520383D01*
X52692786Y-37816038D01*
X53008347Y-37972048D01*
X54320395Y-36660000D01*
X54679605Y-36660000D01*
X55991653Y-37972048D01*
X56307214Y-37816038D01*
X56498020Y-37441255D01*
X56612044Y-37036449D01*
X56644902Y-36617176D01*
X56595334Y-36199549D01*
X56465243Y-35799617D01*
X56307214Y-35503962D01*
X55991653Y-35347952D01*
X54679605Y-36660000D01*
X54320395Y-36660000D01*
X53008347Y-35347952D01*
X52692786Y-35503962D01*
X52501980Y-35878745D01*
X52387956Y-36283551D01*
X52355098Y-36702824D01*
X50952500Y-36702824D01*
X50952500Y-35994538D01*
X52394539Y-34552500D01*
X54142052Y-34552500D01*
X54039549Y-34564666D01*
X53639617Y-34694757D01*
X53343962Y-34852786D01*
X53187952Y-35168347D01*
X54500000Y-36480395D01*
X55812048Y-35168347D01*
X55656038Y-34852786D01*
X55281255Y-34661980D01*
X54892581Y-34552500D01*
X93005462Y-34552500D01*
X94247500Y-35794538D01*
X94247501Y-39205460D01*
X92625462Y-40827500D01*
X91816369Y-40827500D01*
X91792012Y-40768698D01*
X91558363Y-40419017D01*
X91260983Y-40121637D01*
X90911302Y-39887988D01*
X90522756Y-39727047D01*
X90110279Y-39645000D01*
X89689721Y-39645000D01*
X89277244Y-39727047D01*
X88888698Y-39887988D01*
X88539017Y-40121637D01*
X88241637Y-40419017D01*
X88007988Y-40768698D01*
X87847047Y-41157244D01*
X87765000Y-41569721D01*
X87765000Y-41990279D01*
X87847047Y-42402756D01*
X88007988Y-42791302D01*
X88241637Y-43140983D01*
X88539017Y-43438363D01*
X88888698Y-43672012D01*
X89277244Y-43832953D01*
X89689721Y-43915000D01*
X90110279Y-43915000D01*
X90522756Y-43832953D01*
X90911302Y-43672012D01*
X91260983Y-43438363D01*
X91558363Y-43140983D01*
X91792012Y-42791302D01*
X91816369Y-42732500D01*
X92785462Y-42732500D01*
X94247501Y-44194540D01*
X94247500Y-62005462D01*
X92765462Y-63487500D01*
X91816369Y-63487500D01*
X91792012Y-63428698D01*
X91558363Y-63079017D01*
X91260983Y-62781637D01*
X90911302Y-62547988D01*
X90522756Y-62387047D01*
X90110279Y-62305000D01*
X89689721Y-62305000D01*
X89277244Y-62387047D01*
X88888698Y-62547988D01*
X88539017Y-62781637D01*
X88241637Y-63079017D01*
X88007988Y-63428698D01*
X87847047Y-63817244D01*
X87765000Y-64229721D01*
X87765000Y-64650279D01*
X87847047Y-65062756D01*
X88007988Y-65451302D01*
X88241637Y-65800983D01*
X88539017Y-66098363D01*
X88888698Y-66332012D01*
X89277244Y-66492953D01*
X89689721Y-66575000D01*
X90110279Y-66575000D01*
X90522756Y-66492953D01*
X90911302Y-66332012D01*
X91260983Y-66098363D01*
X91558363Y-65800983D01*
X91792012Y-65451302D01*
X91816369Y-65392500D01*
X93113215Y-65392500D01*
X93160000Y-65397108D01*
X93206785Y-65392500D01*
X93346723Y-65378717D01*
X93526269Y-65324252D01*
X93691741Y-65235806D01*
X93836778Y-65116778D01*
X93866607Y-65080431D01*
X95840431Y-63106607D01*
X95876778Y-63076778D01*
X95995806Y-62931741D01*
X96076038Y-62781637D01*
X96084252Y-62766270D01*
X96138717Y-62586722D01*
X96157108Y-62400000D01*
X96152500Y-62353215D01*
X96152500Y-43846784D01*
X96157108Y-43799999D01*
X96138717Y-43613277D01*
X96084252Y-43433731D01*
X95995806Y-43268259D01*
X95876778Y-43123222D01*
X95840436Y-43093397D01*
X94447038Y-41700000D01*
X95840436Y-40306603D01*
X95876778Y-40276778D01*
X95995806Y-40131741D01*
X96084252Y-39966269D01*
X96138717Y-39786723D01*
X96152500Y-39646785D01*
X96157108Y-39600000D01*
X96152500Y-39553215D01*
X96152500Y-35446784D01*
X96157108Y-35399999D01*
X96138717Y-35213277D01*
X96134689Y-35200000D01*
X96084252Y-35033731D01*
X95995806Y-34868259D01*
X95876778Y-34723222D01*
X95840431Y-34693393D01*
X94106607Y-32959569D01*
X94076778Y-32923222D01*
X93931741Y-32804194D01*
X93766269Y-32715748D01*
X93586723Y-32661283D01*
X93446785Y-32647500D01*
X93400000Y-32642892D01*
X93353215Y-32647500D01*
X52046784Y-32647500D01*
X51999999Y-32642892D01*
X51813277Y-32661283D01*
X51633731Y-32715748D01*
X51468259Y-32804194D01*
X51323222Y-32923222D01*
X51293397Y-32959564D01*
X49359564Y-34893398D01*
X49323223Y-34923222D01*
X49293399Y-34959563D01*
X49204194Y-35068260D01*
X49115749Y-35233731D01*
X49061283Y-35413278D01*
X49042892Y-35600000D01*
X49047501Y-35646795D01*
X49047500Y-44753215D01*
X49042892Y-44800000D01*
X49047500Y-44846784D01*
X49061283Y-44986722D01*
X49115748Y-45166268D01*
X49204194Y-45331741D01*
X49323222Y-45476778D01*
X49359569Y-45506607D01*
X50602962Y-46750000D01*
X48859569Y-48493393D01*
X48823222Y-48523222D01*
X48704194Y-48668259D01*
X48615748Y-48833732D01*
X48586017Y-48931741D01*
X48561283Y-49013278D01*
X48542892Y-49200000D01*
X48547500Y-49246785D01*
X48547501Y-67953205D01*
X48542892Y-68000000D01*
X48561283Y-68186722D01*
X48615749Y-68366269D01*
X48704195Y-68531741D01*
X48823223Y-68676778D01*
X48859565Y-68706603D01*
X49852962Y-69700000D01*
X48559569Y-70993393D01*
X48523222Y-71023222D01*
X48404194Y-71168259D01*
X48315748Y-71333732D01*
X48292002Y-71412012D01*
X48261283Y-71513278D01*
X48242892Y-71700000D01*
X48247500Y-71746785D01*
X48247501Y-89653205D01*
X48242892Y-89700000D01*
X48261283Y-89886722D01*
X48315749Y-90066269D01*
X48404195Y-90231741D01*
X48523223Y-90376778D01*
X48559565Y-90406603D01*
X49652962Y-91500000D01*
X48159564Y-92993398D01*
X48123223Y-93023222D01*
X48093399Y-93059563D01*
X48004194Y-93168260D01*
X47915749Y-93333731D01*
X47861283Y-93513278D01*
X47842892Y-93700000D01*
X47847501Y-93746795D01*
X47847500Y-112653215D01*
X47842892Y-112700000D01*
X47847500Y-112746784D01*
X47861283Y-112886722D01*
X47915748Y-113066268D01*
X48004194Y-113231741D01*
X48123222Y-113376778D01*
X48159569Y-113406607D01*
X49602961Y-114850000D01*
X47759569Y-116693393D01*
X47723222Y-116723222D01*
X47685000Y-116769796D01*
X47685000Y-29137323D01*
X49333000Y-29137323D01*
X49333000Y-29662677D01*
X49435492Y-30177935D01*
X49636536Y-30663298D01*
X49928406Y-31100113D01*
X50299887Y-31471594D01*
X50736702Y-31763464D01*
X51222065Y-31964508D01*
X51737323Y-32067000D01*
X52262677Y-32067000D01*
X52777935Y-31964508D01*
X53263298Y-31763464D01*
X53700113Y-31471594D01*
X54071594Y-31100113D01*
X54363464Y-30663298D01*
X54564508Y-30177935D01*
X54667000Y-29662677D01*
X54667000Y-29137323D01*
X89333000Y-29137323D01*
X89333000Y-29662677D01*
X89435492Y-30177935D01*
X89636536Y-30663298D01*
X89928406Y-31100113D01*
X90299887Y-31471594D01*
X90736702Y-31763464D01*
X91222065Y-31964508D01*
X91737323Y-32067000D01*
X92262677Y-32067000D01*
X92777935Y-31964508D01*
X93263298Y-31763464D01*
X93700113Y-31471594D01*
X94071594Y-31100113D01*
X94363464Y-30663298D01*
X94564508Y-30177935D01*
X94667000Y-29662677D01*
X94667000Y-29137323D01*
X94564508Y-28622065D01*
X94363464Y-28136702D01*
X94071594Y-27699887D01*
X93700113Y-27328406D01*
X93263298Y-27036536D01*
X92777935Y-26835492D01*
X92262677Y-26733000D01*
X91737323Y-26733000D01*
X91222065Y-26835492D01*
X90736702Y-27036536D01*
X90299887Y-27328406D01*
X89928406Y-27699887D01*
X89636536Y-28136702D01*
X89435492Y-28622065D01*
X89333000Y-29137323D01*
X54667000Y-29137323D01*
X54564508Y-28622065D01*
X54363464Y-28136702D01*
X54071594Y-27699887D01*
X53700113Y-27328406D01*
X53263298Y-27036536D01*
X52777935Y-26835492D01*
X52262677Y-26733000D01*
X51737323Y-26733000D01*
X51222065Y-26835492D01*
X50736702Y-27036536D01*
X50299887Y-27328406D01*
X49928406Y-27699887D01*
X49636536Y-28136702D01*
X49435492Y-28622065D01*
X49333000Y-29137323D01*
X47685000Y-29137323D01*
X47685000Y-25085000D01*
X96315001Y-25085000D01*
X96315000Y-166215000D01*
M02*
