G04 #@! TF.GenerationSoftware,KiCad,Pcbnew,(5.1.4)-1*
G04 #@! TF.CreationDate,2020-09-21T14:40:53+02:00*
G04 #@! TF.ProjectId,triggerbox,74726967-6765-4726-926f-782e6b696361,rev?*
G04 #@! TF.SameCoordinates,Original*
G04 #@! TF.FileFunction,Soldermask,Top*
G04 #@! TF.FilePolarity,Negative*
%FSLAX46Y46*%
G04 Gerber Fmt 4.6, Leading zero omitted, Abs format (unit mm)*
G04 Created by KiCad (PCBNEW (5.1.4)-1) date 2020-09-21 14:40:53*
%MOMM*%
%LPD*%
G04 APERTURE LIST*
%ADD10C,0.150000*%
G04 APERTURE END LIST*
D10*
G36*
X92666801Y-161801849D02*
G01*
X93082825Y-161974172D01*
X93082827Y-161974173D01*
X93457240Y-162224348D01*
X93775652Y-162542760D01*
X94025827Y-162917173D01*
X94025828Y-162917175D01*
X94198151Y-163333199D01*
X94286000Y-163774847D01*
X94286000Y-164225153D01*
X94198151Y-164666801D01*
X94025828Y-165082825D01*
X94025827Y-165082827D01*
X93775652Y-165457240D01*
X93457240Y-165775652D01*
X93082827Y-166025827D01*
X93082826Y-166025828D01*
X93082825Y-166025828D01*
X92666801Y-166198151D01*
X92225153Y-166286000D01*
X91774847Y-166286000D01*
X91333199Y-166198151D01*
X90917175Y-166025828D01*
X90917174Y-166025828D01*
X90917173Y-166025827D01*
X90542760Y-165775652D01*
X90224348Y-165457240D01*
X89974173Y-165082827D01*
X89974172Y-165082825D01*
X89801849Y-164666801D01*
X89714000Y-164225153D01*
X89714000Y-163774847D01*
X89801849Y-163333199D01*
X89974172Y-162917175D01*
X89974173Y-162917173D01*
X90224348Y-162542760D01*
X90542760Y-162224348D01*
X90917173Y-161974173D01*
X90917175Y-161974172D01*
X91333199Y-161801849D01*
X91774847Y-161714000D01*
X92225153Y-161714000D01*
X92666801Y-161801849D01*
X92666801Y-161801849D01*
G37*
G36*
X52666801Y-161801849D02*
G01*
X53082825Y-161974172D01*
X53082827Y-161974173D01*
X53457240Y-162224348D01*
X53775652Y-162542760D01*
X54025827Y-162917173D01*
X54025828Y-162917175D01*
X54198151Y-163333199D01*
X54286000Y-163774847D01*
X54286000Y-164225153D01*
X54198151Y-164666801D01*
X54025828Y-165082825D01*
X54025827Y-165082827D01*
X53775652Y-165457240D01*
X53457240Y-165775652D01*
X53082827Y-166025827D01*
X53082826Y-166025828D01*
X53082825Y-166025828D01*
X52666801Y-166198151D01*
X52225153Y-166286000D01*
X51774847Y-166286000D01*
X51333199Y-166198151D01*
X50917175Y-166025828D01*
X50917174Y-166025828D01*
X50917173Y-166025827D01*
X50542760Y-165775652D01*
X50224348Y-165457240D01*
X49974173Y-165082827D01*
X49974172Y-165082825D01*
X49801849Y-164666801D01*
X49714000Y-164225153D01*
X49714000Y-163774847D01*
X49801849Y-163333199D01*
X49974172Y-162917175D01*
X49974173Y-162917173D01*
X50224348Y-162542760D01*
X50542760Y-162224348D01*
X50917173Y-161974173D01*
X50917175Y-161974172D01*
X51333199Y-161801849D01*
X51774847Y-161714000D01*
X52225153Y-161714000D01*
X52666801Y-161801849D01*
X52666801Y-161801849D01*
G37*
G36*
X84904000Y-157004000D02*
G01*
X80896000Y-157004000D01*
X80896000Y-152996000D01*
X84904000Y-152996000D01*
X84904000Y-157004000D01*
X84904000Y-157004000D01*
G37*
G36*
X89998281Y-153012243D02*
G01*
X90150967Y-153058560D01*
X90291675Y-153133770D01*
X90415011Y-153234989D01*
X90516230Y-153358325D01*
X90591440Y-153499033D01*
X90637757Y-153651719D01*
X90654000Y-153816640D01*
X90654000Y-156183360D01*
X90637757Y-156348281D01*
X90591440Y-156500967D01*
X90516230Y-156641675D01*
X90415011Y-156765011D01*
X90291675Y-156866230D01*
X90150967Y-156941440D01*
X89998281Y-156987757D01*
X89833360Y-157004000D01*
X87966640Y-157004000D01*
X87801719Y-156987757D01*
X87649033Y-156941440D01*
X87508325Y-156866230D01*
X87384989Y-156765011D01*
X87283770Y-156641675D01*
X87208560Y-156500967D01*
X87162243Y-156348281D01*
X87146000Y-156183360D01*
X87146000Y-153816640D01*
X87162243Y-153651719D01*
X87208560Y-153499033D01*
X87283770Y-153358325D01*
X87384989Y-153234989D01*
X87508325Y-153133770D01*
X87649033Y-153058560D01*
X87801719Y-153012243D01*
X87966640Y-152996000D01*
X89833360Y-152996000D01*
X89998281Y-153012243D01*
X89998281Y-153012243D01*
G37*
G36*
X60355799Y-151177396D02*
G01*
X60412341Y-151194548D01*
X60464446Y-151222398D01*
X60510119Y-151259881D01*
X60547602Y-151305554D01*
X60575567Y-151357873D01*
X60584761Y-151380070D01*
X60598375Y-151400445D01*
X60615702Y-151417772D01*
X60636076Y-151431385D01*
X60658715Y-151440763D01*
X60682748Y-151445543D01*
X60707252Y-151445543D01*
X60731286Y-151440762D01*
X60753924Y-151431385D01*
X60774299Y-151417771D01*
X60791626Y-151400444D01*
X60805239Y-151380070D01*
X60814433Y-151357873D01*
X60842398Y-151305554D01*
X60879881Y-151259881D01*
X60925554Y-151222398D01*
X60977659Y-151194548D01*
X61034201Y-151177396D01*
X61099141Y-151171000D01*
X62040859Y-151171000D01*
X62105799Y-151177396D01*
X62162341Y-151194548D01*
X62214446Y-151222398D01*
X62260119Y-151259881D01*
X62297602Y-151305554D01*
X62325452Y-151357659D01*
X62342604Y-151414201D01*
X62349000Y-151479141D01*
X62349000Y-152320859D01*
X62342604Y-152385799D01*
X62325452Y-152442341D01*
X62297602Y-152494446D01*
X62260119Y-152540119D01*
X62214446Y-152577602D01*
X62162341Y-152605452D01*
X62105799Y-152622604D01*
X62040859Y-152629000D01*
X61099141Y-152629000D01*
X61034201Y-152622604D01*
X60977659Y-152605452D01*
X60925554Y-152577602D01*
X60879881Y-152540119D01*
X60842398Y-152494446D01*
X60814433Y-152442127D01*
X60805239Y-152419930D01*
X60791625Y-152399555D01*
X60774298Y-152382228D01*
X60753924Y-152368615D01*
X60731285Y-152359237D01*
X60707252Y-152354457D01*
X60682748Y-152354457D01*
X60658714Y-152359238D01*
X60636076Y-152368615D01*
X60615701Y-152382229D01*
X60598374Y-152399556D01*
X60584761Y-152419930D01*
X60575567Y-152442127D01*
X60547602Y-152494446D01*
X60510119Y-152540119D01*
X60464446Y-152577602D01*
X60412341Y-152605452D01*
X60355799Y-152622604D01*
X60290859Y-152629000D01*
X59349141Y-152629000D01*
X59284201Y-152622604D01*
X59227659Y-152605452D01*
X59175554Y-152577602D01*
X59129881Y-152540119D01*
X59092398Y-152494446D01*
X59064548Y-152442341D01*
X59047396Y-152385799D01*
X59041000Y-152320859D01*
X59041000Y-151479141D01*
X59047396Y-151414201D01*
X59064548Y-151357659D01*
X59092398Y-151305554D01*
X59129881Y-151259881D01*
X59175554Y-151222398D01*
X59227659Y-151194548D01*
X59284201Y-151177396D01*
X59349141Y-151171000D01*
X60290859Y-151171000D01*
X60355799Y-151177396D01*
X60355799Y-151177396D01*
G37*
G36*
X64573387Y-151177035D02*
G01*
X64626418Y-151193122D01*
X64675278Y-151219238D01*
X64718111Y-151254389D01*
X64753262Y-151297222D01*
X64781809Y-151350630D01*
X64787261Y-151363791D01*
X64800874Y-151384165D01*
X64818201Y-151401492D01*
X64838576Y-151415106D01*
X64861214Y-151424484D01*
X64885248Y-151429264D01*
X64909752Y-151429264D01*
X64933785Y-151424484D01*
X64956424Y-151415106D01*
X64976798Y-151401493D01*
X64994125Y-151384166D01*
X65007739Y-151363791D01*
X65013191Y-151350630D01*
X65041738Y-151297222D01*
X65076889Y-151254389D01*
X65119722Y-151219238D01*
X65168582Y-151193122D01*
X65221613Y-151177035D01*
X65282890Y-151171000D01*
X66087110Y-151171000D01*
X66148387Y-151177035D01*
X66201418Y-151193122D01*
X66250278Y-151219238D01*
X66293111Y-151254389D01*
X66328262Y-151297222D01*
X66354378Y-151346082D01*
X66370465Y-151399113D01*
X66376500Y-151460390D01*
X66376500Y-152339610D01*
X66370465Y-152400887D01*
X66354378Y-152453918D01*
X66328262Y-152502778D01*
X66293111Y-152545611D01*
X66250278Y-152580762D01*
X66201418Y-152606878D01*
X66148387Y-152622965D01*
X66087110Y-152629000D01*
X65282890Y-152629000D01*
X65221613Y-152622965D01*
X65168582Y-152606878D01*
X65119722Y-152580762D01*
X65076889Y-152545611D01*
X65041738Y-152502778D01*
X65013191Y-152449370D01*
X65007739Y-152436209D01*
X64994126Y-152415835D01*
X64976799Y-152398508D01*
X64956424Y-152384894D01*
X64933786Y-152375516D01*
X64909752Y-152370736D01*
X64885248Y-152370736D01*
X64861215Y-152375516D01*
X64838576Y-152384894D01*
X64818202Y-152398507D01*
X64800875Y-152415834D01*
X64787261Y-152436209D01*
X64781809Y-152449370D01*
X64753262Y-152502778D01*
X64718111Y-152545611D01*
X64675278Y-152580762D01*
X64626418Y-152606878D01*
X64573387Y-152622965D01*
X64512110Y-152629000D01*
X63707890Y-152629000D01*
X63646613Y-152622965D01*
X63593582Y-152606878D01*
X63544722Y-152580762D01*
X63501889Y-152545611D01*
X63466738Y-152502778D01*
X63440622Y-152453918D01*
X63424535Y-152400887D01*
X63418500Y-152339610D01*
X63418500Y-151460390D01*
X63424535Y-151399113D01*
X63440622Y-151346082D01*
X63466738Y-151297222D01*
X63501889Y-151254389D01*
X63544722Y-151219238D01*
X63593582Y-151193122D01*
X63646613Y-151177035D01*
X63707890Y-151171000D01*
X64512110Y-151171000D01*
X64573387Y-151177035D01*
X64573387Y-151177035D01*
G37*
G36*
X87147667Y-148314645D02*
G01*
X87323803Y-148368075D01*
X87486121Y-148454836D01*
X87628399Y-148571601D01*
X87745164Y-148713879D01*
X87831925Y-148876197D01*
X87885355Y-149052333D01*
X87904000Y-149241640D01*
X87904000Y-151358360D01*
X87885355Y-151547667D01*
X87831925Y-151723803D01*
X87745164Y-151886121D01*
X87628399Y-152028399D01*
X87486121Y-152145164D01*
X87323803Y-152231925D01*
X87147667Y-152285355D01*
X86958360Y-152304000D01*
X84841640Y-152304000D01*
X84652333Y-152285355D01*
X84476197Y-152231925D01*
X84313879Y-152145164D01*
X84171601Y-152028399D01*
X84054836Y-151886121D01*
X83968075Y-151723803D01*
X83914645Y-151547667D01*
X83896000Y-151358360D01*
X83896000Y-149241640D01*
X83914645Y-149052333D01*
X83968075Y-148876197D01*
X84054836Y-148713879D01*
X84171601Y-148571601D01*
X84313879Y-148454836D01*
X84476197Y-148368075D01*
X84652333Y-148314645D01*
X84841640Y-148296000D01*
X86958360Y-148296000D01*
X87147667Y-148314645D01*
X87147667Y-148314645D01*
G37*
G36*
X65083388Y-143291084D02*
G01*
X65186620Y-143301251D01*
X65385300Y-143361520D01*
X65385303Y-143361521D01*
X65568403Y-143459390D01*
X65728897Y-143591103D01*
X65860610Y-143751597D01*
X65958479Y-143934697D01*
X65958480Y-143934700D01*
X66018749Y-144133380D01*
X66039099Y-144340000D01*
X66018749Y-144546620D01*
X65958480Y-144745300D01*
X65958479Y-144745303D01*
X65860610Y-144928403D01*
X65728897Y-145088897D01*
X65568403Y-145220610D01*
X65385303Y-145318479D01*
X65385300Y-145318480D01*
X65186620Y-145378749D01*
X65083388Y-145388916D01*
X65031773Y-145394000D01*
X64928227Y-145394000D01*
X64876612Y-145388916D01*
X64773380Y-145378749D01*
X64574700Y-145318480D01*
X64574697Y-145318479D01*
X64391597Y-145220610D01*
X64231103Y-145088897D01*
X64099390Y-144928403D01*
X64001521Y-144745303D01*
X64001520Y-144745300D01*
X63941251Y-144546620D01*
X63920901Y-144340000D01*
X63941251Y-144133380D01*
X64001520Y-143934700D01*
X64001521Y-143934697D01*
X64099390Y-143751597D01*
X64231103Y-143591103D01*
X64391597Y-143459390D01*
X64574697Y-143361521D01*
X64574700Y-143361520D01*
X64773380Y-143301251D01*
X64876612Y-143291084D01*
X64928227Y-143286000D01*
X65031773Y-143286000D01*
X65083388Y-143291084D01*
X65083388Y-143291084D01*
G37*
G36*
X90483388Y-143291084D02*
G01*
X90586620Y-143301251D01*
X90785300Y-143361520D01*
X90785303Y-143361521D01*
X90968403Y-143459390D01*
X91128897Y-143591103D01*
X91260610Y-143751597D01*
X91358479Y-143934697D01*
X91358480Y-143934700D01*
X91418749Y-144133380D01*
X91439099Y-144340000D01*
X91418749Y-144546620D01*
X91358480Y-144745300D01*
X91358479Y-144745303D01*
X91260610Y-144928403D01*
X91128897Y-145088897D01*
X90968403Y-145220610D01*
X90785303Y-145318479D01*
X90785300Y-145318480D01*
X90586620Y-145378749D01*
X90483388Y-145388916D01*
X90431773Y-145394000D01*
X90328227Y-145394000D01*
X90276612Y-145388916D01*
X90173380Y-145378749D01*
X89974700Y-145318480D01*
X89974697Y-145318479D01*
X89791597Y-145220610D01*
X89631103Y-145088897D01*
X89499390Y-144928403D01*
X89401521Y-144745303D01*
X89401520Y-144745300D01*
X89341251Y-144546620D01*
X89320901Y-144340000D01*
X89341251Y-144133380D01*
X89401520Y-143934700D01*
X89401521Y-143934697D01*
X89499390Y-143751597D01*
X89631103Y-143591103D01*
X89791597Y-143459390D01*
X89974697Y-143361521D01*
X89974700Y-143361520D01*
X90173380Y-143301251D01*
X90276612Y-143291084D01*
X90328227Y-143286000D01*
X90431773Y-143286000D01*
X90483388Y-143291084D01*
X90483388Y-143291084D01*
G37*
G36*
X87943388Y-143291084D02*
G01*
X88046620Y-143301251D01*
X88245300Y-143361520D01*
X88245303Y-143361521D01*
X88428403Y-143459390D01*
X88588897Y-143591103D01*
X88720610Y-143751597D01*
X88818479Y-143934697D01*
X88818480Y-143934700D01*
X88878749Y-144133380D01*
X88899099Y-144340000D01*
X88878749Y-144546620D01*
X88818480Y-144745300D01*
X88818479Y-144745303D01*
X88720610Y-144928403D01*
X88588897Y-145088897D01*
X88428403Y-145220610D01*
X88245303Y-145318479D01*
X88245300Y-145318480D01*
X88046620Y-145378749D01*
X87943388Y-145388916D01*
X87891773Y-145394000D01*
X87788227Y-145394000D01*
X87736612Y-145388916D01*
X87633380Y-145378749D01*
X87434700Y-145318480D01*
X87434697Y-145318479D01*
X87251597Y-145220610D01*
X87091103Y-145088897D01*
X86959390Y-144928403D01*
X86861521Y-144745303D01*
X86861520Y-144745300D01*
X86801251Y-144546620D01*
X86780901Y-144340000D01*
X86801251Y-144133380D01*
X86861520Y-143934700D01*
X86861521Y-143934697D01*
X86959390Y-143751597D01*
X87091103Y-143591103D01*
X87251597Y-143459390D01*
X87434697Y-143361521D01*
X87434700Y-143361520D01*
X87633380Y-143301251D01*
X87736612Y-143291084D01*
X87788227Y-143286000D01*
X87891773Y-143286000D01*
X87943388Y-143291084D01*
X87943388Y-143291084D01*
G37*
G36*
X85403388Y-143291084D02*
G01*
X85506620Y-143301251D01*
X85705300Y-143361520D01*
X85705303Y-143361521D01*
X85888403Y-143459390D01*
X86048897Y-143591103D01*
X86180610Y-143751597D01*
X86278479Y-143934697D01*
X86278480Y-143934700D01*
X86338749Y-144133380D01*
X86359099Y-144340000D01*
X86338749Y-144546620D01*
X86278480Y-144745300D01*
X86278479Y-144745303D01*
X86180610Y-144928403D01*
X86048897Y-145088897D01*
X85888403Y-145220610D01*
X85705303Y-145318479D01*
X85705300Y-145318480D01*
X85506620Y-145378749D01*
X85403388Y-145388916D01*
X85351773Y-145394000D01*
X85248227Y-145394000D01*
X85196612Y-145388916D01*
X85093380Y-145378749D01*
X84894700Y-145318480D01*
X84894697Y-145318479D01*
X84711597Y-145220610D01*
X84551103Y-145088897D01*
X84419390Y-144928403D01*
X84321521Y-144745303D01*
X84321520Y-144745300D01*
X84261251Y-144546620D01*
X84240901Y-144340000D01*
X84261251Y-144133380D01*
X84321520Y-143934700D01*
X84321521Y-143934697D01*
X84419390Y-143751597D01*
X84551103Y-143591103D01*
X84711597Y-143459390D01*
X84894697Y-143361521D01*
X84894700Y-143361520D01*
X85093380Y-143301251D01*
X85196612Y-143291084D01*
X85248227Y-143286000D01*
X85351773Y-143286000D01*
X85403388Y-143291084D01*
X85403388Y-143291084D01*
G37*
G36*
X82863388Y-143291084D02*
G01*
X82966620Y-143301251D01*
X83165300Y-143361520D01*
X83165303Y-143361521D01*
X83348403Y-143459390D01*
X83508897Y-143591103D01*
X83640610Y-143751597D01*
X83738479Y-143934697D01*
X83738480Y-143934700D01*
X83798749Y-144133380D01*
X83819099Y-144340000D01*
X83798749Y-144546620D01*
X83738480Y-144745300D01*
X83738479Y-144745303D01*
X83640610Y-144928403D01*
X83508897Y-145088897D01*
X83348403Y-145220610D01*
X83165303Y-145318479D01*
X83165300Y-145318480D01*
X82966620Y-145378749D01*
X82863388Y-145388916D01*
X82811773Y-145394000D01*
X82708227Y-145394000D01*
X82656612Y-145388916D01*
X82553380Y-145378749D01*
X82354700Y-145318480D01*
X82354697Y-145318479D01*
X82171597Y-145220610D01*
X82011103Y-145088897D01*
X81879390Y-144928403D01*
X81781521Y-144745303D01*
X81781520Y-144745300D01*
X81721251Y-144546620D01*
X81700901Y-144340000D01*
X81721251Y-144133380D01*
X81781520Y-143934700D01*
X81781521Y-143934697D01*
X81879390Y-143751597D01*
X82011103Y-143591103D01*
X82171597Y-143459390D01*
X82354697Y-143361521D01*
X82354700Y-143361520D01*
X82553380Y-143301251D01*
X82656612Y-143291084D01*
X82708227Y-143286000D01*
X82811773Y-143286000D01*
X82863388Y-143291084D01*
X82863388Y-143291084D01*
G37*
G36*
X80323388Y-143291084D02*
G01*
X80426620Y-143301251D01*
X80625300Y-143361520D01*
X80625303Y-143361521D01*
X80808403Y-143459390D01*
X80968897Y-143591103D01*
X81100610Y-143751597D01*
X81198479Y-143934697D01*
X81198480Y-143934700D01*
X81258749Y-144133380D01*
X81279099Y-144340000D01*
X81258749Y-144546620D01*
X81198480Y-144745300D01*
X81198479Y-144745303D01*
X81100610Y-144928403D01*
X80968897Y-145088897D01*
X80808403Y-145220610D01*
X80625303Y-145318479D01*
X80625300Y-145318480D01*
X80426620Y-145378749D01*
X80323388Y-145388916D01*
X80271773Y-145394000D01*
X80168227Y-145394000D01*
X80116612Y-145388916D01*
X80013380Y-145378749D01*
X79814700Y-145318480D01*
X79814697Y-145318479D01*
X79631597Y-145220610D01*
X79471103Y-145088897D01*
X79339390Y-144928403D01*
X79241521Y-144745303D01*
X79241520Y-144745300D01*
X79181251Y-144546620D01*
X79160901Y-144340000D01*
X79181251Y-144133380D01*
X79241520Y-143934700D01*
X79241521Y-143934697D01*
X79339390Y-143751597D01*
X79471103Y-143591103D01*
X79631597Y-143459390D01*
X79814697Y-143361521D01*
X79814700Y-143361520D01*
X80013380Y-143301251D01*
X80116612Y-143291084D01*
X80168227Y-143286000D01*
X80271773Y-143286000D01*
X80323388Y-143291084D01*
X80323388Y-143291084D01*
G37*
G36*
X77783388Y-143291084D02*
G01*
X77886620Y-143301251D01*
X78085300Y-143361520D01*
X78085303Y-143361521D01*
X78268403Y-143459390D01*
X78428897Y-143591103D01*
X78560610Y-143751597D01*
X78658479Y-143934697D01*
X78658480Y-143934700D01*
X78718749Y-144133380D01*
X78739099Y-144340000D01*
X78718749Y-144546620D01*
X78658480Y-144745300D01*
X78658479Y-144745303D01*
X78560610Y-144928403D01*
X78428897Y-145088897D01*
X78268403Y-145220610D01*
X78085303Y-145318479D01*
X78085300Y-145318480D01*
X77886620Y-145378749D01*
X77783388Y-145388916D01*
X77731773Y-145394000D01*
X77628227Y-145394000D01*
X77576612Y-145388916D01*
X77473380Y-145378749D01*
X77274700Y-145318480D01*
X77274697Y-145318479D01*
X77091597Y-145220610D01*
X76931103Y-145088897D01*
X76799390Y-144928403D01*
X76701521Y-144745303D01*
X76701520Y-144745300D01*
X76641251Y-144546620D01*
X76620901Y-144340000D01*
X76641251Y-144133380D01*
X76701520Y-143934700D01*
X76701521Y-143934697D01*
X76799390Y-143751597D01*
X76931103Y-143591103D01*
X77091597Y-143459390D01*
X77274697Y-143361521D01*
X77274700Y-143361520D01*
X77473380Y-143301251D01*
X77576612Y-143291084D01*
X77628227Y-143286000D01*
X77731773Y-143286000D01*
X77783388Y-143291084D01*
X77783388Y-143291084D01*
G37*
G36*
X72703388Y-143291084D02*
G01*
X72806620Y-143301251D01*
X73005300Y-143361520D01*
X73005303Y-143361521D01*
X73188403Y-143459390D01*
X73348897Y-143591103D01*
X73480610Y-143751597D01*
X73578479Y-143934697D01*
X73578480Y-143934700D01*
X73638749Y-144133380D01*
X73659099Y-144340000D01*
X73638749Y-144546620D01*
X73578480Y-144745300D01*
X73578479Y-144745303D01*
X73480610Y-144928403D01*
X73348897Y-145088897D01*
X73188403Y-145220610D01*
X73005303Y-145318479D01*
X73005300Y-145318480D01*
X72806620Y-145378749D01*
X72703388Y-145388916D01*
X72651773Y-145394000D01*
X72548227Y-145394000D01*
X72496612Y-145388916D01*
X72393380Y-145378749D01*
X72194700Y-145318480D01*
X72194697Y-145318479D01*
X72011597Y-145220610D01*
X71851103Y-145088897D01*
X71719390Y-144928403D01*
X71621521Y-144745303D01*
X71621520Y-144745300D01*
X71561251Y-144546620D01*
X71540901Y-144340000D01*
X71561251Y-144133380D01*
X71621520Y-143934700D01*
X71621521Y-143934697D01*
X71719390Y-143751597D01*
X71851103Y-143591103D01*
X72011597Y-143459390D01*
X72194697Y-143361521D01*
X72194700Y-143361520D01*
X72393380Y-143301251D01*
X72496612Y-143291084D01*
X72548227Y-143286000D01*
X72651773Y-143286000D01*
X72703388Y-143291084D01*
X72703388Y-143291084D01*
G37*
G36*
X70163388Y-143291084D02*
G01*
X70266620Y-143301251D01*
X70465300Y-143361520D01*
X70465303Y-143361521D01*
X70648403Y-143459390D01*
X70808897Y-143591103D01*
X70940610Y-143751597D01*
X71038479Y-143934697D01*
X71038480Y-143934700D01*
X71098749Y-144133380D01*
X71119099Y-144340000D01*
X71098749Y-144546620D01*
X71038480Y-144745300D01*
X71038479Y-144745303D01*
X70940610Y-144928403D01*
X70808897Y-145088897D01*
X70648403Y-145220610D01*
X70465303Y-145318479D01*
X70465300Y-145318480D01*
X70266620Y-145378749D01*
X70163388Y-145388916D01*
X70111773Y-145394000D01*
X70008227Y-145394000D01*
X69956612Y-145388916D01*
X69853380Y-145378749D01*
X69654700Y-145318480D01*
X69654697Y-145318479D01*
X69471597Y-145220610D01*
X69311103Y-145088897D01*
X69179390Y-144928403D01*
X69081521Y-144745303D01*
X69081520Y-144745300D01*
X69021251Y-144546620D01*
X69000901Y-144340000D01*
X69021251Y-144133380D01*
X69081520Y-143934700D01*
X69081521Y-143934697D01*
X69179390Y-143751597D01*
X69311103Y-143591103D01*
X69471597Y-143459390D01*
X69654697Y-143361521D01*
X69654700Y-143361520D01*
X69853380Y-143301251D01*
X69956612Y-143291084D01*
X70008227Y-143286000D01*
X70111773Y-143286000D01*
X70163388Y-143291084D01*
X70163388Y-143291084D01*
G37*
G36*
X67623388Y-143291084D02*
G01*
X67726620Y-143301251D01*
X67925300Y-143361520D01*
X67925303Y-143361521D01*
X68108403Y-143459390D01*
X68268897Y-143591103D01*
X68400610Y-143751597D01*
X68498479Y-143934697D01*
X68498480Y-143934700D01*
X68558749Y-144133380D01*
X68579099Y-144340000D01*
X68558749Y-144546620D01*
X68498480Y-144745300D01*
X68498479Y-144745303D01*
X68400610Y-144928403D01*
X68268897Y-145088897D01*
X68108403Y-145220610D01*
X67925303Y-145318479D01*
X67925300Y-145318480D01*
X67726620Y-145378749D01*
X67623388Y-145388916D01*
X67571773Y-145394000D01*
X67468227Y-145394000D01*
X67416612Y-145388916D01*
X67313380Y-145378749D01*
X67114700Y-145318480D01*
X67114697Y-145318479D01*
X66931597Y-145220610D01*
X66771103Y-145088897D01*
X66639390Y-144928403D01*
X66541521Y-144745303D01*
X66541520Y-144745300D01*
X66481251Y-144546620D01*
X66460901Y-144340000D01*
X66481251Y-144133380D01*
X66541520Y-143934700D01*
X66541521Y-143934697D01*
X66639390Y-143751597D01*
X66771103Y-143591103D01*
X66931597Y-143459390D01*
X67114697Y-143361521D01*
X67114700Y-143361520D01*
X67313380Y-143301251D01*
X67416612Y-143291084D01*
X67468227Y-143286000D01*
X67571773Y-143286000D01*
X67623388Y-143291084D01*
X67623388Y-143291084D01*
G37*
G36*
X62543388Y-143291084D02*
G01*
X62646620Y-143301251D01*
X62845300Y-143361520D01*
X62845303Y-143361521D01*
X63028403Y-143459390D01*
X63188897Y-143591103D01*
X63320610Y-143751597D01*
X63418479Y-143934697D01*
X63418480Y-143934700D01*
X63478749Y-144133380D01*
X63499099Y-144340000D01*
X63478749Y-144546620D01*
X63418480Y-144745300D01*
X63418479Y-144745303D01*
X63320610Y-144928403D01*
X63188897Y-145088897D01*
X63028403Y-145220610D01*
X62845303Y-145318479D01*
X62845300Y-145318480D01*
X62646620Y-145378749D01*
X62543388Y-145388916D01*
X62491773Y-145394000D01*
X62388227Y-145394000D01*
X62336612Y-145388916D01*
X62233380Y-145378749D01*
X62034700Y-145318480D01*
X62034697Y-145318479D01*
X61851597Y-145220610D01*
X61691103Y-145088897D01*
X61559390Y-144928403D01*
X61461521Y-144745303D01*
X61461520Y-144745300D01*
X61401251Y-144546620D01*
X61380901Y-144340000D01*
X61401251Y-144133380D01*
X61461520Y-143934700D01*
X61461521Y-143934697D01*
X61559390Y-143751597D01*
X61691103Y-143591103D01*
X61851597Y-143459390D01*
X62034697Y-143361521D01*
X62034700Y-143361520D01*
X62233380Y-143301251D01*
X62336612Y-143291084D01*
X62388227Y-143286000D01*
X62491773Y-143286000D01*
X62543388Y-143291084D01*
X62543388Y-143291084D01*
G37*
G36*
X60003388Y-143291084D02*
G01*
X60106620Y-143301251D01*
X60305300Y-143361520D01*
X60305303Y-143361521D01*
X60488403Y-143459390D01*
X60648897Y-143591103D01*
X60780610Y-143751597D01*
X60878479Y-143934697D01*
X60878480Y-143934700D01*
X60938749Y-144133380D01*
X60959099Y-144340000D01*
X60938749Y-144546620D01*
X60878480Y-144745300D01*
X60878479Y-144745303D01*
X60780610Y-144928403D01*
X60648897Y-145088897D01*
X60488403Y-145220610D01*
X60305303Y-145318479D01*
X60305300Y-145318480D01*
X60106620Y-145378749D01*
X60003388Y-145388916D01*
X59951773Y-145394000D01*
X59848227Y-145394000D01*
X59796612Y-145388916D01*
X59693380Y-145378749D01*
X59494700Y-145318480D01*
X59494697Y-145318479D01*
X59311597Y-145220610D01*
X59151103Y-145088897D01*
X59019390Y-144928403D01*
X58921521Y-144745303D01*
X58921520Y-144745300D01*
X58861251Y-144546620D01*
X58840901Y-144340000D01*
X58861251Y-144133380D01*
X58921520Y-143934700D01*
X58921521Y-143934697D01*
X59019390Y-143751597D01*
X59151103Y-143591103D01*
X59311597Y-143459390D01*
X59494697Y-143361521D01*
X59494700Y-143361520D01*
X59693380Y-143301251D01*
X59796612Y-143291084D01*
X59848227Y-143286000D01*
X59951773Y-143286000D01*
X60003388Y-143291084D01*
X60003388Y-143291084D01*
G37*
G36*
X57463388Y-143291084D02*
G01*
X57566620Y-143301251D01*
X57765300Y-143361520D01*
X57765303Y-143361521D01*
X57948403Y-143459390D01*
X58108897Y-143591103D01*
X58240610Y-143751597D01*
X58338479Y-143934697D01*
X58338480Y-143934700D01*
X58398749Y-144133380D01*
X58419099Y-144340000D01*
X58398749Y-144546620D01*
X58338480Y-144745300D01*
X58338479Y-144745303D01*
X58240610Y-144928403D01*
X58108897Y-145088897D01*
X57948403Y-145220610D01*
X57765303Y-145318479D01*
X57765300Y-145318480D01*
X57566620Y-145378749D01*
X57463388Y-145388916D01*
X57411773Y-145394000D01*
X57308227Y-145394000D01*
X57256612Y-145388916D01*
X57153380Y-145378749D01*
X56954700Y-145318480D01*
X56954697Y-145318479D01*
X56771597Y-145220610D01*
X56611103Y-145088897D01*
X56479390Y-144928403D01*
X56381521Y-144745303D01*
X56381520Y-144745300D01*
X56321251Y-144546620D01*
X56300901Y-144340000D01*
X56321251Y-144133380D01*
X56381520Y-143934700D01*
X56381521Y-143934697D01*
X56479390Y-143751597D01*
X56611103Y-143591103D01*
X56771597Y-143459390D01*
X56954697Y-143361521D01*
X56954700Y-143361520D01*
X57153380Y-143301251D01*
X57256612Y-143291084D01*
X57308227Y-143286000D01*
X57411773Y-143286000D01*
X57463388Y-143291084D01*
X57463388Y-143291084D01*
G37*
G36*
X75243388Y-143291084D02*
G01*
X75346620Y-143301251D01*
X75545300Y-143361520D01*
X75545303Y-143361521D01*
X75728403Y-143459390D01*
X75888897Y-143591103D01*
X76020610Y-143751597D01*
X76118479Y-143934697D01*
X76118480Y-143934700D01*
X76178749Y-144133380D01*
X76199099Y-144340000D01*
X76178749Y-144546620D01*
X76118480Y-144745300D01*
X76118479Y-144745303D01*
X76020610Y-144928403D01*
X75888897Y-145088897D01*
X75728403Y-145220610D01*
X75545303Y-145318479D01*
X75545300Y-145318480D01*
X75346620Y-145378749D01*
X75243388Y-145388916D01*
X75191773Y-145394000D01*
X75088227Y-145394000D01*
X75036612Y-145388916D01*
X74933380Y-145378749D01*
X74734700Y-145318480D01*
X74734697Y-145318479D01*
X74551597Y-145220610D01*
X74391103Y-145088897D01*
X74259390Y-144928403D01*
X74161521Y-144745303D01*
X74161520Y-144745300D01*
X74101251Y-144546620D01*
X74080901Y-144340000D01*
X74101251Y-144133380D01*
X74161520Y-143934700D01*
X74161521Y-143934697D01*
X74259390Y-143751597D01*
X74391103Y-143591103D01*
X74551597Y-143459390D01*
X74734697Y-143361521D01*
X74734700Y-143361520D01*
X74933380Y-143301251D01*
X75036612Y-143291084D01*
X75088227Y-143286000D01*
X75191773Y-143286000D01*
X75243388Y-143291084D01*
X75243388Y-143291084D01*
G37*
G36*
X55874000Y-145394000D02*
G01*
X53766000Y-145394000D01*
X53766000Y-143286000D01*
X55874000Y-143286000D01*
X55874000Y-145394000D01*
X55874000Y-145394000D01*
G37*
G36*
X54923388Y-128051084D02*
G01*
X55026620Y-128061251D01*
X55225300Y-128121520D01*
X55225303Y-128121521D01*
X55408403Y-128219390D01*
X55568897Y-128351103D01*
X55700610Y-128511597D01*
X55798479Y-128694697D01*
X55798480Y-128694700D01*
X55858749Y-128893380D01*
X55879099Y-129100000D01*
X55858749Y-129306620D01*
X55798480Y-129505300D01*
X55798479Y-129505303D01*
X55700610Y-129688403D01*
X55568897Y-129848897D01*
X55408403Y-129980610D01*
X55225303Y-130078479D01*
X55225300Y-130078480D01*
X55026620Y-130138749D01*
X54923388Y-130148916D01*
X54871773Y-130154000D01*
X54768227Y-130154000D01*
X54716612Y-130148916D01*
X54613380Y-130138749D01*
X54414700Y-130078480D01*
X54414697Y-130078479D01*
X54231597Y-129980610D01*
X54071103Y-129848897D01*
X53939390Y-129688403D01*
X53841521Y-129505303D01*
X53841520Y-129505300D01*
X53781251Y-129306620D01*
X53760901Y-129100000D01*
X53781251Y-128893380D01*
X53841520Y-128694700D01*
X53841521Y-128694697D01*
X53939390Y-128511597D01*
X54071103Y-128351103D01*
X54231597Y-128219390D01*
X54414697Y-128121521D01*
X54414700Y-128121520D01*
X54613380Y-128061251D01*
X54716612Y-128051084D01*
X54768227Y-128046000D01*
X54871773Y-128046000D01*
X54923388Y-128051084D01*
X54923388Y-128051084D01*
G37*
G36*
X90483388Y-128051084D02*
G01*
X90586620Y-128061251D01*
X90785300Y-128121520D01*
X90785303Y-128121521D01*
X90968403Y-128219390D01*
X91128897Y-128351103D01*
X91260610Y-128511597D01*
X91358479Y-128694697D01*
X91358480Y-128694700D01*
X91418749Y-128893380D01*
X91439099Y-129100000D01*
X91418749Y-129306620D01*
X91358480Y-129505300D01*
X91358479Y-129505303D01*
X91260610Y-129688403D01*
X91128897Y-129848897D01*
X90968403Y-129980610D01*
X90785303Y-130078479D01*
X90785300Y-130078480D01*
X90586620Y-130138749D01*
X90483388Y-130148916D01*
X90431773Y-130154000D01*
X90328227Y-130154000D01*
X90276612Y-130148916D01*
X90173380Y-130138749D01*
X89974700Y-130078480D01*
X89974697Y-130078479D01*
X89791597Y-129980610D01*
X89631103Y-129848897D01*
X89499390Y-129688403D01*
X89401521Y-129505303D01*
X89401520Y-129505300D01*
X89341251Y-129306620D01*
X89320901Y-129100000D01*
X89341251Y-128893380D01*
X89401520Y-128694700D01*
X89401521Y-128694697D01*
X89499390Y-128511597D01*
X89631103Y-128351103D01*
X89791597Y-128219390D01*
X89974697Y-128121521D01*
X89974700Y-128121520D01*
X90173380Y-128061251D01*
X90276612Y-128051084D01*
X90328227Y-128046000D01*
X90431773Y-128046000D01*
X90483388Y-128051084D01*
X90483388Y-128051084D01*
G37*
G36*
X85403388Y-128051084D02*
G01*
X85506620Y-128061251D01*
X85705300Y-128121520D01*
X85705303Y-128121521D01*
X85888403Y-128219390D01*
X86048897Y-128351103D01*
X86180610Y-128511597D01*
X86278479Y-128694697D01*
X86278480Y-128694700D01*
X86338749Y-128893380D01*
X86359099Y-129100000D01*
X86338749Y-129306620D01*
X86278480Y-129505300D01*
X86278479Y-129505303D01*
X86180610Y-129688403D01*
X86048897Y-129848897D01*
X85888403Y-129980610D01*
X85705303Y-130078479D01*
X85705300Y-130078480D01*
X85506620Y-130138749D01*
X85403388Y-130148916D01*
X85351773Y-130154000D01*
X85248227Y-130154000D01*
X85196612Y-130148916D01*
X85093380Y-130138749D01*
X84894700Y-130078480D01*
X84894697Y-130078479D01*
X84711597Y-129980610D01*
X84551103Y-129848897D01*
X84419390Y-129688403D01*
X84321521Y-129505303D01*
X84321520Y-129505300D01*
X84261251Y-129306620D01*
X84240901Y-129100000D01*
X84261251Y-128893380D01*
X84321520Y-128694700D01*
X84321521Y-128694697D01*
X84419390Y-128511597D01*
X84551103Y-128351103D01*
X84711597Y-128219390D01*
X84894697Y-128121521D01*
X84894700Y-128121520D01*
X85093380Y-128061251D01*
X85196612Y-128051084D01*
X85248227Y-128046000D01*
X85351773Y-128046000D01*
X85403388Y-128051084D01*
X85403388Y-128051084D01*
G37*
G36*
X57463388Y-128051084D02*
G01*
X57566620Y-128061251D01*
X57765300Y-128121520D01*
X57765303Y-128121521D01*
X57948403Y-128219390D01*
X58108897Y-128351103D01*
X58240610Y-128511597D01*
X58338479Y-128694697D01*
X58338480Y-128694700D01*
X58398749Y-128893380D01*
X58419099Y-129100000D01*
X58398749Y-129306620D01*
X58338480Y-129505300D01*
X58338479Y-129505303D01*
X58240610Y-129688403D01*
X58108897Y-129848897D01*
X57948403Y-129980610D01*
X57765303Y-130078479D01*
X57765300Y-130078480D01*
X57566620Y-130138749D01*
X57463388Y-130148916D01*
X57411773Y-130154000D01*
X57308227Y-130154000D01*
X57256612Y-130148916D01*
X57153380Y-130138749D01*
X56954700Y-130078480D01*
X56954697Y-130078479D01*
X56771597Y-129980610D01*
X56611103Y-129848897D01*
X56479390Y-129688403D01*
X56381521Y-129505303D01*
X56381520Y-129505300D01*
X56321251Y-129306620D01*
X56300901Y-129100000D01*
X56321251Y-128893380D01*
X56381520Y-128694700D01*
X56381521Y-128694697D01*
X56479390Y-128511597D01*
X56611103Y-128351103D01*
X56771597Y-128219390D01*
X56954697Y-128121521D01*
X56954700Y-128121520D01*
X57153380Y-128061251D01*
X57256612Y-128051084D01*
X57308227Y-128046000D01*
X57411773Y-128046000D01*
X57463388Y-128051084D01*
X57463388Y-128051084D01*
G37*
G36*
X82863388Y-128051084D02*
G01*
X82966620Y-128061251D01*
X83165300Y-128121520D01*
X83165303Y-128121521D01*
X83348403Y-128219390D01*
X83508897Y-128351103D01*
X83640610Y-128511597D01*
X83738479Y-128694697D01*
X83738480Y-128694700D01*
X83798749Y-128893380D01*
X83819099Y-129100000D01*
X83798749Y-129306620D01*
X83738480Y-129505300D01*
X83738479Y-129505303D01*
X83640610Y-129688403D01*
X83508897Y-129848897D01*
X83348403Y-129980610D01*
X83165303Y-130078479D01*
X83165300Y-130078480D01*
X82966620Y-130138749D01*
X82863388Y-130148916D01*
X82811773Y-130154000D01*
X82708227Y-130154000D01*
X82656612Y-130148916D01*
X82553380Y-130138749D01*
X82354700Y-130078480D01*
X82354697Y-130078479D01*
X82171597Y-129980610D01*
X82011103Y-129848897D01*
X81879390Y-129688403D01*
X81781521Y-129505303D01*
X81781520Y-129505300D01*
X81721251Y-129306620D01*
X81700901Y-129100000D01*
X81721251Y-128893380D01*
X81781520Y-128694700D01*
X81781521Y-128694697D01*
X81879390Y-128511597D01*
X82011103Y-128351103D01*
X82171597Y-128219390D01*
X82354697Y-128121521D01*
X82354700Y-128121520D01*
X82553380Y-128061251D01*
X82656612Y-128051084D01*
X82708227Y-128046000D01*
X82811773Y-128046000D01*
X82863388Y-128051084D01*
X82863388Y-128051084D01*
G37*
G36*
X60003388Y-128051084D02*
G01*
X60106620Y-128061251D01*
X60305300Y-128121520D01*
X60305303Y-128121521D01*
X60488403Y-128219390D01*
X60648897Y-128351103D01*
X60780610Y-128511597D01*
X60878479Y-128694697D01*
X60878480Y-128694700D01*
X60938749Y-128893380D01*
X60959099Y-129100000D01*
X60938749Y-129306620D01*
X60878480Y-129505300D01*
X60878479Y-129505303D01*
X60780610Y-129688403D01*
X60648897Y-129848897D01*
X60488403Y-129980610D01*
X60305303Y-130078479D01*
X60305300Y-130078480D01*
X60106620Y-130138749D01*
X60003388Y-130148916D01*
X59951773Y-130154000D01*
X59848227Y-130154000D01*
X59796612Y-130148916D01*
X59693380Y-130138749D01*
X59494700Y-130078480D01*
X59494697Y-130078479D01*
X59311597Y-129980610D01*
X59151103Y-129848897D01*
X59019390Y-129688403D01*
X58921521Y-129505303D01*
X58921520Y-129505300D01*
X58861251Y-129306620D01*
X58840901Y-129100000D01*
X58861251Y-128893380D01*
X58921520Y-128694700D01*
X58921521Y-128694697D01*
X59019390Y-128511597D01*
X59151103Y-128351103D01*
X59311597Y-128219390D01*
X59494697Y-128121521D01*
X59494700Y-128121520D01*
X59693380Y-128061251D01*
X59796612Y-128051084D01*
X59848227Y-128046000D01*
X59951773Y-128046000D01*
X60003388Y-128051084D01*
X60003388Y-128051084D01*
G37*
G36*
X80323388Y-128051084D02*
G01*
X80426620Y-128061251D01*
X80625300Y-128121520D01*
X80625303Y-128121521D01*
X80808403Y-128219390D01*
X80968897Y-128351103D01*
X81100610Y-128511597D01*
X81198479Y-128694697D01*
X81198480Y-128694700D01*
X81258749Y-128893380D01*
X81279099Y-129100000D01*
X81258749Y-129306620D01*
X81198480Y-129505300D01*
X81198479Y-129505303D01*
X81100610Y-129688403D01*
X80968897Y-129848897D01*
X80808403Y-129980610D01*
X80625303Y-130078479D01*
X80625300Y-130078480D01*
X80426620Y-130138749D01*
X80323388Y-130148916D01*
X80271773Y-130154000D01*
X80168227Y-130154000D01*
X80116612Y-130148916D01*
X80013380Y-130138749D01*
X79814700Y-130078480D01*
X79814697Y-130078479D01*
X79631597Y-129980610D01*
X79471103Y-129848897D01*
X79339390Y-129688403D01*
X79241521Y-129505303D01*
X79241520Y-129505300D01*
X79181251Y-129306620D01*
X79160901Y-129100000D01*
X79181251Y-128893380D01*
X79241520Y-128694700D01*
X79241521Y-128694697D01*
X79339390Y-128511597D01*
X79471103Y-128351103D01*
X79631597Y-128219390D01*
X79814697Y-128121521D01*
X79814700Y-128121520D01*
X80013380Y-128061251D01*
X80116612Y-128051084D01*
X80168227Y-128046000D01*
X80271773Y-128046000D01*
X80323388Y-128051084D01*
X80323388Y-128051084D01*
G37*
G36*
X77783388Y-128051084D02*
G01*
X77886620Y-128061251D01*
X78085300Y-128121520D01*
X78085303Y-128121521D01*
X78268403Y-128219390D01*
X78428897Y-128351103D01*
X78560610Y-128511597D01*
X78658479Y-128694697D01*
X78658480Y-128694700D01*
X78718749Y-128893380D01*
X78739099Y-129100000D01*
X78718749Y-129306620D01*
X78658480Y-129505300D01*
X78658479Y-129505303D01*
X78560610Y-129688403D01*
X78428897Y-129848897D01*
X78268403Y-129980610D01*
X78085303Y-130078479D01*
X78085300Y-130078480D01*
X77886620Y-130138749D01*
X77783388Y-130148916D01*
X77731773Y-130154000D01*
X77628227Y-130154000D01*
X77576612Y-130148916D01*
X77473380Y-130138749D01*
X77274700Y-130078480D01*
X77274697Y-130078479D01*
X77091597Y-129980610D01*
X76931103Y-129848897D01*
X76799390Y-129688403D01*
X76701521Y-129505303D01*
X76701520Y-129505300D01*
X76641251Y-129306620D01*
X76620901Y-129100000D01*
X76641251Y-128893380D01*
X76701520Y-128694700D01*
X76701521Y-128694697D01*
X76799390Y-128511597D01*
X76931103Y-128351103D01*
X77091597Y-128219390D01*
X77274697Y-128121521D01*
X77274700Y-128121520D01*
X77473380Y-128061251D01*
X77576612Y-128051084D01*
X77628227Y-128046000D01*
X77731773Y-128046000D01*
X77783388Y-128051084D01*
X77783388Y-128051084D01*
G37*
G36*
X62543388Y-128051084D02*
G01*
X62646620Y-128061251D01*
X62845300Y-128121520D01*
X62845303Y-128121521D01*
X63028403Y-128219390D01*
X63188897Y-128351103D01*
X63320610Y-128511597D01*
X63418479Y-128694697D01*
X63418480Y-128694700D01*
X63478749Y-128893380D01*
X63499099Y-129100000D01*
X63478749Y-129306620D01*
X63418480Y-129505300D01*
X63418479Y-129505303D01*
X63320610Y-129688403D01*
X63188897Y-129848897D01*
X63028403Y-129980610D01*
X62845303Y-130078479D01*
X62845300Y-130078480D01*
X62646620Y-130138749D01*
X62543388Y-130148916D01*
X62491773Y-130154000D01*
X62388227Y-130154000D01*
X62336612Y-130148916D01*
X62233380Y-130138749D01*
X62034700Y-130078480D01*
X62034697Y-130078479D01*
X61851597Y-129980610D01*
X61691103Y-129848897D01*
X61559390Y-129688403D01*
X61461521Y-129505303D01*
X61461520Y-129505300D01*
X61401251Y-129306620D01*
X61380901Y-129100000D01*
X61401251Y-128893380D01*
X61461520Y-128694700D01*
X61461521Y-128694697D01*
X61559390Y-128511597D01*
X61691103Y-128351103D01*
X61851597Y-128219390D01*
X62034697Y-128121521D01*
X62034700Y-128121520D01*
X62233380Y-128061251D01*
X62336612Y-128051084D01*
X62388227Y-128046000D01*
X62491773Y-128046000D01*
X62543388Y-128051084D01*
X62543388Y-128051084D01*
G37*
G36*
X70163388Y-128051084D02*
G01*
X70266620Y-128061251D01*
X70465300Y-128121520D01*
X70465303Y-128121521D01*
X70648403Y-128219390D01*
X70808897Y-128351103D01*
X70940610Y-128511597D01*
X71038479Y-128694697D01*
X71038480Y-128694700D01*
X71098749Y-128893380D01*
X71119099Y-129100000D01*
X71098749Y-129306620D01*
X71038480Y-129505300D01*
X71038479Y-129505303D01*
X70940610Y-129688403D01*
X70808897Y-129848897D01*
X70648403Y-129980610D01*
X70465303Y-130078479D01*
X70465300Y-130078480D01*
X70266620Y-130138749D01*
X70163388Y-130148916D01*
X70111773Y-130154000D01*
X70008227Y-130154000D01*
X69956612Y-130148916D01*
X69853380Y-130138749D01*
X69654700Y-130078480D01*
X69654697Y-130078479D01*
X69471597Y-129980610D01*
X69311103Y-129848897D01*
X69179390Y-129688403D01*
X69081521Y-129505303D01*
X69081520Y-129505300D01*
X69021251Y-129306620D01*
X69000901Y-129100000D01*
X69021251Y-128893380D01*
X69081520Y-128694700D01*
X69081521Y-128694697D01*
X69179390Y-128511597D01*
X69311103Y-128351103D01*
X69471597Y-128219390D01*
X69654697Y-128121521D01*
X69654700Y-128121520D01*
X69853380Y-128061251D01*
X69956612Y-128051084D01*
X70008227Y-128046000D01*
X70111773Y-128046000D01*
X70163388Y-128051084D01*
X70163388Y-128051084D01*
G37*
G36*
X87943388Y-128051084D02*
G01*
X88046620Y-128061251D01*
X88245300Y-128121520D01*
X88245303Y-128121521D01*
X88428403Y-128219390D01*
X88588897Y-128351103D01*
X88720610Y-128511597D01*
X88818479Y-128694697D01*
X88818480Y-128694700D01*
X88878749Y-128893380D01*
X88899099Y-129100000D01*
X88878749Y-129306620D01*
X88818480Y-129505300D01*
X88818479Y-129505303D01*
X88720610Y-129688403D01*
X88588897Y-129848897D01*
X88428403Y-129980610D01*
X88245303Y-130078479D01*
X88245300Y-130078480D01*
X88046620Y-130138749D01*
X87943388Y-130148916D01*
X87891773Y-130154000D01*
X87788227Y-130154000D01*
X87736612Y-130148916D01*
X87633380Y-130138749D01*
X87434700Y-130078480D01*
X87434697Y-130078479D01*
X87251597Y-129980610D01*
X87091103Y-129848897D01*
X86959390Y-129688403D01*
X86861521Y-129505303D01*
X86861520Y-129505300D01*
X86801251Y-129306620D01*
X86780901Y-129100000D01*
X86801251Y-128893380D01*
X86861520Y-128694700D01*
X86861521Y-128694697D01*
X86959390Y-128511597D01*
X87091103Y-128351103D01*
X87251597Y-128219390D01*
X87434697Y-128121521D01*
X87434700Y-128121520D01*
X87633380Y-128061251D01*
X87736612Y-128051084D01*
X87788227Y-128046000D01*
X87891773Y-128046000D01*
X87943388Y-128051084D01*
X87943388Y-128051084D01*
G37*
G36*
X72703388Y-128051084D02*
G01*
X72806620Y-128061251D01*
X73005300Y-128121520D01*
X73005303Y-128121521D01*
X73188403Y-128219390D01*
X73348897Y-128351103D01*
X73480610Y-128511597D01*
X73578479Y-128694697D01*
X73578480Y-128694700D01*
X73638749Y-128893380D01*
X73659099Y-129100000D01*
X73638749Y-129306620D01*
X73578480Y-129505300D01*
X73578479Y-129505303D01*
X73480610Y-129688403D01*
X73348897Y-129848897D01*
X73188403Y-129980610D01*
X73005303Y-130078479D01*
X73005300Y-130078480D01*
X72806620Y-130138749D01*
X72703388Y-130148916D01*
X72651773Y-130154000D01*
X72548227Y-130154000D01*
X72496612Y-130148916D01*
X72393380Y-130138749D01*
X72194700Y-130078480D01*
X72194697Y-130078479D01*
X72011597Y-129980610D01*
X71851103Y-129848897D01*
X71719390Y-129688403D01*
X71621521Y-129505303D01*
X71621520Y-129505300D01*
X71561251Y-129306620D01*
X71540901Y-129100000D01*
X71561251Y-128893380D01*
X71621520Y-128694700D01*
X71621521Y-128694697D01*
X71719390Y-128511597D01*
X71851103Y-128351103D01*
X72011597Y-128219390D01*
X72194697Y-128121521D01*
X72194700Y-128121520D01*
X72393380Y-128061251D01*
X72496612Y-128051084D01*
X72548227Y-128046000D01*
X72651773Y-128046000D01*
X72703388Y-128051084D01*
X72703388Y-128051084D01*
G37*
G36*
X75243388Y-128051084D02*
G01*
X75346620Y-128061251D01*
X75545300Y-128121520D01*
X75545303Y-128121521D01*
X75728403Y-128219390D01*
X75888897Y-128351103D01*
X76020610Y-128511597D01*
X76118479Y-128694697D01*
X76118480Y-128694700D01*
X76178749Y-128893380D01*
X76199099Y-129100000D01*
X76178749Y-129306620D01*
X76118480Y-129505300D01*
X76118479Y-129505303D01*
X76020610Y-129688403D01*
X75888897Y-129848897D01*
X75728403Y-129980610D01*
X75545303Y-130078479D01*
X75545300Y-130078480D01*
X75346620Y-130138749D01*
X75243388Y-130148916D01*
X75191773Y-130154000D01*
X75088227Y-130154000D01*
X75036612Y-130148916D01*
X74933380Y-130138749D01*
X74734700Y-130078480D01*
X74734697Y-130078479D01*
X74551597Y-129980610D01*
X74391103Y-129848897D01*
X74259390Y-129688403D01*
X74161521Y-129505303D01*
X74161520Y-129505300D01*
X74101251Y-129306620D01*
X74080901Y-129100000D01*
X74101251Y-128893380D01*
X74161520Y-128694700D01*
X74161521Y-128694697D01*
X74259390Y-128511597D01*
X74391103Y-128351103D01*
X74551597Y-128219390D01*
X74734697Y-128121521D01*
X74734700Y-128121520D01*
X74933380Y-128061251D01*
X75036612Y-128051084D01*
X75088227Y-128046000D01*
X75191773Y-128046000D01*
X75243388Y-128051084D01*
X75243388Y-128051084D01*
G37*
G36*
X65083388Y-128051084D02*
G01*
X65186620Y-128061251D01*
X65385300Y-128121520D01*
X65385303Y-128121521D01*
X65568403Y-128219390D01*
X65728897Y-128351103D01*
X65860610Y-128511597D01*
X65958479Y-128694697D01*
X65958480Y-128694700D01*
X66018749Y-128893380D01*
X66039099Y-129100000D01*
X66018749Y-129306620D01*
X65958480Y-129505300D01*
X65958479Y-129505303D01*
X65860610Y-129688403D01*
X65728897Y-129848897D01*
X65568403Y-129980610D01*
X65385303Y-130078479D01*
X65385300Y-130078480D01*
X65186620Y-130138749D01*
X65083388Y-130148916D01*
X65031773Y-130154000D01*
X64928227Y-130154000D01*
X64876612Y-130148916D01*
X64773380Y-130138749D01*
X64574700Y-130078480D01*
X64574697Y-130078479D01*
X64391597Y-129980610D01*
X64231103Y-129848897D01*
X64099390Y-129688403D01*
X64001521Y-129505303D01*
X64001520Y-129505300D01*
X63941251Y-129306620D01*
X63920901Y-129100000D01*
X63941251Y-128893380D01*
X64001520Y-128694700D01*
X64001521Y-128694697D01*
X64099390Y-128511597D01*
X64231103Y-128351103D01*
X64391597Y-128219390D01*
X64574697Y-128121521D01*
X64574700Y-128121520D01*
X64773380Y-128061251D01*
X64876612Y-128051084D01*
X64928227Y-128046000D01*
X65031773Y-128046000D01*
X65083388Y-128051084D01*
X65083388Y-128051084D01*
G37*
G36*
X67623388Y-128051084D02*
G01*
X67726620Y-128061251D01*
X67925300Y-128121520D01*
X67925303Y-128121521D01*
X68108403Y-128219390D01*
X68268897Y-128351103D01*
X68400610Y-128511597D01*
X68498479Y-128694697D01*
X68498480Y-128694700D01*
X68558749Y-128893380D01*
X68579099Y-129100000D01*
X68558749Y-129306620D01*
X68498480Y-129505300D01*
X68498479Y-129505303D01*
X68400610Y-129688403D01*
X68268897Y-129848897D01*
X68108403Y-129980610D01*
X67925303Y-130078479D01*
X67925300Y-130078480D01*
X67726620Y-130138749D01*
X67623388Y-130148916D01*
X67571773Y-130154000D01*
X67468227Y-130154000D01*
X67416612Y-130148916D01*
X67313380Y-130138749D01*
X67114700Y-130078480D01*
X67114697Y-130078479D01*
X66931597Y-129980610D01*
X66771103Y-129848897D01*
X66639390Y-129688403D01*
X66541521Y-129505303D01*
X66541520Y-129505300D01*
X66481251Y-129306620D01*
X66460901Y-129100000D01*
X66481251Y-128893380D01*
X66541520Y-128694700D01*
X66541521Y-128694697D01*
X66639390Y-128511597D01*
X66771103Y-128351103D01*
X66931597Y-128219390D01*
X67114697Y-128121521D01*
X67114700Y-128121520D01*
X67313380Y-128061251D01*
X67416612Y-128051084D01*
X67468227Y-128046000D01*
X67571773Y-128046000D01*
X67623388Y-128051084D01*
X67623388Y-128051084D01*
G37*
G36*
X56254000Y-121514000D02*
G01*
X52746000Y-121514000D01*
X52746000Y-118006000D01*
X56254000Y-118006000D01*
X56254000Y-121514000D01*
X56254000Y-121514000D01*
G37*
G36*
X90311623Y-118053405D02*
G01*
X90630831Y-118185625D01*
X90918110Y-118377579D01*
X91162421Y-118621890D01*
X91354375Y-118909169D01*
X91486595Y-119228377D01*
X91554000Y-119567246D01*
X91554000Y-119912754D01*
X91486595Y-120251623D01*
X91354375Y-120570831D01*
X91162421Y-120858110D01*
X90918110Y-121102421D01*
X90630831Y-121294375D01*
X90630830Y-121294376D01*
X90630829Y-121294376D01*
X90311623Y-121426595D01*
X89972755Y-121494000D01*
X89627245Y-121494000D01*
X89288377Y-121426595D01*
X88969171Y-121294376D01*
X88969170Y-121294376D01*
X88969169Y-121294375D01*
X88681890Y-121102421D01*
X88437579Y-120858110D01*
X88245625Y-120570831D01*
X88113405Y-120251623D01*
X88046000Y-119912754D01*
X88046000Y-119567246D01*
X88113405Y-119228377D01*
X88245625Y-118909169D01*
X88437579Y-118621890D01*
X88681890Y-118377579D01*
X88969169Y-118185625D01*
X89288377Y-118053405D01*
X89627245Y-117986000D01*
X89972755Y-117986000D01*
X90311623Y-118053405D01*
X90311623Y-118053405D01*
G37*
G36*
X55011623Y-112993405D02*
G01*
X55282545Y-113105624D01*
X55330831Y-113125625D01*
X55618110Y-113317579D01*
X55862421Y-113561890D01*
X56054375Y-113849169D01*
X56186595Y-114168377D01*
X56254000Y-114507246D01*
X56254000Y-114852754D01*
X56186595Y-115191623D01*
X56054375Y-115510831D01*
X55862421Y-115798110D01*
X55618110Y-116042421D01*
X55330831Y-116234375D01*
X55330830Y-116234376D01*
X55330829Y-116234376D01*
X55011623Y-116366595D01*
X54672755Y-116434000D01*
X54327245Y-116434000D01*
X53988377Y-116366595D01*
X53669171Y-116234376D01*
X53669170Y-116234376D01*
X53669169Y-116234375D01*
X53381890Y-116042421D01*
X53137579Y-115798110D01*
X52945625Y-115510831D01*
X52813405Y-115191623D01*
X52746000Y-114852754D01*
X52746000Y-114507246D01*
X52813405Y-114168377D01*
X52945625Y-113849169D01*
X53137579Y-113561890D01*
X53381890Y-113317579D01*
X53669169Y-113125625D01*
X53717456Y-113105624D01*
X53988377Y-112993405D01*
X54327245Y-112926000D01*
X54672755Y-112926000D01*
X55011623Y-112993405D01*
X55011623Y-112993405D01*
G37*
G36*
X90302740Y-112971638D02*
G01*
X90311623Y-112973405D01*
X90630831Y-113105625D01*
X90918110Y-113297579D01*
X91162421Y-113541890D01*
X91349817Y-113822348D01*
X91354376Y-113829171D01*
X91486595Y-114148377D01*
X91554000Y-114487246D01*
X91554000Y-114832754D01*
X91486595Y-115171623D01*
X91354375Y-115490831D01*
X91162421Y-115778110D01*
X90918110Y-116022421D01*
X90630831Y-116214375D01*
X90630830Y-116214376D01*
X90630829Y-116214376D01*
X90311623Y-116346595D01*
X89972755Y-116414000D01*
X89627245Y-116414000D01*
X89288377Y-116346595D01*
X88969171Y-116214376D01*
X88969170Y-116214376D01*
X88969169Y-116214375D01*
X88681890Y-116022421D01*
X88437579Y-115778110D01*
X88245625Y-115490831D01*
X88113405Y-115171623D01*
X88046000Y-114832754D01*
X88046000Y-114487246D01*
X88113405Y-114148377D01*
X88245624Y-113829171D01*
X88250183Y-113822348D01*
X88437579Y-113541890D01*
X88681890Y-113297579D01*
X88969169Y-113105625D01*
X89288377Y-112973405D01*
X89297260Y-112971638D01*
X89627245Y-112906000D01*
X89972755Y-112906000D01*
X90302740Y-112971638D01*
X90302740Y-112971638D01*
G37*
G36*
X71081230Y-108945714D02*
G01*
X71121354Y-108957886D01*
X71158333Y-108977652D01*
X71190747Y-109004253D01*
X71217348Y-109036667D01*
X71237114Y-109073646D01*
X71249286Y-109113770D01*
X71254000Y-109161638D01*
X71254000Y-109828362D01*
X71249286Y-109876230D01*
X71237114Y-109916354D01*
X71217348Y-109953333D01*
X71190747Y-109985747D01*
X71158335Y-110012347D01*
X71144464Y-110019761D01*
X71124090Y-110033375D01*
X71106763Y-110050702D01*
X71093149Y-110071076D01*
X71083772Y-110093715D01*
X71078992Y-110117749D01*
X71078992Y-110142253D01*
X71083773Y-110166286D01*
X71093150Y-110188925D01*
X71106764Y-110209299D01*
X71124091Y-110226626D01*
X71144464Y-110240239D01*
X71158335Y-110247653D01*
X71190747Y-110274253D01*
X71217348Y-110306667D01*
X71237114Y-110343646D01*
X71249286Y-110383770D01*
X71254000Y-110431638D01*
X71254000Y-111098362D01*
X71249286Y-111146230D01*
X71237114Y-111186354D01*
X71217348Y-111223333D01*
X71190747Y-111255747D01*
X71158335Y-111282347D01*
X71144464Y-111289761D01*
X71124090Y-111303375D01*
X71106763Y-111320702D01*
X71093149Y-111341076D01*
X71083772Y-111363715D01*
X71078992Y-111387749D01*
X71078992Y-111412253D01*
X71083773Y-111436286D01*
X71093150Y-111458925D01*
X71106764Y-111479299D01*
X71124091Y-111496626D01*
X71144464Y-111510239D01*
X71158335Y-111517653D01*
X71190747Y-111544253D01*
X71217348Y-111576667D01*
X71237114Y-111613646D01*
X71249286Y-111653770D01*
X71254000Y-111701638D01*
X71254000Y-112368362D01*
X71249286Y-112416230D01*
X71237114Y-112456354D01*
X71217348Y-112493333D01*
X71190747Y-112525747D01*
X71158335Y-112552347D01*
X71144464Y-112559761D01*
X71124090Y-112573375D01*
X71106763Y-112590702D01*
X71093149Y-112611076D01*
X71083772Y-112633715D01*
X71078992Y-112657749D01*
X71078992Y-112682253D01*
X71083773Y-112706286D01*
X71093150Y-112728925D01*
X71106764Y-112749299D01*
X71124091Y-112766626D01*
X71144464Y-112780239D01*
X71158335Y-112787653D01*
X71190747Y-112814253D01*
X71217348Y-112846667D01*
X71237114Y-112883646D01*
X71249286Y-112923770D01*
X71254000Y-112971638D01*
X71254000Y-113638362D01*
X71249286Y-113686230D01*
X71237114Y-113726354D01*
X71217348Y-113763333D01*
X71190747Y-113795747D01*
X71158333Y-113822348D01*
X71121354Y-113842114D01*
X71081230Y-113854286D01*
X71033362Y-113859000D01*
X69016638Y-113859000D01*
X68968770Y-113854286D01*
X68928646Y-113842114D01*
X68891667Y-113822348D01*
X68859253Y-113795747D01*
X68832652Y-113763333D01*
X68812886Y-113726354D01*
X68800714Y-113686230D01*
X68796000Y-113638362D01*
X68796000Y-112971638D01*
X68800714Y-112923770D01*
X68812886Y-112883646D01*
X68832652Y-112846667D01*
X68859253Y-112814253D01*
X68891665Y-112787653D01*
X68905536Y-112780239D01*
X68925910Y-112766625D01*
X68943237Y-112749298D01*
X68956851Y-112728924D01*
X68966228Y-112706285D01*
X68971008Y-112682251D01*
X68971008Y-112657747D01*
X68966227Y-112633714D01*
X68956850Y-112611075D01*
X68943236Y-112590701D01*
X68925909Y-112573374D01*
X68905536Y-112559761D01*
X68891665Y-112552347D01*
X68859253Y-112525747D01*
X68832652Y-112493333D01*
X68812886Y-112456354D01*
X68800714Y-112416230D01*
X68796000Y-112368362D01*
X68796000Y-111701638D01*
X68800714Y-111653770D01*
X68812886Y-111613646D01*
X68832652Y-111576667D01*
X68859253Y-111544253D01*
X68891665Y-111517653D01*
X68905536Y-111510239D01*
X68925910Y-111496625D01*
X68943237Y-111479298D01*
X68956851Y-111458924D01*
X68966228Y-111436285D01*
X68971008Y-111412251D01*
X68971008Y-111387747D01*
X68966227Y-111363714D01*
X68956850Y-111341075D01*
X68943236Y-111320701D01*
X68925909Y-111303374D01*
X68905536Y-111289761D01*
X68891665Y-111282347D01*
X68859253Y-111255747D01*
X68832652Y-111223333D01*
X68812886Y-111186354D01*
X68800714Y-111146230D01*
X68796000Y-111098362D01*
X68796000Y-110431638D01*
X68800714Y-110383770D01*
X68812886Y-110343646D01*
X68832652Y-110306667D01*
X68859253Y-110274253D01*
X68891665Y-110247653D01*
X68905536Y-110240239D01*
X68925910Y-110226625D01*
X68943237Y-110209298D01*
X68956851Y-110188924D01*
X68966228Y-110166285D01*
X68971008Y-110142251D01*
X68971008Y-110117747D01*
X68966227Y-110093714D01*
X68956850Y-110071075D01*
X68943236Y-110050701D01*
X68925909Y-110033374D01*
X68905536Y-110019761D01*
X68891665Y-110012347D01*
X68859253Y-109985747D01*
X68832652Y-109953333D01*
X68812886Y-109916354D01*
X68800714Y-109876230D01*
X68796000Y-109828362D01*
X68796000Y-109161638D01*
X68800714Y-109113770D01*
X68812886Y-109073646D01*
X68832652Y-109036667D01*
X68859253Y-109004253D01*
X68891667Y-108977652D01*
X68928646Y-108957886D01*
X68968770Y-108945714D01*
X69016638Y-108941000D01*
X71033362Y-108941000D01*
X71081230Y-108945714D01*
X71081230Y-108945714D01*
G37*
G36*
X76031230Y-108945714D02*
G01*
X76071354Y-108957886D01*
X76108333Y-108977652D01*
X76140747Y-109004253D01*
X76167348Y-109036667D01*
X76187114Y-109073646D01*
X76199286Y-109113770D01*
X76204000Y-109161638D01*
X76204000Y-109828362D01*
X76199286Y-109876230D01*
X76187114Y-109916354D01*
X76167348Y-109953333D01*
X76140747Y-109985747D01*
X76108335Y-110012347D01*
X76094464Y-110019761D01*
X76074090Y-110033375D01*
X76056763Y-110050702D01*
X76043149Y-110071076D01*
X76033772Y-110093715D01*
X76028992Y-110117749D01*
X76028992Y-110142253D01*
X76033773Y-110166286D01*
X76043150Y-110188925D01*
X76056764Y-110209299D01*
X76074091Y-110226626D01*
X76094464Y-110240239D01*
X76108335Y-110247653D01*
X76140747Y-110274253D01*
X76167348Y-110306667D01*
X76187114Y-110343646D01*
X76199286Y-110383770D01*
X76204000Y-110431638D01*
X76204000Y-111098362D01*
X76199286Y-111146230D01*
X76187114Y-111186354D01*
X76167348Y-111223333D01*
X76140747Y-111255747D01*
X76108335Y-111282347D01*
X76094464Y-111289761D01*
X76074090Y-111303375D01*
X76056763Y-111320702D01*
X76043149Y-111341076D01*
X76033772Y-111363715D01*
X76028992Y-111387749D01*
X76028992Y-111412253D01*
X76033773Y-111436286D01*
X76043150Y-111458925D01*
X76056764Y-111479299D01*
X76074091Y-111496626D01*
X76094464Y-111510239D01*
X76108335Y-111517653D01*
X76140747Y-111544253D01*
X76167348Y-111576667D01*
X76187114Y-111613646D01*
X76199286Y-111653770D01*
X76204000Y-111701638D01*
X76204000Y-112368362D01*
X76199286Y-112416230D01*
X76187114Y-112456354D01*
X76167348Y-112493333D01*
X76140747Y-112525747D01*
X76108335Y-112552347D01*
X76094464Y-112559761D01*
X76074090Y-112573375D01*
X76056763Y-112590702D01*
X76043149Y-112611076D01*
X76033772Y-112633715D01*
X76028992Y-112657749D01*
X76028992Y-112682253D01*
X76033773Y-112706286D01*
X76043150Y-112728925D01*
X76056764Y-112749299D01*
X76074091Y-112766626D01*
X76094464Y-112780239D01*
X76108335Y-112787653D01*
X76140747Y-112814253D01*
X76167348Y-112846667D01*
X76187114Y-112883646D01*
X76199286Y-112923770D01*
X76204000Y-112971638D01*
X76204000Y-113638362D01*
X76199286Y-113686230D01*
X76187114Y-113726354D01*
X76167348Y-113763333D01*
X76140747Y-113795747D01*
X76108333Y-113822348D01*
X76071354Y-113842114D01*
X76031230Y-113854286D01*
X75983362Y-113859000D01*
X73966638Y-113859000D01*
X73918770Y-113854286D01*
X73878646Y-113842114D01*
X73841667Y-113822348D01*
X73809253Y-113795747D01*
X73782652Y-113763333D01*
X73762886Y-113726354D01*
X73750714Y-113686230D01*
X73746000Y-113638362D01*
X73746000Y-112971638D01*
X73750714Y-112923770D01*
X73762886Y-112883646D01*
X73782652Y-112846667D01*
X73809253Y-112814253D01*
X73841665Y-112787653D01*
X73855536Y-112780239D01*
X73875910Y-112766625D01*
X73893237Y-112749298D01*
X73906851Y-112728924D01*
X73916228Y-112706285D01*
X73921008Y-112682251D01*
X73921008Y-112657747D01*
X73916227Y-112633714D01*
X73906850Y-112611075D01*
X73893236Y-112590701D01*
X73875909Y-112573374D01*
X73855536Y-112559761D01*
X73841665Y-112552347D01*
X73809253Y-112525747D01*
X73782652Y-112493333D01*
X73762886Y-112456354D01*
X73750714Y-112416230D01*
X73746000Y-112368362D01*
X73746000Y-111701638D01*
X73750714Y-111653770D01*
X73762886Y-111613646D01*
X73782652Y-111576667D01*
X73809253Y-111544253D01*
X73841665Y-111517653D01*
X73855536Y-111510239D01*
X73875910Y-111496625D01*
X73893237Y-111479298D01*
X73906851Y-111458924D01*
X73916228Y-111436285D01*
X73921008Y-111412251D01*
X73921008Y-111387747D01*
X73916227Y-111363714D01*
X73906850Y-111341075D01*
X73893236Y-111320701D01*
X73875909Y-111303374D01*
X73855536Y-111289761D01*
X73841665Y-111282347D01*
X73809253Y-111255747D01*
X73782652Y-111223333D01*
X73762886Y-111186354D01*
X73750714Y-111146230D01*
X73746000Y-111098362D01*
X73746000Y-110431638D01*
X73750714Y-110383770D01*
X73762886Y-110343646D01*
X73782652Y-110306667D01*
X73809253Y-110274253D01*
X73841665Y-110247653D01*
X73855536Y-110240239D01*
X73875910Y-110226625D01*
X73893237Y-110209298D01*
X73906851Y-110188924D01*
X73916228Y-110166285D01*
X73921008Y-110142251D01*
X73921008Y-110117747D01*
X73916227Y-110093714D01*
X73906850Y-110071075D01*
X73893236Y-110050701D01*
X73875909Y-110033374D01*
X73855536Y-110019761D01*
X73841665Y-110012347D01*
X73809253Y-109985747D01*
X73782652Y-109953333D01*
X73762886Y-109916354D01*
X73750714Y-109876230D01*
X73746000Y-109828362D01*
X73746000Y-109161638D01*
X73750714Y-109113770D01*
X73762886Y-109073646D01*
X73782652Y-109036667D01*
X73809253Y-109004253D01*
X73841667Y-108977652D01*
X73878646Y-108957886D01*
X73918770Y-108945714D01*
X73966638Y-108941000D01*
X75983362Y-108941000D01*
X76031230Y-108945714D01*
X76031230Y-108945714D01*
G37*
G36*
X55011623Y-107913405D02*
G01*
X55282545Y-108025624D01*
X55330831Y-108045625D01*
X55618110Y-108237579D01*
X55862421Y-108481890D01*
X56054375Y-108769169D01*
X56054376Y-108769171D01*
X56186595Y-109088377D01*
X56254000Y-109427245D01*
X56254000Y-109772755D01*
X56186595Y-110111623D01*
X56173909Y-110142251D01*
X56054375Y-110430831D01*
X55862421Y-110718110D01*
X55618110Y-110962421D01*
X55330831Y-111154375D01*
X55330830Y-111154376D01*
X55330829Y-111154376D01*
X55011623Y-111286595D01*
X54672755Y-111354000D01*
X54327245Y-111354000D01*
X53988377Y-111286595D01*
X53669171Y-111154376D01*
X53669170Y-111154376D01*
X53669169Y-111154375D01*
X53381890Y-110962421D01*
X53137579Y-110718110D01*
X52945625Y-110430831D01*
X52826092Y-110142251D01*
X52813405Y-110111623D01*
X52746000Y-109772755D01*
X52746000Y-109427245D01*
X52813405Y-109088377D01*
X52945624Y-108769171D01*
X52945625Y-108769169D01*
X53137579Y-108481890D01*
X53381890Y-108237579D01*
X53669169Y-108045625D01*
X53717456Y-108025624D01*
X53988377Y-107913405D01*
X54327245Y-107846000D01*
X54672755Y-107846000D01*
X55011623Y-107913405D01*
X55011623Y-107913405D01*
G37*
G36*
X90311623Y-107893405D02*
G01*
X90630831Y-108025625D01*
X90918110Y-108217579D01*
X91162421Y-108461890D01*
X91175786Y-108481892D01*
X91354376Y-108749171D01*
X91486595Y-109068377D01*
X91554000Y-109407245D01*
X91554000Y-109752755D01*
X91486595Y-110091623D01*
X91366319Y-110381997D01*
X91354375Y-110410831D01*
X91162421Y-110698110D01*
X90918110Y-110942421D01*
X90630831Y-111134375D01*
X90630830Y-111134376D01*
X90630829Y-111134376D01*
X90311623Y-111266595D01*
X89972755Y-111334000D01*
X89627245Y-111334000D01*
X89288377Y-111266595D01*
X88969171Y-111134376D01*
X88969170Y-111134376D01*
X88969169Y-111134375D01*
X88681890Y-110942421D01*
X88437579Y-110698110D01*
X88245625Y-110410831D01*
X88233682Y-110381997D01*
X88113405Y-110091623D01*
X88046000Y-109752755D01*
X88046000Y-109407245D01*
X88113405Y-109068377D01*
X88245624Y-108749171D01*
X88424214Y-108481892D01*
X88437579Y-108461890D01*
X88681890Y-108217579D01*
X88969169Y-108025625D01*
X89288377Y-107893405D01*
X89627245Y-107826000D01*
X89972755Y-107826000D01*
X90311623Y-107893405D01*
X90311623Y-107893405D01*
G37*
G36*
X55011623Y-102833405D02*
G01*
X55330831Y-102965625D01*
X55618110Y-103157579D01*
X55862421Y-103401890D01*
X56054375Y-103689169D01*
X56186595Y-104008377D01*
X56254000Y-104347246D01*
X56254000Y-104692754D01*
X56186595Y-105031623D01*
X56054375Y-105350831D01*
X55862421Y-105638110D01*
X55618110Y-105882421D01*
X55330831Y-106074375D01*
X55330830Y-106074376D01*
X55330829Y-106074376D01*
X55011623Y-106206595D01*
X54672755Y-106274000D01*
X54327245Y-106274000D01*
X53988377Y-106206595D01*
X53669171Y-106074376D01*
X53669170Y-106074376D01*
X53669169Y-106074375D01*
X53381890Y-105882421D01*
X53137579Y-105638110D01*
X52945625Y-105350831D01*
X52813405Y-105031623D01*
X52746000Y-104692754D01*
X52746000Y-104347246D01*
X52813405Y-104008377D01*
X52945625Y-103689169D01*
X53137579Y-103401890D01*
X53381890Y-103157579D01*
X53669169Y-102965625D01*
X53988377Y-102833405D01*
X54327245Y-102766000D01*
X54672755Y-102766000D01*
X55011623Y-102833405D01*
X55011623Y-102833405D01*
G37*
G36*
X91554000Y-106254000D02*
G01*
X88046000Y-106254000D01*
X88046000Y-102746000D01*
X91554000Y-102746000D01*
X91554000Y-106254000D01*
X91554000Y-106254000D01*
G37*
G36*
X90311623Y-95353405D02*
G01*
X90630831Y-95485625D01*
X90918110Y-95677579D01*
X91162421Y-95921890D01*
X91354375Y-96209169D01*
X91486595Y-96528377D01*
X91554000Y-96867246D01*
X91554000Y-97212754D01*
X91486595Y-97551623D01*
X91354375Y-97870831D01*
X91162421Y-98158110D01*
X90918110Y-98402421D01*
X90630831Y-98594375D01*
X90630830Y-98594376D01*
X90630829Y-98594376D01*
X90311623Y-98726595D01*
X89972755Y-98794000D01*
X89627245Y-98794000D01*
X89288377Y-98726595D01*
X88969171Y-98594376D01*
X88969170Y-98594376D01*
X88969169Y-98594375D01*
X88681890Y-98402421D01*
X88437579Y-98158110D01*
X88245625Y-97870831D01*
X88113405Y-97551623D01*
X88046000Y-97212754D01*
X88046000Y-96867246D01*
X88113405Y-96528377D01*
X88245625Y-96209169D01*
X88437579Y-95921890D01*
X88681890Y-95677579D01*
X88969169Y-95485625D01*
X89288377Y-95353405D01*
X89627245Y-95286000D01*
X89972755Y-95286000D01*
X90311623Y-95353405D01*
X90311623Y-95353405D01*
G37*
G36*
X56254000Y-98654000D02*
G01*
X52746000Y-98654000D01*
X52746000Y-95146000D01*
X56254000Y-95146000D01*
X56254000Y-98654000D01*
X56254000Y-98654000D01*
G37*
G36*
X90272505Y-90265624D02*
G01*
X90311623Y-90273405D01*
X90630831Y-90405625D01*
X90918110Y-90597579D01*
X91162421Y-90841890D01*
X91354375Y-91129169D01*
X91486595Y-91448377D01*
X91554000Y-91787246D01*
X91554000Y-92132754D01*
X91486595Y-92471623D01*
X91354375Y-92790831D01*
X91162421Y-93078110D01*
X90918110Y-93322421D01*
X90630831Y-93514375D01*
X90630830Y-93514376D01*
X90630829Y-93514376D01*
X90311623Y-93646595D01*
X89972755Y-93714000D01*
X89627245Y-93714000D01*
X89288377Y-93646595D01*
X88969171Y-93514376D01*
X88969170Y-93514376D01*
X88969169Y-93514375D01*
X88681890Y-93322421D01*
X88437579Y-93078110D01*
X88245625Y-92790831D01*
X88113405Y-92471623D01*
X88046000Y-92132754D01*
X88046000Y-91787246D01*
X88113405Y-91448377D01*
X88245625Y-91129169D01*
X88437579Y-90841890D01*
X88681890Y-90597579D01*
X88969169Y-90405625D01*
X89288377Y-90273405D01*
X89327495Y-90265624D01*
X89627245Y-90206000D01*
X89972755Y-90206000D01*
X90272505Y-90265624D01*
X90272505Y-90265624D01*
G37*
G36*
X55011623Y-90133405D02*
G01*
X55330831Y-90265625D01*
X55618110Y-90457579D01*
X55862421Y-90701890D01*
X56054375Y-90989169D01*
X56186595Y-91308377D01*
X56254000Y-91647246D01*
X56254000Y-91992754D01*
X56186595Y-92331623D01*
X56054375Y-92650831D01*
X55862421Y-92938110D01*
X55618110Y-93182421D01*
X55330831Y-93374375D01*
X55330830Y-93374376D01*
X55330829Y-93374376D01*
X55011623Y-93506595D01*
X54672755Y-93574000D01*
X54327245Y-93574000D01*
X53988377Y-93506595D01*
X53669171Y-93374376D01*
X53669170Y-93374376D01*
X53669169Y-93374375D01*
X53381890Y-93182421D01*
X53137579Y-92938110D01*
X52945625Y-92650831D01*
X52813405Y-92331623D01*
X52746000Y-91992754D01*
X52746000Y-91647246D01*
X52813405Y-91308377D01*
X52945625Y-90989169D01*
X53137579Y-90701890D01*
X53381890Y-90457579D01*
X53669169Y-90265625D01*
X53988377Y-90133405D01*
X54327245Y-90066000D01*
X54672755Y-90066000D01*
X55011623Y-90133405D01*
X55011623Y-90133405D01*
G37*
G36*
X90272505Y-85185624D02*
G01*
X90311623Y-85193405D01*
X90630831Y-85325625D01*
X90918110Y-85517579D01*
X91162421Y-85761890D01*
X91354375Y-86049169D01*
X91486595Y-86368377D01*
X91554000Y-86707246D01*
X91554000Y-87052754D01*
X91486595Y-87391623D01*
X91354375Y-87710831D01*
X91162421Y-87998110D01*
X90918110Y-88242421D01*
X90630831Y-88434375D01*
X90630830Y-88434376D01*
X90630829Y-88434376D01*
X90311623Y-88566595D01*
X89972755Y-88634000D01*
X89627245Y-88634000D01*
X89288377Y-88566595D01*
X88969171Y-88434376D01*
X88969170Y-88434376D01*
X88969169Y-88434375D01*
X88681890Y-88242421D01*
X88437579Y-87998110D01*
X88245625Y-87710831D01*
X88113405Y-87391623D01*
X88046000Y-87052754D01*
X88046000Y-86707246D01*
X88113405Y-86368377D01*
X88245625Y-86049169D01*
X88437579Y-85761890D01*
X88681890Y-85517579D01*
X88969169Y-85325625D01*
X89288377Y-85193405D01*
X89327495Y-85185624D01*
X89627245Y-85126000D01*
X89972755Y-85126000D01*
X90272505Y-85185624D01*
X90272505Y-85185624D01*
G37*
G36*
X55011623Y-85053405D02*
G01*
X55330831Y-85185625D01*
X55618110Y-85377579D01*
X55862421Y-85621890D01*
X56054375Y-85909169D01*
X56186595Y-86228377D01*
X56254000Y-86567246D01*
X56254000Y-86912754D01*
X56186595Y-87251623D01*
X56054375Y-87570831D01*
X55862421Y-87858110D01*
X55618110Y-88102421D01*
X55330831Y-88294375D01*
X55330830Y-88294376D01*
X55330829Y-88294376D01*
X55011623Y-88426595D01*
X54672755Y-88494000D01*
X54327245Y-88494000D01*
X53988377Y-88426595D01*
X53669171Y-88294376D01*
X53669170Y-88294376D01*
X53669169Y-88294375D01*
X53381890Y-88102421D01*
X53137579Y-87858110D01*
X52945625Y-87570831D01*
X52813405Y-87251623D01*
X52746000Y-86912754D01*
X52746000Y-86567246D01*
X52813405Y-86228377D01*
X52945625Y-85909169D01*
X53137579Y-85621890D01*
X53381890Y-85377579D01*
X53669169Y-85185625D01*
X53988377Y-85053405D01*
X54327245Y-84986000D01*
X54672755Y-84986000D01*
X55011623Y-85053405D01*
X55011623Y-85053405D01*
G37*
G36*
X91554000Y-83554000D02*
G01*
X88046000Y-83554000D01*
X88046000Y-80046000D01*
X91554000Y-80046000D01*
X91554000Y-83554000D01*
X91554000Y-83554000D01*
G37*
G36*
X55011623Y-79973405D02*
G01*
X55330831Y-80105625D01*
X55618110Y-80297579D01*
X55862421Y-80541890D01*
X56054375Y-80829169D01*
X56186595Y-81148377D01*
X56254000Y-81487246D01*
X56254000Y-81832754D01*
X56186595Y-82171623D01*
X56054375Y-82490831D01*
X55862421Y-82778110D01*
X55618110Y-83022421D01*
X55330831Y-83214375D01*
X55330830Y-83214376D01*
X55330829Y-83214376D01*
X55011623Y-83346595D01*
X54672755Y-83414000D01*
X54327245Y-83414000D01*
X53988377Y-83346595D01*
X53669171Y-83214376D01*
X53669170Y-83214376D01*
X53669169Y-83214375D01*
X53381890Y-83022421D01*
X53137579Y-82778110D01*
X52945625Y-82490831D01*
X52813405Y-82171623D01*
X52746000Y-81832754D01*
X52746000Y-81487246D01*
X52813405Y-81148377D01*
X52945625Y-80829169D01*
X53137579Y-80541890D01*
X53381890Y-80297579D01*
X53669169Y-80105625D01*
X53988377Y-79973405D01*
X54327245Y-79906000D01*
X54672755Y-79906000D01*
X55011623Y-79973405D01*
X55011623Y-79973405D01*
G37*
G36*
X71081230Y-67940714D02*
G01*
X71121354Y-67952886D01*
X71158333Y-67972652D01*
X71190747Y-67999253D01*
X71217348Y-68031667D01*
X71237114Y-68068646D01*
X71249286Y-68108770D01*
X71254000Y-68156638D01*
X71254000Y-68823362D01*
X71249286Y-68871230D01*
X71237114Y-68911354D01*
X71217348Y-68948333D01*
X71190747Y-68980747D01*
X71158335Y-69007347D01*
X71144464Y-69014761D01*
X71124090Y-69028375D01*
X71106763Y-69045702D01*
X71093149Y-69066076D01*
X71083772Y-69088715D01*
X71078992Y-69112749D01*
X71078992Y-69137253D01*
X71083773Y-69161286D01*
X71093150Y-69183925D01*
X71106764Y-69204299D01*
X71124091Y-69221626D01*
X71144464Y-69235239D01*
X71158335Y-69242653D01*
X71190747Y-69269253D01*
X71217348Y-69301667D01*
X71237114Y-69338646D01*
X71249286Y-69378770D01*
X71254000Y-69426638D01*
X71254000Y-70093362D01*
X71249286Y-70141230D01*
X71237114Y-70181354D01*
X71217348Y-70218333D01*
X71190747Y-70250747D01*
X71158335Y-70277347D01*
X71144464Y-70284761D01*
X71124090Y-70298375D01*
X71106763Y-70315702D01*
X71093149Y-70336076D01*
X71083772Y-70358715D01*
X71078992Y-70382749D01*
X71078992Y-70407253D01*
X71083773Y-70431286D01*
X71093150Y-70453925D01*
X71106764Y-70474299D01*
X71124091Y-70491626D01*
X71144464Y-70505239D01*
X71158335Y-70512653D01*
X71190747Y-70539253D01*
X71217348Y-70571667D01*
X71237114Y-70608646D01*
X71249286Y-70648770D01*
X71254000Y-70696638D01*
X71254000Y-71363362D01*
X71249286Y-71411230D01*
X71237114Y-71451354D01*
X71217348Y-71488333D01*
X71190747Y-71520747D01*
X71158335Y-71547347D01*
X71144464Y-71554761D01*
X71124090Y-71568375D01*
X71106763Y-71585702D01*
X71093149Y-71606076D01*
X71083772Y-71628715D01*
X71078992Y-71652749D01*
X71078992Y-71677253D01*
X71083773Y-71701286D01*
X71093150Y-71723925D01*
X71106764Y-71744299D01*
X71124091Y-71761626D01*
X71144464Y-71775239D01*
X71158335Y-71782653D01*
X71190747Y-71809253D01*
X71217348Y-71841667D01*
X71237114Y-71878646D01*
X71249286Y-71918770D01*
X71254000Y-71966638D01*
X71254000Y-72633362D01*
X71249286Y-72681230D01*
X71237114Y-72721354D01*
X71217348Y-72758333D01*
X71190747Y-72790747D01*
X71158335Y-72817347D01*
X71144464Y-72824761D01*
X71124090Y-72838375D01*
X71106763Y-72855702D01*
X71093149Y-72876076D01*
X71083772Y-72898715D01*
X71078992Y-72922749D01*
X71078992Y-72947253D01*
X71083773Y-72971286D01*
X71093150Y-72993925D01*
X71106764Y-73014299D01*
X71124091Y-73031626D01*
X71144464Y-73045239D01*
X71158335Y-73052653D01*
X71190747Y-73079253D01*
X71217348Y-73111667D01*
X71237114Y-73148646D01*
X71249286Y-73188770D01*
X71254000Y-73236638D01*
X71254000Y-73903362D01*
X71249286Y-73951230D01*
X71237114Y-73991354D01*
X71217348Y-74028333D01*
X71190747Y-74060747D01*
X71158335Y-74087347D01*
X71144464Y-74094761D01*
X71124090Y-74108375D01*
X71106763Y-74125702D01*
X71093149Y-74146076D01*
X71083772Y-74168715D01*
X71078992Y-74192749D01*
X71078992Y-74217253D01*
X71083773Y-74241286D01*
X71093150Y-74263925D01*
X71106764Y-74284299D01*
X71124091Y-74301626D01*
X71144464Y-74315239D01*
X71158335Y-74322653D01*
X71190747Y-74349253D01*
X71217348Y-74381667D01*
X71237114Y-74418646D01*
X71249286Y-74458770D01*
X71254000Y-74506638D01*
X71254000Y-75173362D01*
X71249286Y-75221230D01*
X71237114Y-75261354D01*
X71217348Y-75298333D01*
X71190747Y-75330747D01*
X71158335Y-75357347D01*
X71144464Y-75364761D01*
X71124090Y-75378375D01*
X71106763Y-75395702D01*
X71093149Y-75416076D01*
X71083772Y-75438715D01*
X71078992Y-75462749D01*
X71078992Y-75487253D01*
X71083773Y-75511286D01*
X71093150Y-75533925D01*
X71106764Y-75554299D01*
X71124091Y-75571626D01*
X71144464Y-75585239D01*
X71158335Y-75592653D01*
X71190747Y-75619253D01*
X71217348Y-75651667D01*
X71237114Y-75688646D01*
X71249286Y-75728770D01*
X71254000Y-75776638D01*
X71254000Y-76443362D01*
X71249286Y-76491230D01*
X71237114Y-76531354D01*
X71217348Y-76568333D01*
X71190747Y-76600747D01*
X71158333Y-76627348D01*
X71121354Y-76647114D01*
X71081230Y-76659286D01*
X71033362Y-76664000D01*
X69016638Y-76664000D01*
X68968770Y-76659286D01*
X68928646Y-76647114D01*
X68891667Y-76627348D01*
X68859253Y-76600747D01*
X68832652Y-76568333D01*
X68812886Y-76531354D01*
X68800714Y-76491230D01*
X68796000Y-76443362D01*
X68796000Y-75776638D01*
X68800714Y-75728770D01*
X68812886Y-75688646D01*
X68832652Y-75651667D01*
X68859253Y-75619253D01*
X68891665Y-75592653D01*
X68905536Y-75585239D01*
X68925910Y-75571625D01*
X68943237Y-75554298D01*
X68956851Y-75533924D01*
X68966228Y-75511285D01*
X68971008Y-75487251D01*
X68971008Y-75462747D01*
X68966227Y-75438714D01*
X68956850Y-75416075D01*
X68943236Y-75395701D01*
X68925909Y-75378374D01*
X68905536Y-75364761D01*
X68891665Y-75357347D01*
X68859253Y-75330747D01*
X68832652Y-75298333D01*
X68812886Y-75261354D01*
X68800714Y-75221230D01*
X68796000Y-75173362D01*
X68796000Y-74506638D01*
X68800714Y-74458770D01*
X68812886Y-74418646D01*
X68832652Y-74381667D01*
X68859253Y-74349253D01*
X68891665Y-74322653D01*
X68905536Y-74315239D01*
X68925910Y-74301625D01*
X68943237Y-74284298D01*
X68956851Y-74263924D01*
X68966228Y-74241285D01*
X68971008Y-74217251D01*
X68971008Y-74192747D01*
X68966227Y-74168714D01*
X68956850Y-74146075D01*
X68943236Y-74125701D01*
X68925909Y-74108374D01*
X68905536Y-74094761D01*
X68891665Y-74087347D01*
X68859253Y-74060747D01*
X68832652Y-74028333D01*
X68812886Y-73991354D01*
X68800714Y-73951230D01*
X68796000Y-73903362D01*
X68796000Y-73236638D01*
X68800714Y-73188770D01*
X68812886Y-73148646D01*
X68832652Y-73111667D01*
X68859253Y-73079253D01*
X68891665Y-73052653D01*
X68905536Y-73045239D01*
X68925910Y-73031625D01*
X68943237Y-73014298D01*
X68956851Y-72993924D01*
X68966228Y-72971285D01*
X68971008Y-72947251D01*
X68971008Y-72922747D01*
X68966227Y-72898714D01*
X68956850Y-72876075D01*
X68943236Y-72855701D01*
X68925909Y-72838374D01*
X68905536Y-72824761D01*
X68891665Y-72817347D01*
X68859253Y-72790747D01*
X68832652Y-72758333D01*
X68812886Y-72721354D01*
X68800714Y-72681230D01*
X68796000Y-72633362D01*
X68796000Y-71966638D01*
X68800714Y-71918770D01*
X68812886Y-71878646D01*
X68832652Y-71841667D01*
X68859253Y-71809253D01*
X68891665Y-71782653D01*
X68905536Y-71775239D01*
X68925910Y-71761625D01*
X68943237Y-71744298D01*
X68956851Y-71723924D01*
X68966228Y-71701285D01*
X68971008Y-71677251D01*
X68971008Y-71652747D01*
X68966227Y-71628714D01*
X68956850Y-71606075D01*
X68943236Y-71585701D01*
X68925909Y-71568374D01*
X68905536Y-71554761D01*
X68891665Y-71547347D01*
X68859253Y-71520747D01*
X68832652Y-71488333D01*
X68812886Y-71451354D01*
X68800714Y-71411230D01*
X68796000Y-71363362D01*
X68796000Y-70696638D01*
X68800714Y-70648770D01*
X68812886Y-70608646D01*
X68832652Y-70571667D01*
X68859253Y-70539253D01*
X68891665Y-70512653D01*
X68905536Y-70505239D01*
X68925910Y-70491625D01*
X68943237Y-70474298D01*
X68956851Y-70453924D01*
X68966228Y-70431285D01*
X68971008Y-70407251D01*
X68971008Y-70382747D01*
X68966227Y-70358714D01*
X68956850Y-70336075D01*
X68943236Y-70315701D01*
X68925909Y-70298374D01*
X68905536Y-70284761D01*
X68891665Y-70277347D01*
X68859253Y-70250747D01*
X68832652Y-70218333D01*
X68812886Y-70181354D01*
X68800714Y-70141230D01*
X68796000Y-70093362D01*
X68796000Y-69426638D01*
X68800714Y-69378770D01*
X68812886Y-69338646D01*
X68832652Y-69301667D01*
X68859253Y-69269253D01*
X68891665Y-69242653D01*
X68905536Y-69235239D01*
X68925910Y-69221625D01*
X68943237Y-69204298D01*
X68956851Y-69183924D01*
X68966228Y-69161285D01*
X68971008Y-69137251D01*
X68971008Y-69112747D01*
X68966227Y-69088714D01*
X68956850Y-69066075D01*
X68943236Y-69045701D01*
X68925909Y-69028374D01*
X68905536Y-69014761D01*
X68891665Y-69007347D01*
X68859253Y-68980747D01*
X68832652Y-68948333D01*
X68812886Y-68911354D01*
X68800714Y-68871230D01*
X68796000Y-68823362D01*
X68796000Y-68156638D01*
X68800714Y-68108770D01*
X68812886Y-68068646D01*
X68832652Y-68031667D01*
X68859253Y-67999253D01*
X68891667Y-67972652D01*
X68928646Y-67952886D01*
X68968770Y-67940714D01*
X69016638Y-67936000D01*
X71033362Y-67936000D01*
X71081230Y-67940714D01*
X71081230Y-67940714D01*
G37*
G36*
X76031230Y-67940714D02*
G01*
X76071354Y-67952886D01*
X76108333Y-67972652D01*
X76140747Y-67999253D01*
X76167348Y-68031667D01*
X76187114Y-68068646D01*
X76199286Y-68108770D01*
X76204000Y-68156638D01*
X76204000Y-68823362D01*
X76199286Y-68871230D01*
X76187114Y-68911354D01*
X76167348Y-68948333D01*
X76140747Y-68980747D01*
X76108335Y-69007347D01*
X76094464Y-69014761D01*
X76074090Y-69028375D01*
X76056763Y-69045702D01*
X76043149Y-69066076D01*
X76033772Y-69088715D01*
X76028992Y-69112749D01*
X76028992Y-69137253D01*
X76033773Y-69161286D01*
X76043150Y-69183925D01*
X76056764Y-69204299D01*
X76074091Y-69221626D01*
X76094464Y-69235239D01*
X76108335Y-69242653D01*
X76140747Y-69269253D01*
X76167348Y-69301667D01*
X76187114Y-69338646D01*
X76199286Y-69378770D01*
X76204000Y-69426638D01*
X76204000Y-70093362D01*
X76199286Y-70141230D01*
X76187114Y-70181354D01*
X76167348Y-70218333D01*
X76140747Y-70250747D01*
X76108335Y-70277347D01*
X76094464Y-70284761D01*
X76074090Y-70298375D01*
X76056763Y-70315702D01*
X76043149Y-70336076D01*
X76033772Y-70358715D01*
X76028992Y-70382749D01*
X76028992Y-70407253D01*
X76033773Y-70431286D01*
X76043150Y-70453925D01*
X76056764Y-70474299D01*
X76074091Y-70491626D01*
X76094464Y-70505239D01*
X76108335Y-70512653D01*
X76140747Y-70539253D01*
X76167348Y-70571667D01*
X76187114Y-70608646D01*
X76199286Y-70648770D01*
X76204000Y-70696638D01*
X76204000Y-71363362D01*
X76199286Y-71411230D01*
X76187114Y-71451354D01*
X76167348Y-71488333D01*
X76140747Y-71520747D01*
X76108335Y-71547347D01*
X76094464Y-71554761D01*
X76074090Y-71568375D01*
X76056763Y-71585702D01*
X76043149Y-71606076D01*
X76033772Y-71628715D01*
X76028992Y-71652749D01*
X76028992Y-71677253D01*
X76033773Y-71701286D01*
X76043150Y-71723925D01*
X76056764Y-71744299D01*
X76074091Y-71761626D01*
X76094464Y-71775239D01*
X76108335Y-71782653D01*
X76140747Y-71809253D01*
X76167348Y-71841667D01*
X76187114Y-71878646D01*
X76199286Y-71918770D01*
X76204000Y-71966638D01*
X76204000Y-72633362D01*
X76199286Y-72681230D01*
X76187114Y-72721354D01*
X76167348Y-72758333D01*
X76140747Y-72790747D01*
X76108335Y-72817347D01*
X76094464Y-72824761D01*
X76074090Y-72838375D01*
X76056763Y-72855702D01*
X76043149Y-72876076D01*
X76033772Y-72898715D01*
X76028992Y-72922749D01*
X76028992Y-72947253D01*
X76033773Y-72971286D01*
X76043150Y-72993925D01*
X76056764Y-73014299D01*
X76074091Y-73031626D01*
X76094464Y-73045239D01*
X76108335Y-73052653D01*
X76140747Y-73079253D01*
X76167348Y-73111667D01*
X76187114Y-73148646D01*
X76199286Y-73188770D01*
X76204000Y-73236638D01*
X76204000Y-73903362D01*
X76199286Y-73951230D01*
X76187114Y-73991354D01*
X76167348Y-74028333D01*
X76140747Y-74060747D01*
X76108335Y-74087347D01*
X76094464Y-74094761D01*
X76074090Y-74108375D01*
X76056763Y-74125702D01*
X76043149Y-74146076D01*
X76033772Y-74168715D01*
X76028992Y-74192749D01*
X76028992Y-74217253D01*
X76033773Y-74241286D01*
X76043150Y-74263925D01*
X76056764Y-74284299D01*
X76074091Y-74301626D01*
X76094464Y-74315239D01*
X76108335Y-74322653D01*
X76140747Y-74349253D01*
X76167348Y-74381667D01*
X76187114Y-74418646D01*
X76199286Y-74458770D01*
X76204000Y-74506638D01*
X76204000Y-75173362D01*
X76199286Y-75221230D01*
X76187114Y-75261354D01*
X76167348Y-75298333D01*
X76140747Y-75330747D01*
X76108335Y-75357347D01*
X76094464Y-75364761D01*
X76074090Y-75378375D01*
X76056763Y-75395702D01*
X76043149Y-75416076D01*
X76033772Y-75438715D01*
X76028992Y-75462749D01*
X76028992Y-75487253D01*
X76033773Y-75511286D01*
X76043150Y-75533925D01*
X76056764Y-75554299D01*
X76074091Y-75571626D01*
X76094464Y-75585239D01*
X76108335Y-75592653D01*
X76140747Y-75619253D01*
X76167348Y-75651667D01*
X76187114Y-75688646D01*
X76199286Y-75728770D01*
X76204000Y-75776638D01*
X76204000Y-76443362D01*
X76199286Y-76491230D01*
X76187114Y-76531354D01*
X76167348Y-76568333D01*
X76140747Y-76600747D01*
X76108333Y-76627348D01*
X76071354Y-76647114D01*
X76031230Y-76659286D01*
X75983362Y-76664000D01*
X73966638Y-76664000D01*
X73918770Y-76659286D01*
X73878646Y-76647114D01*
X73841667Y-76627348D01*
X73809253Y-76600747D01*
X73782652Y-76568333D01*
X73762886Y-76531354D01*
X73750714Y-76491230D01*
X73746000Y-76443362D01*
X73746000Y-75776638D01*
X73750714Y-75728770D01*
X73762886Y-75688646D01*
X73782652Y-75651667D01*
X73809253Y-75619253D01*
X73841665Y-75592653D01*
X73855536Y-75585239D01*
X73875910Y-75571625D01*
X73893237Y-75554298D01*
X73906851Y-75533924D01*
X73916228Y-75511285D01*
X73921008Y-75487251D01*
X73921008Y-75462747D01*
X73916227Y-75438714D01*
X73906850Y-75416075D01*
X73893236Y-75395701D01*
X73875909Y-75378374D01*
X73855536Y-75364761D01*
X73841665Y-75357347D01*
X73809253Y-75330747D01*
X73782652Y-75298333D01*
X73762886Y-75261354D01*
X73750714Y-75221230D01*
X73746000Y-75173362D01*
X73746000Y-74506638D01*
X73750714Y-74458770D01*
X73762886Y-74418646D01*
X73782652Y-74381667D01*
X73809253Y-74349253D01*
X73841665Y-74322653D01*
X73855536Y-74315239D01*
X73875910Y-74301625D01*
X73893237Y-74284298D01*
X73906851Y-74263924D01*
X73916228Y-74241285D01*
X73921008Y-74217251D01*
X73921008Y-74192747D01*
X73916227Y-74168714D01*
X73906850Y-74146075D01*
X73893236Y-74125701D01*
X73875909Y-74108374D01*
X73855536Y-74094761D01*
X73841665Y-74087347D01*
X73809253Y-74060747D01*
X73782652Y-74028333D01*
X73762886Y-73991354D01*
X73750714Y-73951230D01*
X73746000Y-73903362D01*
X73746000Y-73236638D01*
X73750714Y-73188770D01*
X73762886Y-73148646D01*
X73782652Y-73111667D01*
X73809253Y-73079253D01*
X73841665Y-73052653D01*
X73855536Y-73045239D01*
X73875910Y-73031625D01*
X73893237Y-73014298D01*
X73906851Y-72993924D01*
X73916228Y-72971285D01*
X73921008Y-72947251D01*
X73921008Y-72922747D01*
X73916227Y-72898714D01*
X73906850Y-72876075D01*
X73893236Y-72855701D01*
X73875909Y-72838374D01*
X73855536Y-72824761D01*
X73841665Y-72817347D01*
X73809253Y-72790747D01*
X73782652Y-72758333D01*
X73762886Y-72721354D01*
X73750714Y-72681230D01*
X73746000Y-72633362D01*
X73746000Y-71966638D01*
X73750714Y-71918770D01*
X73762886Y-71878646D01*
X73782652Y-71841667D01*
X73809253Y-71809253D01*
X73841665Y-71782653D01*
X73855536Y-71775239D01*
X73875910Y-71761625D01*
X73893237Y-71744298D01*
X73906851Y-71723924D01*
X73916228Y-71701285D01*
X73921008Y-71677251D01*
X73921008Y-71652747D01*
X73916227Y-71628714D01*
X73906850Y-71606075D01*
X73893236Y-71585701D01*
X73875909Y-71568374D01*
X73855536Y-71554761D01*
X73841665Y-71547347D01*
X73809253Y-71520747D01*
X73782652Y-71488333D01*
X73762886Y-71451354D01*
X73750714Y-71411230D01*
X73746000Y-71363362D01*
X73746000Y-70696638D01*
X73750714Y-70648770D01*
X73762886Y-70608646D01*
X73782652Y-70571667D01*
X73809253Y-70539253D01*
X73841665Y-70512653D01*
X73855536Y-70505239D01*
X73875910Y-70491625D01*
X73893237Y-70474298D01*
X73906851Y-70453924D01*
X73916228Y-70431285D01*
X73921008Y-70407251D01*
X73921008Y-70382747D01*
X73916227Y-70358714D01*
X73906850Y-70336075D01*
X73893236Y-70315701D01*
X73875909Y-70298374D01*
X73855536Y-70284761D01*
X73841665Y-70277347D01*
X73809253Y-70250747D01*
X73782652Y-70218333D01*
X73762886Y-70181354D01*
X73750714Y-70141230D01*
X73746000Y-70093362D01*
X73746000Y-69426638D01*
X73750714Y-69378770D01*
X73762886Y-69338646D01*
X73782652Y-69301667D01*
X73809253Y-69269253D01*
X73841665Y-69242653D01*
X73855536Y-69235239D01*
X73875910Y-69221625D01*
X73893237Y-69204298D01*
X73906851Y-69183924D01*
X73916228Y-69161285D01*
X73921008Y-69137251D01*
X73921008Y-69112747D01*
X73916227Y-69088714D01*
X73906850Y-69066075D01*
X73893236Y-69045701D01*
X73875909Y-69028374D01*
X73855536Y-69014761D01*
X73841665Y-69007347D01*
X73809253Y-68980747D01*
X73782652Y-68948333D01*
X73762886Y-68911354D01*
X73750714Y-68871230D01*
X73746000Y-68823362D01*
X73746000Y-68156638D01*
X73750714Y-68108770D01*
X73762886Y-68068646D01*
X73782652Y-68031667D01*
X73809253Y-67999253D01*
X73841667Y-67972652D01*
X73878646Y-67952886D01*
X73918770Y-67940714D01*
X73966638Y-67936000D01*
X75983362Y-67936000D01*
X76031230Y-67940714D01*
X76031230Y-67940714D01*
G37*
G36*
X90411623Y-72913405D02*
G01*
X90729900Y-73045239D01*
X90730831Y-73045625D01*
X91018110Y-73237579D01*
X91262421Y-73481890D01*
X91262422Y-73481892D01*
X91454376Y-73769171D01*
X91586595Y-74088377D01*
X91652290Y-74418646D01*
X91654000Y-74427246D01*
X91654000Y-74772754D01*
X91586595Y-75111623D01*
X91454375Y-75430831D01*
X91262421Y-75718110D01*
X91018110Y-75962421D01*
X90730831Y-76154375D01*
X90730830Y-76154376D01*
X90730829Y-76154376D01*
X90411623Y-76286595D01*
X90072755Y-76354000D01*
X89727245Y-76354000D01*
X89388377Y-76286595D01*
X89069171Y-76154376D01*
X89069170Y-76154376D01*
X89069169Y-76154375D01*
X88781890Y-75962421D01*
X88537579Y-75718110D01*
X88345625Y-75430831D01*
X88213405Y-75111623D01*
X88146000Y-74772754D01*
X88146000Y-74427246D01*
X88147711Y-74418646D01*
X88213405Y-74088377D01*
X88345624Y-73769171D01*
X88537578Y-73481892D01*
X88537579Y-73481890D01*
X88781890Y-73237579D01*
X89069169Y-73045625D01*
X89070101Y-73045239D01*
X89388377Y-72913405D01*
X89727245Y-72846000D01*
X90072755Y-72846000D01*
X90411623Y-72913405D01*
X90411623Y-72913405D01*
G37*
G36*
X56454000Y-76354000D02*
G01*
X52946000Y-76354000D01*
X52946000Y-72846000D01*
X56454000Y-72846000D01*
X56454000Y-76354000D01*
X56454000Y-76354000D01*
G37*
G36*
X55211623Y-67833405D02*
G01*
X55500077Y-67952886D01*
X55530831Y-67965625D01*
X55818110Y-68157579D01*
X56062421Y-68401890D01*
X56062422Y-68401892D01*
X56254376Y-68689171D01*
X56386595Y-69008377D01*
X56452290Y-69338646D01*
X56454000Y-69347246D01*
X56454000Y-69692754D01*
X56386595Y-70031623D01*
X56254375Y-70350831D01*
X56062421Y-70638110D01*
X55818110Y-70882421D01*
X55530831Y-71074375D01*
X55530830Y-71074376D01*
X55530829Y-71074376D01*
X55211623Y-71206595D01*
X54872755Y-71274000D01*
X54527245Y-71274000D01*
X54188377Y-71206595D01*
X53869171Y-71074376D01*
X53869170Y-71074376D01*
X53869169Y-71074375D01*
X53581890Y-70882421D01*
X53337579Y-70638110D01*
X53145625Y-70350831D01*
X53013405Y-70031623D01*
X52946000Y-69692754D01*
X52946000Y-69347246D01*
X52947711Y-69338646D01*
X53013405Y-69008377D01*
X53145624Y-68689171D01*
X53337578Y-68401892D01*
X53337579Y-68401890D01*
X53581890Y-68157579D01*
X53869169Y-67965625D01*
X53899924Y-67952886D01*
X54188377Y-67833405D01*
X54527245Y-67766000D01*
X54872755Y-67766000D01*
X55211623Y-67833405D01*
X55211623Y-67833405D01*
G37*
G36*
X90411623Y-67833405D02*
G01*
X90700077Y-67952886D01*
X90730831Y-67965625D01*
X91018110Y-68157579D01*
X91262421Y-68401890D01*
X91262422Y-68401892D01*
X91454376Y-68689171D01*
X91586595Y-69008377D01*
X91652290Y-69338646D01*
X91654000Y-69347246D01*
X91654000Y-69692754D01*
X91586595Y-70031623D01*
X91454375Y-70350831D01*
X91262421Y-70638110D01*
X91018110Y-70882421D01*
X90730831Y-71074375D01*
X90730830Y-71074376D01*
X90730829Y-71074376D01*
X90411623Y-71206595D01*
X90072755Y-71274000D01*
X89727245Y-71274000D01*
X89388377Y-71206595D01*
X89069171Y-71074376D01*
X89069170Y-71074376D01*
X89069169Y-71074375D01*
X88781890Y-70882421D01*
X88537579Y-70638110D01*
X88345625Y-70350831D01*
X88213405Y-70031623D01*
X88146000Y-69692754D01*
X88146000Y-69347246D01*
X88147711Y-69338646D01*
X88213405Y-69008377D01*
X88345624Y-68689171D01*
X88537578Y-68401892D01*
X88537579Y-68401890D01*
X88781890Y-68157579D01*
X89069169Y-67965625D01*
X89099924Y-67952886D01*
X89388377Y-67833405D01*
X89727245Y-67766000D01*
X90072755Y-67766000D01*
X90411623Y-67833405D01*
X90411623Y-67833405D01*
G37*
G36*
X55211623Y-62753405D02*
G01*
X55530831Y-62885625D01*
X55818110Y-63077579D01*
X56062421Y-63321890D01*
X56254375Y-63609169D01*
X56386595Y-63928377D01*
X56454000Y-64267246D01*
X56454000Y-64612754D01*
X56386595Y-64951623D01*
X56254375Y-65270831D01*
X56062421Y-65558110D01*
X55818110Y-65802421D01*
X55530831Y-65994375D01*
X55530830Y-65994376D01*
X55530829Y-65994376D01*
X55211623Y-66126595D01*
X54872755Y-66194000D01*
X54527245Y-66194000D01*
X54188377Y-66126595D01*
X53869171Y-65994376D01*
X53869170Y-65994376D01*
X53869169Y-65994375D01*
X53581890Y-65802421D01*
X53337579Y-65558110D01*
X53145625Y-65270831D01*
X53013405Y-64951623D01*
X52946000Y-64612754D01*
X52946000Y-64267246D01*
X53013405Y-63928377D01*
X53145625Y-63609169D01*
X53337579Y-63321890D01*
X53581890Y-63077579D01*
X53869169Y-62885625D01*
X54188377Y-62753405D01*
X54527245Y-62686000D01*
X54872755Y-62686000D01*
X55211623Y-62753405D01*
X55211623Y-62753405D01*
G37*
G36*
X90411623Y-62753405D02*
G01*
X90730831Y-62885625D01*
X91018110Y-63077579D01*
X91262421Y-63321890D01*
X91454375Y-63609169D01*
X91586595Y-63928377D01*
X91654000Y-64267246D01*
X91654000Y-64612754D01*
X91586595Y-64951623D01*
X91454375Y-65270831D01*
X91262421Y-65558110D01*
X91018110Y-65802421D01*
X90730831Y-65994375D01*
X90730830Y-65994376D01*
X90730829Y-65994376D01*
X90411623Y-66126595D01*
X90072755Y-66194000D01*
X89727245Y-66194000D01*
X89388377Y-66126595D01*
X89069171Y-65994376D01*
X89069170Y-65994376D01*
X89069169Y-65994375D01*
X88781890Y-65802421D01*
X88537579Y-65558110D01*
X88345625Y-65270831D01*
X88213405Y-64951623D01*
X88146000Y-64612754D01*
X88146000Y-64267246D01*
X88213405Y-63928377D01*
X88345625Y-63609169D01*
X88537579Y-63321890D01*
X88781890Y-63077579D01*
X89069169Y-62885625D01*
X89388377Y-62753405D01*
X89727245Y-62686000D01*
X90072755Y-62686000D01*
X90411623Y-62753405D01*
X90411623Y-62753405D01*
G37*
G36*
X55211623Y-57673405D02*
G01*
X55530831Y-57805625D01*
X55818110Y-57997579D01*
X56062421Y-58241890D01*
X56254375Y-58529169D01*
X56386595Y-58848377D01*
X56454000Y-59187246D01*
X56454000Y-59532754D01*
X56386595Y-59871623D01*
X56254375Y-60190831D01*
X56062421Y-60478110D01*
X55818110Y-60722421D01*
X55530831Y-60914375D01*
X55530830Y-60914376D01*
X55530829Y-60914376D01*
X55211623Y-61046595D01*
X54872755Y-61114000D01*
X54527245Y-61114000D01*
X54188377Y-61046595D01*
X53869171Y-60914376D01*
X53869170Y-60914376D01*
X53869169Y-60914375D01*
X53581890Y-60722421D01*
X53337579Y-60478110D01*
X53145625Y-60190831D01*
X53013405Y-59871623D01*
X52946000Y-59532754D01*
X52946000Y-59187246D01*
X53013405Y-58848377D01*
X53145625Y-58529169D01*
X53337579Y-58241890D01*
X53581890Y-57997579D01*
X53869169Y-57805625D01*
X54188377Y-57673405D01*
X54527245Y-57606000D01*
X54872755Y-57606000D01*
X55211623Y-57673405D01*
X55211623Y-57673405D01*
G37*
G36*
X91654000Y-61114000D02*
G01*
X88146000Y-61114000D01*
X88146000Y-57606000D01*
X91654000Y-57606000D01*
X91654000Y-61114000D01*
X91654000Y-61114000D01*
G37*
G36*
X90411623Y-50253405D02*
G01*
X90730831Y-50385625D01*
X91018110Y-50577579D01*
X91262421Y-50821890D01*
X91454375Y-51109169D01*
X91586595Y-51428377D01*
X91654000Y-51767246D01*
X91654000Y-52112754D01*
X91586595Y-52451623D01*
X91454375Y-52770831D01*
X91262421Y-53058110D01*
X91018110Y-53302421D01*
X90730831Y-53494375D01*
X90730830Y-53494376D01*
X90730829Y-53494376D01*
X90411623Y-53626595D01*
X90072755Y-53694000D01*
X89727245Y-53694000D01*
X89388377Y-53626595D01*
X89069171Y-53494376D01*
X89069170Y-53494376D01*
X89069169Y-53494375D01*
X88781890Y-53302421D01*
X88537579Y-53058110D01*
X88345625Y-52770831D01*
X88213405Y-52451623D01*
X88146000Y-52112754D01*
X88146000Y-51767246D01*
X88213405Y-51428377D01*
X88345625Y-51109169D01*
X88537579Y-50821890D01*
X88781890Y-50577579D01*
X89069169Y-50385625D01*
X89388377Y-50253405D01*
X89727245Y-50186000D01*
X90072755Y-50186000D01*
X90411623Y-50253405D01*
X90411623Y-50253405D01*
G37*
G36*
X56254000Y-53654000D02*
G01*
X52746000Y-53654000D01*
X52746000Y-50146000D01*
X56254000Y-50146000D01*
X56254000Y-53654000D01*
X56254000Y-53654000D01*
G37*
G36*
X90411623Y-45173405D02*
G01*
X90634263Y-45265625D01*
X90730831Y-45305625D01*
X91018110Y-45497579D01*
X91262421Y-45741890D01*
X91427649Y-45989171D01*
X91454376Y-46029171D01*
X91586595Y-46348377D01*
X91646044Y-46647245D01*
X91654000Y-46687246D01*
X91654000Y-47032754D01*
X91586595Y-47371623D01*
X91454375Y-47690831D01*
X91262421Y-47978110D01*
X91018110Y-48222421D01*
X90730831Y-48414375D01*
X90730830Y-48414376D01*
X90730829Y-48414376D01*
X90411623Y-48546595D01*
X90072755Y-48614000D01*
X89727245Y-48614000D01*
X89388377Y-48546595D01*
X89069171Y-48414376D01*
X89069170Y-48414376D01*
X89069169Y-48414375D01*
X88781890Y-48222421D01*
X88537579Y-47978110D01*
X88345625Y-47690831D01*
X88213405Y-47371623D01*
X88146000Y-47032754D01*
X88146000Y-46687246D01*
X88153957Y-46647245D01*
X88213405Y-46348377D01*
X88345624Y-46029171D01*
X88372351Y-45989171D01*
X88537579Y-45741890D01*
X88781890Y-45497579D01*
X89069169Y-45305625D01*
X89165738Y-45265625D01*
X89388377Y-45173405D01*
X89727245Y-45106000D01*
X90072755Y-45106000D01*
X90411623Y-45173405D01*
X90411623Y-45173405D01*
G37*
G36*
X55011623Y-45133405D02*
G01*
X55330831Y-45265625D01*
X55618110Y-45457579D01*
X55862421Y-45701890D01*
X56054375Y-45989169D01*
X56054376Y-45989171D01*
X56186595Y-46308377D01*
X56254000Y-46647245D01*
X56254000Y-46992755D01*
X56186595Y-47331623D01*
X56170027Y-47371623D01*
X56054375Y-47650831D01*
X55862421Y-47938110D01*
X55618110Y-48182421D01*
X55330831Y-48374375D01*
X55330830Y-48374376D01*
X55330829Y-48374376D01*
X55011623Y-48506595D01*
X54672755Y-48574000D01*
X54327245Y-48574000D01*
X53988377Y-48506595D01*
X53669171Y-48374376D01*
X53669170Y-48374376D01*
X53669169Y-48374375D01*
X53381890Y-48182421D01*
X53137579Y-47938110D01*
X52945625Y-47650831D01*
X52829974Y-47371623D01*
X52813405Y-47331623D01*
X52746000Y-46992755D01*
X52746000Y-46647245D01*
X52813405Y-46308377D01*
X52945624Y-45989171D01*
X52945625Y-45989169D01*
X53137579Y-45701890D01*
X53381890Y-45457579D01*
X53669169Y-45265625D01*
X53988377Y-45133405D01*
X54327245Y-45066000D01*
X54672755Y-45066000D01*
X55011623Y-45133405D01*
X55011623Y-45133405D01*
G37*
G36*
X90411623Y-40093405D02*
G01*
X90634263Y-40185625D01*
X90730831Y-40225625D01*
X91018110Y-40417579D01*
X91262421Y-40661890D01*
X91427649Y-40909171D01*
X91454376Y-40949171D01*
X91586595Y-41268377D01*
X91646044Y-41567245D01*
X91654000Y-41607246D01*
X91654000Y-41952754D01*
X91586595Y-42291623D01*
X91454375Y-42610831D01*
X91262421Y-42898110D01*
X91018110Y-43142421D01*
X90730831Y-43334375D01*
X90730830Y-43334376D01*
X90730829Y-43334376D01*
X90411623Y-43466595D01*
X90072755Y-43534000D01*
X89727245Y-43534000D01*
X89388377Y-43466595D01*
X89069171Y-43334376D01*
X89069170Y-43334376D01*
X89069169Y-43334375D01*
X88781890Y-43142421D01*
X88537579Y-42898110D01*
X88345625Y-42610831D01*
X88213405Y-42291623D01*
X88146000Y-41952754D01*
X88146000Y-41607246D01*
X88153957Y-41567245D01*
X88213405Y-41268377D01*
X88345624Y-40949171D01*
X88372351Y-40909171D01*
X88537579Y-40661890D01*
X88781890Y-40417579D01*
X89069169Y-40225625D01*
X89165738Y-40185625D01*
X89388377Y-40093405D01*
X89727245Y-40026000D01*
X90072755Y-40026000D01*
X90411623Y-40093405D01*
X90411623Y-40093405D01*
G37*
G36*
X55011623Y-40053405D02*
G01*
X55330831Y-40185625D01*
X55618110Y-40377579D01*
X55862421Y-40621890D01*
X56054375Y-40909169D01*
X56054376Y-40909171D01*
X56186595Y-41228377D01*
X56254000Y-41567245D01*
X56254000Y-41912755D01*
X56186595Y-42251623D01*
X56170027Y-42291623D01*
X56054375Y-42570831D01*
X55862421Y-42858110D01*
X55618110Y-43102421D01*
X55330831Y-43294375D01*
X55330830Y-43294376D01*
X55330829Y-43294376D01*
X55011623Y-43426595D01*
X54672755Y-43494000D01*
X54327245Y-43494000D01*
X53988377Y-43426595D01*
X53669171Y-43294376D01*
X53669170Y-43294376D01*
X53669169Y-43294375D01*
X53381890Y-43102421D01*
X53137579Y-42858110D01*
X52945625Y-42570831D01*
X52829974Y-42291623D01*
X52813405Y-42251623D01*
X52746000Y-41912755D01*
X52746000Y-41567245D01*
X52813405Y-41228377D01*
X52945624Y-40909171D01*
X52945625Y-40909169D01*
X53137579Y-40621890D01*
X53381890Y-40377579D01*
X53669169Y-40185625D01*
X53988377Y-40053405D01*
X54327245Y-39986000D01*
X54672755Y-39986000D01*
X55011623Y-40053405D01*
X55011623Y-40053405D01*
G37*
G36*
X91654000Y-38454000D02*
G01*
X88146000Y-38454000D01*
X88146000Y-34946000D01*
X91654000Y-34946000D01*
X91654000Y-38454000D01*
X91654000Y-38454000D01*
G37*
G36*
X55011623Y-34973405D02*
G01*
X55330831Y-35105625D01*
X55618110Y-35297579D01*
X55862421Y-35541890D01*
X56054375Y-35829169D01*
X56186595Y-36148377D01*
X56254000Y-36487246D01*
X56254000Y-36832754D01*
X56186595Y-37171623D01*
X56054375Y-37490831D01*
X55862421Y-37778110D01*
X55618110Y-38022421D01*
X55330831Y-38214375D01*
X55330830Y-38214376D01*
X55330829Y-38214376D01*
X55011623Y-38346595D01*
X54672755Y-38414000D01*
X54327245Y-38414000D01*
X53988377Y-38346595D01*
X53669171Y-38214376D01*
X53669170Y-38214376D01*
X53669169Y-38214375D01*
X53381890Y-38022421D01*
X53137579Y-37778110D01*
X52945625Y-37490831D01*
X52813405Y-37171623D01*
X52746000Y-36832754D01*
X52746000Y-36487246D01*
X52813405Y-36148377D01*
X52945625Y-35829169D01*
X53137579Y-35541890D01*
X53381890Y-35297579D01*
X53669169Y-35105625D01*
X53988377Y-34973405D01*
X54327245Y-34906000D01*
X54672755Y-34906000D01*
X55011623Y-34973405D01*
X55011623Y-34973405D01*
G37*
G36*
X52666801Y-27201849D02*
G01*
X53082825Y-27374172D01*
X53082827Y-27374173D01*
X53457240Y-27624348D01*
X53775652Y-27942760D01*
X54025827Y-28317173D01*
X54025828Y-28317175D01*
X54198151Y-28733199D01*
X54286000Y-29174847D01*
X54286000Y-29625153D01*
X54198151Y-30066801D01*
X54025828Y-30482825D01*
X54025827Y-30482827D01*
X53775652Y-30857240D01*
X53457240Y-31175652D01*
X53082827Y-31425827D01*
X53082826Y-31425828D01*
X53082825Y-31425828D01*
X52666801Y-31598151D01*
X52225153Y-31686000D01*
X51774847Y-31686000D01*
X51333199Y-31598151D01*
X50917175Y-31425828D01*
X50917174Y-31425828D01*
X50917173Y-31425827D01*
X50542760Y-31175652D01*
X50224348Y-30857240D01*
X49974173Y-30482827D01*
X49974172Y-30482825D01*
X49801849Y-30066801D01*
X49714000Y-29625153D01*
X49714000Y-29174847D01*
X49801849Y-28733199D01*
X49974172Y-28317175D01*
X49974173Y-28317173D01*
X50224348Y-27942760D01*
X50542760Y-27624348D01*
X50917173Y-27374173D01*
X50917175Y-27374172D01*
X51333199Y-27201849D01*
X51774847Y-27114000D01*
X52225153Y-27114000D01*
X52666801Y-27201849D01*
X52666801Y-27201849D01*
G37*
G36*
X92666801Y-27201849D02*
G01*
X93082825Y-27374172D01*
X93082827Y-27374173D01*
X93457240Y-27624348D01*
X93775652Y-27942760D01*
X94025827Y-28317173D01*
X94025828Y-28317175D01*
X94198151Y-28733199D01*
X94286000Y-29174847D01*
X94286000Y-29625153D01*
X94198151Y-30066801D01*
X94025828Y-30482825D01*
X94025827Y-30482827D01*
X93775652Y-30857240D01*
X93457240Y-31175652D01*
X93082827Y-31425827D01*
X93082826Y-31425828D01*
X93082825Y-31425828D01*
X92666801Y-31598151D01*
X92225153Y-31686000D01*
X91774847Y-31686000D01*
X91333199Y-31598151D01*
X90917175Y-31425828D01*
X90917174Y-31425828D01*
X90917173Y-31425827D01*
X90542760Y-31175652D01*
X90224348Y-30857240D01*
X89974173Y-30482827D01*
X89974172Y-30482825D01*
X89801849Y-30066801D01*
X89714000Y-29625153D01*
X89714000Y-29174847D01*
X89801849Y-28733199D01*
X89974172Y-28317175D01*
X89974173Y-28317173D01*
X90224348Y-27942760D01*
X90542760Y-27624348D01*
X90917173Y-27374173D01*
X90917175Y-27374172D01*
X91333199Y-27201849D01*
X91774847Y-27114000D01*
X92225153Y-27114000D01*
X92666801Y-27201849D01*
X92666801Y-27201849D01*
G37*
M02*
