<svg xmlns:sodipodi="http://sodipodi.sourceforge.net/DTD/sodipodi-0.dtd" width="744.094488189" height="1052.36220472"><desc>enclosure_projection.dxf - scale = 1.000000, origin = (0.000000, 0.000000), auto = False</desc><defs><marker id="DistanceX" orient="auto" refX="0.0" refY="0.0" style="overflow:visible"><path d="M 3,-3 L -3,3 M 0,-5 L  0,5" style="stroke:#000000; stroke-width:0.5"/></marker><pattern height="8" id="Hatch" patternUnits="userSpaceOnUse" width="8" x="0" y="0"><path d="M8 4 l-4,4" linecap="square" stroke="#000000" stroke-width="0.25"/><path d="M6 2 l-4,4" linecap="square" stroke="#000000" stroke-width="0.25"/><path d="M4 0 l-4,4" linecap="square" stroke="#000000" stroke-width="0.25"/></pattern></defs><g xmlns:ns0="http://www.inkscape.org/namespaces/inkscape" ns0:groupmode="layer" ns0:label="0"><path d="M -149.084646,896.456693 -149.084646,889.370079 -33.749965,889.370079 -33.749965,896.456693 33.749965,896.456693 33.749965,889.370079 149.084646,889.370079 149.084646,896.456693 216.584646,896.456693 216.584646,889.370079 304.724409,889.370079 304.724409,853.405512 311.811024,853.405512 311.811024,808.405512 304.724409,808.405512 304.724409,772.440945 216.584646,772.440945 216.584646,765.354331 149.084646,765.354331 149.084646,772.440945 33.749965,772.440945 33.749965,765.354331 -33.749965,765.354331 -33.749965,772.440945 -149.084646,772.440945 -149.084646,765.354331 -216.584646,765.354331 -216.584646,772.440945 -304.724409,772.440945 -304.724409,808.405512 -311.811024,808.405512 -311.811024,853.405512 -304.724409,853.405512 -304.724409,889.370079 -216.584646,889.370079 -216.584646,896.456693 -149.084646,896.456693" style="stroke:#000000;fill:none"/><path d="M 191.717362,848.576693 188.825315,848.576693 185.955591,848.214213 183.154252,847.494921 180.464882,846.430157 177.930354,845.036575 175.590709,843.336496 173.482087,841.356850 171.638504,839.128110 170.088661,836.686063 168.857362,834.068976 167.963386,831.318307 167.421614,828.477283 167.239843,825.590551 167.421614,822.703819 167.963386,819.862795 168.857362,817.112126 170.088661,814.495039 171.638504,812.052992 173.482087,809.824252 175.590709,807.844606 177.930354,806.144528 180.464882,804.750945 183.154252,803.686181 185.955591,802.966890 188.825315,802.604409 191.717362,802.604409 194.587087,802.966890 197.388425,803.686181 200.077795,804.750945 202.612323,806.144528 204.952323,807.844606 207.060591,809.824252 208.904173,812.052992 210.454016,814.495039 211.685669,817.112126 212.579291,819.862795 213.121417,822.703819 213.302835,825.590551 213.121417,828.477283 212.579291,831.318307 211.685669,834.068976 210.454016,836.686063 208.904173,839.128110 207.060591,841.356850 204.952323,843.336496 202.612323,845.036575 200.077795,846.430157 197.388425,847.494921 194.587087,848.214213 191.717362,848.576693" style="stroke:#000000;fill:none"/><path d="M 113.417717,848.576693 110.525315,848.576693 107.655591,848.214213 104.854252,847.494921 102.165236,846.430157 99.630354,845.036575 97.290709,843.336496 95.182087,841.356850 93.338504,839.128110 91.788661,836.686063 90.557362,834.068976 89.663386,831.318307 89.121614,828.477283 88.939843,825.590551 89.121614,822.703819 89.663386,819.862795 90.557362,817.112126 91.788661,814.495039 93.338504,812.052992 95.182087,809.824252 97.290709,807.844606 99.630354,806.144528 102.165236,804.750945 104.854252,803.686181 107.655591,802.966890 110.525315,802.604409 113.417717,802.604409 116.287087,802.966890 119.088425,803.686181 121.777795,804.750945 124.312323,806.144528 126.652323,807.844606 128.760591,809.824252 130.604173,812.052992 132.154016,814.495039 133.385669,817.112126 134.279291,819.862795 134.821417,822.703819 135.002835,825.590551 134.821417,828.477283 134.279291,831.318307 133.385669,834.068976 132.154016,836.686063 130.604173,839.128110 128.760591,841.356850 126.652323,843.336496 124.312323,845.036575 121.777795,846.430157 119.088425,847.494921 116.287087,848.214213 113.417717,848.576693" style="stroke:#000000;fill:none"/><path d="M 34.820539,848.576693 31.928209,848.576693 29.058732,848.214213 26.257287,847.494921 23.568059,846.430157 21.033461,845.036575 18.693567,843.336496 16.585122,841.356850 14.741539,839.128110 13.191697,836.686063 11.960220,834.068976 11.066457,831.318307 10.524508,828.477283 10.342878,825.590551 10.524508,822.703819 11.066457,819.862795 11.960220,817.112126 13.191697,814.495039 14.741539,812.052992 16.585122,809.824252 18.693567,807.844606 21.033461,806.144528 23.568059,804.750945 26.257287,803.686181 29.058732,802.966890 31.928209,802.604409 34.820539,802.604409 37.690157,802.966890 40.491496,803.686181 43.180866,804.750945 45.715394,806.144528 48.055394,807.844606 50.163661,809.824252 52.007244,812.052992 53.557087,814.495039 54.788386,817.112126 55.682362,819.862795 56.224134,822.703819 56.405906,825.590551 56.224134,828.477283 55.682362,831.318307 54.788386,834.068976 53.557087,836.686063 52.007244,839.128110 50.163661,841.356850 48.055394,843.336496 45.715394,845.036575 43.180866,846.430157 40.491496,847.494921 37.690157,848.214213 34.820539,848.576693" style="stroke:#000000;fill:none"/><path d="M -35.010390,848.576693 -37.902756,848.576693 -40.772126,848.214213 -43.573819,847.494921 -46.262835,846.430157 -48.797362,845.036575 -51.137362,843.336496 -53.245630,841.356850 -55.089567,839.128110 -56.639055,836.686063 -57.870709,834.068976 -58.764331,831.318307 -59.306457,828.477283 -59.487874,825.590551 -59.306457,822.703819 -58.764331,819.862795 -57.870709,817.112126 -56.639055,814.495039 -55.089567,812.052992 -53.245630,809.824252 -51.137362,807.844606 -48.797362,806.144528 -46.262835,804.750945 -43.573819,803.686181 -40.772126,802.966890 -37.902756,802.604409 -35.010390,802.604409 -32.140913,802.966890 -29.339433,803.686181 -26.650240,804.750945 -24.115677,806.144528 -21.775748,807.844606 -19.667303,809.824252 -17.823685,812.052992 -16.273913,814.495039 -15.042402,817.112126 -14.148638,819.862795 -13.606654,822.703819 -13.425059,825.590551 -13.606654,828.477283 -14.148638,831.318307 -15.042402,834.068976 -16.273913,836.686063 -17.823685,839.128110 -19.667303,841.356850 -21.775748,843.336496 -24.115677,845.036575 -26.650240,846.430157 -29.339433,847.494921 -32.140913,848.214213 -35.010390,848.576693" style="stroke:#000000;fill:none"/><path d="M -104.850354,848.576693 -107.742756,848.576693 -110.612126,848.214213 -113.413819,847.494921 -116.102835,846.430157 -118.637362,845.036575 -120.977362,843.336496 -123.085630,841.356850 -124.929567,839.128110 -126.479409,836.686063 -127.710709,834.068976 -128.604331,831.318307 -129.146457,828.477283 -129.328228,825.590551 -129.146457,822.703819 -128.604331,819.862795 -127.710709,817.112126 -126.479409,814.495039 -124.929567,812.052992 -123.085630,809.824252 -120.977362,807.844606 -118.637362,806.144528 -116.102835,804.750945 -113.413819,803.686181 -110.612126,802.966890 -107.742756,802.604409 -104.850354,802.604409 -101.980984,802.966890 -99.179291,803.686181 -96.490276,804.750945 -93.955748,806.144528 -91.615748,807.844606 -89.507480,809.824252 -87.663543,812.052992 -86.114055,814.495039 -84.882402,817.112126 -83.988780,819.862795 -83.446654,822.703819 -83.265236,825.590551 -83.446654,828.477283 -83.988780,831.318307 -84.882402,834.068976 -86.114055,836.686063 -87.663543,839.128110 -89.507480,841.356850 -91.615748,843.336496 -93.955748,845.036575 -96.490276,846.430157 -99.179291,847.494921 -101.980984,848.214213 -104.850354,848.576693" style="stroke:#000000;fill:none"/><path d="M -176.355354,848.576693 -179.247756,848.576693 -182.117126,848.214213 -184.918819,847.494921 -187.607835,846.430157 -190.142362,845.036575 -192.482362,843.336496 -194.590630,841.356850 -196.434567,839.128110 -197.984055,836.686063 -199.215709,834.068976 -200.109331,831.318307 -200.651457,828.477283 -200.833228,825.590551 -200.651457,822.703819 -200.109331,819.862795 -199.215709,817.112126 -197.984055,814.495039 -196.434567,812.052992 -194.590630,809.824252 -192.482362,807.844606 -190.142362,806.144528 -187.607835,804.750945 -184.918819,803.686181 -182.117126,802.966890 -179.247756,802.604409 -176.355354,802.604409 -173.485984,802.966890 -170.684291,803.686181 -167.995276,804.750945 -165.460748,806.144528 -163.120748,807.844606 -161.012480,809.824252 -159.168543,812.052992 -157.619055,814.495039 -156.387402,817.112126 -155.493780,819.862795 -154.951654,822.703819 -154.770236,825.590551 -154.951654,828.477283 -155.493780,831.318307 -156.387402,834.068976 -157.619055,836.686063 -159.168543,839.128110 -161.012480,841.356850 -163.120748,843.336496 -165.460748,845.036575 -167.995276,846.430157 -170.684291,847.494921 -173.485984,848.214213 -176.355354,848.576693" style="stroke:#000000;fill:none"/><path d="M 379.133858,1179.921260 379.133858,1179.900354 379.800000,1179.900354 381.125197,1179.733110 382.418504,1179.401102 383.658661,1178.909646 384.827953,1178.266535 385.908661,1177.481693 386.883071,1176.567874 387.733465,1175.539606 388.449213,1174.412480 389.016142,1173.204567 389.430709,1171.935000 389.678740,1170.623622 389.763780,1169.291339 389.763780,935.433071 389.678740,934.100787 389.430709,932.789409 389.016142,931.519843 388.449213,930.311929 387.733465,929.184803 386.883071,928.156535 385.908661,927.242717 384.827953,926.457874 383.658661,925.814764 382.418504,925.323307 381.125197,924.991299 379.800000,924.824055 379.133858,924.824055 379.133858,924.803150 -379.133858,924.803150 -379.133858,924.824055 -379.800000,924.824055 -381.125197,924.991299 -382.418504,925.323307 -383.658661,925.814764 -384.827953,926.457874 -385.908661,927.242717 -386.883071,928.156535 -387.733465,929.184803 -388.449213,930.311929 -389.016142,931.519843 -389.430709,932.789409 -389.678740,934.100787 -389.763780,935.433071 -389.763780,1169.291339 -389.678740,1170.623622 -389.430709,1171.935000 -389.016142,1173.204567 -388.449213,1174.412480 -387.733465,1175.539606 -386.883071,1176.567874 -385.908661,1177.481693 -384.827953,1178.266535 -383.658661,1178.909646 -382.418504,1179.401102 -381.125197,1179.733110 -379.800000,1179.900354 -379.133858,1179.900354 -379.133858,1179.921260 379.133858,1179.921260" style="stroke:#000000;fill:none"/><path d="M -149.084646,942.519685 -216.584646,942.519685 -216.584646,935.433071 -149.084646,935.433071 -149.084646,942.519685" style="stroke:#000000;fill:none"/><path d="M 33.749965,942.519685 -33.749965,942.519685 -33.749965,935.433071 33.749965,935.433071 33.749965,942.519685" style="stroke:#000000;fill:none"/><path d="M 216.584646,942.519685 149.084646,942.519685 149.084646,935.433071 216.584646,935.433071 216.584646,942.519685" style="stroke:#000000;fill:none"/><path d="M 355.241339,978.278386 353.418661,978.278386 351.608386,978.049843 349.841339,977.595945 348.145157,976.924488 346.546417,976.045394 345.070630,974.973189 343.740472,973.724528 342.577559,972.318543 341.599961,970.778268 340.823268,969.127441 340.259528,967.392283 339.917598,965.600433 339.803150,963.779528 339.917598,961.958622 340.259528,960.166772 340.823268,958.431614 341.599961,956.780787 342.577559,955.240512 343.740472,953.834882 345.070630,952.585866 346.546417,951.513661 348.145157,950.634567 349.841339,949.963110 351.608386,949.509213 353.418661,949.280669 355.241339,949.280669 357.051969,949.509213 358.820079,949.963110 360.517323,950.634567 362.115354,951.513661 363.589370,952.585866 364.921654,953.834882 366.083858,955.240512 367.061811,956.780787 367.837795,958.431614 368.401181,960.166772 368.744882,961.958622 368.858268,963.779528 368.744882,965.600433 368.401181,967.392283 367.837795,969.127441 367.061811,970.778268 366.083858,972.318543 364.921654,973.724528 363.589370,974.973189 362.115354,976.045394 360.517323,976.924488 358.820079,977.595945 357.051969,978.049843 355.241339,978.278386" style="stroke:#000000;fill:none"/><path d="M -353.418661,978.278386 -355.241339,978.278386 -357.051969,978.049843 -358.820079,977.595945 -360.517323,976.924488 -362.115354,976.045394 -363.589370,974.973189 -364.921654,973.724528 -366.083858,972.318543 -367.061811,970.778268 -367.837795,969.127441 -368.401181,967.392283 -368.744882,965.600433 -368.858268,963.779528 -368.744882,961.958622 -368.401181,960.166772 -367.837795,958.431614 -367.061811,956.780787 -366.083858,955.240512 -364.921654,953.834882 -363.589370,952.585866 -362.115354,951.513661 -360.517323,950.634567 -358.820079,949.963110 -357.051969,949.509213 -355.241339,949.280669 -353.418661,949.280669 -351.608386,949.509213 -349.841339,949.963110 -348.145157,950.634567 -346.546417,951.513661 -345.070630,952.585866 -343.740472,953.834882 -342.577559,955.240512 -341.599961,956.780787 -340.823268,958.431614 -340.259528,960.166772 -339.917598,961.958622 -339.803150,963.779528 -339.917598,965.600433 -340.259528,967.392283 -340.823268,969.127441 -341.599961,970.778268 -342.577559,972.318543 -343.740472,973.724528 -345.070630,974.973189 -346.546417,976.045394 -348.145157,976.924488 -349.841339,977.595945 -351.608386,978.049843 -353.418661,978.278386" style="stroke:#000000;fill:none"/><path d="M 311.811024,1027.647673 304.724409,1027.647673 304.724409,960.147638 311.811024,960.147638 311.811024,1027.647673" style="stroke:#000000;fill:none"/><path d="M -304.724409,1027.647673 -311.811024,1027.647673 -311.811024,960.147638 -304.724409,960.147638 -304.724409,1027.647673" style="stroke:#000000;fill:none"/><path d="M -277.815827,974.399173 -278.483386,974.399173 -279.145630,974.315197 -279.791929,974.149370 -280.412717,973.903819 -280.997362,973.582087 -281.537362,973.189843 -282.023858,972.732756 -282.449409,972.218622 -282.807283,971.654882 -283.091457,971.051102 -283.297677,970.416142 -283.422756,969.760630 -283.464567,969.094488 -283.422756,968.428346 -283.297677,967.772835 -283.091457,967.137874 -282.807283,966.534094 -282.449409,965.970354 -282.023858,965.456220 -281.537362,964.999134 -280.997362,964.606890 -280.412717,964.285512 -279.791929,964.039606 -279.145630,963.873780 -278.483386,963.790157 -277.815827,963.790157 -277.153583,963.873780 -276.507283,964.039606 -275.886496,964.285512 -275.301850,964.606890 -274.761850,964.999134 -274.275000,965.456220 -273.849803,965.970354 -273.491929,966.534094 -273.207756,967.137874 -273.001535,967.772835 -272.876457,968.428346 -272.834646,969.094488 -272.876457,969.760630 -273.001535,970.416142 -273.207756,971.051102 -273.491929,971.654882 -273.849803,972.218622 -274.275000,972.732756 -274.761850,973.189843 -275.301850,973.582087 -275.886496,973.903819 -276.507283,974.149370 -277.153583,974.315197 -277.815827,974.399173" style="stroke:#000000;fill:none"/><path d="M 278.483386,974.399173 277.815827,974.399173 277.153583,974.315197 276.507283,974.149370 275.886496,973.903819 275.301850,973.582087 274.761850,973.189843 274.275000,972.732756 273.849803,972.218622 273.491929,971.654882 273.207756,971.051102 273.001535,970.416142 272.876457,969.760630 272.834646,969.094488 272.876457,968.428346 273.001535,967.772835 273.207756,967.137874 273.491929,966.534094 273.849803,965.970354 274.275000,965.456220 274.761850,964.999134 275.301850,964.606890 275.886496,964.285512 276.507283,964.039606 277.153583,963.873780 277.815827,963.790157 278.483386,963.790157 279.145630,963.873780 279.791929,964.039606 280.412717,964.285512 280.997362,964.606890 281.537362,964.999134 282.023858,965.456220 282.449409,965.970354 282.807283,966.534094 283.091457,967.137874 283.297677,967.772835 283.422756,968.428346 283.464567,969.094488 283.422756,969.760630 283.297677,970.416142 283.091457,971.051102 282.807283,971.654882 282.449409,972.218622 282.023858,972.732756 281.537362,973.189843 280.997362,973.582087 280.412717,973.903819 279.791929,974.149370 279.145630,974.315197 278.483386,974.399173" style="stroke:#000000;fill:none"/><path d="M -304.724409,1144.576772 -311.811024,1144.576772 -311.811024,1077.076736 -304.724409,1077.076736 -304.724409,1144.576772" style="stroke:#000000;fill:none"/><path d="M 311.811024,1144.576772 304.724409,1144.576772 304.724409,1077.076736 311.811024,1077.076736 311.811024,1144.576772" style="stroke:#000000;fill:none"/><path d="M 355.241339,1155.443740 353.418661,1155.443740 351.608386,1155.215197 349.841339,1154.761299 348.145157,1154.089843 346.546417,1153.210748 345.070630,1152.138543 343.740472,1150.889528 342.577559,1149.483898 341.599961,1147.943622 340.823268,1146.292795 340.259528,1144.557638 339.917598,1142.765787 339.803150,1140.944882 339.917598,1139.123976 340.259528,1137.332126 340.823268,1135.596969 341.599961,1133.946142 342.577559,1132.405866 343.740472,1130.999882 345.070630,1129.751220 346.546417,1128.679016 348.145157,1127.799921 349.841339,1127.128465 351.608386,1126.674567 353.418661,1126.446024 355.241339,1126.446024 357.051969,1126.674567 358.820079,1127.128465 360.517323,1127.799921 362.115354,1128.679016 363.589370,1129.751220 364.921654,1130.999882 366.083858,1132.405866 367.061811,1133.946142 367.837795,1135.596969 368.401181,1137.332126 368.744882,1139.123976 368.858268,1140.944882 368.744882,1142.765787 368.401181,1144.557638 367.837795,1146.292795 367.061811,1147.943622 366.083858,1149.483898 364.921654,1150.889528 363.589370,1152.138543 362.115354,1153.210748 360.517323,1154.089843 358.820079,1154.761299 357.051969,1155.215197 355.241339,1155.443740" style="stroke:#000000;fill:none"/><path d="M -353.418661,1155.443740 -355.241339,1155.443740 -357.051969,1155.215197 -358.820079,1154.761299 -360.517323,1154.089843 -362.115354,1153.210748 -363.589370,1152.138543 -364.921654,1150.889528 -366.083858,1149.483898 -367.061811,1147.943622 -367.837795,1146.292795 -368.401181,1144.557638 -368.744882,1142.765787 -368.858268,1140.944882 -368.744882,1139.123976 -368.401181,1137.332126 -367.837795,1135.596969 -367.061811,1133.946142 -366.083858,1132.405866 -364.921654,1130.999882 -363.589370,1129.751220 -362.115354,1128.679016 -360.517323,1127.799921 -358.820079,1127.128465 -357.051969,1126.674567 -355.241339,1126.446024 -353.418661,1126.446024 -351.608386,1126.674567 -349.841339,1127.128465 -348.145157,1127.799921 -346.546417,1128.679016 -345.070630,1129.751220 -343.740472,1130.999882 -342.577559,1132.405866 -341.599961,1133.946142 -340.823268,1135.596969 -340.259528,1137.332126 -339.917598,1139.123976 -339.803150,1140.944882 -339.917598,1142.765787 -340.259528,1144.557638 -340.823268,1146.292795 -341.599961,1147.943622 -342.577559,1149.483898 -343.740472,1150.889528 -345.070630,1152.138543 -346.546417,1153.210748 -348.145157,1154.089843 -349.841339,1154.761299 -351.608386,1155.215197 -353.418661,1155.443740" style="stroke:#000000;fill:none"/><path d="M -277.815827,1140.934252 -278.483386,1140.934252 -279.145630,1140.850630 -279.791929,1140.684803 -280.412717,1140.438898 -280.997362,1140.117520 -281.537362,1139.725276 -282.023858,1139.268189 -282.449409,1138.754055 -282.807283,1138.190315 -283.091457,1137.586535 -283.297677,1136.951575 -283.422756,1136.296063 -283.464567,1135.629921 -283.422756,1134.963780 -283.297677,1134.308268 -283.091457,1133.673307 -282.807283,1133.069528 -282.449409,1132.505787 -282.023858,1131.991654 -281.537362,1131.534567 -280.997362,1131.142323 -280.412717,1130.820591 -279.791929,1130.575039 -279.145630,1130.409213 -278.483386,1130.325236 -277.815827,1130.325236 -277.153583,1130.409213 -276.507283,1130.575039 -275.886496,1130.820591 -275.301850,1131.142323 -274.761850,1131.534567 -274.275000,1131.991654 -273.849803,1132.505787 -273.491929,1133.069528 -273.207756,1133.673307 -273.001535,1134.308268 -272.876457,1134.963780 -272.834646,1135.629921 -272.876457,1136.296063 -273.001535,1136.951575 -273.207756,1137.586535 -273.491929,1138.190315 -273.849803,1138.754055 -274.275000,1139.268189 -274.761850,1139.725276 -275.301850,1140.117520 -275.886496,1140.438898 -276.507283,1140.684803 -277.153583,1140.850630 -277.815827,1140.934252" style="stroke:#000000;fill:none"/><path d="M 278.483386,1140.934252 277.815827,1140.934252 277.153583,1140.850630 276.507283,1140.684803 275.886496,1140.438898 275.301850,1140.117520 274.761850,1139.725276 274.275000,1139.268189 273.849803,1138.754055 273.491929,1138.190315 273.207756,1137.586535 273.001535,1136.951575 272.876457,1136.296063 272.834646,1135.629921 272.876457,1134.963780 273.001535,1134.308268 273.207756,1133.673307 273.491929,1133.069528 273.849803,1132.505787 274.275000,1131.991654 274.761850,1131.534567 275.301850,1131.142323 275.886496,1130.820591 276.507283,1130.575039 277.153583,1130.409213 277.815827,1130.325236 278.483386,1130.325236 279.145630,1130.409213 279.791929,1130.575039 280.412717,1130.820591 280.997362,1131.142323 281.537362,1131.534567 282.023858,1131.991654 282.449409,1132.505787 282.807283,1133.069528 283.091457,1133.673307 283.297677,1134.308268 283.422756,1134.963780 283.464567,1135.629921 283.422756,1136.296063 283.297677,1136.951575 283.091457,1137.586535 282.807283,1138.190315 282.449409,1138.754055 282.023858,1139.268189 281.537362,1139.725276 280.997362,1140.117520 280.412717,1140.438898 279.791929,1140.684803 279.145630,1140.850630 278.483386,1140.934252" style="stroke:#000000;fill:none"/><path d="M 216.584646,1169.291339 149.084646,1169.291339 149.084646,1162.204724 216.584646,1162.204724 216.584646,1169.291339" style="stroke:#000000;fill:none"/><path d="M 33.749965,1169.291339 -33.749965,1169.291339 -33.749965,1162.204724 33.749965,1162.204724 33.749965,1169.291339" style="stroke:#000000;fill:none"/><path d="M -149.084646,1169.291339 -216.584646,1169.291339 -216.584646,1162.204724 -149.084646,1162.204724 -149.084646,1169.291339" style="stroke:#000000;fill:none"/><path d="M -506.161417,1169.291339 -506.161417,1162.204724 -461.161417,1162.204724 -461.161417,1169.291339 -425.196850,1169.291339 -425.196850,1144.576772 -418.110236,1144.576772 -418.110236,1077.076736 -425.196850,1077.076736 -425.196850,1027.647673 -418.110236,1027.647673 -418.110236,960.147638 -425.196850,960.147638 -425.196850,935.433071 -461.161417,935.433071 -461.161417,942.519685 -506.161417,942.519685 -506.161417,935.433071 -542.125984,935.433071 -542.125984,960.147638 -549.212598,960.147638 -549.212598,1027.647673 -542.125984,1027.647673 -542.125984,1077.076736 -549.212598,1077.076736 -549.212598,1144.576772 -542.125984,1144.576772 -542.125984,1169.291339 -506.161417,1169.291339" style="stroke:#000000;fill:none"/><path d="M 542.125984,1169.291339 542.125984,1144.576772 549.212598,1144.576772 549.212598,1077.076736 542.125984,1077.076736 542.125984,1027.647673 549.212598,1027.647673 549.212598,960.147638 542.125984,960.147638 542.125984,935.433071 506.161417,935.433071 506.161417,942.519685 461.161417,942.519685 461.161417,935.433071 425.196850,935.433071 425.196850,960.147638 418.110236,960.147638 418.110236,1027.647673 425.196850,1027.647673 425.196850,1077.076736 418.110236,1077.076736 418.110236,1144.576772 425.196850,1144.576772 425.196850,1169.291339 461.161417,1169.291339 461.161417,1162.204724 506.161417,1162.204724 506.161417,1169.291339 542.125984,1169.291339" style="stroke:#000000;fill:none"/><path d="M -149.084646,1339.370079 -149.084646,1332.283465 -33.749965,1332.283465 -33.749965,1339.370079 33.749965,1339.370079 33.749965,1332.283465 149.084646,1332.283465 149.084646,1339.370079 216.584646,1339.370079 216.584646,1332.283465 304.724409,1332.283465 304.724409,1296.318898 311.811024,1296.318898 311.811024,1251.318898 304.724409,1251.318898 304.724409,1215.354331 216.584646,1215.354331 216.584646,1208.267717 149.084646,1208.267717 149.084646,1215.354331 33.749965,1215.354331 33.749965,1208.267717 -33.749965,1208.267717 -33.749965,1215.354331 -149.084646,1215.354331 -149.084646,1208.267717 -216.584646,1208.267717 -216.584646,1215.354331 -304.724409,1215.354331 -304.724409,1251.318898 -311.811024,1251.318898 -311.811024,1296.318898 -304.724409,1296.318898 -304.724409,1332.283465 -216.584646,1332.283465 -216.584646,1339.370079 -149.084646,1339.370079" style="stroke:#000000;fill:none"/><path d="M -108.303661,1274.562992 -175.803661,1274.562992 -175.803661,1247.562992 -108.303661,1247.562992 -108.303661,1274.562992" style="stroke:#000000;fill:none"/><path d="M 97.928504,1302.120000 95.036102,1302.120000 92.166732,1301.757520 89.365394,1301.038228 86.676024,1299.973465 84.141496,1298.579882 81.801496,1296.879803 79.693228,1294.900157 77.849646,1292.671417 76.299803,1290.229370 75.068150,1287.612283 74.174528,1284.861614 73.632402,1282.020591 73.450984,1279.133858 73.632402,1276.247126 74.174528,1273.406102 75.068150,1270.655433 76.299803,1268.038346 77.849646,1265.596299 79.693228,1263.367559 81.801496,1261.387913 84.141496,1259.687835 86.676024,1258.294252 89.365394,1257.229488 92.166732,1256.510197 95.036102,1256.147717 97.928504,1256.147717 100.797874,1256.510197 103.599567,1257.229488 106.288583,1258.294252 108.823110,1259.687835 111.163110,1261.387913 113.271732,1263.367559 115.115315,1265.596299 116.665157,1268.038346 117.896457,1270.655433 118.790433,1273.406102 119.332205,1276.247126 119.513976,1279.133858 119.332205,1282.020591 118.790433,1284.861614 117.896457,1287.612283 116.665157,1290.229370 115.115315,1292.671417 113.271732,1294.900157 111.163110,1296.879803 108.823110,1298.579882 106.288583,1299.973465 103.599567,1301.038228 100.797874,1301.757520 97.928504,1302.120000" style="stroke:#000000;fill:none"/><path d="M -57.123425,1302.120000 -60.015827,1302.120000 -62.885197,1301.757520 -65.686535,1301.038228 -68.375906,1299.973465 -70.910433,1298.579882 -73.250433,1296.879803 -75.358701,1294.900157 -77.202283,1292.671417 -78.752126,1290.229370 -79.983780,1287.612283 -80.877402,1284.861614 -81.419528,1282.020591 -81.600945,1279.133858 -81.419528,1276.247126 -80.877402,1273.406102 -79.983780,1270.655433 -78.752126,1268.038346 -77.202283,1265.596299 -75.358701,1263.367559 -73.250433,1261.387913 -70.910433,1259.687835 -68.375906,1258.294252 -65.686535,1257.229488 -62.885197,1256.510197 -60.015827,1256.147717 -57.123425,1256.147717 -54.254055,1256.510197 -51.452362,1257.229488 -48.763346,1258.294252 -46.228819,1259.687835 -43.888819,1261.387913 -41.780197,1263.367559 -39.936614,1265.596299 -38.386772,1268.038346 -37.155472,1270.655433 -36.261496,1273.406102 -35.719724,1276.247126 -35.537953,1279.133858 -35.719724,1282.020591 -36.261496,1284.861614 -37.155472,1287.612283 -38.386772,1290.229370 -39.936614,1292.671417 -41.780197,1294.900157 -43.888819,1296.879803 -46.228819,1298.579882 -48.763346,1299.973465 -51.452362,1301.038228 -54.254055,1301.757520 -57.123425,1302.120000" style="stroke:#000000;fill:none"/><path d="M 14.768539,1302.120000 11.876209,1302.120000 9.006732,1301.757520 6.205287,1301.038228 3.516059,1299.973465 0.981471,1298.579882 -1.358369,1296.879803 -3.466804,1294.900157 -5.310425,1292.671417 -6.860232,1290.229370 -8.091709,1287.612283 -8.985472,1284.861614 -9.527457,1282.020591 -9.709051,1279.133858 -9.527457,1276.247126 -8.985472,1273.406102 -8.091709,1270.655433 -6.860232,1268.038346 -5.310425,1265.596299 -3.466804,1263.367559 -1.358369,1261.387913 0.981471,1259.687835 3.516059,1258.294252 6.205287,1257.229488 9.006732,1256.510197 11.876209,1256.147717 14.768539,1256.147717 17.638016,1256.510197 20.439496,1257.229488 23.128724,1258.294252 25.663287,1259.687835 28.003181,1261.387913 30.111626,1263.367559 31.955244,1265.596299 33.505051,1268.038346 34.736528,1270.655433 35.630433,1273.406102 36.172205,1276.247126 36.353976,1279.133858 36.172205,1282.020591 35.630433,1284.861614 34.736528,1287.612283 33.505051,1290.229370 31.955244,1292.671417 30.111626,1294.900157 28.003181,1296.879803 25.663287,1298.579882 23.128724,1299.973465 20.439496,1301.038228 17.638016,1301.757520 14.768539,1302.120000" style="stroke:#000000;fill:none"/><path d="M 182.294646,1302.120000 179.402244,1302.120000 176.532874,1301.757520 173.731181,1301.038228 171.042165,1299.973465 168.507638,1298.579882 166.167638,1296.879803 164.059016,1294.900157 162.215433,1292.671417 160.665591,1290.229370 159.434291,1287.612283 158.540315,1284.861614 157.998543,1282.020591 157.816772,1279.133858 157.998543,1276.247126 158.540315,1273.406102 159.434291,1270.655433 160.665591,1268.038346 162.215433,1265.596299 164.059016,1263.367559 166.167638,1261.387913 168.507638,1259.687835 171.042165,1258.294252 173.731181,1257.229488 176.532874,1256.510197 179.402244,1256.147717 182.294646,1256.147717 185.164016,1256.510197 187.965354,1257.229488 190.654724,1258.294252 193.189252,1259.687835 195.529252,1261.387913 197.637520,1263.367559 199.481102,1265.596299 201.030945,1268.038346 202.262598,1270.655433 203.156220,1273.406102 203.698346,1276.247126 203.879764,1279.133858 203.698346,1282.020591 203.156220,1284.861614 202.262598,1287.612283 201.030945,1290.229370 199.481102,1292.671417 197.637520,1294.900157 195.529252,1296.879803 193.189252,1298.579882 190.654724,1299.973465 187.965354,1301.038228 185.164016,1301.757520 182.294646,1302.120000" style="stroke:#000000;fill:none"/><path d="M 311.811024,1622.834646 311.811024,1622.813386 312.478583,1622.813386 313.802717,1622.646850 315.095669,1622.313780 316.336890,1621.821260 317.506890,1621.179921 318.586890,1620.396850 319.559882,1619.482677 320.410630,1618.451575 321.126024,1617.324803 321.694370,1616.116535 322.106811,1614.848031 322.356969,1613.537008 322.440945,1612.204724 322.440945,1378.346457 322.356969,1377.014173 322.106811,1375.702795 321.694370,1374.433228 321.126024,1373.225315 320.410630,1372.098189 319.559882,1371.069921 318.586890,1370.155748 317.506890,1369.371260 316.336890,1368.728150 315.095669,1368.236693 313.802717,1367.904685 312.478583,1367.737441 311.811024,1367.737441 311.811024,1367.716535 -311.811024,1367.716535 -311.811024,1367.737441 -312.478583,1367.737441 -313.802717,1367.904685 -315.095669,1368.236693 -316.336890,1368.728150 -317.506890,1369.371260 -318.586890,1370.155748 -319.559882,1371.069921 -320.410630,1372.098189 -321.126024,1373.225315 -321.694370,1374.433228 -322.106811,1375.702795 -322.356969,1377.014173 -322.440945,1378.346457 -322.440945,1612.204724 -322.356969,1613.537008 -322.106811,1614.848031 -321.694370,1616.116535 -321.126024,1617.324803 -320.410630,1618.451575 -319.559882,1619.482677 -318.586890,1620.396850 -317.506890,1621.179921 -316.336890,1621.821260 -315.095669,1622.313780 -313.802717,1622.646850 -312.478583,1622.813386 -311.811024,1622.813386 -311.811024,1622.834646 311.811024,1622.834646" style="stroke:#000000;fill:none"/><path d="M -149.084646,1385.433071 -216.584646,1385.433071 -216.584646,1378.346457 -149.084646,1378.346457 -149.084646,1385.433071" style="stroke:#000000;fill:none"/><path d="M 33.749965,1385.433071 -33.749965,1385.433071 -33.749965,1378.346457 33.749965,1378.346457 33.749965,1385.433071" style="stroke:#000000;fill:none"/><path d="M 216.584646,1385.433071 149.084646,1385.433071 149.084646,1378.346457 216.584646,1378.346457 216.584646,1385.433071" style="stroke:#000000;fill:none"/><path d="M 311.811024,1470.561024 304.724409,1470.561024 304.724409,1403.061024 311.811024,1403.061024 311.811024,1470.561024" style="stroke:#000000;fill:none"/><path d="M -304.724409,1470.561024 -311.811024,1470.561024 -311.811024,1403.061024 -304.724409,1403.061024 -304.724409,1470.561024" style="stroke:#000000;fill:none"/><path d="M 278.483386,1417.312205 277.815827,1417.312205 277.153583,1417.227165 276.507283,1417.064173 275.886496,1416.816142 275.301850,1416.493701 274.761850,1416.103937 274.275000,1415.646850 273.849803,1415.133071 273.491929,1414.569685 273.207756,1413.963780 273.001535,1413.329528 272.876457,1412.674016 272.834646,1412.007874 272.876457,1411.341732 273.001535,1410.686220 273.207756,1410.051969 273.491929,1409.446063 273.849803,1408.882677 274.275000,1408.368898 274.761850,1407.911811 275.301850,1407.522047 275.886496,1407.199606 276.507283,1406.951575 277.153583,1406.788583 277.815827,1406.703543 278.483386,1406.703543 279.145630,1406.788583 279.791929,1406.951575 280.412717,1407.199606 280.997362,1407.522047 281.537362,1407.911811 282.023858,1408.368898 282.449409,1408.882677 282.807283,1409.446063 283.091457,1410.051969 283.297677,1410.686220 283.422756,1411.341732 283.464567,1412.007874 283.422756,1412.674016 283.297677,1413.329528 283.091457,1413.963780 282.807283,1414.569685 282.449409,1415.133071 282.023858,1415.646850 281.537362,1416.103937 280.997362,1416.493701 280.412717,1416.816142 279.791929,1417.064173 279.145630,1417.227165 278.483386,1417.312205" style="stroke:#000000;fill:none"/><path d="M -277.815827,1417.312205 -278.483386,1417.312205 -279.145630,1417.227165 -279.791929,1417.064173 -280.412717,1416.816142 -280.997362,1416.493701 -281.537362,1416.103937 -282.023858,1415.646850 -282.449409,1415.133071 -282.807283,1414.569685 -283.091457,1413.963780 -283.297677,1413.329528 -283.422756,1412.674016 -283.464567,1412.007874 -283.422756,1411.341732 -283.297677,1410.686220 -283.091457,1410.051969 -282.807283,1409.446063 -282.449409,1408.882677 -282.023858,1408.368898 -281.537362,1407.911811 -280.997362,1407.522047 -280.412717,1407.199606 -279.791929,1406.951575 -279.145630,1406.788583 -278.483386,1406.703543 -277.815827,1406.703543 -277.153583,1406.788583 -276.507283,1406.951575 -275.886496,1407.199606 -275.301850,1407.522047 -274.761850,1407.911811 -274.275000,1408.368898 -273.849803,1408.882677 -273.491929,1409.446063 -273.207756,1410.051969 -273.001535,1410.686220 -272.876457,1411.341732 -272.834646,1412.007874 -272.876457,1412.674016 -273.001535,1413.329528 -273.207756,1413.963780 -273.491929,1414.569685 -273.849803,1415.133071 -274.275000,1415.646850 -274.761850,1416.103937 -275.301850,1416.493701 -275.886496,1416.816142 -276.507283,1417.064173 -277.153583,1417.227165 -277.815827,1417.312205" style="stroke:#000000;fill:none"/><path d="M 311.811024,1587.490157 304.724409,1587.490157 304.724409,1519.990157 311.811024,1519.990157 311.811024,1587.490157" style="stroke:#000000;fill:none"/><path d="M -304.724409,1587.490157 -311.811024,1587.490157 -311.811024,1519.990157 -304.724409,1519.990157 -304.724409,1587.490157" style="stroke:#000000;fill:none"/><path d="M -277.815827,1583.847638 -278.483386,1583.847638 -279.145630,1583.762598 -279.791929,1583.599606 -280.412717,1583.351575 -280.997362,1583.029134 -281.537362,1582.639370 -282.023858,1582.182283 -282.449409,1581.668504 -282.807283,1581.105118 -283.091457,1580.499213 -283.297677,1579.864961 -283.422756,1579.209449 -283.464567,1578.543307 -283.422756,1577.877165 -283.297677,1577.221654 -283.091457,1576.587402 -282.807283,1575.981496 -282.449409,1575.418110 -282.023858,1574.904331 -281.537362,1574.447244 -280.997362,1574.057480 -280.412717,1573.735039 -279.791929,1573.487008 -279.145630,1573.324016 -278.483386,1573.238976 -277.815827,1573.238976 -277.153583,1573.324016 -276.507283,1573.487008 -275.886496,1573.735039 -275.301850,1574.057480 -274.761850,1574.447244 -274.275000,1574.904331 -273.849803,1575.418110 -273.491929,1575.981496 -273.207756,1576.587402 -273.001535,1577.221654 -272.876457,1577.877165 -272.834646,1578.543307 -272.876457,1579.209449 -273.001535,1579.864961 -273.207756,1580.499213 -273.491929,1581.105118 -273.849803,1581.668504 -274.275000,1582.182283 -274.761850,1582.639370 -275.301850,1583.029134 -275.886496,1583.351575 -276.507283,1583.599606 -277.153583,1583.762598 -277.815827,1583.847638" style="stroke:#000000;fill:none"/><path d="M 278.483386,1583.847638 277.815827,1583.847638 277.153583,1583.762598 276.507283,1583.599606 275.886496,1583.351575 275.301850,1583.029134 274.761850,1582.639370 274.275000,1582.182283 273.849803,1581.668504 273.491929,1581.105118 273.207756,1580.499213 273.001535,1579.864961 272.876457,1579.209449 272.834646,1578.543307 272.876457,1577.877165 273.001535,1577.221654 273.207756,1576.587402 273.491929,1575.981496 273.849803,1575.418110 274.275000,1574.904331 274.761850,1574.447244 275.301850,1574.057480 275.886496,1573.735039 276.507283,1573.487008 277.153583,1573.324016 277.815827,1573.238976 278.483386,1573.238976 279.145630,1573.324016 279.791929,1573.487008 280.412717,1573.735039 280.997362,1574.057480 281.537362,1574.447244 282.023858,1574.904331 282.449409,1575.418110 282.807283,1575.981496 283.091457,1576.587402 283.297677,1577.221654 283.422756,1577.877165 283.464567,1578.543307 283.422756,1579.209449 283.297677,1579.864961 283.091457,1580.499213 282.807283,1581.105118 282.449409,1581.668504 282.023858,1582.182283 281.537362,1582.639370 280.997362,1583.029134 280.412717,1583.351575 279.791929,1583.599606 279.145630,1583.762598 278.483386,1583.847638" style="stroke:#000000;fill:none"/><path d="M -149.084646,1612.204724 -216.584646,1612.204724 -216.584646,1605.118110 -149.084646,1605.118110 -149.084646,1612.204724" style="stroke:#000000;fill:none"/><path d="M 33.749965,1612.204724 -33.749965,1612.204724 -33.749965,1605.118110 33.749965,1605.118110 33.749965,1612.204724" style="stroke:#000000;fill:none"/><path d="M 216.584646,1612.204724 149.084646,1612.204724 149.084646,1605.118110 216.584646,1605.118110 216.584646,1612.204724" style="stroke:#000000;fill:none"/></g></svg>