G04 (created by PCBNEW-RS274X (2011-05-25)-stable) date Sun 01 Dec 2013 10:46:18 PM CET*
G01*
G70*
G90*
%MOIN*%
G04 Gerber Fmt 3.4, Leading zero omitted, Abs format*
%FSLAX34Y34*%
G04 APERTURE LIST*
%ADD10C,0.006000*%
%ADD11R,0.060000X0.069000*%
%ADD12C,0.069000*%
%ADD13R,0.035000X0.055000*%
%ADD14R,0.047200X0.047200*%
%ADD15R,0.055000X0.055000*%
%ADD16C,0.055000*%
%ADD17C,0.120000*%
%ADD18C,0.065000*%
%ADD19C,0.160000*%
%ADD20C,0.025000*%
%ADD21C,0.010000*%
G04 APERTURE END LIST*
G54D10*
G54D11*
X23976Y-52618D03*
G54D12*
X24976Y-52618D03*
X25976Y-52618D03*
X26976Y-52618D03*
X27976Y-52618D03*
X28976Y-52618D03*
X29976Y-52618D03*
X30976Y-52618D03*
X31976Y-52618D03*
X32976Y-52618D03*
X33976Y-52618D03*
X34976Y-52618D03*
X35976Y-52618D03*
X36976Y-52618D03*
X37976Y-52618D03*
X37976Y-46618D03*
X36976Y-46618D03*
X35976Y-46618D03*
X34976Y-46618D03*
X33976Y-46618D03*
X32976Y-46618D03*
X31976Y-46618D03*
X30976Y-46618D03*
X29976Y-46618D03*
X28976Y-46618D03*
X27976Y-46618D03*
X26976Y-46618D03*
X25976Y-46618D03*
X24976Y-46618D03*
X23976Y-46618D03*
G54D13*
X30038Y-56244D03*
X30788Y-56244D03*
G54D14*
X27910Y-56201D03*
X28736Y-56201D03*
G54D15*
X26874Y-28165D03*
G54D16*
X27874Y-28165D03*
X28874Y-28165D03*
X29874Y-28165D03*
X29874Y-25165D03*
X28874Y-25165D03*
X27874Y-25165D03*
X26874Y-25165D03*
G54D15*
X26280Y-37181D03*
G54D16*
X26280Y-36181D03*
X26280Y-35181D03*
X26280Y-34181D03*
X26280Y-33181D03*
X26280Y-32181D03*
X26280Y-31181D03*
X23280Y-31181D03*
X23280Y-32181D03*
X23280Y-33181D03*
X23280Y-34181D03*
X23280Y-35181D03*
X23280Y-36181D03*
X23280Y-37181D03*
G54D17*
X35405Y-11764D03*
X35405Y-15764D03*
G54D18*
X33405Y-13764D03*
X33405Y-12764D03*
G54D17*
X35701Y-21138D03*
X35701Y-25138D03*
G54D18*
X33701Y-23138D03*
X33701Y-22138D03*
G54D17*
X35701Y-30378D03*
X35701Y-34378D03*
G54D18*
X33701Y-32378D03*
X33701Y-31378D03*
G54D17*
X35405Y-38366D03*
X35405Y-42366D03*
G54D18*
X33405Y-40366D03*
X33405Y-39366D03*
G54D17*
X17626Y-14717D03*
X17626Y-10717D03*
G54D18*
X19626Y-12717D03*
X19626Y-13717D03*
G54D17*
X17626Y-23417D03*
X17626Y-19417D03*
G54D18*
X19626Y-21417D03*
X19626Y-22417D03*
G54D17*
X17720Y-32150D03*
X17720Y-28150D03*
G54D18*
X19720Y-30150D03*
X19720Y-31150D03*
G54D17*
X17720Y-39909D03*
X17720Y-35909D03*
G54D18*
X19720Y-37909D03*
X19720Y-38909D03*
G54D17*
X17642Y-47669D03*
X17642Y-43669D03*
G54D18*
X19642Y-45669D03*
X19642Y-46669D03*
G54D17*
X17634Y-55614D03*
X17634Y-51614D03*
G54D18*
X19634Y-53614D03*
X19634Y-54614D03*
G54D19*
X36736Y-09197D03*
X16508Y-08323D03*
X16543Y-58650D03*
X36350Y-55327D03*
G54D20*
X21380Y-36081D02*
X23280Y-34181D01*
X21380Y-51868D02*
X21380Y-36081D01*
X19634Y-53614D02*
X21380Y-51868D01*
X20344Y-38533D02*
X19720Y-37909D01*
X20344Y-44967D02*
X20344Y-38533D01*
X19642Y-45669D02*
X20344Y-44967D01*
X24780Y-33681D02*
X26280Y-35181D01*
X24780Y-17871D02*
X24780Y-33681D01*
X19626Y-12717D02*
X24780Y-17871D01*
X33976Y-40937D02*
X33976Y-46618D01*
X33405Y-40366D02*
X33976Y-40937D01*
X31782Y-51424D02*
X32976Y-52618D01*
X27153Y-51424D02*
X31782Y-51424D01*
X22996Y-47267D02*
X27153Y-51424D01*
X22996Y-43767D02*
X22996Y-47267D01*
X27058Y-39705D02*
X22996Y-43767D01*
X27058Y-30042D02*
X27058Y-39705D01*
X26370Y-29354D02*
X27058Y-30042D01*
X26370Y-27673D02*
X26370Y-29354D01*
X26442Y-27601D02*
X26370Y-27673D01*
X27438Y-27601D02*
X26442Y-27601D01*
X29874Y-25165D02*
X27438Y-27601D01*
X34402Y-50044D02*
X36976Y-52618D01*
X26527Y-50044D02*
X34402Y-50044D01*
X23371Y-46888D02*
X26527Y-50044D01*
X23371Y-45512D02*
X23371Y-46888D01*
X29874Y-39009D02*
X23371Y-45512D01*
X29874Y-28165D02*
X29874Y-39009D01*
X34550Y-46192D02*
X34976Y-46618D01*
X34550Y-33227D02*
X34550Y-46192D01*
X33701Y-32378D02*
X34550Y-33227D01*
X27910Y-52684D02*
X27976Y-52618D01*
X27910Y-56201D02*
X27910Y-52684D01*
X29704Y-55719D02*
X30788Y-55719D01*
X29222Y-56201D02*
X29704Y-55719D01*
X28736Y-56201D02*
X29222Y-56201D01*
X30788Y-56244D02*
X30788Y-55719D01*
X18925Y-29355D02*
X19720Y-30150D01*
X18925Y-22118D02*
X18925Y-29355D01*
X19626Y-21417D02*
X18925Y-22118D01*
G54D10*
G36*
X38123Y-60300D02*
X37400Y-60300D01*
X37400Y-55537D01*
X37400Y-55119D01*
X37240Y-54733D01*
X36945Y-54437D01*
X36560Y-54277D01*
X36142Y-54277D01*
X35756Y-54437D01*
X35460Y-54732D01*
X35300Y-55117D01*
X35300Y-55535D01*
X35460Y-55921D01*
X35755Y-56217D01*
X36140Y-56377D01*
X36558Y-56377D01*
X36944Y-56217D01*
X37240Y-55922D01*
X37400Y-55537D01*
X37400Y-60300D01*
X29988Y-60300D01*
X27315Y-60300D01*
X27315Y-53028D01*
X26976Y-52689D01*
X26905Y-52760D01*
X26905Y-52618D01*
X26566Y-52279D01*
X26488Y-52303D01*
X26480Y-52282D01*
X26313Y-52115D01*
X26094Y-52024D01*
X25858Y-52024D01*
X25640Y-52114D01*
X25476Y-52278D01*
X25313Y-52115D01*
X25094Y-52024D01*
X24858Y-52024D01*
X24640Y-52114D01*
X24525Y-52229D01*
X24525Y-52224D01*
X24487Y-52132D01*
X24417Y-52062D01*
X24326Y-52024D01*
X24227Y-52024D01*
X23627Y-52024D01*
X23535Y-52062D01*
X23465Y-52132D01*
X23427Y-52223D01*
X23427Y-52322D01*
X23427Y-53012D01*
X23465Y-53104D01*
X23535Y-53174D01*
X23626Y-53212D01*
X23725Y-53212D01*
X24325Y-53212D01*
X24417Y-53174D01*
X24487Y-53104D01*
X24525Y-53013D01*
X24525Y-53007D01*
X24639Y-53121D01*
X24858Y-53212D01*
X25094Y-53212D01*
X25312Y-53122D01*
X25476Y-52958D01*
X25639Y-53121D01*
X25858Y-53212D01*
X26094Y-53212D01*
X26312Y-53122D01*
X26479Y-52955D01*
X26488Y-52932D01*
X26566Y-52957D01*
X26905Y-52618D01*
X26905Y-52760D01*
X26637Y-53028D01*
X26668Y-53126D01*
X26886Y-53206D01*
X27118Y-53196D01*
X27284Y-53126D01*
X27315Y-53028D01*
X27315Y-60300D01*
X20202Y-60300D01*
X20202Y-54698D01*
X20190Y-54475D01*
X20126Y-54318D01*
X20030Y-54289D01*
X19705Y-54614D01*
X20030Y-54939D01*
X20126Y-54910D01*
X20202Y-54698D01*
X20202Y-60300D01*
X19959Y-60300D01*
X19959Y-55010D01*
X19634Y-54685D01*
X19563Y-54756D01*
X19563Y-54614D01*
X19238Y-54289D01*
X19142Y-54318D01*
X19066Y-54530D01*
X19078Y-54753D01*
X19142Y-54910D01*
X19238Y-54939D01*
X19563Y-54614D01*
X19563Y-54756D01*
X19309Y-55010D01*
X19338Y-55106D01*
X19550Y-55182D01*
X19773Y-55170D01*
X19930Y-55106D01*
X19959Y-55010D01*
X19959Y-60300D01*
X18570Y-60300D01*
X18570Y-40079D01*
X18570Y-39741D01*
X18570Y-36079D01*
X18570Y-35741D01*
X18570Y-32320D01*
X18570Y-31982D01*
X18441Y-31670D01*
X18202Y-31430D01*
X17890Y-31300D01*
X17552Y-31300D01*
X17240Y-31429D01*
X17000Y-31668D01*
X16870Y-31980D01*
X16870Y-32318D01*
X16999Y-32630D01*
X17238Y-32870D01*
X17550Y-33000D01*
X17888Y-33000D01*
X18200Y-32871D01*
X18440Y-32632D01*
X18570Y-32320D01*
X18570Y-35741D01*
X18441Y-35429D01*
X18202Y-35189D01*
X17890Y-35059D01*
X17552Y-35059D01*
X17240Y-35188D01*
X17000Y-35427D01*
X16870Y-35739D01*
X16870Y-36077D01*
X16999Y-36389D01*
X17238Y-36629D01*
X17550Y-36759D01*
X17888Y-36759D01*
X18200Y-36630D01*
X18440Y-36391D01*
X18570Y-36079D01*
X18570Y-39741D01*
X18441Y-39429D01*
X18202Y-39189D01*
X17890Y-39059D01*
X17552Y-39059D01*
X17240Y-39188D01*
X17000Y-39427D01*
X16870Y-39739D01*
X16870Y-40077D01*
X16999Y-40389D01*
X17238Y-40629D01*
X17550Y-40759D01*
X17888Y-40759D01*
X18200Y-40630D01*
X18440Y-40391D01*
X18570Y-40079D01*
X18570Y-60300D01*
X18492Y-60300D01*
X18492Y-47839D01*
X18492Y-47501D01*
X18492Y-43839D01*
X18492Y-43501D01*
X18363Y-43189D01*
X18124Y-42949D01*
X17812Y-42819D01*
X17474Y-42819D01*
X17162Y-42948D01*
X16922Y-43187D01*
X16792Y-43499D01*
X16792Y-43837D01*
X16921Y-44149D01*
X17160Y-44389D01*
X17472Y-44519D01*
X17810Y-44519D01*
X18122Y-44390D01*
X18362Y-44151D01*
X18492Y-43839D01*
X18492Y-47501D01*
X18363Y-47189D01*
X18124Y-46949D01*
X17812Y-46819D01*
X17474Y-46819D01*
X17162Y-46948D01*
X16922Y-47187D01*
X16792Y-47499D01*
X16792Y-47837D01*
X16921Y-48149D01*
X17160Y-48389D01*
X17472Y-48519D01*
X17810Y-48519D01*
X18122Y-48390D01*
X18362Y-48151D01*
X18492Y-47839D01*
X18492Y-60300D01*
X18484Y-60300D01*
X18484Y-55784D01*
X18484Y-55446D01*
X18484Y-51784D01*
X18484Y-51446D01*
X18355Y-51134D01*
X18116Y-50894D01*
X17804Y-50764D01*
X17466Y-50764D01*
X17154Y-50893D01*
X16914Y-51132D01*
X16784Y-51444D01*
X16784Y-51782D01*
X16913Y-52094D01*
X17152Y-52334D01*
X17464Y-52464D01*
X17802Y-52464D01*
X18114Y-52335D01*
X18354Y-52096D01*
X18484Y-51784D01*
X18484Y-55446D01*
X18355Y-55134D01*
X18116Y-54894D01*
X17804Y-54764D01*
X17466Y-54764D01*
X17154Y-54893D01*
X16914Y-55132D01*
X16784Y-55444D01*
X16784Y-55782D01*
X16913Y-56094D01*
X17152Y-56334D01*
X17464Y-56464D01*
X17802Y-56464D01*
X18114Y-56335D01*
X18354Y-56096D01*
X18484Y-55784D01*
X18484Y-60300D01*
X17593Y-60300D01*
X17593Y-58860D01*
X17593Y-58442D01*
X17433Y-58056D01*
X17138Y-57760D01*
X16753Y-57600D01*
X16335Y-57600D01*
X15949Y-57760D01*
X15653Y-58055D01*
X15493Y-58440D01*
X15493Y-58858D01*
X15653Y-59244D01*
X15948Y-59540D01*
X16333Y-59700D01*
X16751Y-59700D01*
X17137Y-59540D01*
X17433Y-59245D01*
X17593Y-58860D01*
X17593Y-60300D01*
X15424Y-60300D01*
X15473Y-08808D01*
X15475Y-08768D01*
X15465Y-08549D01*
X15618Y-08917D01*
X15913Y-09213D01*
X16298Y-09373D01*
X16716Y-09373D01*
X17102Y-09213D01*
X17398Y-08918D01*
X17558Y-08533D01*
X17558Y-08115D01*
X17398Y-07729D01*
X17103Y-07433D01*
X16718Y-07273D01*
X16300Y-07273D01*
X15914Y-07433D01*
X15618Y-07728D01*
X15458Y-08113D01*
X15458Y-08369D01*
X15401Y-07034D01*
X38095Y-07034D01*
X38115Y-46032D01*
X38094Y-46024D01*
X37858Y-46024D01*
X37786Y-46053D01*
X37786Y-09407D01*
X37786Y-08989D01*
X37626Y-08603D01*
X37331Y-08307D01*
X36946Y-08147D01*
X36528Y-08147D01*
X36142Y-08307D01*
X35846Y-08602D01*
X35686Y-08987D01*
X35686Y-09405D01*
X35846Y-09791D01*
X36141Y-10087D01*
X36526Y-10247D01*
X36944Y-10247D01*
X37330Y-10087D01*
X37626Y-09792D01*
X37786Y-09407D01*
X37786Y-46053D01*
X37640Y-46114D01*
X37476Y-46278D01*
X37313Y-46115D01*
X37094Y-46024D01*
X36858Y-46024D01*
X36640Y-46114D01*
X36476Y-46278D01*
X36313Y-46115D01*
X36094Y-46024D01*
X35858Y-46024D01*
X35640Y-46114D01*
X35476Y-46278D01*
X35313Y-46115D01*
X35094Y-46024D01*
X34925Y-46024D01*
X34925Y-43086D01*
X35235Y-43216D01*
X35573Y-43216D01*
X35885Y-43087D01*
X36125Y-42848D01*
X36255Y-42536D01*
X36255Y-42198D01*
X36126Y-41886D01*
X35887Y-41646D01*
X35575Y-41516D01*
X35237Y-41516D01*
X34925Y-41645D01*
X34925Y-39086D01*
X35235Y-39216D01*
X35573Y-39216D01*
X35885Y-39087D01*
X36125Y-38848D01*
X36255Y-38536D01*
X36255Y-38198D01*
X36126Y-37886D01*
X35887Y-37646D01*
X35575Y-37516D01*
X35237Y-37516D01*
X34925Y-37645D01*
X34925Y-34724D01*
X34980Y-34858D01*
X35219Y-35098D01*
X35531Y-35228D01*
X35869Y-35228D01*
X36181Y-35099D01*
X36421Y-34860D01*
X36551Y-34548D01*
X36551Y-34210D01*
X36551Y-30548D01*
X36551Y-30210D01*
X36551Y-25308D01*
X36551Y-24970D01*
X36551Y-21308D01*
X36551Y-20970D01*
X36422Y-20658D01*
X36255Y-20490D01*
X36255Y-15934D01*
X36255Y-15596D01*
X36255Y-11934D01*
X36255Y-11596D01*
X36126Y-11284D01*
X35887Y-11044D01*
X35575Y-10914D01*
X35237Y-10914D01*
X34925Y-11043D01*
X34685Y-11282D01*
X34555Y-11594D01*
X34555Y-11932D01*
X34684Y-12244D01*
X34923Y-12484D01*
X35235Y-12614D01*
X35573Y-12614D01*
X35885Y-12485D01*
X36125Y-12246D01*
X36255Y-11934D01*
X36255Y-15596D01*
X36126Y-15284D01*
X35887Y-15044D01*
X35575Y-14914D01*
X35237Y-14914D01*
X34925Y-15043D01*
X34685Y-15282D01*
X34555Y-15594D01*
X34555Y-15932D01*
X34684Y-16244D01*
X34923Y-16484D01*
X35235Y-16614D01*
X35573Y-16614D01*
X35885Y-16485D01*
X36125Y-16246D01*
X36255Y-15934D01*
X36255Y-20490D01*
X36183Y-20418D01*
X35871Y-20288D01*
X35533Y-20288D01*
X35221Y-20417D01*
X34981Y-20656D01*
X34851Y-20968D01*
X34851Y-21306D01*
X34980Y-21618D01*
X35219Y-21858D01*
X35531Y-21988D01*
X35869Y-21988D01*
X36181Y-21859D01*
X36421Y-21620D01*
X36551Y-21308D01*
X36551Y-24970D01*
X36422Y-24658D01*
X36183Y-24418D01*
X35871Y-24288D01*
X35533Y-24288D01*
X35221Y-24417D01*
X34981Y-24656D01*
X34851Y-24968D01*
X34851Y-25306D01*
X34980Y-25618D01*
X35219Y-25858D01*
X35531Y-25988D01*
X35869Y-25988D01*
X36181Y-25859D01*
X36421Y-25620D01*
X36551Y-25308D01*
X36551Y-30210D01*
X36422Y-29898D01*
X36183Y-29658D01*
X35871Y-29528D01*
X35533Y-29528D01*
X35221Y-29657D01*
X34981Y-29896D01*
X34851Y-30208D01*
X34851Y-30546D01*
X34980Y-30858D01*
X35219Y-31098D01*
X35531Y-31228D01*
X35869Y-31228D01*
X36181Y-31099D01*
X36421Y-30860D01*
X36551Y-30548D01*
X36551Y-34210D01*
X36422Y-33898D01*
X36183Y-33658D01*
X35871Y-33528D01*
X35533Y-33528D01*
X35221Y-33657D01*
X34981Y-33896D01*
X34925Y-34030D01*
X34925Y-33227D01*
X34896Y-33084D01*
X34896Y-33083D01*
X34855Y-33022D01*
X34815Y-32962D01*
X34815Y-32961D01*
X34276Y-32422D01*
X34276Y-32264D01*
X34276Y-23253D01*
X34276Y-23024D01*
X34269Y-23007D01*
X34269Y-22222D01*
X34257Y-21999D01*
X34193Y-21842D01*
X34097Y-21813D01*
X34026Y-21884D01*
X34026Y-21742D01*
X33997Y-21646D01*
X33980Y-21639D01*
X33980Y-13879D01*
X33980Y-13650D01*
X33973Y-13633D01*
X33973Y-12848D01*
X33961Y-12625D01*
X33897Y-12468D01*
X33801Y-12439D01*
X33730Y-12510D01*
X33730Y-12368D01*
X33701Y-12272D01*
X33489Y-12196D01*
X33266Y-12208D01*
X33109Y-12272D01*
X33080Y-12368D01*
X33405Y-12693D01*
X33730Y-12368D01*
X33730Y-12510D01*
X33476Y-12764D01*
X33801Y-13089D01*
X33897Y-13060D01*
X33973Y-12848D01*
X33973Y-13633D01*
X33893Y-13439D01*
X33731Y-13277D01*
X33690Y-13260D01*
X33701Y-13256D01*
X33730Y-13160D01*
X33405Y-12835D01*
X33334Y-12906D01*
X33334Y-12764D01*
X33009Y-12439D01*
X32913Y-12468D01*
X32837Y-12680D01*
X32849Y-12903D01*
X32913Y-13060D01*
X33009Y-13089D01*
X33334Y-12764D01*
X33334Y-12906D01*
X33080Y-13160D01*
X33109Y-13256D01*
X33119Y-13259D01*
X33080Y-13276D01*
X32918Y-13438D01*
X32830Y-13649D01*
X32830Y-13878D01*
X32917Y-14089D01*
X33079Y-14251D01*
X33290Y-14339D01*
X33519Y-14339D01*
X33730Y-14252D01*
X33892Y-14090D01*
X33980Y-13879D01*
X33980Y-21639D01*
X33785Y-21570D01*
X33562Y-21582D01*
X33405Y-21646D01*
X33376Y-21742D01*
X33701Y-22067D01*
X34026Y-21742D01*
X34026Y-21884D01*
X33772Y-22138D01*
X34097Y-22463D01*
X34193Y-22434D01*
X34269Y-22222D01*
X34269Y-23007D01*
X34189Y-22813D01*
X34027Y-22651D01*
X33986Y-22634D01*
X33997Y-22630D01*
X34026Y-22534D01*
X33701Y-22209D01*
X33630Y-22280D01*
X33630Y-22138D01*
X33305Y-21813D01*
X33209Y-21842D01*
X33133Y-22054D01*
X33145Y-22277D01*
X33209Y-22434D01*
X33305Y-22463D01*
X33630Y-22138D01*
X33630Y-22280D01*
X33376Y-22534D01*
X33405Y-22630D01*
X33415Y-22633D01*
X33376Y-22650D01*
X33214Y-22812D01*
X33126Y-23023D01*
X33126Y-23252D01*
X33213Y-23463D01*
X33375Y-23625D01*
X33586Y-23713D01*
X33815Y-23713D01*
X34026Y-23626D01*
X34188Y-23464D01*
X34276Y-23253D01*
X34276Y-32264D01*
X34269Y-32247D01*
X34269Y-31462D01*
X34257Y-31239D01*
X34193Y-31082D01*
X34097Y-31053D01*
X34026Y-31124D01*
X34026Y-30982D01*
X33997Y-30886D01*
X33785Y-30810D01*
X33562Y-30822D01*
X33405Y-30886D01*
X33376Y-30982D01*
X33701Y-31307D01*
X34026Y-30982D01*
X34026Y-31124D01*
X33772Y-31378D01*
X34097Y-31703D01*
X34193Y-31674D01*
X34269Y-31462D01*
X34269Y-32247D01*
X34189Y-32053D01*
X34027Y-31891D01*
X33986Y-31874D01*
X33997Y-31870D01*
X34026Y-31774D01*
X33701Y-31449D01*
X33630Y-31520D01*
X33630Y-31378D01*
X33305Y-31053D01*
X33209Y-31082D01*
X33133Y-31294D01*
X33145Y-31517D01*
X33209Y-31674D01*
X33305Y-31703D01*
X33630Y-31378D01*
X33630Y-31520D01*
X33376Y-31774D01*
X33405Y-31870D01*
X33415Y-31873D01*
X33376Y-31890D01*
X33214Y-32052D01*
X33126Y-32263D01*
X33126Y-32492D01*
X33213Y-32703D01*
X33375Y-32865D01*
X33586Y-32953D01*
X33745Y-32953D01*
X34175Y-33382D01*
X34175Y-40605D01*
X33980Y-40410D01*
X33980Y-40252D01*
X33973Y-40235D01*
X33973Y-39450D01*
X33961Y-39227D01*
X33897Y-39070D01*
X33801Y-39041D01*
X33730Y-39112D01*
X33730Y-38970D01*
X33701Y-38874D01*
X33489Y-38798D01*
X33266Y-38810D01*
X33109Y-38874D01*
X33080Y-38970D01*
X33405Y-39295D01*
X33730Y-38970D01*
X33730Y-39112D01*
X33476Y-39366D01*
X33801Y-39691D01*
X33897Y-39662D01*
X33973Y-39450D01*
X33973Y-40235D01*
X33893Y-40041D01*
X33731Y-39879D01*
X33690Y-39862D01*
X33701Y-39858D01*
X33730Y-39762D01*
X33405Y-39437D01*
X33334Y-39508D01*
X33334Y-39366D01*
X33009Y-39041D01*
X32913Y-39070D01*
X32837Y-39282D01*
X32849Y-39505D01*
X32913Y-39662D01*
X33009Y-39691D01*
X33334Y-39366D01*
X33334Y-39508D01*
X33080Y-39762D01*
X33109Y-39858D01*
X33119Y-39861D01*
X33080Y-39878D01*
X32918Y-40040D01*
X32830Y-40251D01*
X32830Y-40480D01*
X32917Y-40691D01*
X33079Y-40853D01*
X33290Y-40941D01*
X33449Y-40941D01*
X33601Y-41092D01*
X33601Y-46153D01*
X33476Y-46278D01*
X33313Y-46115D01*
X33094Y-46024D01*
X32858Y-46024D01*
X32640Y-46114D01*
X32476Y-46278D01*
X32313Y-46115D01*
X32094Y-46024D01*
X31858Y-46024D01*
X31640Y-46114D01*
X31476Y-46278D01*
X31313Y-46115D01*
X31094Y-46024D01*
X30858Y-46024D01*
X30640Y-46114D01*
X30476Y-46278D01*
X30313Y-46115D01*
X30094Y-46024D01*
X29858Y-46024D01*
X29640Y-46114D01*
X29476Y-46278D01*
X29313Y-46115D01*
X29094Y-46024D01*
X28858Y-46024D01*
X28640Y-46114D01*
X28476Y-46278D01*
X28313Y-46115D01*
X28094Y-46024D01*
X27858Y-46024D01*
X27640Y-46114D01*
X27476Y-46278D01*
X27313Y-46115D01*
X27094Y-46024D01*
X26858Y-46024D01*
X26640Y-46114D01*
X26476Y-46278D01*
X26313Y-46115D01*
X26094Y-46024D01*
X25858Y-46024D01*
X25640Y-46114D01*
X25473Y-46281D01*
X25463Y-46303D01*
X25386Y-46279D01*
X25315Y-46350D01*
X25315Y-46208D01*
X25284Y-46110D01*
X25066Y-46030D01*
X24834Y-46040D01*
X24668Y-46110D01*
X24637Y-46208D01*
X24976Y-46547D01*
X25315Y-46208D01*
X25315Y-46350D01*
X25047Y-46618D01*
X25386Y-46957D01*
X25463Y-46932D01*
X25472Y-46954D01*
X25639Y-47121D01*
X25858Y-47212D01*
X26094Y-47212D01*
X26312Y-47122D01*
X26476Y-46958D01*
X26639Y-47121D01*
X26858Y-47212D01*
X27094Y-47212D01*
X27312Y-47122D01*
X27476Y-46958D01*
X27639Y-47121D01*
X27858Y-47212D01*
X28094Y-47212D01*
X28312Y-47122D01*
X28476Y-46958D01*
X28639Y-47121D01*
X28858Y-47212D01*
X29094Y-47212D01*
X29312Y-47122D01*
X29476Y-46958D01*
X29639Y-47121D01*
X29858Y-47212D01*
X30094Y-47212D01*
X30312Y-47122D01*
X30476Y-46958D01*
X30639Y-47121D01*
X30858Y-47212D01*
X31094Y-47212D01*
X31312Y-47122D01*
X31476Y-46958D01*
X31639Y-47121D01*
X31858Y-47212D01*
X32094Y-47212D01*
X32312Y-47122D01*
X32476Y-46958D01*
X32639Y-47121D01*
X32858Y-47212D01*
X33094Y-47212D01*
X33312Y-47122D01*
X33476Y-46958D01*
X33639Y-47121D01*
X33858Y-47212D01*
X34094Y-47212D01*
X34312Y-47122D01*
X34476Y-46958D01*
X34639Y-47121D01*
X34858Y-47212D01*
X35094Y-47212D01*
X35312Y-47122D01*
X35476Y-46958D01*
X35639Y-47121D01*
X35858Y-47212D01*
X36094Y-47212D01*
X36312Y-47122D01*
X36476Y-46958D01*
X36639Y-47121D01*
X36858Y-47212D01*
X37094Y-47212D01*
X37312Y-47122D01*
X37476Y-46958D01*
X37639Y-47121D01*
X37858Y-47212D01*
X38094Y-47212D01*
X38116Y-47202D01*
X38118Y-52034D01*
X38094Y-52024D01*
X37858Y-52024D01*
X37640Y-52114D01*
X37476Y-52278D01*
X37313Y-52115D01*
X37094Y-52024D01*
X36912Y-52024D01*
X34667Y-49779D01*
X34546Y-49698D01*
X34402Y-49669D01*
X26682Y-49669D01*
X25315Y-48302D01*
X25315Y-47028D01*
X24976Y-46689D01*
X24637Y-47028D01*
X24668Y-47126D01*
X24886Y-47206D01*
X25118Y-47196D01*
X25284Y-47126D01*
X25315Y-47028D01*
X25315Y-48302D01*
X24186Y-47173D01*
X24312Y-47122D01*
X24479Y-46955D01*
X24488Y-46932D01*
X24566Y-46957D01*
X24905Y-46618D01*
X24566Y-46279D01*
X24488Y-46303D01*
X24480Y-46282D01*
X24313Y-46115D01*
X24094Y-46024D01*
X23858Y-46024D01*
X23746Y-46070D01*
X23746Y-45667D01*
X30139Y-39275D01*
X30139Y-39274D01*
X30179Y-39213D01*
X30220Y-39153D01*
X30220Y-39152D01*
X30248Y-39009D01*
X30249Y-39009D01*
X30249Y-28532D01*
X30319Y-28463D01*
X30399Y-28270D01*
X30399Y-28061D01*
X30319Y-27868D01*
X30172Y-27720D01*
X29979Y-27640D01*
X29770Y-27640D01*
X29577Y-27720D01*
X29429Y-27867D01*
X29373Y-28000D01*
X29319Y-27868D01*
X29172Y-27720D01*
X28979Y-27640D01*
X28770Y-27640D01*
X28577Y-27720D01*
X28429Y-27867D01*
X28373Y-28000D01*
X28319Y-27868D01*
X28172Y-27720D01*
X27979Y-27640D01*
X27929Y-27640D01*
X29879Y-25690D01*
X29978Y-25690D01*
X30171Y-25610D01*
X30319Y-25463D01*
X30399Y-25270D01*
X30399Y-25061D01*
X30319Y-24868D01*
X30172Y-24720D01*
X29979Y-24640D01*
X29770Y-24640D01*
X29577Y-24720D01*
X29429Y-24867D01*
X29373Y-25000D01*
X29319Y-24868D01*
X29172Y-24720D01*
X28979Y-24640D01*
X28770Y-24640D01*
X28577Y-24720D01*
X28429Y-24867D01*
X28370Y-25007D01*
X28326Y-24898D01*
X28235Y-24875D01*
X28164Y-24946D01*
X28164Y-24804D01*
X28141Y-24713D01*
X27948Y-24646D01*
X27744Y-24657D01*
X27607Y-24713D01*
X27584Y-24804D01*
X27874Y-25094D01*
X28164Y-24804D01*
X28164Y-24946D01*
X27945Y-25165D01*
X28235Y-25455D01*
X28326Y-25432D01*
X28367Y-25313D01*
X28429Y-25462D01*
X28576Y-25610D01*
X28769Y-25690D01*
X28819Y-25690D01*
X28164Y-26345D01*
X28164Y-25526D01*
X27874Y-25236D01*
X27803Y-25307D01*
X27803Y-25165D01*
X27513Y-24875D01*
X27422Y-24898D01*
X27380Y-25016D01*
X27319Y-24868D01*
X27172Y-24720D01*
X26979Y-24640D01*
X26770Y-24640D01*
X26577Y-24720D01*
X26429Y-24867D01*
X26349Y-25060D01*
X26349Y-25269D01*
X26429Y-25462D01*
X26576Y-25610D01*
X26769Y-25690D01*
X26978Y-25690D01*
X27171Y-25610D01*
X27319Y-25463D01*
X27377Y-25322D01*
X27422Y-25432D01*
X27513Y-25455D01*
X27803Y-25165D01*
X27803Y-25307D01*
X27584Y-25526D01*
X27607Y-25617D01*
X27800Y-25684D01*
X28004Y-25673D01*
X28141Y-25617D01*
X28164Y-25526D01*
X28164Y-26345D01*
X27283Y-27226D01*
X26442Y-27226D01*
X26298Y-27255D01*
X26237Y-27295D01*
X26176Y-27336D01*
X26105Y-27408D01*
X26024Y-27529D01*
X25995Y-27673D01*
X25995Y-29354D01*
X26024Y-29498D01*
X26105Y-29619D01*
X26683Y-30197D01*
X26683Y-30901D01*
X26641Y-30891D01*
X26570Y-30962D01*
X26570Y-30820D01*
X26547Y-30729D01*
X26354Y-30662D01*
X26150Y-30673D01*
X26013Y-30729D01*
X25990Y-30820D01*
X26280Y-31110D01*
X26570Y-30820D01*
X26570Y-30962D01*
X26351Y-31181D01*
X26641Y-31471D01*
X26683Y-31460D01*
X26683Y-31841D01*
X26578Y-31736D01*
X26437Y-31677D01*
X26547Y-31633D01*
X26570Y-31542D01*
X26280Y-31252D01*
X26209Y-31323D01*
X26209Y-31181D01*
X25919Y-30891D01*
X25828Y-30914D01*
X25761Y-31107D01*
X25772Y-31311D01*
X25828Y-31448D01*
X25919Y-31471D01*
X26209Y-31181D01*
X26209Y-31323D01*
X25990Y-31542D01*
X26013Y-31633D01*
X26131Y-31674D01*
X25983Y-31736D01*
X25835Y-31883D01*
X25755Y-32076D01*
X25755Y-32285D01*
X25835Y-32478D01*
X25982Y-32626D01*
X26115Y-32681D01*
X25983Y-32736D01*
X25835Y-32883D01*
X25755Y-33076D01*
X25755Y-33285D01*
X25835Y-33478D01*
X25982Y-33626D01*
X26122Y-33684D01*
X26013Y-33729D01*
X25990Y-33820D01*
X26280Y-34110D01*
X26570Y-33820D01*
X26547Y-33729D01*
X26428Y-33687D01*
X26577Y-33626D01*
X26683Y-33520D01*
X26683Y-33901D01*
X26641Y-33891D01*
X26351Y-34181D01*
X26641Y-34471D01*
X26683Y-34460D01*
X26683Y-34841D01*
X26578Y-34736D01*
X26437Y-34677D01*
X26547Y-34633D01*
X26570Y-34542D01*
X26315Y-34287D01*
X26280Y-34252D01*
X26209Y-34181D01*
X26174Y-34146D01*
X25919Y-33891D01*
X25828Y-33914D01*
X25761Y-34107D01*
X25762Y-34133D01*
X25155Y-33526D01*
X25155Y-17871D01*
X25154Y-17870D01*
X25126Y-17728D01*
X25126Y-17727D01*
X25085Y-17666D01*
X25045Y-17606D01*
X25045Y-17605D01*
X20201Y-12761D01*
X20201Y-12603D01*
X20114Y-12392D01*
X19952Y-12230D01*
X19741Y-12142D01*
X19512Y-12142D01*
X19301Y-12229D01*
X19139Y-12391D01*
X19051Y-12602D01*
X19051Y-12831D01*
X19138Y-13042D01*
X19300Y-13204D01*
X19340Y-13220D01*
X19330Y-13225D01*
X19301Y-13321D01*
X19591Y-13611D01*
X19626Y-13646D01*
X19697Y-13717D01*
X19732Y-13752D01*
X20022Y-14042D01*
X20118Y-14013D01*
X20190Y-13811D01*
X24405Y-18026D01*
X24405Y-33681D01*
X24434Y-33825D01*
X24515Y-33946D01*
X25755Y-35186D01*
X25755Y-35285D01*
X25835Y-35478D01*
X25982Y-35626D01*
X26115Y-35681D01*
X25983Y-35736D01*
X25835Y-35883D01*
X25755Y-36076D01*
X25755Y-36285D01*
X25835Y-36478D01*
X25982Y-36626D01*
X26056Y-36656D01*
X26054Y-36657D01*
X25955Y-36657D01*
X25864Y-36695D01*
X25794Y-36765D01*
X25756Y-36857D01*
X25755Y-37069D01*
X25817Y-37131D01*
X26180Y-37131D01*
X26230Y-37131D01*
X26330Y-37131D01*
X26330Y-37231D01*
X26330Y-37281D01*
X26330Y-37644D01*
X26392Y-37706D01*
X26506Y-37705D01*
X26605Y-37705D01*
X26683Y-37672D01*
X26683Y-39549D01*
X26230Y-40002D01*
X26230Y-37644D01*
X26230Y-37231D01*
X25817Y-37231D01*
X25755Y-37293D01*
X25756Y-37505D01*
X25794Y-37597D01*
X25864Y-37667D01*
X25955Y-37705D01*
X26054Y-37705D01*
X26168Y-37706D01*
X26230Y-37644D01*
X26230Y-40002D01*
X23805Y-42427D01*
X23805Y-37286D01*
X23805Y-37077D01*
X23805Y-35286D01*
X23805Y-35077D01*
X23725Y-34884D01*
X23578Y-34736D01*
X23444Y-34680D01*
X23577Y-34626D01*
X23725Y-34479D01*
X23805Y-34286D01*
X23805Y-34077D01*
X23805Y-32286D01*
X23805Y-32077D01*
X23725Y-31884D01*
X23578Y-31736D01*
X23444Y-31680D01*
X23577Y-31626D01*
X23725Y-31479D01*
X23805Y-31286D01*
X23805Y-31077D01*
X23725Y-30884D01*
X23578Y-30736D01*
X23385Y-30656D01*
X23176Y-30656D01*
X22983Y-30736D01*
X22835Y-30883D01*
X22755Y-31076D01*
X22755Y-31285D01*
X22835Y-31478D01*
X22982Y-31626D01*
X23115Y-31681D01*
X22983Y-31736D01*
X22835Y-31883D01*
X22755Y-32076D01*
X22755Y-32285D01*
X22835Y-32478D01*
X22982Y-32626D01*
X23122Y-32684D01*
X23013Y-32729D01*
X22990Y-32820D01*
X23280Y-33110D01*
X23570Y-32820D01*
X23547Y-32729D01*
X23428Y-32687D01*
X23577Y-32626D01*
X23725Y-32479D01*
X23805Y-32286D01*
X23805Y-34077D01*
X23799Y-34062D01*
X23799Y-33255D01*
X23788Y-33051D01*
X23732Y-32914D01*
X23641Y-32891D01*
X23351Y-33181D01*
X23641Y-33471D01*
X23732Y-33448D01*
X23799Y-33255D01*
X23799Y-34062D01*
X23725Y-33884D01*
X23578Y-33736D01*
X23437Y-33677D01*
X23547Y-33633D01*
X23570Y-33542D01*
X23280Y-33252D01*
X23209Y-33323D01*
X23209Y-33181D01*
X22919Y-32891D01*
X22828Y-32914D01*
X22761Y-33107D01*
X22772Y-33311D01*
X22828Y-33448D01*
X22919Y-33471D01*
X23209Y-33181D01*
X23209Y-33323D01*
X22990Y-33542D01*
X23013Y-33633D01*
X23131Y-33674D01*
X22983Y-33736D01*
X22835Y-33883D01*
X22755Y-34076D01*
X22755Y-34176D01*
X21115Y-35816D01*
X21034Y-35937D01*
X21005Y-36081D01*
X21005Y-51713D01*
X20719Y-51999D01*
X20719Y-44967D01*
X20719Y-38533D01*
X20690Y-38390D01*
X20690Y-38389D01*
X20609Y-38268D01*
X20295Y-37954D01*
X20295Y-37795D01*
X20295Y-30265D01*
X20295Y-30036D01*
X20208Y-29825D01*
X20194Y-29811D01*
X20194Y-22501D01*
X20182Y-22278D01*
X20118Y-22121D01*
X20022Y-22092D01*
X19697Y-22417D01*
X20022Y-22742D01*
X20118Y-22713D01*
X20194Y-22501D01*
X20194Y-29811D01*
X20046Y-29663D01*
X19951Y-29623D01*
X19835Y-29575D01*
X19675Y-29575D01*
X19300Y-29200D01*
X19300Y-22884D01*
X19317Y-22866D01*
X19330Y-22909D01*
X19542Y-22985D01*
X19765Y-22973D01*
X19922Y-22909D01*
X19951Y-22813D01*
X19661Y-22523D01*
X19626Y-22488D01*
X19555Y-22417D01*
X19626Y-22346D01*
X19661Y-22311D01*
X19951Y-22021D01*
X19922Y-21925D01*
X19911Y-21921D01*
X19951Y-21905D01*
X20113Y-21743D01*
X20201Y-21532D01*
X20201Y-21303D01*
X20114Y-21092D01*
X19952Y-20930D01*
X19951Y-20929D01*
X19951Y-14113D01*
X19626Y-13788D01*
X19555Y-13859D01*
X19555Y-13717D01*
X19230Y-13392D01*
X19134Y-13421D01*
X19058Y-13633D01*
X19070Y-13856D01*
X19134Y-14013D01*
X19230Y-14042D01*
X19555Y-13717D01*
X19555Y-13859D01*
X19301Y-14113D01*
X19330Y-14209D01*
X19542Y-14285D01*
X19765Y-14273D01*
X19922Y-14209D01*
X19951Y-14113D01*
X19951Y-20929D01*
X19741Y-20842D01*
X19512Y-20842D01*
X19301Y-20929D01*
X19139Y-21091D01*
X19051Y-21302D01*
X19051Y-21462D01*
X18660Y-21853D01*
X18579Y-21974D01*
X18550Y-22118D01*
X18550Y-27933D01*
X18476Y-27754D01*
X18476Y-23587D01*
X18476Y-23249D01*
X18476Y-19587D01*
X18476Y-19249D01*
X18476Y-14887D01*
X18476Y-14549D01*
X18476Y-10887D01*
X18476Y-10549D01*
X18347Y-10237D01*
X18108Y-09997D01*
X17796Y-09867D01*
X17458Y-09867D01*
X17146Y-09996D01*
X16906Y-10235D01*
X16776Y-10547D01*
X16776Y-10885D01*
X16905Y-11197D01*
X17144Y-11437D01*
X17456Y-11567D01*
X17794Y-11567D01*
X18106Y-11438D01*
X18346Y-11199D01*
X18476Y-10887D01*
X18476Y-14549D01*
X18347Y-14237D01*
X18108Y-13997D01*
X17796Y-13867D01*
X17458Y-13867D01*
X17146Y-13996D01*
X16906Y-14235D01*
X16776Y-14547D01*
X16776Y-14885D01*
X16905Y-15197D01*
X17144Y-15437D01*
X17456Y-15567D01*
X17794Y-15567D01*
X18106Y-15438D01*
X18346Y-15199D01*
X18476Y-14887D01*
X18476Y-19249D01*
X18347Y-18937D01*
X18108Y-18697D01*
X17796Y-18567D01*
X17458Y-18567D01*
X17146Y-18696D01*
X16906Y-18935D01*
X16776Y-19247D01*
X16776Y-19585D01*
X16905Y-19897D01*
X17144Y-20137D01*
X17456Y-20267D01*
X17794Y-20267D01*
X18106Y-20138D01*
X18346Y-19899D01*
X18476Y-19587D01*
X18476Y-23249D01*
X18347Y-22937D01*
X18108Y-22697D01*
X17796Y-22567D01*
X17458Y-22567D01*
X17146Y-22696D01*
X16906Y-22935D01*
X16776Y-23247D01*
X16776Y-23585D01*
X16905Y-23897D01*
X17144Y-24137D01*
X17456Y-24267D01*
X17794Y-24267D01*
X18106Y-24138D01*
X18346Y-23899D01*
X18476Y-23587D01*
X18476Y-27754D01*
X18441Y-27670D01*
X18202Y-27430D01*
X17890Y-27300D01*
X17552Y-27300D01*
X17240Y-27429D01*
X17000Y-27668D01*
X16870Y-27980D01*
X16870Y-28318D01*
X16999Y-28630D01*
X17238Y-28870D01*
X17550Y-29000D01*
X17888Y-29000D01*
X18200Y-28871D01*
X18440Y-28632D01*
X18550Y-28368D01*
X18550Y-29355D01*
X18579Y-29499D01*
X18660Y-29620D01*
X19145Y-30105D01*
X19145Y-30264D01*
X19232Y-30475D01*
X19394Y-30637D01*
X19434Y-30653D01*
X19424Y-30658D01*
X19395Y-30754D01*
X19720Y-31079D01*
X20045Y-30754D01*
X20016Y-30658D01*
X20005Y-30654D01*
X20045Y-30638D01*
X20207Y-30476D01*
X20295Y-30265D01*
X20295Y-37795D01*
X20288Y-37778D01*
X20288Y-31234D01*
X20276Y-31011D01*
X20212Y-30854D01*
X20116Y-30825D01*
X19791Y-31150D01*
X20116Y-31475D01*
X20212Y-31446D01*
X20288Y-31234D01*
X20288Y-37778D01*
X20208Y-37584D01*
X20046Y-37422D01*
X20045Y-37421D01*
X20045Y-31546D01*
X19720Y-31221D01*
X19649Y-31292D01*
X19649Y-31150D01*
X19324Y-30825D01*
X19228Y-30854D01*
X19152Y-31066D01*
X19164Y-31289D01*
X19228Y-31446D01*
X19324Y-31475D01*
X19649Y-31150D01*
X19649Y-31292D01*
X19395Y-31546D01*
X19424Y-31642D01*
X19636Y-31718D01*
X19859Y-31706D01*
X20016Y-31642D01*
X20045Y-31546D01*
X20045Y-37421D01*
X19835Y-37334D01*
X19606Y-37334D01*
X19395Y-37421D01*
X19233Y-37583D01*
X19145Y-37794D01*
X19145Y-38023D01*
X19232Y-38234D01*
X19394Y-38396D01*
X19434Y-38412D01*
X19424Y-38417D01*
X19395Y-38513D01*
X19685Y-38803D01*
X19720Y-38838D01*
X19791Y-38909D01*
X19720Y-38980D01*
X19685Y-39015D01*
X19649Y-39051D01*
X19649Y-38909D01*
X19324Y-38584D01*
X19228Y-38613D01*
X19152Y-38825D01*
X19164Y-39048D01*
X19228Y-39205D01*
X19324Y-39234D01*
X19649Y-38909D01*
X19649Y-39051D01*
X19395Y-39305D01*
X19424Y-39401D01*
X19636Y-39477D01*
X19859Y-39465D01*
X19969Y-39420D01*
X19969Y-44811D01*
X19686Y-45094D01*
X19528Y-45094D01*
X19317Y-45181D01*
X19155Y-45343D01*
X19067Y-45554D01*
X19067Y-45783D01*
X19154Y-45994D01*
X19316Y-46156D01*
X19356Y-46172D01*
X19346Y-46177D01*
X19317Y-46273D01*
X19642Y-46598D01*
X19967Y-46273D01*
X19938Y-46177D01*
X19927Y-46173D01*
X19967Y-46157D01*
X20129Y-45995D01*
X20217Y-45784D01*
X20217Y-45624D01*
X20609Y-45233D01*
X20609Y-45232D01*
X20649Y-45171D01*
X20690Y-45111D01*
X20690Y-45110D01*
X20718Y-44968D01*
X20719Y-44967D01*
X20719Y-51999D01*
X20210Y-52508D01*
X20210Y-46753D01*
X20198Y-46530D01*
X20134Y-46373D01*
X20038Y-46344D01*
X19713Y-46669D01*
X20038Y-46994D01*
X20134Y-46965D01*
X20210Y-46753D01*
X20210Y-52508D01*
X19967Y-52751D01*
X19967Y-47065D01*
X19642Y-46740D01*
X19571Y-46811D01*
X19571Y-46669D01*
X19246Y-46344D01*
X19150Y-46373D01*
X19074Y-46585D01*
X19086Y-46808D01*
X19150Y-46965D01*
X19246Y-46994D01*
X19571Y-46669D01*
X19571Y-46811D01*
X19317Y-47065D01*
X19346Y-47161D01*
X19558Y-47237D01*
X19781Y-47225D01*
X19938Y-47161D01*
X19967Y-47065D01*
X19967Y-52751D01*
X19679Y-53039D01*
X19520Y-53039D01*
X19309Y-53126D01*
X19147Y-53288D01*
X19059Y-53499D01*
X19059Y-53728D01*
X19146Y-53939D01*
X19308Y-54101D01*
X19348Y-54117D01*
X19338Y-54122D01*
X19309Y-54218D01*
X19634Y-54543D01*
X19959Y-54218D01*
X19930Y-54122D01*
X19919Y-54118D01*
X19959Y-54102D01*
X20121Y-53940D01*
X20209Y-53729D01*
X20209Y-53569D01*
X21645Y-52133D01*
X21726Y-52012D01*
X21726Y-52011D01*
X21755Y-51868D01*
X21755Y-36236D01*
X22755Y-35236D01*
X22755Y-35285D01*
X22835Y-35478D01*
X22982Y-35626D01*
X23122Y-35684D01*
X23013Y-35729D01*
X22990Y-35820D01*
X23280Y-36110D01*
X23570Y-35820D01*
X23547Y-35729D01*
X23428Y-35687D01*
X23577Y-35626D01*
X23725Y-35479D01*
X23805Y-35286D01*
X23805Y-37077D01*
X23799Y-37062D01*
X23799Y-36255D01*
X23788Y-36051D01*
X23732Y-35914D01*
X23641Y-35891D01*
X23351Y-36181D01*
X23641Y-36471D01*
X23732Y-36448D01*
X23799Y-36255D01*
X23799Y-37062D01*
X23725Y-36884D01*
X23578Y-36736D01*
X23437Y-36677D01*
X23547Y-36633D01*
X23570Y-36542D01*
X23280Y-36252D01*
X23209Y-36323D01*
X23209Y-36181D01*
X22919Y-35891D01*
X22828Y-35914D01*
X22761Y-36107D01*
X22772Y-36311D01*
X22828Y-36448D01*
X22919Y-36471D01*
X23209Y-36181D01*
X23209Y-36323D01*
X22990Y-36542D01*
X23013Y-36633D01*
X23131Y-36674D01*
X22983Y-36736D01*
X22835Y-36883D01*
X22755Y-37076D01*
X22755Y-37285D01*
X22835Y-37478D01*
X22982Y-37626D01*
X23175Y-37706D01*
X23384Y-37706D01*
X23577Y-37626D01*
X23725Y-37479D01*
X23805Y-37286D01*
X23805Y-42427D01*
X22731Y-43502D01*
X22650Y-43623D01*
X22621Y-43767D01*
X22621Y-47267D01*
X22650Y-47411D01*
X22731Y-47532D01*
X26887Y-51689D01*
X26888Y-51689D01*
X26948Y-51729D01*
X27009Y-51770D01*
X27010Y-51770D01*
X27152Y-51798D01*
X27153Y-51799D01*
X31626Y-51799D01*
X31853Y-52025D01*
X31640Y-52114D01*
X31476Y-52278D01*
X31313Y-52115D01*
X31094Y-52024D01*
X30858Y-52024D01*
X30640Y-52114D01*
X30476Y-52278D01*
X30313Y-52115D01*
X30094Y-52024D01*
X29858Y-52024D01*
X29640Y-52114D01*
X29476Y-52278D01*
X29313Y-52115D01*
X29094Y-52024D01*
X28858Y-52024D01*
X28640Y-52114D01*
X28476Y-52278D01*
X28313Y-52115D01*
X28094Y-52024D01*
X27858Y-52024D01*
X27640Y-52114D01*
X27473Y-52281D01*
X27463Y-52303D01*
X27386Y-52279D01*
X27315Y-52350D01*
X27315Y-52208D01*
X27284Y-52110D01*
X27066Y-52030D01*
X26834Y-52040D01*
X26668Y-52110D01*
X26637Y-52208D01*
X26976Y-52547D01*
X27315Y-52208D01*
X27315Y-52350D01*
X27047Y-52618D01*
X27386Y-52957D01*
X27463Y-52932D01*
X27472Y-52954D01*
X27535Y-53017D01*
X27535Y-55753D01*
X27533Y-55754D01*
X27463Y-55824D01*
X27425Y-55915D01*
X27425Y-56014D01*
X27425Y-56486D01*
X27463Y-56578D01*
X27533Y-56648D01*
X27624Y-56686D01*
X27723Y-56686D01*
X28195Y-56686D01*
X28287Y-56648D01*
X28323Y-56612D01*
X28359Y-56648D01*
X28450Y-56686D01*
X28549Y-56686D01*
X29021Y-56686D01*
X29113Y-56648D01*
X29183Y-56578D01*
X29183Y-56576D01*
X29222Y-56576D01*
X29365Y-56547D01*
X29366Y-56547D01*
X29487Y-56466D01*
X29613Y-56340D01*
X29613Y-56344D01*
X29625Y-56344D01*
X29613Y-56356D01*
X29614Y-56470D01*
X29614Y-56569D01*
X29652Y-56660D01*
X29722Y-56730D01*
X29814Y-56768D01*
X29926Y-56769D01*
X29988Y-56707D01*
X29988Y-56344D01*
X29988Y-56294D01*
X29988Y-56194D01*
X30088Y-56194D01*
X30088Y-56294D01*
X30088Y-56344D01*
X30088Y-56707D01*
X30150Y-56769D01*
X30262Y-56768D01*
X30354Y-56730D01*
X30413Y-56671D01*
X30472Y-56730D01*
X30563Y-56768D01*
X30662Y-56768D01*
X31012Y-56768D01*
X31104Y-56730D01*
X31174Y-56660D01*
X31212Y-56569D01*
X31212Y-56470D01*
X31212Y-55920D01*
X31174Y-55828D01*
X31163Y-55817D01*
X31163Y-55719D01*
X31134Y-55575D01*
X31053Y-55454D01*
X30932Y-55373D01*
X30788Y-55344D01*
X29704Y-55344D01*
X29560Y-55373D01*
X29499Y-55413D01*
X29438Y-55454D01*
X29125Y-55766D01*
X29113Y-55754D01*
X29022Y-55716D01*
X28923Y-55716D01*
X28451Y-55716D01*
X28359Y-55754D01*
X28323Y-55790D01*
X28287Y-55754D01*
X28285Y-55753D01*
X28285Y-53133D01*
X28312Y-53122D01*
X28476Y-52958D01*
X28639Y-53121D01*
X28858Y-53212D01*
X29094Y-53212D01*
X29312Y-53122D01*
X29476Y-52958D01*
X29639Y-53121D01*
X29858Y-53212D01*
X30094Y-53212D01*
X30312Y-53122D01*
X30476Y-52958D01*
X30639Y-53121D01*
X30858Y-53212D01*
X31094Y-53212D01*
X31312Y-53122D01*
X31476Y-52958D01*
X31639Y-53121D01*
X31858Y-53212D01*
X32094Y-53212D01*
X32312Y-53122D01*
X32476Y-52958D01*
X32639Y-53121D01*
X32858Y-53212D01*
X33094Y-53212D01*
X33312Y-53122D01*
X33476Y-52958D01*
X33639Y-53121D01*
X33858Y-53212D01*
X34094Y-53212D01*
X34312Y-53122D01*
X34476Y-52958D01*
X34639Y-53121D01*
X34858Y-53212D01*
X35094Y-53212D01*
X35312Y-53122D01*
X35476Y-52958D01*
X35639Y-53121D01*
X35858Y-53212D01*
X36094Y-53212D01*
X36312Y-53122D01*
X36476Y-52958D01*
X36639Y-53121D01*
X36858Y-53212D01*
X37094Y-53212D01*
X37312Y-53122D01*
X37476Y-52958D01*
X37639Y-53121D01*
X37858Y-53212D01*
X38094Y-53212D01*
X38119Y-53201D01*
X38123Y-60300D01*
X38123Y-60300D01*
G37*
G54D21*
X38123Y-60300D02*
X37400Y-60300D01*
X37400Y-55537D01*
X37400Y-55119D01*
X37240Y-54733D01*
X36945Y-54437D01*
X36560Y-54277D01*
X36142Y-54277D01*
X35756Y-54437D01*
X35460Y-54732D01*
X35300Y-55117D01*
X35300Y-55535D01*
X35460Y-55921D01*
X35755Y-56217D01*
X36140Y-56377D01*
X36558Y-56377D01*
X36944Y-56217D01*
X37240Y-55922D01*
X37400Y-55537D01*
X37400Y-60300D01*
X29988Y-60300D01*
X27315Y-60300D01*
X27315Y-53028D01*
X26976Y-52689D01*
X26905Y-52760D01*
X26905Y-52618D01*
X26566Y-52279D01*
X26488Y-52303D01*
X26480Y-52282D01*
X26313Y-52115D01*
X26094Y-52024D01*
X25858Y-52024D01*
X25640Y-52114D01*
X25476Y-52278D01*
X25313Y-52115D01*
X25094Y-52024D01*
X24858Y-52024D01*
X24640Y-52114D01*
X24525Y-52229D01*
X24525Y-52224D01*
X24487Y-52132D01*
X24417Y-52062D01*
X24326Y-52024D01*
X24227Y-52024D01*
X23627Y-52024D01*
X23535Y-52062D01*
X23465Y-52132D01*
X23427Y-52223D01*
X23427Y-52322D01*
X23427Y-53012D01*
X23465Y-53104D01*
X23535Y-53174D01*
X23626Y-53212D01*
X23725Y-53212D01*
X24325Y-53212D01*
X24417Y-53174D01*
X24487Y-53104D01*
X24525Y-53013D01*
X24525Y-53007D01*
X24639Y-53121D01*
X24858Y-53212D01*
X25094Y-53212D01*
X25312Y-53122D01*
X25476Y-52958D01*
X25639Y-53121D01*
X25858Y-53212D01*
X26094Y-53212D01*
X26312Y-53122D01*
X26479Y-52955D01*
X26488Y-52932D01*
X26566Y-52957D01*
X26905Y-52618D01*
X26905Y-52760D01*
X26637Y-53028D01*
X26668Y-53126D01*
X26886Y-53206D01*
X27118Y-53196D01*
X27284Y-53126D01*
X27315Y-53028D01*
X27315Y-60300D01*
X20202Y-60300D01*
X20202Y-54698D01*
X20190Y-54475D01*
X20126Y-54318D01*
X20030Y-54289D01*
X19705Y-54614D01*
X20030Y-54939D01*
X20126Y-54910D01*
X20202Y-54698D01*
X20202Y-60300D01*
X19959Y-60300D01*
X19959Y-55010D01*
X19634Y-54685D01*
X19563Y-54756D01*
X19563Y-54614D01*
X19238Y-54289D01*
X19142Y-54318D01*
X19066Y-54530D01*
X19078Y-54753D01*
X19142Y-54910D01*
X19238Y-54939D01*
X19563Y-54614D01*
X19563Y-54756D01*
X19309Y-55010D01*
X19338Y-55106D01*
X19550Y-55182D01*
X19773Y-55170D01*
X19930Y-55106D01*
X19959Y-55010D01*
X19959Y-60300D01*
X18570Y-60300D01*
X18570Y-40079D01*
X18570Y-39741D01*
X18570Y-36079D01*
X18570Y-35741D01*
X18570Y-32320D01*
X18570Y-31982D01*
X18441Y-31670D01*
X18202Y-31430D01*
X17890Y-31300D01*
X17552Y-31300D01*
X17240Y-31429D01*
X17000Y-31668D01*
X16870Y-31980D01*
X16870Y-32318D01*
X16999Y-32630D01*
X17238Y-32870D01*
X17550Y-33000D01*
X17888Y-33000D01*
X18200Y-32871D01*
X18440Y-32632D01*
X18570Y-32320D01*
X18570Y-35741D01*
X18441Y-35429D01*
X18202Y-35189D01*
X17890Y-35059D01*
X17552Y-35059D01*
X17240Y-35188D01*
X17000Y-35427D01*
X16870Y-35739D01*
X16870Y-36077D01*
X16999Y-36389D01*
X17238Y-36629D01*
X17550Y-36759D01*
X17888Y-36759D01*
X18200Y-36630D01*
X18440Y-36391D01*
X18570Y-36079D01*
X18570Y-39741D01*
X18441Y-39429D01*
X18202Y-39189D01*
X17890Y-39059D01*
X17552Y-39059D01*
X17240Y-39188D01*
X17000Y-39427D01*
X16870Y-39739D01*
X16870Y-40077D01*
X16999Y-40389D01*
X17238Y-40629D01*
X17550Y-40759D01*
X17888Y-40759D01*
X18200Y-40630D01*
X18440Y-40391D01*
X18570Y-40079D01*
X18570Y-60300D01*
X18492Y-60300D01*
X18492Y-47839D01*
X18492Y-47501D01*
X18492Y-43839D01*
X18492Y-43501D01*
X18363Y-43189D01*
X18124Y-42949D01*
X17812Y-42819D01*
X17474Y-42819D01*
X17162Y-42948D01*
X16922Y-43187D01*
X16792Y-43499D01*
X16792Y-43837D01*
X16921Y-44149D01*
X17160Y-44389D01*
X17472Y-44519D01*
X17810Y-44519D01*
X18122Y-44390D01*
X18362Y-44151D01*
X18492Y-43839D01*
X18492Y-47501D01*
X18363Y-47189D01*
X18124Y-46949D01*
X17812Y-46819D01*
X17474Y-46819D01*
X17162Y-46948D01*
X16922Y-47187D01*
X16792Y-47499D01*
X16792Y-47837D01*
X16921Y-48149D01*
X17160Y-48389D01*
X17472Y-48519D01*
X17810Y-48519D01*
X18122Y-48390D01*
X18362Y-48151D01*
X18492Y-47839D01*
X18492Y-60300D01*
X18484Y-60300D01*
X18484Y-55784D01*
X18484Y-55446D01*
X18484Y-51784D01*
X18484Y-51446D01*
X18355Y-51134D01*
X18116Y-50894D01*
X17804Y-50764D01*
X17466Y-50764D01*
X17154Y-50893D01*
X16914Y-51132D01*
X16784Y-51444D01*
X16784Y-51782D01*
X16913Y-52094D01*
X17152Y-52334D01*
X17464Y-52464D01*
X17802Y-52464D01*
X18114Y-52335D01*
X18354Y-52096D01*
X18484Y-51784D01*
X18484Y-55446D01*
X18355Y-55134D01*
X18116Y-54894D01*
X17804Y-54764D01*
X17466Y-54764D01*
X17154Y-54893D01*
X16914Y-55132D01*
X16784Y-55444D01*
X16784Y-55782D01*
X16913Y-56094D01*
X17152Y-56334D01*
X17464Y-56464D01*
X17802Y-56464D01*
X18114Y-56335D01*
X18354Y-56096D01*
X18484Y-55784D01*
X18484Y-60300D01*
X17593Y-60300D01*
X17593Y-58860D01*
X17593Y-58442D01*
X17433Y-58056D01*
X17138Y-57760D01*
X16753Y-57600D01*
X16335Y-57600D01*
X15949Y-57760D01*
X15653Y-58055D01*
X15493Y-58440D01*
X15493Y-58858D01*
X15653Y-59244D01*
X15948Y-59540D01*
X16333Y-59700D01*
X16751Y-59700D01*
X17137Y-59540D01*
X17433Y-59245D01*
X17593Y-58860D01*
X17593Y-60300D01*
X15424Y-60300D01*
X15473Y-08808D01*
X15475Y-08768D01*
X15465Y-08549D01*
X15618Y-08917D01*
X15913Y-09213D01*
X16298Y-09373D01*
X16716Y-09373D01*
X17102Y-09213D01*
X17398Y-08918D01*
X17558Y-08533D01*
X17558Y-08115D01*
X17398Y-07729D01*
X17103Y-07433D01*
X16718Y-07273D01*
X16300Y-07273D01*
X15914Y-07433D01*
X15618Y-07728D01*
X15458Y-08113D01*
X15458Y-08369D01*
X15401Y-07034D01*
X38095Y-07034D01*
X38115Y-46032D01*
X38094Y-46024D01*
X37858Y-46024D01*
X37786Y-46053D01*
X37786Y-09407D01*
X37786Y-08989D01*
X37626Y-08603D01*
X37331Y-08307D01*
X36946Y-08147D01*
X36528Y-08147D01*
X36142Y-08307D01*
X35846Y-08602D01*
X35686Y-08987D01*
X35686Y-09405D01*
X35846Y-09791D01*
X36141Y-10087D01*
X36526Y-10247D01*
X36944Y-10247D01*
X37330Y-10087D01*
X37626Y-09792D01*
X37786Y-09407D01*
X37786Y-46053D01*
X37640Y-46114D01*
X37476Y-46278D01*
X37313Y-46115D01*
X37094Y-46024D01*
X36858Y-46024D01*
X36640Y-46114D01*
X36476Y-46278D01*
X36313Y-46115D01*
X36094Y-46024D01*
X35858Y-46024D01*
X35640Y-46114D01*
X35476Y-46278D01*
X35313Y-46115D01*
X35094Y-46024D01*
X34925Y-46024D01*
X34925Y-43086D01*
X35235Y-43216D01*
X35573Y-43216D01*
X35885Y-43087D01*
X36125Y-42848D01*
X36255Y-42536D01*
X36255Y-42198D01*
X36126Y-41886D01*
X35887Y-41646D01*
X35575Y-41516D01*
X35237Y-41516D01*
X34925Y-41645D01*
X34925Y-39086D01*
X35235Y-39216D01*
X35573Y-39216D01*
X35885Y-39087D01*
X36125Y-38848D01*
X36255Y-38536D01*
X36255Y-38198D01*
X36126Y-37886D01*
X35887Y-37646D01*
X35575Y-37516D01*
X35237Y-37516D01*
X34925Y-37645D01*
X34925Y-34724D01*
X34980Y-34858D01*
X35219Y-35098D01*
X35531Y-35228D01*
X35869Y-35228D01*
X36181Y-35099D01*
X36421Y-34860D01*
X36551Y-34548D01*
X36551Y-34210D01*
X36551Y-30548D01*
X36551Y-30210D01*
X36551Y-25308D01*
X36551Y-24970D01*
X36551Y-21308D01*
X36551Y-20970D01*
X36422Y-20658D01*
X36255Y-20490D01*
X36255Y-15934D01*
X36255Y-15596D01*
X36255Y-11934D01*
X36255Y-11596D01*
X36126Y-11284D01*
X35887Y-11044D01*
X35575Y-10914D01*
X35237Y-10914D01*
X34925Y-11043D01*
X34685Y-11282D01*
X34555Y-11594D01*
X34555Y-11932D01*
X34684Y-12244D01*
X34923Y-12484D01*
X35235Y-12614D01*
X35573Y-12614D01*
X35885Y-12485D01*
X36125Y-12246D01*
X36255Y-11934D01*
X36255Y-15596D01*
X36126Y-15284D01*
X35887Y-15044D01*
X35575Y-14914D01*
X35237Y-14914D01*
X34925Y-15043D01*
X34685Y-15282D01*
X34555Y-15594D01*
X34555Y-15932D01*
X34684Y-16244D01*
X34923Y-16484D01*
X35235Y-16614D01*
X35573Y-16614D01*
X35885Y-16485D01*
X36125Y-16246D01*
X36255Y-15934D01*
X36255Y-20490D01*
X36183Y-20418D01*
X35871Y-20288D01*
X35533Y-20288D01*
X35221Y-20417D01*
X34981Y-20656D01*
X34851Y-20968D01*
X34851Y-21306D01*
X34980Y-21618D01*
X35219Y-21858D01*
X35531Y-21988D01*
X35869Y-21988D01*
X36181Y-21859D01*
X36421Y-21620D01*
X36551Y-21308D01*
X36551Y-24970D01*
X36422Y-24658D01*
X36183Y-24418D01*
X35871Y-24288D01*
X35533Y-24288D01*
X35221Y-24417D01*
X34981Y-24656D01*
X34851Y-24968D01*
X34851Y-25306D01*
X34980Y-25618D01*
X35219Y-25858D01*
X35531Y-25988D01*
X35869Y-25988D01*
X36181Y-25859D01*
X36421Y-25620D01*
X36551Y-25308D01*
X36551Y-30210D01*
X36422Y-29898D01*
X36183Y-29658D01*
X35871Y-29528D01*
X35533Y-29528D01*
X35221Y-29657D01*
X34981Y-29896D01*
X34851Y-30208D01*
X34851Y-30546D01*
X34980Y-30858D01*
X35219Y-31098D01*
X35531Y-31228D01*
X35869Y-31228D01*
X36181Y-31099D01*
X36421Y-30860D01*
X36551Y-30548D01*
X36551Y-34210D01*
X36422Y-33898D01*
X36183Y-33658D01*
X35871Y-33528D01*
X35533Y-33528D01*
X35221Y-33657D01*
X34981Y-33896D01*
X34925Y-34030D01*
X34925Y-33227D01*
X34896Y-33084D01*
X34896Y-33083D01*
X34855Y-33022D01*
X34815Y-32962D01*
X34815Y-32961D01*
X34276Y-32422D01*
X34276Y-32264D01*
X34276Y-23253D01*
X34276Y-23024D01*
X34269Y-23007D01*
X34269Y-22222D01*
X34257Y-21999D01*
X34193Y-21842D01*
X34097Y-21813D01*
X34026Y-21884D01*
X34026Y-21742D01*
X33997Y-21646D01*
X33980Y-21639D01*
X33980Y-13879D01*
X33980Y-13650D01*
X33973Y-13633D01*
X33973Y-12848D01*
X33961Y-12625D01*
X33897Y-12468D01*
X33801Y-12439D01*
X33730Y-12510D01*
X33730Y-12368D01*
X33701Y-12272D01*
X33489Y-12196D01*
X33266Y-12208D01*
X33109Y-12272D01*
X33080Y-12368D01*
X33405Y-12693D01*
X33730Y-12368D01*
X33730Y-12510D01*
X33476Y-12764D01*
X33801Y-13089D01*
X33897Y-13060D01*
X33973Y-12848D01*
X33973Y-13633D01*
X33893Y-13439D01*
X33731Y-13277D01*
X33690Y-13260D01*
X33701Y-13256D01*
X33730Y-13160D01*
X33405Y-12835D01*
X33334Y-12906D01*
X33334Y-12764D01*
X33009Y-12439D01*
X32913Y-12468D01*
X32837Y-12680D01*
X32849Y-12903D01*
X32913Y-13060D01*
X33009Y-13089D01*
X33334Y-12764D01*
X33334Y-12906D01*
X33080Y-13160D01*
X33109Y-13256D01*
X33119Y-13259D01*
X33080Y-13276D01*
X32918Y-13438D01*
X32830Y-13649D01*
X32830Y-13878D01*
X32917Y-14089D01*
X33079Y-14251D01*
X33290Y-14339D01*
X33519Y-14339D01*
X33730Y-14252D01*
X33892Y-14090D01*
X33980Y-13879D01*
X33980Y-21639D01*
X33785Y-21570D01*
X33562Y-21582D01*
X33405Y-21646D01*
X33376Y-21742D01*
X33701Y-22067D01*
X34026Y-21742D01*
X34026Y-21884D01*
X33772Y-22138D01*
X34097Y-22463D01*
X34193Y-22434D01*
X34269Y-22222D01*
X34269Y-23007D01*
X34189Y-22813D01*
X34027Y-22651D01*
X33986Y-22634D01*
X33997Y-22630D01*
X34026Y-22534D01*
X33701Y-22209D01*
X33630Y-22280D01*
X33630Y-22138D01*
X33305Y-21813D01*
X33209Y-21842D01*
X33133Y-22054D01*
X33145Y-22277D01*
X33209Y-22434D01*
X33305Y-22463D01*
X33630Y-22138D01*
X33630Y-22280D01*
X33376Y-22534D01*
X33405Y-22630D01*
X33415Y-22633D01*
X33376Y-22650D01*
X33214Y-22812D01*
X33126Y-23023D01*
X33126Y-23252D01*
X33213Y-23463D01*
X33375Y-23625D01*
X33586Y-23713D01*
X33815Y-23713D01*
X34026Y-23626D01*
X34188Y-23464D01*
X34276Y-23253D01*
X34276Y-32264D01*
X34269Y-32247D01*
X34269Y-31462D01*
X34257Y-31239D01*
X34193Y-31082D01*
X34097Y-31053D01*
X34026Y-31124D01*
X34026Y-30982D01*
X33997Y-30886D01*
X33785Y-30810D01*
X33562Y-30822D01*
X33405Y-30886D01*
X33376Y-30982D01*
X33701Y-31307D01*
X34026Y-30982D01*
X34026Y-31124D01*
X33772Y-31378D01*
X34097Y-31703D01*
X34193Y-31674D01*
X34269Y-31462D01*
X34269Y-32247D01*
X34189Y-32053D01*
X34027Y-31891D01*
X33986Y-31874D01*
X33997Y-31870D01*
X34026Y-31774D01*
X33701Y-31449D01*
X33630Y-31520D01*
X33630Y-31378D01*
X33305Y-31053D01*
X33209Y-31082D01*
X33133Y-31294D01*
X33145Y-31517D01*
X33209Y-31674D01*
X33305Y-31703D01*
X33630Y-31378D01*
X33630Y-31520D01*
X33376Y-31774D01*
X33405Y-31870D01*
X33415Y-31873D01*
X33376Y-31890D01*
X33214Y-32052D01*
X33126Y-32263D01*
X33126Y-32492D01*
X33213Y-32703D01*
X33375Y-32865D01*
X33586Y-32953D01*
X33745Y-32953D01*
X34175Y-33382D01*
X34175Y-40605D01*
X33980Y-40410D01*
X33980Y-40252D01*
X33973Y-40235D01*
X33973Y-39450D01*
X33961Y-39227D01*
X33897Y-39070D01*
X33801Y-39041D01*
X33730Y-39112D01*
X33730Y-38970D01*
X33701Y-38874D01*
X33489Y-38798D01*
X33266Y-38810D01*
X33109Y-38874D01*
X33080Y-38970D01*
X33405Y-39295D01*
X33730Y-38970D01*
X33730Y-39112D01*
X33476Y-39366D01*
X33801Y-39691D01*
X33897Y-39662D01*
X33973Y-39450D01*
X33973Y-40235D01*
X33893Y-40041D01*
X33731Y-39879D01*
X33690Y-39862D01*
X33701Y-39858D01*
X33730Y-39762D01*
X33405Y-39437D01*
X33334Y-39508D01*
X33334Y-39366D01*
X33009Y-39041D01*
X32913Y-39070D01*
X32837Y-39282D01*
X32849Y-39505D01*
X32913Y-39662D01*
X33009Y-39691D01*
X33334Y-39366D01*
X33334Y-39508D01*
X33080Y-39762D01*
X33109Y-39858D01*
X33119Y-39861D01*
X33080Y-39878D01*
X32918Y-40040D01*
X32830Y-40251D01*
X32830Y-40480D01*
X32917Y-40691D01*
X33079Y-40853D01*
X33290Y-40941D01*
X33449Y-40941D01*
X33601Y-41092D01*
X33601Y-46153D01*
X33476Y-46278D01*
X33313Y-46115D01*
X33094Y-46024D01*
X32858Y-46024D01*
X32640Y-46114D01*
X32476Y-46278D01*
X32313Y-46115D01*
X32094Y-46024D01*
X31858Y-46024D01*
X31640Y-46114D01*
X31476Y-46278D01*
X31313Y-46115D01*
X31094Y-46024D01*
X30858Y-46024D01*
X30640Y-46114D01*
X30476Y-46278D01*
X30313Y-46115D01*
X30094Y-46024D01*
X29858Y-46024D01*
X29640Y-46114D01*
X29476Y-46278D01*
X29313Y-46115D01*
X29094Y-46024D01*
X28858Y-46024D01*
X28640Y-46114D01*
X28476Y-46278D01*
X28313Y-46115D01*
X28094Y-46024D01*
X27858Y-46024D01*
X27640Y-46114D01*
X27476Y-46278D01*
X27313Y-46115D01*
X27094Y-46024D01*
X26858Y-46024D01*
X26640Y-46114D01*
X26476Y-46278D01*
X26313Y-46115D01*
X26094Y-46024D01*
X25858Y-46024D01*
X25640Y-46114D01*
X25473Y-46281D01*
X25463Y-46303D01*
X25386Y-46279D01*
X25315Y-46350D01*
X25315Y-46208D01*
X25284Y-46110D01*
X25066Y-46030D01*
X24834Y-46040D01*
X24668Y-46110D01*
X24637Y-46208D01*
X24976Y-46547D01*
X25315Y-46208D01*
X25315Y-46350D01*
X25047Y-46618D01*
X25386Y-46957D01*
X25463Y-46932D01*
X25472Y-46954D01*
X25639Y-47121D01*
X25858Y-47212D01*
X26094Y-47212D01*
X26312Y-47122D01*
X26476Y-46958D01*
X26639Y-47121D01*
X26858Y-47212D01*
X27094Y-47212D01*
X27312Y-47122D01*
X27476Y-46958D01*
X27639Y-47121D01*
X27858Y-47212D01*
X28094Y-47212D01*
X28312Y-47122D01*
X28476Y-46958D01*
X28639Y-47121D01*
X28858Y-47212D01*
X29094Y-47212D01*
X29312Y-47122D01*
X29476Y-46958D01*
X29639Y-47121D01*
X29858Y-47212D01*
X30094Y-47212D01*
X30312Y-47122D01*
X30476Y-46958D01*
X30639Y-47121D01*
X30858Y-47212D01*
X31094Y-47212D01*
X31312Y-47122D01*
X31476Y-46958D01*
X31639Y-47121D01*
X31858Y-47212D01*
X32094Y-47212D01*
X32312Y-47122D01*
X32476Y-46958D01*
X32639Y-47121D01*
X32858Y-47212D01*
X33094Y-47212D01*
X33312Y-47122D01*
X33476Y-46958D01*
X33639Y-47121D01*
X33858Y-47212D01*
X34094Y-47212D01*
X34312Y-47122D01*
X34476Y-46958D01*
X34639Y-47121D01*
X34858Y-47212D01*
X35094Y-47212D01*
X35312Y-47122D01*
X35476Y-46958D01*
X35639Y-47121D01*
X35858Y-47212D01*
X36094Y-47212D01*
X36312Y-47122D01*
X36476Y-46958D01*
X36639Y-47121D01*
X36858Y-47212D01*
X37094Y-47212D01*
X37312Y-47122D01*
X37476Y-46958D01*
X37639Y-47121D01*
X37858Y-47212D01*
X38094Y-47212D01*
X38116Y-47202D01*
X38118Y-52034D01*
X38094Y-52024D01*
X37858Y-52024D01*
X37640Y-52114D01*
X37476Y-52278D01*
X37313Y-52115D01*
X37094Y-52024D01*
X36912Y-52024D01*
X34667Y-49779D01*
X34546Y-49698D01*
X34402Y-49669D01*
X26682Y-49669D01*
X25315Y-48302D01*
X25315Y-47028D01*
X24976Y-46689D01*
X24637Y-47028D01*
X24668Y-47126D01*
X24886Y-47206D01*
X25118Y-47196D01*
X25284Y-47126D01*
X25315Y-47028D01*
X25315Y-48302D01*
X24186Y-47173D01*
X24312Y-47122D01*
X24479Y-46955D01*
X24488Y-46932D01*
X24566Y-46957D01*
X24905Y-46618D01*
X24566Y-46279D01*
X24488Y-46303D01*
X24480Y-46282D01*
X24313Y-46115D01*
X24094Y-46024D01*
X23858Y-46024D01*
X23746Y-46070D01*
X23746Y-45667D01*
X30139Y-39275D01*
X30139Y-39274D01*
X30179Y-39213D01*
X30220Y-39153D01*
X30220Y-39152D01*
X30248Y-39009D01*
X30249Y-39009D01*
X30249Y-28532D01*
X30319Y-28463D01*
X30399Y-28270D01*
X30399Y-28061D01*
X30319Y-27868D01*
X30172Y-27720D01*
X29979Y-27640D01*
X29770Y-27640D01*
X29577Y-27720D01*
X29429Y-27867D01*
X29373Y-28000D01*
X29319Y-27868D01*
X29172Y-27720D01*
X28979Y-27640D01*
X28770Y-27640D01*
X28577Y-27720D01*
X28429Y-27867D01*
X28373Y-28000D01*
X28319Y-27868D01*
X28172Y-27720D01*
X27979Y-27640D01*
X27929Y-27640D01*
X29879Y-25690D01*
X29978Y-25690D01*
X30171Y-25610D01*
X30319Y-25463D01*
X30399Y-25270D01*
X30399Y-25061D01*
X30319Y-24868D01*
X30172Y-24720D01*
X29979Y-24640D01*
X29770Y-24640D01*
X29577Y-24720D01*
X29429Y-24867D01*
X29373Y-25000D01*
X29319Y-24868D01*
X29172Y-24720D01*
X28979Y-24640D01*
X28770Y-24640D01*
X28577Y-24720D01*
X28429Y-24867D01*
X28370Y-25007D01*
X28326Y-24898D01*
X28235Y-24875D01*
X28164Y-24946D01*
X28164Y-24804D01*
X28141Y-24713D01*
X27948Y-24646D01*
X27744Y-24657D01*
X27607Y-24713D01*
X27584Y-24804D01*
X27874Y-25094D01*
X28164Y-24804D01*
X28164Y-24946D01*
X27945Y-25165D01*
X28235Y-25455D01*
X28326Y-25432D01*
X28367Y-25313D01*
X28429Y-25462D01*
X28576Y-25610D01*
X28769Y-25690D01*
X28819Y-25690D01*
X28164Y-26345D01*
X28164Y-25526D01*
X27874Y-25236D01*
X27803Y-25307D01*
X27803Y-25165D01*
X27513Y-24875D01*
X27422Y-24898D01*
X27380Y-25016D01*
X27319Y-24868D01*
X27172Y-24720D01*
X26979Y-24640D01*
X26770Y-24640D01*
X26577Y-24720D01*
X26429Y-24867D01*
X26349Y-25060D01*
X26349Y-25269D01*
X26429Y-25462D01*
X26576Y-25610D01*
X26769Y-25690D01*
X26978Y-25690D01*
X27171Y-25610D01*
X27319Y-25463D01*
X27377Y-25322D01*
X27422Y-25432D01*
X27513Y-25455D01*
X27803Y-25165D01*
X27803Y-25307D01*
X27584Y-25526D01*
X27607Y-25617D01*
X27800Y-25684D01*
X28004Y-25673D01*
X28141Y-25617D01*
X28164Y-25526D01*
X28164Y-26345D01*
X27283Y-27226D01*
X26442Y-27226D01*
X26298Y-27255D01*
X26237Y-27295D01*
X26176Y-27336D01*
X26105Y-27408D01*
X26024Y-27529D01*
X25995Y-27673D01*
X25995Y-29354D01*
X26024Y-29498D01*
X26105Y-29619D01*
X26683Y-30197D01*
X26683Y-30901D01*
X26641Y-30891D01*
X26570Y-30962D01*
X26570Y-30820D01*
X26547Y-30729D01*
X26354Y-30662D01*
X26150Y-30673D01*
X26013Y-30729D01*
X25990Y-30820D01*
X26280Y-31110D01*
X26570Y-30820D01*
X26570Y-30962D01*
X26351Y-31181D01*
X26641Y-31471D01*
X26683Y-31460D01*
X26683Y-31841D01*
X26578Y-31736D01*
X26437Y-31677D01*
X26547Y-31633D01*
X26570Y-31542D01*
X26280Y-31252D01*
X26209Y-31323D01*
X26209Y-31181D01*
X25919Y-30891D01*
X25828Y-30914D01*
X25761Y-31107D01*
X25772Y-31311D01*
X25828Y-31448D01*
X25919Y-31471D01*
X26209Y-31181D01*
X26209Y-31323D01*
X25990Y-31542D01*
X26013Y-31633D01*
X26131Y-31674D01*
X25983Y-31736D01*
X25835Y-31883D01*
X25755Y-32076D01*
X25755Y-32285D01*
X25835Y-32478D01*
X25982Y-32626D01*
X26115Y-32681D01*
X25983Y-32736D01*
X25835Y-32883D01*
X25755Y-33076D01*
X25755Y-33285D01*
X25835Y-33478D01*
X25982Y-33626D01*
X26122Y-33684D01*
X26013Y-33729D01*
X25990Y-33820D01*
X26280Y-34110D01*
X26570Y-33820D01*
X26547Y-33729D01*
X26428Y-33687D01*
X26577Y-33626D01*
X26683Y-33520D01*
X26683Y-33901D01*
X26641Y-33891D01*
X26351Y-34181D01*
X26641Y-34471D01*
X26683Y-34460D01*
X26683Y-34841D01*
X26578Y-34736D01*
X26437Y-34677D01*
X26547Y-34633D01*
X26570Y-34542D01*
X26315Y-34287D01*
X26280Y-34252D01*
X26209Y-34181D01*
X26174Y-34146D01*
X25919Y-33891D01*
X25828Y-33914D01*
X25761Y-34107D01*
X25762Y-34133D01*
X25155Y-33526D01*
X25155Y-17871D01*
X25154Y-17870D01*
X25126Y-17728D01*
X25126Y-17727D01*
X25085Y-17666D01*
X25045Y-17606D01*
X25045Y-17605D01*
X20201Y-12761D01*
X20201Y-12603D01*
X20114Y-12392D01*
X19952Y-12230D01*
X19741Y-12142D01*
X19512Y-12142D01*
X19301Y-12229D01*
X19139Y-12391D01*
X19051Y-12602D01*
X19051Y-12831D01*
X19138Y-13042D01*
X19300Y-13204D01*
X19340Y-13220D01*
X19330Y-13225D01*
X19301Y-13321D01*
X19591Y-13611D01*
X19626Y-13646D01*
X19697Y-13717D01*
X19732Y-13752D01*
X20022Y-14042D01*
X20118Y-14013D01*
X20190Y-13811D01*
X24405Y-18026D01*
X24405Y-33681D01*
X24434Y-33825D01*
X24515Y-33946D01*
X25755Y-35186D01*
X25755Y-35285D01*
X25835Y-35478D01*
X25982Y-35626D01*
X26115Y-35681D01*
X25983Y-35736D01*
X25835Y-35883D01*
X25755Y-36076D01*
X25755Y-36285D01*
X25835Y-36478D01*
X25982Y-36626D01*
X26056Y-36656D01*
X26054Y-36657D01*
X25955Y-36657D01*
X25864Y-36695D01*
X25794Y-36765D01*
X25756Y-36857D01*
X25755Y-37069D01*
X25817Y-37131D01*
X26180Y-37131D01*
X26230Y-37131D01*
X26330Y-37131D01*
X26330Y-37231D01*
X26330Y-37281D01*
X26330Y-37644D01*
X26392Y-37706D01*
X26506Y-37705D01*
X26605Y-37705D01*
X26683Y-37672D01*
X26683Y-39549D01*
X26230Y-40002D01*
X26230Y-37644D01*
X26230Y-37231D01*
X25817Y-37231D01*
X25755Y-37293D01*
X25756Y-37505D01*
X25794Y-37597D01*
X25864Y-37667D01*
X25955Y-37705D01*
X26054Y-37705D01*
X26168Y-37706D01*
X26230Y-37644D01*
X26230Y-40002D01*
X23805Y-42427D01*
X23805Y-37286D01*
X23805Y-37077D01*
X23805Y-35286D01*
X23805Y-35077D01*
X23725Y-34884D01*
X23578Y-34736D01*
X23444Y-34680D01*
X23577Y-34626D01*
X23725Y-34479D01*
X23805Y-34286D01*
X23805Y-34077D01*
X23805Y-32286D01*
X23805Y-32077D01*
X23725Y-31884D01*
X23578Y-31736D01*
X23444Y-31680D01*
X23577Y-31626D01*
X23725Y-31479D01*
X23805Y-31286D01*
X23805Y-31077D01*
X23725Y-30884D01*
X23578Y-30736D01*
X23385Y-30656D01*
X23176Y-30656D01*
X22983Y-30736D01*
X22835Y-30883D01*
X22755Y-31076D01*
X22755Y-31285D01*
X22835Y-31478D01*
X22982Y-31626D01*
X23115Y-31681D01*
X22983Y-31736D01*
X22835Y-31883D01*
X22755Y-32076D01*
X22755Y-32285D01*
X22835Y-32478D01*
X22982Y-32626D01*
X23122Y-32684D01*
X23013Y-32729D01*
X22990Y-32820D01*
X23280Y-33110D01*
X23570Y-32820D01*
X23547Y-32729D01*
X23428Y-32687D01*
X23577Y-32626D01*
X23725Y-32479D01*
X23805Y-32286D01*
X23805Y-34077D01*
X23799Y-34062D01*
X23799Y-33255D01*
X23788Y-33051D01*
X23732Y-32914D01*
X23641Y-32891D01*
X23351Y-33181D01*
X23641Y-33471D01*
X23732Y-33448D01*
X23799Y-33255D01*
X23799Y-34062D01*
X23725Y-33884D01*
X23578Y-33736D01*
X23437Y-33677D01*
X23547Y-33633D01*
X23570Y-33542D01*
X23280Y-33252D01*
X23209Y-33323D01*
X23209Y-33181D01*
X22919Y-32891D01*
X22828Y-32914D01*
X22761Y-33107D01*
X22772Y-33311D01*
X22828Y-33448D01*
X22919Y-33471D01*
X23209Y-33181D01*
X23209Y-33323D01*
X22990Y-33542D01*
X23013Y-33633D01*
X23131Y-33674D01*
X22983Y-33736D01*
X22835Y-33883D01*
X22755Y-34076D01*
X22755Y-34176D01*
X21115Y-35816D01*
X21034Y-35937D01*
X21005Y-36081D01*
X21005Y-51713D01*
X20719Y-51999D01*
X20719Y-44967D01*
X20719Y-38533D01*
X20690Y-38390D01*
X20690Y-38389D01*
X20609Y-38268D01*
X20295Y-37954D01*
X20295Y-37795D01*
X20295Y-30265D01*
X20295Y-30036D01*
X20208Y-29825D01*
X20194Y-29811D01*
X20194Y-22501D01*
X20182Y-22278D01*
X20118Y-22121D01*
X20022Y-22092D01*
X19697Y-22417D01*
X20022Y-22742D01*
X20118Y-22713D01*
X20194Y-22501D01*
X20194Y-29811D01*
X20046Y-29663D01*
X19951Y-29623D01*
X19835Y-29575D01*
X19675Y-29575D01*
X19300Y-29200D01*
X19300Y-22884D01*
X19317Y-22866D01*
X19330Y-22909D01*
X19542Y-22985D01*
X19765Y-22973D01*
X19922Y-22909D01*
X19951Y-22813D01*
X19661Y-22523D01*
X19626Y-22488D01*
X19555Y-22417D01*
X19626Y-22346D01*
X19661Y-22311D01*
X19951Y-22021D01*
X19922Y-21925D01*
X19911Y-21921D01*
X19951Y-21905D01*
X20113Y-21743D01*
X20201Y-21532D01*
X20201Y-21303D01*
X20114Y-21092D01*
X19952Y-20930D01*
X19951Y-20929D01*
X19951Y-14113D01*
X19626Y-13788D01*
X19555Y-13859D01*
X19555Y-13717D01*
X19230Y-13392D01*
X19134Y-13421D01*
X19058Y-13633D01*
X19070Y-13856D01*
X19134Y-14013D01*
X19230Y-14042D01*
X19555Y-13717D01*
X19555Y-13859D01*
X19301Y-14113D01*
X19330Y-14209D01*
X19542Y-14285D01*
X19765Y-14273D01*
X19922Y-14209D01*
X19951Y-14113D01*
X19951Y-20929D01*
X19741Y-20842D01*
X19512Y-20842D01*
X19301Y-20929D01*
X19139Y-21091D01*
X19051Y-21302D01*
X19051Y-21462D01*
X18660Y-21853D01*
X18579Y-21974D01*
X18550Y-22118D01*
X18550Y-27933D01*
X18476Y-27754D01*
X18476Y-23587D01*
X18476Y-23249D01*
X18476Y-19587D01*
X18476Y-19249D01*
X18476Y-14887D01*
X18476Y-14549D01*
X18476Y-10887D01*
X18476Y-10549D01*
X18347Y-10237D01*
X18108Y-09997D01*
X17796Y-09867D01*
X17458Y-09867D01*
X17146Y-09996D01*
X16906Y-10235D01*
X16776Y-10547D01*
X16776Y-10885D01*
X16905Y-11197D01*
X17144Y-11437D01*
X17456Y-11567D01*
X17794Y-11567D01*
X18106Y-11438D01*
X18346Y-11199D01*
X18476Y-10887D01*
X18476Y-14549D01*
X18347Y-14237D01*
X18108Y-13997D01*
X17796Y-13867D01*
X17458Y-13867D01*
X17146Y-13996D01*
X16906Y-14235D01*
X16776Y-14547D01*
X16776Y-14885D01*
X16905Y-15197D01*
X17144Y-15437D01*
X17456Y-15567D01*
X17794Y-15567D01*
X18106Y-15438D01*
X18346Y-15199D01*
X18476Y-14887D01*
X18476Y-19249D01*
X18347Y-18937D01*
X18108Y-18697D01*
X17796Y-18567D01*
X17458Y-18567D01*
X17146Y-18696D01*
X16906Y-18935D01*
X16776Y-19247D01*
X16776Y-19585D01*
X16905Y-19897D01*
X17144Y-20137D01*
X17456Y-20267D01*
X17794Y-20267D01*
X18106Y-20138D01*
X18346Y-19899D01*
X18476Y-19587D01*
X18476Y-23249D01*
X18347Y-22937D01*
X18108Y-22697D01*
X17796Y-22567D01*
X17458Y-22567D01*
X17146Y-22696D01*
X16906Y-22935D01*
X16776Y-23247D01*
X16776Y-23585D01*
X16905Y-23897D01*
X17144Y-24137D01*
X17456Y-24267D01*
X17794Y-24267D01*
X18106Y-24138D01*
X18346Y-23899D01*
X18476Y-23587D01*
X18476Y-27754D01*
X18441Y-27670D01*
X18202Y-27430D01*
X17890Y-27300D01*
X17552Y-27300D01*
X17240Y-27429D01*
X17000Y-27668D01*
X16870Y-27980D01*
X16870Y-28318D01*
X16999Y-28630D01*
X17238Y-28870D01*
X17550Y-29000D01*
X17888Y-29000D01*
X18200Y-28871D01*
X18440Y-28632D01*
X18550Y-28368D01*
X18550Y-29355D01*
X18579Y-29499D01*
X18660Y-29620D01*
X19145Y-30105D01*
X19145Y-30264D01*
X19232Y-30475D01*
X19394Y-30637D01*
X19434Y-30653D01*
X19424Y-30658D01*
X19395Y-30754D01*
X19720Y-31079D01*
X20045Y-30754D01*
X20016Y-30658D01*
X20005Y-30654D01*
X20045Y-30638D01*
X20207Y-30476D01*
X20295Y-30265D01*
X20295Y-37795D01*
X20288Y-37778D01*
X20288Y-31234D01*
X20276Y-31011D01*
X20212Y-30854D01*
X20116Y-30825D01*
X19791Y-31150D01*
X20116Y-31475D01*
X20212Y-31446D01*
X20288Y-31234D01*
X20288Y-37778D01*
X20208Y-37584D01*
X20046Y-37422D01*
X20045Y-37421D01*
X20045Y-31546D01*
X19720Y-31221D01*
X19649Y-31292D01*
X19649Y-31150D01*
X19324Y-30825D01*
X19228Y-30854D01*
X19152Y-31066D01*
X19164Y-31289D01*
X19228Y-31446D01*
X19324Y-31475D01*
X19649Y-31150D01*
X19649Y-31292D01*
X19395Y-31546D01*
X19424Y-31642D01*
X19636Y-31718D01*
X19859Y-31706D01*
X20016Y-31642D01*
X20045Y-31546D01*
X20045Y-37421D01*
X19835Y-37334D01*
X19606Y-37334D01*
X19395Y-37421D01*
X19233Y-37583D01*
X19145Y-37794D01*
X19145Y-38023D01*
X19232Y-38234D01*
X19394Y-38396D01*
X19434Y-38412D01*
X19424Y-38417D01*
X19395Y-38513D01*
X19685Y-38803D01*
X19720Y-38838D01*
X19791Y-38909D01*
X19720Y-38980D01*
X19685Y-39015D01*
X19649Y-39051D01*
X19649Y-38909D01*
X19324Y-38584D01*
X19228Y-38613D01*
X19152Y-38825D01*
X19164Y-39048D01*
X19228Y-39205D01*
X19324Y-39234D01*
X19649Y-38909D01*
X19649Y-39051D01*
X19395Y-39305D01*
X19424Y-39401D01*
X19636Y-39477D01*
X19859Y-39465D01*
X19969Y-39420D01*
X19969Y-44811D01*
X19686Y-45094D01*
X19528Y-45094D01*
X19317Y-45181D01*
X19155Y-45343D01*
X19067Y-45554D01*
X19067Y-45783D01*
X19154Y-45994D01*
X19316Y-46156D01*
X19356Y-46172D01*
X19346Y-46177D01*
X19317Y-46273D01*
X19642Y-46598D01*
X19967Y-46273D01*
X19938Y-46177D01*
X19927Y-46173D01*
X19967Y-46157D01*
X20129Y-45995D01*
X20217Y-45784D01*
X20217Y-45624D01*
X20609Y-45233D01*
X20609Y-45232D01*
X20649Y-45171D01*
X20690Y-45111D01*
X20690Y-45110D01*
X20718Y-44968D01*
X20719Y-44967D01*
X20719Y-51999D01*
X20210Y-52508D01*
X20210Y-46753D01*
X20198Y-46530D01*
X20134Y-46373D01*
X20038Y-46344D01*
X19713Y-46669D01*
X20038Y-46994D01*
X20134Y-46965D01*
X20210Y-46753D01*
X20210Y-52508D01*
X19967Y-52751D01*
X19967Y-47065D01*
X19642Y-46740D01*
X19571Y-46811D01*
X19571Y-46669D01*
X19246Y-46344D01*
X19150Y-46373D01*
X19074Y-46585D01*
X19086Y-46808D01*
X19150Y-46965D01*
X19246Y-46994D01*
X19571Y-46669D01*
X19571Y-46811D01*
X19317Y-47065D01*
X19346Y-47161D01*
X19558Y-47237D01*
X19781Y-47225D01*
X19938Y-47161D01*
X19967Y-47065D01*
X19967Y-52751D01*
X19679Y-53039D01*
X19520Y-53039D01*
X19309Y-53126D01*
X19147Y-53288D01*
X19059Y-53499D01*
X19059Y-53728D01*
X19146Y-53939D01*
X19308Y-54101D01*
X19348Y-54117D01*
X19338Y-54122D01*
X19309Y-54218D01*
X19634Y-54543D01*
X19959Y-54218D01*
X19930Y-54122D01*
X19919Y-54118D01*
X19959Y-54102D01*
X20121Y-53940D01*
X20209Y-53729D01*
X20209Y-53569D01*
X21645Y-52133D01*
X21726Y-52012D01*
X21726Y-52011D01*
X21755Y-51868D01*
X21755Y-36236D01*
X22755Y-35236D01*
X22755Y-35285D01*
X22835Y-35478D01*
X22982Y-35626D01*
X23122Y-35684D01*
X23013Y-35729D01*
X22990Y-35820D01*
X23280Y-36110D01*
X23570Y-35820D01*
X23547Y-35729D01*
X23428Y-35687D01*
X23577Y-35626D01*
X23725Y-35479D01*
X23805Y-35286D01*
X23805Y-37077D01*
X23799Y-37062D01*
X23799Y-36255D01*
X23788Y-36051D01*
X23732Y-35914D01*
X23641Y-35891D01*
X23351Y-36181D01*
X23641Y-36471D01*
X23732Y-36448D01*
X23799Y-36255D01*
X23799Y-37062D01*
X23725Y-36884D01*
X23578Y-36736D01*
X23437Y-36677D01*
X23547Y-36633D01*
X23570Y-36542D01*
X23280Y-36252D01*
X23209Y-36323D01*
X23209Y-36181D01*
X22919Y-35891D01*
X22828Y-35914D01*
X22761Y-36107D01*
X22772Y-36311D01*
X22828Y-36448D01*
X22919Y-36471D01*
X23209Y-36181D01*
X23209Y-36323D01*
X22990Y-36542D01*
X23013Y-36633D01*
X23131Y-36674D01*
X22983Y-36736D01*
X22835Y-36883D01*
X22755Y-37076D01*
X22755Y-37285D01*
X22835Y-37478D01*
X22982Y-37626D01*
X23175Y-37706D01*
X23384Y-37706D01*
X23577Y-37626D01*
X23725Y-37479D01*
X23805Y-37286D01*
X23805Y-42427D01*
X22731Y-43502D01*
X22650Y-43623D01*
X22621Y-43767D01*
X22621Y-47267D01*
X22650Y-47411D01*
X22731Y-47532D01*
X26887Y-51689D01*
X26888Y-51689D01*
X26948Y-51729D01*
X27009Y-51770D01*
X27010Y-51770D01*
X27152Y-51798D01*
X27153Y-51799D01*
X31626Y-51799D01*
X31853Y-52025D01*
X31640Y-52114D01*
X31476Y-52278D01*
X31313Y-52115D01*
X31094Y-52024D01*
X30858Y-52024D01*
X30640Y-52114D01*
X30476Y-52278D01*
X30313Y-52115D01*
X30094Y-52024D01*
X29858Y-52024D01*
X29640Y-52114D01*
X29476Y-52278D01*
X29313Y-52115D01*
X29094Y-52024D01*
X28858Y-52024D01*
X28640Y-52114D01*
X28476Y-52278D01*
X28313Y-52115D01*
X28094Y-52024D01*
X27858Y-52024D01*
X27640Y-52114D01*
X27473Y-52281D01*
X27463Y-52303D01*
X27386Y-52279D01*
X27315Y-52350D01*
X27315Y-52208D01*
X27284Y-52110D01*
X27066Y-52030D01*
X26834Y-52040D01*
X26668Y-52110D01*
X26637Y-52208D01*
X26976Y-52547D01*
X27315Y-52208D01*
X27315Y-52350D01*
X27047Y-52618D01*
X27386Y-52957D01*
X27463Y-52932D01*
X27472Y-52954D01*
X27535Y-53017D01*
X27535Y-55753D01*
X27533Y-55754D01*
X27463Y-55824D01*
X27425Y-55915D01*
X27425Y-56014D01*
X27425Y-56486D01*
X27463Y-56578D01*
X27533Y-56648D01*
X27624Y-56686D01*
X27723Y-56686D01*
X28195Y-56686D01*
X28287Y-56648D01*
X28323Y-56612D01*
X28359Y-56648D01*
X28450Y-56686D01*
X28549Y-56686D01*
X29021Y-56686D01*
X29113Y-56648D01*
X29183Y-56578D01*
X29183Y-56576D01*
X29222Y-56576D01*
X29365Y-56547D01*
X29366Y-56547D01*
X29487Y-56466D01*
X29613Y-56340D01*
X29613Y-56344D01*
X29625Y-56344D01*
X29613Y-56356D01*
X29614Y-56470D01*
X29614Y-56569D01*
X29652Y-56660D01*
X29722Y-56730D01*
X29814Y-56768D01*
X29926Y-56769D01*
X29988Y-56707D01*
X29988Y-56344D01*
X29988Y-56294D01*
X29988Y-56194D01*
X30088Y-56194D01*
X30088Y-56294D01*
X30088Y-56344D01*
X30088Y-56707D01*
X30150Y-56769D01*
X30262Y-56768D01*
X30354Y-56730D01*
X30413Y-56671D01*
X30472Y-56730D01*
X30563Y-56768D01*
X30662Y-56768D01*
X31012Y-56768D01*
X31104Y-56730D01*
X31174Y-56660D01*
X31212Y-56569D01*
X31212Y-56470D01*
X31212Y-55920D01*
X31174Y-55828D01*
X31163Y-55817D01*
X31163Y-55719D01*
X31134Y-55575D01*
X31053Y-55454D01*
X30932Y-55373D01*
X30788Y-55344D01*
X29704Y-55344D01*
X29560Y-55373D01*
X29499Y-55413D01*
X29438Y-55454D01*
X29125Y-55766D01*
X29113Y-55754D01*
X29022Y-55716D01*
X28923Y-55716D01*
X28451Y-55716D01*
X28359Y-55754D01*
X28323Y-55790D01*
X28287Y-55754D01*
X28285Y-55753D01*
X28285Y-53133D01*
X28312Y-53122D01*
X28476Y-52958D01*
X28639Y-53121D01*
X28858Y-53212D01*
X29094Y-53212D01*
X29312Y-53122D01*
X29476Y-52958D01*
X29639Y-53121D01*
X29858Y-53212D01*
X30094Y-53212D01*
X30312Y-53122D01*
X30476Y-52958D01*
X30639Y-53121D01*
X30858Y-53212D01*
X31094Y-53212D01*
X31312Y-53122D01*
X31476Y-52958D01*
X31639Y-53121D01*
X31858Y-53212D01*
X32094Y-53212D01*
X32312Y-53122D01*
X32476Y-52958D01*
X32639Y-53121D01*
X32858Y-53212D01*
X33094Y-53212D01*
X33312Y-53122D01*
X33476Y-52958D01*
X33639Y-53121D01*
X33858Y-53212D01*
X34094Y-53212D01*
X34312Y-53122D01*
X34476Y-52958D01*
X34639Y-53121D01*
X34858Y-53212D01*
X35094Y-53212D01*
X35312Y-53122D01*
X35476Y-52958D01*
X35639Y-53121D01*
X35858Y-53212D01*
X36094Y-53212D01*
X36312Y-53122D01*
X36476Y-52958D01*
X36639Y-53121D01*
X36858Y-53212D01*
X37094Y-53212D01*
X37312Y-53122D01*
X37476Y-52958D01*
X37639Y-53121D01*
X37858Y-53212D01*
X38094Y-53212D01*
X38119Y-53201D01*
X38123Y-60300D01*
M02*
